<svg width="1080" height="458" viewBox="0 0 1080 458" fill="none" xmlns="http://www.w3.org/2000/svg">
<g clip-path="url(#clip0_2741_50757)">
<rect width="1080" height="458" fill="white"/>
<path d="M0 4C0 1.79086 1.79086 0 4 0H1075.94C1078.15 0 1079.94 1.79086 1079.94 4V458H0V4Z" fill="url(#paint0_linear_2741_50757)"/>
<path d="M254.781 129.429C254.781 121.145 261.497 114.429 269.781 114.429H776.951C785.235 114.429 791.951 121.145 791.951 129.429V144.209H254.781V129.429Z" fill="#4382B8"/>
<path d="M255.281 144.709H791.451V354.154H255.281V144.709Z" fill="url(#paint1_linear_2741_50757)" stroke="url(#paint2_linear_2741_50757)"/>
<rect x="427.589" y="183.717" width="243.338" height="21.4166" rx="4" fill="#EDEDED"/>
<rect x="427.589" y="222.895" width="128.4" height="21.4166" rx="4" fill="#EDEDED"/>
<rect x="399.828" y="278.673" width="74.5546" height="21.4166" rx="4" fill="#EDEDED"/>
<path d="M665.099 271.504C662.868 293.244 648.432 310.456 630.163 315.745C630.163 315.745 630.163 315.745 630.147 315.745C629.942 315.796 629.74 315.859 629.535 315.895C624.613 317.243 619.422 317.717 614.128 317.176C612.529 317.015 610.97 316.766 609.434 316.427C607.457 315.985 605.503 315.417 603.62 314.715C600.904 313.717 598.306 312.416 595.87 310.893C581.288 301.763 572.087 284.07 573.259 264.5C573.314 263.699 573.377 262.914 573.46 262.129C574.42 252.79 577.625 244.291 582.413 237.215C582.461 237.164 582.496 237.097 582.544 237.03C582.844 236.58 583.171 236.146 583.487 235.712C583.519 235.673 583.538 235.633 583.57 235.594C583.617 235.527 583.669 235.448 583.732 235.385C585.508 232.963 587.525 230.707 589.685 228.68C589.716 228.641 589.748 228.617 589.779 228.589C599.1 219.865 611.436 215.116 624.455 216.45C638.382 217.873 650.165 225.998 657.464 237.653C659.568 241.021 661.317 244.697 662.604 248.578C662.845 249.28 663.054 249.982 663.263 250.696C664.151 253.784 664.783 257.018 665.106 260.335C665.205 261.167 665.276 262.007 665.316 262.859C665.407 264.736 665.41 266.633 665.328 268.562C665.328 268.562 665.324 268.606 665.324 268.732C665.26 269.651 665.197 270.566 665.099 271.504Z" fill="#3A312E"/>
<path d="M665.461 435.454C633.008 459.039 603.169 450.074 579.673 430.464C560.172 417.268 535.697 392.026 546.356 349.825C550.552 339.767 561.716 314.648 567.195 298.031C572.741 281.206 572.978 266.463 572.978 266.463C572.978 266.463 657.167 248.226 662.611 248.573C667.399 260.768 667.352 279.684 668.445 293.673C669.835 311.469 685.771 360.58 685.163 378.809C684.583 396.187 678.851 425.724 665.461 435.454Z" fill="#3A312E"/>
<path d="M600.293 354.633C600.293 354.633 608.693 421.323 593.325 431.557C580.413 440.159 513.948 447.661 513.948 447.661V457.008H609.23C616.509 457.008 622.411 451.112 622.411 443.839L630.898 354.211L600.293 354.633Z" fill="url(#paint3_radial_2741_50757)"/>
<path d="M687.694 458C687.694 458 691.021 450.343 691.021 446.162C691.021 428.421 669.778 414.041 643.579 414.041C617.76 414.041 596.755 428.007 596.149 445.389L565.956 447.097C552.934 448.592 542.029 457.994 542.029 457.994L687.694 458Z" fill="#999999"/>
<path d="M596.099 453.411H689.328C689.328 453.411 695.052 412.851 690.031 377.082C685.322 343.566 678.445 326.058 668.813 318.541C667.755 317.721 666.661 316.944 665.533 316.222C658.944 312.006 651.112 309.568 642.716 309.568C634.339 309.568 626.527 311.99 619.95 316.186C618.821 316.908 617.728 317.677 616.674 318.498C607.01 326.011 600.686 337.614 600.315 350.713H600.295L600.311 350.799C600.311 350.803 600.311 350.811 600.311 350.815C600.299 351.19 600.295 351.568 600.295 351.943C600.295 357.07 606.386 403.235 603.951 418.167L596.099 453.411Z" fill="url(#paint4_radial_2741_50757)"/>
<path d="M665.525 316.225C658.83 320.098 640.612 325.75 632.318 325.75C624.001 325.75 619.145 322.366 619.939 316.186C626.515 311.99 635.678 303.679 642.495 301.664C647.548 307.217 656.888 312.009 665.525 316.225Z" fill="#BF8F68"/>
<path d="M657.173 312.215L631.679 321.901L619.936 302.832C619.936 302.832 634.072 289.552 639.744 285.451C644.264 300.872 657.173 312.215 657.173 312.215Z" fill="#BF8F68"/>
<path d="M654.877 351.955C654.877 351.955 671.966 422.139 651.695 433.486C631.424 444.833 576.672 447.661 576.672 447.661V457.008C576.672 457.008 655.098 460.191 669.127 454.461C684.779 448.063 686.915 443.796 690.472 431.711C694.028 419.627 685.135 351.959 685.135 351.959H654.877V351.955Z" fill="#C4BEBB"/>
<path d="M594.534 450.287H503.156L485.203 398.246C484.512 396.242 486 394.152 488.124 394.152H572.297C574.015 394.152 575.542 395.24 576.103 396.861L594.534 450.287Z" fill="#696969"/>
<path d="M607.247 457.005H506.06C504.536 457.005 503.3 455.77 503.3 454.248V453.045C503.3 451.523 504.536 450.288 506.06 450.288H607.247C608.771 450.288 610.006 451.523 610.006 453.045V454.248C610.006 455.77 608.771 457.005 607.247 457.005Z" fill="#696969"/>
<path d="M657.173 312.215L631.679 321.901L619.936 302.832C619.936 302.832 634.072 289.552 639.744 285.451C644.264 300.872 657.173 312.215 657.173 312.215Z" fill="url(#paint5_radial_2741_50757)"/>
<path d="M608.71 281.408C606.898 284.46 603.247 291.355 602.173 293.279C601.269 294.9 605.868 298.308 609.303 297.732C616.965 296.446 617.064 284.618 608.71 281.408Z" fill="#BF8F68"/>
<path d="M593.1 299.322C589.894 299.322 587.02 296.79 586.55 293.429C586.298 291.627 586.756 289.88 587.841 288.503C588.86 287.21 590.324 286.413 591.963 286.255C595.393 285.928 598.595 288.554 599.096 292.116C599.349 293.918 598.891 295.666 597.805 297.042C596.787 298.336 595.322 299.132 593.684 299.29C593.49 299.314 593.293 299.322 593.1 299.322ZM592.551 288.59C592.429 288.59 592.31 288.594 592.188 288.606C591.201 288.7 590.313 289.186 589.697 289.966C589.014 290.83 588.729 291.942 588.891 293.102C589.219 295.429 591.268 297.156 593.459 296.943C594.446 296.849 595.334 296.364 595.95 295.583C596.633 294.719 596.917 293.607 596.755 292.447C596.447 290.25 594.6 288.59 592.551 288.59Z" fill="#C84936"/>
<path d="M645.1 265.537C648.227 285.659 634.367 304.441 619.84 306.062C605.313 307.683 590.999 292.684 587.876 272.561C584.754 252.439 594.283 236.662 608.814 235.041C623.337 233.42 641.974 245.414 645.1 265.537Z" fill="#BF8F68"/>
<path opacity="0.5" d="M609.969 292.604C610.766 292.842 611.324 292.842 611.962 292.763C612.52 292.683 613.078 292.604 613.636 292.365C614.194 292.126 614.751 291.887 615.23 291.568C615.788 291.25 616.266 290.931 616.744 290.294L616.824 290.215C617.063 289.976 617.382 289.976 617.621 290.215C617.7 290.294 617.78 290.374 617.78 290.533C618.019 291.568 617.621 292.683 616.983 293.479C616.346 294.276 615.469 294.913 614.512 295.231C613.556 295.55 612.44 295.629 611.404 295.311C610.368 294.992 609.491 294.276 609.093 293.32C609.013 293.002 609.093 292.683 609.412 292.604C609.651 292.604 609.81 292.524 609.969 292.604Z" fill="#B54141"/>
<path d="M599.714 279.928C601.008 279.593 601.571 277.443 600.97 275.127C600.37 272.81 598.834 271.203 597.539 271.538C596.245 271.873 595.683 274.022 596.283 276.339C596.883 278.656 598.419 280.263 599.714 279.928Z" fill="#33312D"/>
<path d="M615.9 274.966C617.25 274.692 617.946 272.512 617.455 270.096C616.964 267.681 615.472 265.944 614.123 266.218C612.773 266.492 612.077 268.672 612.568 271.088C613.059 273.503 614.551 275.239 615.9 274.966Z" fill="#33312D"/>
<path d="M596.166 233.345C596.166 233.345 600.761 246.463 616.705 250.963C639.739 257.463 643.947 267.343 644.117 267.552C661.905 270.526 656.335 253.038 638.634 234.679C620.471 215.846 596.166 233.345 596.166 233.345Z" fill="#3A312E"/>
<path d="M637.607 284.153L647.804 283.013C652.146 282.528 655.119 278.592 654.44 274.222C653.761 269.852 649.691 266.704 645.344 267.189L635.148 268.329L637.607 284.153Z" fill="#BF8F68"/>
<path d="M647.032 293.745C643.826 293.745 640.952 291.213 640.482 287.852C640.23 286.05 640.688 284.303 641.773 282.926C642.792 281.633 644.256 280.836 645.895 280.678C649.329 280.347 652.527 282.977 653.028 286.543C653.281 288.345 652.823 290.092 651.737 291.469C650.719 292.763 649.254 293.559 647.62 293.717C647.423 293.737 647.225 293.745 647.032 293.745ZM646.483 283.013C646.361 283.013 646.242 283.017 646.12 283.029C645.133 283.123 644.245 283.608 643.629 284.389C642.946 285.253 642.662 286.365 642.823 287.525C643.151 289.852 645.2 291.579 647.391 291.366C648.378 291.272 649.262 290.787 649.882 290.006C650.565 289.142 650.849 288.03 650.687 286.87C650.379 284.669 648.532 283.013 646.483 283.013Z" fill="#C84936"/>
<path d="M0.0571289 457.205V457.999H1080V457.001H0.0571289L0.0571289 457.205Z" fill="#54B0FF"/>
<path d="M840.693 248.388L869.703 248.149L869.623 241.938C874.644 243.212 879.346 245.203 883.65 247.751C896.64 238.594 905.168 223.465 905.008 206.345C904.929 193.605 900.067 181.98 892.177 173.221C882.932 162.949 869.464 156.499 854.56 156.579C826.906 156.738 804.59 179.352 804.75 206.982C804.83 224.102 813.517 239.071 826.667 248.069C830.89 245.362 835.593 243.371 840.613 242.018L840.693 248.388Z" fill="#A7CBF6"/>
<path d="M879.186 172.504L829.216 172.822L825.629 170.832L829.216 168.761L879.186 168.443C880.062 168.443 880.78 169.319 880.78 170.513C880.78 171.628 880.062 172.504 879.186 172.504Z" fill="#F7B548"/>
<path d="M854.642 182.059C863.489 182.059 870.661 174.893 870.661 166.054C870.661 157.215 863.489 150.049 854.642 150.049C845.795 150.049 838.623 157.215 838.623 166.054C838.623 174.893 845.795 182.059 854.642 182.059Z" fill="#594539"/>
<path d="M854.642 182.059C863.489 182.059 870.661 174.893 870.661 166.054C870.661 157.215 863.489 150.049 854.642 150.049C845.795 150.049 838.623 157.215 838.623 166.054C838.623 174.893 845.795 182.059 854.642 182.059Z" fill="url(#paint6_radial_2741_50757)"/>
<path d="M864.285 206.683L845.236 206.815L845.566 254.192L864.614 254.06L864.285 206.683Z" fill="#E0BB95"/>
<path d="M864.681 254.041L845.554 254.2L845.314 215.502L864.362 215.343L864.681 254.041Z" fill="url(#paint7_radial_2741_50757)"/>
<path d="M854.88 231.985C872.222 231.985 886.281 217.939 886.281 200.612C886.281 183.285 872.222 169.239 854.88 169.239C837.538 169.239 823.479 183.285 823.479 200.612C823.479 217.939 837.538 231.985 854.88 231.985Z" fill="#594539"/>
<path d="M854.959 232.303C868.296 232.303 879.107 221.501 879.107 208.177C879.107 194.852 868.296 184.05 854.959 184.05C841.623 184.05 830.811 194.852 830.811 208.177C830.811 221.501 841.623 232.303 854.959 232.303Z" fill="#E0BB95"/>
<path d="M883.808 248.07L826.347 248.468C834.157 243.451 843.402 240.585 853.364 240.505H856.711C866.673 240.425 875.918 243.212 883.808 248.07Z" fill="#E0BB95"/>
<path d="M845.074 221.394C839.814 221.394 835.51 217.174 835.51 211.918C835.51 206.663 839.734 202.363 844.994 202.363C850.254 202.363 854.558 206.583 854.558 211.839C854.558 217.094 850.334 221.394 845.074 221.394ZM844.914 204.752C840.929 204.752 837.741 208.017 837.821 211.998C837.821 215.979 841.089 219.164 845.074 219.085C849.059 219.005 852.247 215.82 852.167 211.839C852.167 207.857 848.9 204.672 844.914 204.752Z" fill="#9A643D"/>
<path d="M864.759 221.235C859.499 221.235 855.195 217.015 855.195 211.759C855.195 206.504 859.419 202.204 864.679 202.204C869.94 202.204 874.243 206.424 874.243 211.68C874.243 216.935 870.019 221.235 864.759 221.235ZM864.6 204.593C860.615 204.593 857.426 207.858 857.506 211.839C857.506 215.82 860.774 219.005 864.759 218.926C868.744 218.926 871.932 215.661 871.852 211.68C871.852 207.778 868.585 204.593 864.6 204.593Z" fill="#9A643D"/>
<path d="M856.711 208.168L852.965 208.194L852.981 210.503L856.727 210.477L856.711 208.168Z" fill="#9A643D"/>
<path d="M820.771 252.608L820.691 252.688C820.851 252.608 820.931 252.449 821.09 252.369C820.931 252.449 820.851 252.529 820.771 252.608Z" fill="#FFD590"/>
<path d="M826.346 248.468C826.266 248.468 826.266 248.548 826.186 248.548C826.266 248.548 826.266 248.548 826.346 248.468Z" fill="#FFD590"/>
<path d="M840.694 248.387L840.774 254.917C845.396 256.27 850.257 256.987 855.278 256.987C860.299 256.987 865.161 256.191 869.783 254.757L869.703 248.228L840.694 248.387Z" fill="#FFD590"/>
<path d="M826.665 248.228C826.586 248.308 826.426 248.387 826.347 248.467H826.984C826.905 248.387 826.825 248.308 826.665 248.228Z" fill="#E1DFDD"/>
<path d="M826.983 248.467C831.127 251.254 835.75 253.404 840.692 254.916L840.612 248.387L840.532 242.176C835.511 243.53 830.888 245.521 826.584 248.228C826.824 248.307 826.903 248.387 826.983 248.467Z" fill="#E1DFDD"/>
<path d="M869.621 242.018L869.701 248.228L869.781 254.758C874.722 253.245 879.265 251.015 883.409 248.149C883.489 248.069 883.648 247.99 883.728 247.91C879.345 245.282 874.642 243.292 869.621 242.018Z" fill="#E1DFDD"/>
<path opacity="0.5" d="M851.611 222.748C852.408 222.987 852.965 222.987 853.603 222.907C854.161 222.828 854.719 222.748 855.277 222.509C855.835 222.27 856.393 222.031 856.871 221.713C857.429 221.394 857.907 221.076 858.385 220.439L858.465 220.359C858.704 220.12 859.023 220.12 859.262 220.359C859.342 220.439 859.421 220.519 859.421 220.678C859.66 221.713 859.262 222.828 858.624 223.624C857.987 224.42 857.11 225.057 856.154 225.376C855.197 225.694 854.081 225.774 853.045 225.455C852.009 225.137 851.132 224.42 850.734 223.465C850.654 223.146 850.734 222.828 851.053 222.748C851.292 222.748 851.451 222.668 851.611 222.748Z" fill="#9B643D"/>
<path d="M845.028 215.428C846.084 215.421 846.93 213.882 846.917 211.991C846.904 210.1 846.037 208.573 844.98 208.58C843.924 208.588 843.078 210.127 843.091 212.018C843.104 213.909 843.971 215.436 845.028 215.428Z" fill="#33312D"/>
<path d="M864.474 215.348C865.531 215.341 866.376 213.802 866.363 211.911C866.35 210.02 865.483 208.493 864.426 208.5C863.37 208.508 862.524 210.047 862.537 211.938C862.551 213.829 863.418 215.356 864.474 215.348Z" fill="#33312D"/>
<path d="M886.283 200.373C886.283 202.205 886.123 203.956 885.884 205.628C876.958 205.151 869.068 200.373 864.366 193.366C867.235 188.987 868.909 183.652 868.909 177.998C868.909 176.008 868.67 174.017 868.271 172.186C878.791 177.122 886.203 187.872 886.283 200.373Z" fill="#594539"/>
<path d="M868.192 172.186C868.591 174.097 868.83 176.008 868.83 177.998C868.83 183.652 867.236 188.987 864.287 193.366C861.338 188.987 859.584 183.731 859.584 178.078C859.584 175.211 859.983 172.425 860.78 169.797C863.41 170.275 865.881 171.071 868.192 172.186Z" fill="#594539"/>
<path d="M864.365 193.366C859.424 200.93 850.897 205.947 841.253 206.026C834.559 206.106 828.342 203.717 823.481 199.816C823.879 182.935 837.667 169.319 854.642 169.239C856.715 169.239 858.787 169.399 860.779 169.797C859.982 172.424 859.584 175.211 859.584 178.078C859.663 183.731 861.417 188.987 864.365 193.366Z" fill="#594539"/>
<path d="M730.226 406.469C729.717 402.004 722.339 382.659 727.024 371.351C731.71 360.044 740.557 348.413 744.173 350.053C747.789 351.694 744.816 364.307 739.787 377.543C734.971 390.216 735.709 400.774 734.718 408.35C733.51 417.583 730.226 406.469 730.226 406.469Z" fill="#BBE5E0"/>
<path d="M731.816 432.307C731.816 420.049 712.836 389.266 699.173 387.361C685.507 385.456 702.505 401.508 710.084 410.208C719.555 421.09 731.816 432.307 731.816 432.307Z" fill="#92D5CD"/>
<path d="M731.814 431.21C731.814 421.248 747.241 396.223 758.35 394.673C769.458 393.123 755.642 406.169 749.48 413.245C741.782 422.092 731.814 431.21 731.814 431.21Z" fill="#BBE5E0"/>
<path d="M731.262 424.296C731.605 419.816 730.792 397.973 737.526 387.751C744.257 377.528 754.213 370.093 757.458 372.381C760.699 374.672 753.08 385.337 745.647 397.39C738.529 408.93 735.403 416.467 735.205 425.779C735.004 435.099 731.262 424.296 731.262 424.296Z" fill="#92D5CD"/>
<path d="M707.797 361.605C713.923 360.426 726.607 376.155 730.12 390.492C733.633 404.832 733.361 427.041 733.361 427.041L730.27 427.558C730.27 427.558 721.657 403.124 716.959 395.311C710.923 385.278 700.735 362.966 707.797 361.605Z" fill="#92D5CD"/>
<path d="M731.353 420.821H730.978H707.818C706.464 420.821 705.418 422.016 705.6 423.357L708.035 441.318C709.22 450.062 716.692 456.582 725.523 456.582H730.978H731.353H736.809C745.64 456.582 753.112 450.058 754.297 441.318L756.732 423.357C756.914 422.016 755.872 420.821 754.514 420.821H731.353Z" fill="#C8C6C4"/>
<path d="M275 90.1726C276.008 88.0421 277.183 86.2394 278.862 84.6006C280.541 82.9618 282.388 81.8147 284.571 80.8314C286.754 79.8481 289.105 79.3564 291.623 79.3564H424.274C426.792 79.3564 429.143 79.8481 431.326 80.6675C433.509 81.4869 435.524 82.9618 437.203 84.4367C438.882 86.0756 440.057 87.8782 441.065 90.0087C441.904 92.303 442.408 94.5974 442.408 97.0556V191.287C442.408 193.745 441.904 196.04 441.065 198.17C440.225 200.3 438.882 202.267 437.203 203.742C435.524 205.381 433.677 206.528 431.494 207.511C429.311 208.494 426.96 208.822 424.442 208.822H331.586C330.915 208.822 330.411 209.15 330.075 209.478L317.65 222.752L314.963 225.702L298.508 243.237L296.325 245.368L295.653 246.023L295.15 245.859C294.646 246.187 294.142 246.515 293.638 246.679C291.791 247.498 289.776 247.99 287.593 247.99C285.579 247.99 283.899 247.662 282.052 246.843C280.709 246.351 279.534 245.532 278.526 244.712C278.19 244.384 277.855 244.22 277.687 243.893C276.343 242.746 275.336 241.271 274.664 239.468C273.993 237.829 273.657 236.026 273.657 234.06V139.992V97.0556C273.489 94.5974 273.993 92.303 275 90.1726Z" fill="#DBF1D7"/>
<path d="M415.479 107.346H301.987C298.222 107.346 295.17 110.398 295.17 114.163C295.17 117.928 298.222 120.98 301.987 120.98H415.479C419.244 120.98 422.296 117.928 422.296 114.163C422.296 110.398 419.244 107.346 415.479 107.346Z" fill="white"/>
<path d="M415.479 137.126H301.987C298.222 137.126 295.17 140.178 295.17 143.943C295.17 147.708 298.222 150.76 301.987 150.76H415.479C419.244 150.76 422.296 147.708 422.296 143.943C422.296 140.178 419.244 137.126 415.479 137.126Z" fill="white"/>
<path d="M415.479 166.897H301.987C298.222 166.897 295.17 169.95 295.17 173.715C295.17 177.48 298.222 180.532 301.987 180.532H415.479C419.244 180.532 422.296 177.48 422.296 173.715C422.296 169.95 419.244 166.897 415.479 166.897Z" fill="white"/>
<path d="M413.668 229.367L409.83 225.632C410.401 224.155 410.848 222.608 411.151 220.989C411.562 218.783 411.687 216.595 411.562 214.443L416.881 212.148C418.649 211.383 419.452 209.356 418.702 207.595L414.186 197.153C413.418 195.392 411.383 194.592 409.616 195.339L404.225 197.651C402.511 195.855 400.547 194.272 398.369 192.991L399.512 186.854C399.869 184.969 398.619 183.172 396.727 182.816L385.516 180.735C383.624 180.379 381.821 181.624 381.464 183.51L380.321 189.647C377.661 190.091 375.109 190.927 372.734 192.101L368.182 187.654C366.808 186.32 364.612 186.338 363.273 187.708L355.293 195.837C353.954 197.207 353.972 199.394 355.347 200.729L360.095 205.353C359.292 207.186 358.685 209.124 358.31 211.17C358.042 212.611 357.9 214.052 357.864 215.475L352.133 217.929C350.366 218.694 349.563 220.722 350.313 222.483L354.829 232.925C355.597 234.686 357.632 235.486 359.399 234.739L363.791 232.853C365.808 235.344 368.254 237.496 371.074 239.15L370.289 243.384C369.932 245.269 371.181 247.066 373.073 247.422L384.284 249.503C386.177 249.859 387.98 248.613 388.337 246.728L389.122 242.494C392.193 241.979 395.12 240.947 397.798 239.47L400.815 242.423C402.189 243.757 404.385 243.74 405.724 242.37L413.704 234.241C415.078 232.889 415.043 230.701 413.668 229.367ZM381.874 229.154C374.055 227.695 368.896 220.206 370.342 212.415C371.806 204.624 379.322 199.483 387.141 200.924C394.96 202.383 400.119 209.871 398.673 217.663C397.209 225.471 389.693 230.612 381.874 229.154Z" fill="#C8C6C4"/>
<path d="M518.407 174.089C517.659 172.507 516.787 171.169 515.54 169.952C514.294 168.736 512.923 167.884 511.302 167.154C509.682 166.425 507.937 166.06 506.067 166.06H407.597C405.727 166.06 403.982 166.425 402.361 167.033C400.741 167.641 399.245 168.736 397.999 169.831C396.752 171.047 395.88 172.386 395.132 173.967C394.509 175.67 394.135 177.373 394.135 179.198V249.149C394.135 250.974 394.509 252.677 395.132 254.259C395.755 255.84 396.752 257.3 397.999 258.395C399.245 259.611 400.616 260.463 402.237 261.193C403.857 261.923 405.602 262.166 407.472 262.166H476.401C476.9 262.166 477.274 262.409 477.523 262.653L486.747 272.507L488.741 274.696L500.957 287.713L502.577 289.295L503.076 289.781L503.449 289.66C503.823 289.903 504.197 290.146 504.571 290.268C505.942 290.876 507.438 291.241 509.059 291.241C510.554 291.241 511.801 290.998 513.172 290.39C514.169 290.025 515.042 289.417 515.789 288.808C516.039 288.565 516.288 288.443 516.413 288.2C517.41 287.348 518.158 286.254 518.656 284.915C519.155 283.699 519.404 282.361 519.404 280.901V211.071V179.198C519.529 177.373 519.155 175.67 518.407 174.089Z" fill="#C7E0F4"/>
<path d="M414.122 186.835H498.37C501.165 186.835 503.431 189.101 503.431 191.895C503.431 194.69 501.165 196.956 498.37 196.956H414.122C411.327 196.956 409.061 194.69 409.061 191.895C409.061 189.101 411.327 186.835 414.122 186.835Z" fill="white"/>
<path d="M414.122 208.946H498.37C501.165 208.946 503.431 211.211 503.431 214.006C503.431 216.801 501.165 219.067 498.37 219.067H414.122C411.327 219.067 409.061 216.801 409.061 214.006C409.061 211.211 411.327 208.946 414.122 208.946Z" fill="white"/>
<path d="M414.122 231.045H498.37C501.165 231.045 503.431 233.311 503.431 236.105C503.431 238.9 501.165 241.166 498.37 241.166H414.122C411.327 241.166 409.061 238.9 409.061 236.105C409.061 233.311 411.327 231.045 414.122 231.045Z" fill="white"/>
<path d="M177.734 274.361C177.107 275.682 176.829 277.213 177.246 278.743L185.879 314.076L187.689 321.449C188.524 324.927 192.075 327.083 195.556 326.248L206.555 323.536L263.78 309.555C267.26 308.721 269.418 305.173 268.583 301.696L265.52 289.176L259.742 265.388L258.21 258.989C257.793 257.25 256.679 255.859 255.286 255.025C253.824 254.12 252.084 253.773 250.344 254.26L182.12 270.883C180.031 271.37 178.5 272.691 177.734 274.361Z" fill="#D8EAF7"/>
<path d="M179.615 276.03L219.226 298.496C222.359 300.235 226.467 299.261 228.416 296.27L255.218 255.025C253.756 254.12 252.016 253.773 250.275 254.26L182.051 270.883C180.102 271.37 178.57 272.691 177.805 274.361C178.014 274.917 178.64 275.543 179.615 276.03Z" fill="#C7E0F4"/>
<path d="M230.945 161.039C230.54 160.77 230.091 160.635 229.597 160.635C228.52 160.635 227.891 159.872 226.678 158.033C225.241 156.014 223.4 153.277 219.628 153.277C215.856 153.277 214.015 156.014 212.623 157.988C211.365 159.827 210.781 160.59 209.659 160.59C208.581 160.59 207.952 159.827 206.74 157.988C205.393 156.014 203.551 153.277 199.779 153.277C196.007 153.277 194.166 156.014 192.774 157.988C191.516 159.827 190.888 160.59 189.81 160.59C188.732 160.59 188.103 159.827 186.846 157.988C185.544 156.014 183.703 153.277 179.885 153.277C178.538 153.277 177.46 154.354 177.46 155.7C177.46 157.046 178.538 158.122 179.885 158.122C180.963 158.122 181.592 158.885 182.849 160.725C184.196 162.744 186.038 165.436 189.855 165.436C193.627 165.436 195.468 162.699 196.86 160.725C198.118 158.885 198.701 158.122 199.824 158.122C200.902 158.122 201.531 158.885 202.788 160.725C204.135 162.744 205.976 165.436 209.793 165.436C213.566 165.436 215.407 162.699 216.799 160.725C218.056 158.885 218.64 158.122 219.763 158.122C220.84 158.122 221.469 158.885 222.682 160.725C224.029 162.744 225.87 165.436 229.687 165.436C231.034 165.436 232.112 164.359 232.112 163.013C231.977 162.205 231.573 161.443 230.945 161.039Z" fill="#C7E0F4"/>
<path d="M869.505 323.039C869.1 322.77 868.651 322.636 868.157 322.636C867.08 322.636 866.451 321.873 865.238 320.033C863.801 318.014 861.96 315.277 858.188 315.277C854.416 315.277 852.575 318.014 851.183 319.988C849.925 321.828 849.341 322.591 848.219 322.591C847.141 322.591 846.512 321.828 845.3 319.988C843.953 318.014 842.111 315.277 838.339 315.277C834.567 315.277 832.726 318.014 831.334 319.988C830.076 321.828 829.448 322.591 828.37 322.591C827.292 322.591 826.663 321.828 825.406 319.988C824.104 318.014 822.263 315.277 818.445 315.277C817.098 315.277 816.021 316.354 816.021 317.7C816.021 319.046 817.098 320.123 818.445 320.123C819.523 320.123 820.152 320.886 821.409 322.725C822.757 324.744 824.598 327.436 828.415 327.436C832.187 327.436 834.028 324.699 835.42 322.725C836.678 320.886 837.261 320.123 838.384 320.123C839.462 320.123 840.091 320.886 841.348 322.725C842.695 324.744 844.536 327.436 848.353 327.436C852.126 327.436 853.967 324.699 855.359 322.725C856.616 320.886 857.2 320.123 858.323 320.123C859.401 320.123 860.029 320.886 861.242 322.725C862.589 324.744 864.43 327.436 868.247 327.436C869.594 327.436 870.672 326.359 870.672 325.013C870.537 324.206 870.133 323.443 869.505 323.039Z" fill="#C7E0F4"/>
<path d="M297.091 347.47C297.091 374.874 319.381 397.144 346.809 397.144C374.236 397.144 396.526 374.874 396.526 347.47C396.526 320.067 374.236 297.797 346.809 297.797C332.028 297.797 318.669 304.273 309.58 314.539C301.833 323.305 297.091 334.835 297.091 347.47Z" fill="#F1F1F1"/>
<path d="M342.229 377.326C329.424 377.326 318.2 377.721 311.64 382.617C320.65 391.62 333.06 397.148 346.814 397.148C360.646 397.148 373.135 391.541 382.146 382.459C375.585 377.721 364.44 377.326 351.793 377.326H342.229Z" fill="#3E8EED"/>
<path d="M360.399 341.631H331.864C326.569 341.631 322.3 337.367 322.3 332.076V317.229C322.3 304.988 332.26 295.038 344.511 295.038H347.752C360.004 295.038 369.963 304.988 369.963 317.229V332.076C369.963 337.367 365.616 341.631 360.399 341.631Z" fill="#33312D"/>
<path d="M358.355 342.496H334.879V373.374C334.879 376.691 329.03 378.112 329.03 378.112L364.995 377.954C364.995 377.954 358.434 376.375 358.434 373.058L358.355 342.496Z" fill="url(#paint8_radial_2741_50757)"/>
<path d="M318.352 337.523C318.352 341.708 321.672 345.104 325.861 345.104C326.177 345.104 329.813 345.104 330.13 345.025C333.924 344.63 333.529 341.471 333.529 337.523C333.529 333.653 334.082 330.494 330.367 329.941C330.05 329.862 326.335 329.862 326.019 329.862C321.83 330.02 318.431 333.337 318.352 337.523Z" fill="#9B643D"/>
<path d="M349.019 365.002H343.17C333.606 365.002 325.938 357.263 325.938 347.786V320.856C325.938 311.301 333.685 303.562 343.17 303.562H349.019C358.583 303.562 366.25 311.301 366.25 320.777V347.786C366.25 357.342 358.504 365.002 349.019 365.002Z" fill="#9B643D"/>
<path d="M356.552 332.003C356.563 329.997 355.687 328.365 354.596 328.359C353.504 328.353 352.61 329.975 352.599 331.981C352.588 333.987 353.464 335.619 354.555 335.625C355.647 335.631 356.54 334.009 356.552 332.003Z" fill="#3A312E"/>
<path d="M330.766 357.501L345.468 357.265L345.864 346.129C345.864 345.261 345.468 344.55 344.757 344.076L341.2 341.707C340.409 341.233 340.172 340.128 340.726 339.338L343.808 334.521C344.52 333.336 344.915 332.072 344.915 330.651L344.994 313.672L329.501 313.909L330.766 357.501Z" fill="url(#paint9_radial_2741_50757)"/>
<path d="M339.381 331.979C339.392 329.973 338.517 328.341 337.425 328.335C336.334 328.329 335.44 329.951 335.429 331.957C335.418 333.963 336.293 335.595 337.385 335.601C338.476 335.607 339.37 333.985 339.381 331.979Z" fill="#3A312E"/>
<path d="M373.996 337.523C373.996 341.708 370.676 345.104 366.486 345.104C366.17 345.104 362.534 345.104 362.218 345.025C358.423 344.63 358.819 341.471 358.819 337.523C358.819 333.653 358.265 330.494 361.981 329.941C362.297 329.862 366.012 329.862 366.328 329.862C370.597 330.02 373.996 333.337 373.996 337.523Z" fill="#9B643D"/>
<path d="M353.05 350.237C353.05 351.501 352.496 352.686 351.627 353.633C350.757 354.581 349.572 355.292 348.307 355.687C347.042 356.002 345.698 356.002 344.434 355.608C343.248 355.213 342.062 354.502 341.43 353.396C341.193 353.001 341.351 352.528 341.746 352.291C341.904 352.212 342.062 352.212 342.141 352.212H342.22C343.248 352.212 344.117 352.212 344.908 352.133C345.698 352.054 346.41 351.896 347.121 351.738C347.833 351.58 348.465 351.343 349.176 350.948C349.888 350.632 350.599 350.158 351.548 349.606L351.627 349.527C352.022 349.29 352.496 349.448 352.733 349.764C353.05 349.922 353.05 350.079 353.05 350.237Z" fill="#855035"/>
<path d="M359.606 299.457H332.574L324.116 312.25L325.776 330.019L328.068 317.067C328.938 312.961 332.574 310.039 336.763 310.039H355.575C359.764 310.039 363.4 312.961 364.27 317.067L366.562 330.019L368.222 312.25L359.606 299.457Z" fill="#461525"/>
<path d="M364.982 377.874C363.401 381.506 354.706 390.272 349.964 394.853C348.225 396.511 345.537 396.511 343.799 394.774C339.214 390.193 330.757 381.506 329.018 378.032C334.867 375.742 347.514 375.031 347.514 375.031C347.514 375.031 358.105 375.426 364.982 377.874Z" fill="#9B643D"/>
<path d="M324.09 344.348C327.417 344.348 330.114 339.946 330.114 334.515C330.114 329.085 327.417 324.682 324.09 324.682C320.763 324.682 318.066 329.085 318.066 334.515C318.066 339.946 320.763 344.348 324.09 344.348Z" fill="#6264A7"/>
<path d="M322.747 344.295C326.081 344.295 328.77 339.889 328.77 334.462C328.77 329.035 326.028 324.629 322.747 324.629H321.671C318.39 324.683 315.647 329.035 315.647 334.516C315.647 339.996 318.39 344.349 321.671 344.349" fill="#33312D"/>
<path d="M344.588 298.996C343.996 298.996 342.598 298.835 344.426 298.835C351.203 298.673 368.305 299.426 369.058 325.271C369.058 325.593 365.562 325.862 365.562 325.701C366.476 311.677 358.786 300.07 344.588 298.996Z" fill="#33312D"/>
<path d="M346.469 298.996C347.115 298.996 348.459 298.835 346.631 298.835C339.854 298.673 322.752 299.426 322 325.271C322 325.593 325.495 325.862 325.495 325.701C324.581 311.677 332.271 300.07 346.469 298.996Z" fill="#595553"/>
<path d="M367.124 344.354C370.451 344.354 373.148 339.952 373.148 334.521C373.148 329.091 370.451 324.688 367.124 324.688C363.797 324.688 361.101 329.091 361.101 334.521C361.101 339.952 363.797 344.354 367.124 344.354Z" fill="#6264A7"/>
<path d="M368.635 344.295C365.3 344.295 362.611 339.889 362.611 334.462C362.611 329.035 365.354 324.629 368.635 324.629H369.711C373.045 324.629 375.734 329.035 375.734 334.462C375.734 339.889 372.991 344.295 369.711 344.295" fill="#33312D"/>
<path d="M334.854 364.387C327.593 364.387 321.677 357.886 321.677 350.041V339.187" stroke="#33312D" stroke-width="3.8214" stroke-miterlimit="10" stroke-linecap="round" stroke-linejoin="round"/>
<path d="M501.983 128.619C499.878 128.489 497.941 127.548 496.534 125.956L496.223 126.23L495.913 126.504C498.801 129.771 498.472 134.773 495.202 137.659L495.75 138.279C497.344 136.873 499.382 136.178 501.487 136.308C503.591 136.439 505.529 137.379 506.936 138.971L507.247 138.697L507.557 138.423C506.149 136.831 505.454 134.795 505.584 132.692C505.715 130.589 506.656 128.654 508.249 127.248L507.975 126.937L507.701 126.627C506.126 128.054 504.088 128.749 501.983 128.619Z" fill="#F7B548"/>
<path d="M489.637 105.283C486.987 105.119 484.537 103.932 482.763 101.926L482.308 102.328L481.853 102.73C485.491 106.845 485.1 113.153 480.982 116.788L481.384 117.242L481.786 117.697C485.904 114.063 492.236 114.474 495.874 118.588L496.785 117.784C493.147 113.67 493.538 107.362 497.656 103.727L496.852 102.817C494.865 104.571 492.287 105.447 489.637 105.283Z" fill="#F7B548"/>
<path d="M288.382 373.951C286.891 372.462 286.063 370.475 286.063 368.351H285.649H285.234C285.234 372.71 281.672 376.241 277.31 376.241V377.069C279.436 377.069 281.424 377.896 282.915 379.386C284.406 380.875 285.234 382.862 285.234 384.986H285.649H286.063C286.063 382.862 286.891 380.875 288.382 379.386C289.873 377.896 291.862 377.069 293.988 377.069V376.655V376.241C291.862 376.268 289.873 375.441 288.382 373.951Z" fill="#F7B548"/>
<path d="M294.592 348.296C292.715 346.42 291.666 343.909 291.666 341.233H291.058H290.451C290.451 346.723 285.978 351.192 280.483 351.192V351.799V352.406C285.978 352.406 290.451 356.903 290.451 362.392H291.666C291.666 356.903 296.139 352.434 301.633 352.434V351.22C298.983 351.22 296.47 350.172 294.592 348.296Z" fill="#F7B548"/>
<path fill-rule="evenodd" clip-rule="evenodd" d="M727.04 135.459C729.9 135.459 732.218 133.143 732.218 130.286C732.218 127.429 729.9 125.113 727.04 125.113C724.18 125.113 721.862 127.429 721.862 130.286C721.862 133.143 724.18 135.459 727.04 135.459ZM752.927 130.286C752.927 133.143 750.609 135.459 747.75 135.459C744.89 135.459 742.572 133.143 742.572 130.286C742.572 127.429 744.89 125.113 747.75 125.113C750.609 125.113 752.927 127.429 752.927 130.286ZM773.637 130.286C773.637 133.143 771.319 135.459 768.459 135.459C765.6 135.459 763.282 133.143 763.282 130.286C763.282 127.429 765.6 125.113 768.459 125.113C771.319 125.113 773.637 127.429 773.637 130.286Z" fill="white"/>
<path d="M729.727 221.886H716.58C714.29 221.886 712.436 220.033 712.436 217.745V204.609C712.436 202.322 714.29 200.469 716.58 200.469H729.727C732.017 200.469 733.872 202.322 733.872 204.609V217.745C733.872 220.033 732.014 221.886 729.727 221.886Z" fill="#EDEDED"/>
<path d="M729.727 257.973H716.58C714.29 257.973 712.436 256.12 712.436 253.833V240.697C712.436 238.409 714.29 236.556 716.58 236.556H729.727C732.017 236.556 733.872 238.409 733.872 240.697V253.833C733.872 256.117 732.014 257.973 729.727 257.973Z" fill="#EDEDED"/>
<path d="M729.727 294.058H716.58C714.29 294.058 712.436 292.205 712.436 289.917V276.781C712.436 274.494 714.29 272.641 716.58 272.641H729.727C732.017 272.641 733.872 274.494 733.872 276.781V289.917C733.872 292.205 732.014 294.058 729.727 294.058Z" fill="#EDEDED"/>
<path d="M821.563 205.661H746.537V217.018H821.563V205.661Z" fill="#EDEDED"/>
<path d="M804.674 242.004H746.537V253.362H804.674V242.004Z" fill="#EDEDED"/>
<path d="M836.504 278.024H746.537V289.382H836.504V278.024Z" fill="#EDEDED"/>
<path d="M722.312 217.635L712.13 207.461C711.259 206.592 711.259 205.18 712.13 204.311L713.916 202.526C714.787 201.656 716.199 201.656 717.07 202.526L723.89 209.34L737.697 195.546C738.568 194.676 739.98 194.676 740.851 195.546L742.637 197.331C743.508 198.2 743.508 199.612 742.637 200.481L725.469 217.635C724.595 218.504 723.182 218.504 722.312 217.635Z" fill="#F7937C"/>
<path d="M722.312 251.707L712.13 241.534C711.259 240.665 711.259 239.253 712.13 238.383L713.916 236.599C714.787 235.729 716.199 235.729 717.07 236.599L723.89 243.413L737.697 229.619C738.568 228.749 739.98 228.749 740.851 229.619L742.637 231.403C743.508 232.273 743.508 233.685 742.637 234.554L725.469 251.707C724.595 252.577 723.182 252.577 722.312 251.707Z" fill="#F7937C"/>
<path d="M841.832 409.045L827.901 407.708L830.489 356.063L844.42 357.4C856.096 357.965 865.089 367.915 864.523 379.58L864.032 388.96C863.466 400.626 853.508 409.611 841.832 409.045Z" fill="#B3AFAB"/>
<path d="M853.553 365.983L850.276 363.513C848.186 361.929 847.794 358.947 849.379 356.858L850.657 355.195C852.242 353.107 855.227 352.716 857.317 354.299L860.594 356.769C862.685 358.353 863.076 361.335 861.491 363.424L860.214 365.087C858.629 367.175 855.643 367.567 853.553 365.983Z" fill="#B3AFAB"/>
<path d="M860.083 365.1C859.282 365.839 858.275 366.292 857.238 366.441C855.689 366.73 854.031 366.373 852.701 365.369L851.089 364.175C849.137 362.665 848.404 360.199 849.007 357.947C853.359 359.345 857.122 361.853 860.083 365.1Z" fill="#797673"/>
<path d="M831.652 405.793C830.437 405.917 829.213 405.954 827.98 405.904C814.759 405.233 804.488 393.924 805.155 380.672C805.755 368.915 815.022 359.168 826.738 357.977C827.953 357.854 829.177 357.817 830.41 357.867C843.674 358.533 853.902 369.846 853.235 383.099C852.635 394.855 843.368 404.602 831.652 405.793Z" fill="white"/>
<path d="M826.553 356.156L826.924 359.798C828.052 359.683 829.189 359.655 830.335 359.714C842.584 360.309 852.024 370.782 851.429 383.019C851.139 388.349 848.982 393.431 845.296 397.266C841.652 401.097 836.722 403.482 831.514 404.011C830.386 404.126 829.249 404.154 828.103 404.095C822.152 403.78 816.718 401.223 812.718 396.811C808.717 392.399 806.689 386.692 806.965 380.794C807.255 375.465 809.412 370.383 813.099 366.548C816.742 362.717 821.673 360.332 826.88 359.802L826.553 356.156ZM826.553 356.156C814.055 357.427 804.004 367.648 803.35 380.592C802.654 394.856 813.625 407.013 827.901 407.708C829.225 407.792 830.536 407.747 831.838 407.614C844.335 406.344 854.386 396.123 855.041 383.178C855.736 368.915 844.765 356.758 830.489 356.063C829.165 355.978 827.854 356.024 826.553 356.156Z" fill="#C8C6C4"/>
<path d="M840.73 384.283C840.643 384.292 840.556 384.301 840.469 384.31L829.144 383.753C828.658 383.715 828.198 383.499 827.898 383.135C827.597 382.771 827.419 382.308 827.413 381.826L828.291 364.61C828.319 363.599 829.208 362.852 830.219 362.88C831.23 362.909 831.979 363.797 831.95 364.807L831.195 380.215L840.715 380.693C841.726 380.721 842.474 381.609 842.445 382.62C842.312 383.465 841.597 384.195 840.73 384.283Z" fill="#C8C6C4"/>
<path d="M838.976 354.587L826.506 353.971C824.873 353.874 823.595 352.515 823.688 350.841L823.772 349.518C823.869 347.888 825.23 346.611 826.905 346.703L839.376 347.319C841.008 347.416 842.287 348.775 842.194 350.449L842.11 351.772C842.013 353.402 840.604 354.64 838.976 354.587Z" fill="#B3AFAB"/>
</g>
<defs>
<linearGradient id="paint0_linear_2741_50757" x1="539.972" y1="0" x2="539.972" y2="458" gradientUnits="userSpaceOnUse">
<stop stop-color="white"/>
<stop offset="1" stop-color="#D5EBFF"/>
</linearGradient>
<linearGradient id="paint1_linear_2741_50757" x1="514.03" y1="374.922" x2="511.024" y2="175.734" gradientUnits="userSpaceOnUse">
<stop stop-color="white"/>
<stop offset="1" stop-color="white" stop-opacity="0"/>
</linearGradient>
<linearGradient id="paint2_linear_2741_50757" x1="523.366" y1="144.209" x2="523.366" y2="354.654" gradientUnits="userSpaceOnUse">
<stop stop-color="#4382B8"/>
<stop offset="1" stop-color="#E2DFDF"/>
</linearGradient>
<radialGradient id="paint3_radial_2741_50757" cx="0" cy="0" r="1" gradientUnits="userSpaceOnUse" gradientTransform="translate(602.276 430.258) scale(55.0725 55.0236)">
<stop stop-color="#828282"/>
<stop offset="1" stop-color="#999999"/>
</radialGradient>
<radialGradient id="paint4_radial_2741_50757" cx="0" cy="0" r="1" gradientUnits="userSpaceOnUse" gradientTransform="translate(689.613 428.592) scale(67.8544 67.7941)">
<stop stop-color="#A09E9C"/>
<stop offset="1" stop-color="#C4BEBB"/>
</radialGradient>
<radialGradient id="paint5_radial_2741_50757" cx="0" cy="0" r="1" gradientUnits="userSpaceOnUse" gradientTransform="translate(621.443 294.861) scale(20.8905 20.872)">
<stop stop-color="#9B643D"/>
<stop offset="0.8822" stop-color="#BA8A63"/>
<stop offset="1" stop-color="#BF8F68"/>
</radialGradient>
<radialGradient id="paint6_radial_2741_50757" cx="0" cy="0" r="1" gradientUnits="userSpaceOnUse" gradientTransform="translate(855.526 180.936) rotate(-0.397794) scale(26.6184 26.5948)">
<stop offset="0.3127" stop-color="#231F20"/>
<stop offset="0.8031" stop-color="#493931" stop-opacity="0.2865"/>
<stop offset="1" stop-color="#594539" stop-opacity="0"/>
</radialGradient>
<radialGradient id="paint7_radial_2741_50757" cx="0" cy="0" r="1" gradientUnits="userSpaceOnUse" gradientTransform="translate(855.301 222.843) rotate(-0.397794) scale(14.9747 14.9615)">
<stop offset="0.00125077" stop-color="#9B643D"/>
<stop offset="0.4556" stop-color="#B98963" stop-opacity="0.545"/>
<stop offset="0.9997" stop-color="#E0BB95" stop-opacity="0"/>
</radialGradient>
<radialGradient id="paint8_radial_2741_50757" cx="0" cy="0" r="1" gradientUnits="userSpaceOnUse" gradientTransform="translate(346.995 360.269) scale(17.8841 17.8682)">
<stop offset="0.173" stop-color="#724937"/>
<stop offset="0.7031" stop-color="#9B643D"/>
</radialGradient>
<radialGradient id="paint9_radial_2741_50757" cx="0" cy="0" r="1" gradientUnits="userSpaceOnUse" gradientTransform="translate(346.801 340.162) rotate(0.721921) scale(16.5863 14.9359)">
<stop offset="0.173" stop-color="#724937"/>
<stop offset="0.7031" stop-color="#9B643D"/>
</radialGradient>
<clipPath id="clip0_2741_50757">
<rect width="1080" height="458" fill="white"/>
</clipPath>
</defs>
</svg>
