<svg width="16" height="16" viewBox="0 0 16 16" fill="none" xmlns="http://www.w3.org/2000/svg">
<path d="M7.48403 10.375C8.00182 10.5781 8.48647 10.8571 8.92202 11.203C9.35067 11.5442 9.72466 11.9488 10.031 12.403C10.3368 12.8534 10.5762 13.3455 10.742 13.864C10.9101 14.3932 10.9971 14.9448 11 15.5V16H10V15.5C10.0039 14.8987 9.8841 14.303 9.64802 13.75C9.42162 13.2148 9.09279 12.729 8.68003 12.32C8.26732 11.9135 7.78235 11.5875 7.25002 11.359C6.69689 11.1225 6.10161 11.0004 5.50002 11C4.89873 10.9961 4.30305 11.1159 3.75002 11.352C3.21484 11.5784 2.72906 11.9072 2.32002 12.32C1.91348 12.7327 1.58757 13.2177 1.35902 13.75C1.12251 14.3031 1.00039 14.8984 1.00002 15.5V16H2.47482e-05V15.5C-0.00333284 14.3916 0.335027 13.3092 0.969025 12.4C1.28013 11.9534 1.65358 11.5537 2.07802 11.213C2.51319 10.8645 2.99784 10.5827 3.51602 10.377C3.28211 10.2168 3.06942 10.0276 2.88302 9.814C2.69752 9.60459 2.53741 9.37399 2.40602 9.127C2.27413 8.88007 2.17336 8.61773 2.10602 8.346C2.03954 8.06878 2.00399 7.78505 2.00002 7.5C1.99648 7.03303 2.08942 6.57037 2.27302 6.141C2.62981 5.30423 3.29625 4.63778 4.13302 4.281C4.56521 4.09652 5.03011 4.00095 5.50002 4C5.96699 3.99645 6.42965 4.0894 6.85903 4.273C7.69579 4.62978 8.36224 5.29623 8.71902 6.133C8.90351 6.56518 8.99907 7.03009 9.00002 7.5C9.00121 7.78172 8.96762 8.06251 8.90002 8.336C8.83345 8.60797 8.73265 8.8704 8.60003 9.117C8.46573 9.36468 8.30585 9.59762 8.12302 9.812C7.93716 10.0284 7.7221 10.2179 7.48403 10.375ZM5.50002 10C5.83334 10.0007 6.16321 9.93258 6.46902 9.8C6.76339 9.67432 7.03115 9.49377 7.25802 9.268C7.48602 9.03729 7.66883 8.76595 7.79702 8.468C7.92961 8.16096 7.99867 7.83026 8.00005 7.49582C8.00142 7.16138 7.93508 6.83012 7.80502 6.522C7.67865 6.2263 7.49553 5.95824 7.26602 5.733C7.03325 5.50754 6.76241 5.32505 6.46602 5.194C6.16137 5.06174 5.83212 4.99562 5.50002 5C5.16671 4.99934 4.83684 5.06742 4.53102 5.2C3.9331 5.45657 3.4566 5.93307 3.20002 6.531C3.07131 6.83784 3.00502 7.16725 3.00502 7.5C3.00502 7.83275 3.07131 8.16216 3.20002 8.469C3.32675 8.76606 3.50709 9.03725 3.73202 9.269C3.9601 9.5002 4.2321 9.68346 4.53202 9.808C4.8386 9.9361 5.16776 10.0014 5.50002 10ZM16 0V8H14L11 11V8H10V7H12V8.586L13.586 7H15V1H5.00002V2.8C4.83302 2.821 4.66702 2.847 4.50002 2.878C4.32951 2.91008 4.16218 2.95727 4.00002 3.019V0H16Z" fill="white"/>
</svg>
