<svg width="784" height="335" viewBox="0 0 784 335" fill="none" xmlns="http://www.w3.org/2000/svg">
<g filter="url(#filter0_d_576_40195)">
<rect x="81" y="14" width="599" height="307" rx="8" fill="white"/>
</g>
<mask id="path-2-outside-1_576_40195" maskUnits="userSpaceOnUse" x="114" y="54.8623" width="533" height="38" fill="black">
<rect fill="white" x="114" y="54.8623" width="533" height="38"/>
<path d="M115 83.8623C115 88.2806 118.582 91.8623 123 91.8623H637C641.418 91.8623 645 88.2806 645 83.8623V64.0002C645 59.5819 641.418 56.0002 637 56.0002H123C118.582 56.0002 115 59.5819 115 64.0002V83.8623Z"/>
</mask>
<path d="M115 83.8623C115 88.2806 118.582 91.8623 123 91.8623H637C641.418 91.8623 645 88.2806 645 83.8623V64.0002C645 59.5819 641.418 56.0002 637 56.0002H123C118.582 56.0002 115 59.5819 115 64.0002V83.8623Z" fill="white"/>
<path d="M114 83.8623C114 88.8329 118.029 92.8623 123 92.8623H637C641.971 92.8623 646 88.8329 646 83.8623H644C644 87.7283 640.866 90.8623 637 90.8623H123C119.134 90.8623 116 87.7283 116 83.8623H114ZM646 64.0002C646 59.0296 641.971 55.0002 637 55.0002H123C118.029 55.0002 114 59.0296 114 64.0002H116C116 60.1342 119.134 57.0002 123 57.0002H637C640.866 57.0002 644 60.1342 644 64.0002H646ZM123 55.0002C118.029 55.0002 114 59.0296 114 64.0002V83.8623C114 88.8329 118.029 92.8623 123 92.8623V90.8623C119.134 90.8623 116 87.7283 116 83.8623V64.0002C116 60.1342 119.134 57.0002 123 57.0002V55.0002ZM637 92.8623C641.971 92.8623 646 88.8329 646 83.8623V64.0002C646 59.0296 641.971 55.0002 637 55.0002V57.0002C640.866 57.0002 644 60.1342 644 64.0002V83.8623C644 87.7283 640.866 90.8623 637 90.8623V92.8623Z" fill="#E1DFDD" mask="url(#path-2-outside-1_576_40195)"/>
<mask id="path-4-outside-2_576_40195" maskUnits="userSpaceOnUse" x="114" y="92.2837" width="533" height="38" fill="black">
<rect fill="white" x="114" y="92.2837" width="533" height="38"/>
<path d="M115 121.284C115 125.702 118.582 129.284 123 129.284H637C641.418 129.284 645 125.702 645 121.284V101.422C645 97.0033 641.418 93.4216 637 93.4216H123C118.582 93.4216 115 97.0033 115 101.422V121.284Z"/>
</mask>
<path d="M115 121.284C115 125.702 118.582 129.284 123 129.284H637C641.418 129.284 645 125.702 645 121.284V101.422C645 97.0033 641.418 93.4216 637 93.4216H123C118.582 93.4216 115 97.0033 115 101.422V121.284Z" fill="white"/>
<path d="M114 121.284C114 126.254 118.029 130.284 123 130.284H637C641.971 130.284 646 126.254 646 121.284H644C644 125.15 640.866 128.284 637 128.284H123C119.134 128.284 116 125.15 116 121.284H114ZM646 101.422C646 96.451 641.971 92.4216 637 92.4216H123C118.029 92.4216 114 96.451 114 101.422H116C116 97.5556 119.134 94.4216 123 94.4216H637C640.866 94.4216 644 97.5556 644 101.422H646ZM123 92.4216C118.029 92.4216 114 96.451 114 101.422V121.284C114 126.254 118.029 130.284 123 130.284V128.284C119.134 128.284 116 125.15 116 121.284V101.422C116 97.5556 119.134 94.4216 123 94.4216V92.4216ZM637 130.284C641.971 130.284 646 126.254 646 121.284V101.422C646 96.451 641.971 92.4216 637 92.4216V94.4216C640.866 94.4216 644 97.5556 644 101.422V121.284C644 125.15 640.866 128.284 637 128.284V130.284Z" fill="#E1DFDD" mask="url(#path-4-outside-2_576_40195)"/>
<mask id="path-6-outside-3_576_40195" maskUnits="userSpaceOnUse" x="114" y="129.705" width="533" height="38" fill="black">
<rect fill="white" x="114" y="129.705" width="533" height="38"/>
<path d="M115 158.705C115 163.123 118.582 166.705 123 166.705H637C641.418 166.705 645 163.123 645 158.705V138.842C645 134.424 641.418 130.842 637 130.842H123C118.582 130.842 115 134.424 115 138.842V158.705Z"/>
</mask>
<path d="M115 158.705C115 163.123 118.582 166.705 123 166.705H637C641.418 166.705 645 163.123 645 158.705V138.842C645 134.424 641.418 130.842 637 130.842H123C118.582 130.842 115 134.424 115 138.842V158.705Z" fill="white"/>
<path d="M114 158.705C114 163.675 118.029 167.705 123 167.705H637C641.971 167.705 646 163.675 646 158.705H644C644 162.571 640.866 165.705 637 165.705H123C119.134 165.705 116 162.571 116 158.705H114ZM646 138.842C646 133.872 641.971 129.842 637 129.842H123C118.029 129.842 114 133.872 114 138.842H116C116 134.976 119.134 131.842 123 131.842H637C640.866 131.842 644 134.976 644 138.842H646ZM123 129.842C118.029 129.842 114 133.872 114 138.842V158.705C114 163.675 118.029 167.705 123 167.705V165.705C119.134 165.705 116 162.571 116 158.705V138.842C116 134.976 119.134 131.842 123 131.842V129.842ZM637 167.705C641.971 167.705 646 163.675 646 158.705V138.842C646 133.872 641.971 129.842 637 129.842V131.842C640.866 131.842 644 134.976 644 138.842V158.705C644 162.571 640.866 165.705 637 165.705V167.705Z" fill="#E1DFDD" mask="url(#path-6-outside-3_576_40195)"/>
<mask id="path-8-outside-4_576_40195" maskUnits="userSpaceOnUse" x="114" y="167.126" width="533" height="38" fill="black">
<rect fill="white" x="114" y="167.126" width="533" height="38"/>
<path d="M115 196.126C115 200.544 118.582 204.126 123 204.126H637C641.418 204.126 645 200.544 645 196.126V176.264C645 171.846 641.418 168.264 637 168.264H123C118.582 168.264 115 171.846 115 176.264V196.126Z"/>
</mask>
<path d="M115 196.126C115 200.544 118.582 204.126 123 204.126H637C641.418 204.126 645 200.544 645 196.126V176.264C645 171.846 641.418 168.264 637 168.264H123C118.582 168.264 115 171.846 115 176.264V196.126Z" fill="white"/>
<path d="M114 196.126C114 201.097 118.029 205.126 123 205.126H637C641.971 205.126 646 201.097 646 196.126H644C644 199.992 640.866 203.126 637 203.126H123C119.134 203.126 116 199.992 116 196.126H114ZM646 176.264C646 171.293 641.971 167.264 637 167.264H123C118.029 167.264 114 171.293 114 176.264H116C116 172.398 119.134 169.264 123 169.264H637C640.866 169.264 644 172.398 644 176.264H646ZM123 167.264C118.029 167.264 114 171.293 114 176.264V196.126C114 201.097 118.029 205.126 123 205.126V203.126C119.134 203.126 116 199.992 116 196.126V176.264C116 172.398 119.134 169.264 123 169.264V167.264ZM637 205.126C641.971 205.126 646 201.097 646 196.126V176.264C646 171.293 641.971 167.264 637 167.264V169.264C640.866 169.264 644 172.398 644 176.264V196.126C644 199.992 640.866 203.126 637 203.126V205.126Z" fill="#E1DFDD" mask="url(#path-8-outside-4_576_40195)"/>
<mask id="path-10-outside-5_576_40195" maskUnits="userSpaceOnUse" x="114" y="202.925" width="533" height="38" fill="black">
<rect fill="white" x="114" y="202.925" width="533" height="38"/>
<path d="M115 231.925C115 236.344 118.582 239.925 123 239.925H637C641.418 239.925 645 236.344 645 231.925V212.063C645 207.645 641.418 204.063 637 204.063H123C118.582 204.063 115 207.645 115 212.063V231.925Z"/>
</mask>
<path d="M115 231.925C115 236.344 118.582 239.925 123 239.925H637C641.418 239.925 645 236.344 645 231.925V212.063C645 207.645 641.418 204.063 637 204.063H123C118.582 204.063 115 207.645 115 212.063V231.925Z" fill="white"/>
<path d="M114 231.925C114 236.896 118.029 240.925 123 240.925H637C641.971 240.925 646 236.896 646 231.925H644C644 235.791 640.866 238.925 637 238.925H123C119.134 238.925 116 235.791 116 231.925H114ZM646 212.063C646 207.093 641.971 203.063 637 203.063H123C118.029 203.063 114 207.093 114 212.063H116C116 208.197 119.134 205.063 123 205.063H637C640.866 205.063 644 208.197 644 212.063H646ZM123 203.063C118.029 203.063 114 207.093 114 212.063V231.925C114 236.896 118.029 240.925 123 240.925V238.925C119.134 238.925 116 235.791 116 231.925V212.063C116 208.197 119.134 205.063 123 205.063V203.063ZM637 240.925C641.971 240.925 646 236.896 646 231.925V212.063C646 207.093 641.971 203.063 637 203.063V205.063C640.866 205.063 644 208.197 644 212.063V231.925C644 235.791 640.866 238.925 637 238.925V240.925Z" fill="#E1DFDD" mask="url(#path-10-outside-5_576_40195)"/>
<mask id="path-12-outside-6_576_40195" maskUnits="userSpaceOnUse" x="114" y="240.347" width="533" height="38" fill="black">
<rect fill="white" x="114" y="240.347" width="533" height="38"/>
<path d="M115 269.347C115 273.765 118.582 277.347 123 277.347H637C641.418 277.347 645 273.765 645 269.347V249.485C645 245.066 641.418 241.485 637 241.485H123C118.582 241.485 115 245.066 115 249.485V269.347Z"/>
</mask>
<path d="M115 269.347C115 273.765 118.582 277.347 123 277.347H637C641.418 277.347 645 273.765 645 269.347V249.485C645 245.066 641.418 241.485 637 241.485H123C118.582 241.485 115 245.066 115 249.485V269.347Z" fill="white"/>
<path d="M114 269.347C114 274.317 118.029 278.347 123 278.347H637C641.971 278.347 646 274.317 646 269.347H644C644 273.213 640.866 276.347 637 276.347H123C119.134 276.347 116 273.213 116 269.347H114ZM646 249.485C646 244.514 641.971 240.485 637 240.485H123C118.029 240.485 114 244.514 114 249.485H116C116 245.619 119.134 242.485 123 242.485H637C640.866 242.485 644 245.619 644 249.485H646ZM123 240.485C118.029 240.485 114 244.514 114 249.485V269.347C114 274.317 118.029 278.347 123 278.347V276.347C119.134 276.347 116 273.213 116 269.347V249.485C116 245.619 119.134 242.485 123 242.485V240.485ZM637 278.347C641.971 278.347 646 274.317 646 269.347V249.485C646 244.514 641.971 240.485 637 240.485V242.485C640.866 242.485 644 245.619 644 249.485V269.347C644 273.213 640.866 276.347 637 276.347V278.347Z" fill="#E1DFDD" mask="url(#path-12-outside-6_576_40195)"/>
<rect x="136" y="70.063" width="164" height="10" rx="4" fill="#EDEDED"/>
<rect x="136" y="106.063" width="131" height="10" rx="4" fill="#EDEDED"/>
<rect x="136" y="143.063" width="152" height="10" rx="4" fill="#EDEDED"/>
<rect x="136" y="181.063" width="164" height="10" rx="4" fill="#EDEDED"/>
<rect x="136" y="217.063" width="131" height="10" rx="4" fill="#EDEDED"/>
<rect x="136" y="254.063" width="152" height="10" rx="4" fill="#EDEDED"/>
<circle cx="623.5" cy="74.563" r="6" fill="#FAF9F8" stroke="#7D8EDF"/>
<circle cx="623.5" cy="110.563" r="6" fill="#FAF9F8" stroke="#7D8EDF"/>
<circle cx="623.5" cy="149.563" r="6" fill="#FAF9F8" stroke="#7D8EDF"/>
<circle cx="623.5" cy="185.563" r="6" fill="#FAF9F8" stroke="#7D8EDF"/>
<circle cx="623.5" cy="222.563" r="6" fill="#FAF9F8" stroke="#7D8EDF"/>
<circle cx="623.5" cy="258.563" r="6" fill="#FAF9F8" stroke="#7D8EDF"/>
<path d="M693.798 186.964C694 180.308 700.633 178.742 700.805 173.058C700.977 167.375 695.537 165.988 695.899 159.358C696.466 148.987 706.842 149.314 706.842 149.314C706.842 149.314 717.219 149.64 717.158 160.028C717.119 166.668 711.606 167.71 711.434 173.393C711.263 179.077 717.789 181.058 717.588 187.714C717.387 194.37 712.246 196.835 712.066 202.794C711.886 208.754 716.122 211.093 715.869 219.47C715.616 227.847 705.39 239.312 705.39 239.312L702.859 239.233C702.859 239.233 693.345 227.146 693.598 218.769C693.851 210.392 698.22 208.324 698.4 202.364C698.58 196.404 693.597 193.62 693.798 186.964Z" fill="#56A84F"/>
<path d="M719.353 231.577C721.693 223.988 718.911 219.996 718.3 217.902C717.69 215.807 717.223 215.159 717.588 213.496C717.911 212.026 718.312 211.258 720.276 210.131C722.494 208.858 725.255 207.273 726.392 203.483C727.456 199.933 726.83 197.024 726.278 194.458C725.847 192.459 725.476 190.733 725.999 188.988C726.36 187.783 727 187.495 728.792 186.838C730.812 186.099 733.576 185.086 735.278 181.508C739.225 173.211 733.371 167.532 729.723 165.688C729.484 165.568 727.308 164.504 724.436 164.335C719.811 164.062 715.988 166.283 713.672 170.587C711.73 174.191 712.021 177.206 712.277 179.867C712.447 181.642 712.594 183.175 712.099 184.828C711.689 186.194 710.564 186.911 708.609 188.062C706.306 189.417 703.439 191.104 702.28 194.965C701.151 198.729 701.725 201.271 702.77 204.153C703.565 206.346 704.252 208.239 703.862 210.017C703.461 211.842 702.179 212.388 700.714 213.717C699.041 215.235 692.073 218.689 691.617 226.122C691.108 234.419 698.813 250.312 698.813 250.312C698.813 250.312 717.014 239.166 719.353 231.577Z" fill="#77D672"/>
<path d="M81.8512 195.349C89.1723 182.675 84.4595 166.251 71.3249 158.663C58.1902 151.076 41.6075 155.199 34.2864 167.873C26.9652 180.546 31.678 196.971 44.8127 204.559C57.9473 212.146 74.53 208.023 81.8512 195.349Z" fill="#594539"/>
<path d="M69.666 130.329C71.689 139.161 74.461 153.343 82.8194 171.193C71.1043 176.118 49.7576 175.612 33.7178 168.916C38.0503 160.242 41.5066 145.359 40.4851 135.556C40.6102 133.71 69.1588 128.115 69.666 130.329Z" fill="#594539"/>
<path d="M46.3856 163.472H39.3242V187.38H46.3856V163.472Z" fill="#EE8F94"/>
<path d="M15.665 186.199C15.7687 186.268 17.3021 187.693 18.1706 188.502C18.5466 188.852 19.0523 189.028 19.5645 188.987L25.9744 188.472L27.6568 188.278V185.833L15.665 186.199Z" fill="#BF8F68"/>
<path d="M43.513 191.566L25.9736 188.472V185.243H43.513V191.566Z" fill="#EE8F94"/>
<path d="M47.9978 172.032C52.7881 172.032 56.6713 168.148 56.6713 163.358C56.6713 158.568 52.7881 154.685 47.9978 154.685C43.2075 154.685 39.3242 158.568 39.3242 163.358C39.3242 168.148 43.2075 172.032 47.9978 172.032Z" fill="#EE8F94"/>
<path d="M55.188 226.46C65.8338 226.46 74.4639 218.412 74.4639 208.484C74.4639 198.555 65.8338 190.507 55.188 190.507C44.5422 190.507 35.9121 198.555 35.9121 208.484C35.9121 218.412 44.5422 226.46 55.188 226.46Z" fill="#BDBDE6"/>
<path d="M39.8267 208.484C25.5924 236.206 48.8739 307.063 49.4769 317.027C49.5379 318.033 49.0215 318.956 48.1516 319.405L42.8246 321.802C42.2206 322.233 42.5611 323.219 43.3138 323.219H51.9835C52.9306 323.219 53.6788 322.463 53.681 321.504L60.0302 225.409C60.0302 225.409 42.769 212.66 39.8267 208.484Z" fill="#979593"/>
<path d="M73.3583 202.477H37.0156L41.3415 191.476C43.3503 181.745 40.298 169.188 40.298 169.188L69.7601 172.473C69.7601 172.473 66.5515 180.406 69.0334 191.476L73.3583 202.477Z" fill="#EE8F94"/>
<path d="M57.4251 150.644C65.5698 149.598 71.2315 141.419 70.0708 132.375C68.9101 123.331 61.3666 116.847 53.2219 117.892C45.0772 118.938 39.4155 127.117 40.5762 136.161C41.7369 145.205 49.2804 151.689 57.4251 150.644Z" fill="#594539"/>
<path d="M45.3475 144.763C46.3812 144.646 47.1203 143.678 46.9984 142.601C46.8765 141.524 45.9396 140.745 44.9059 140.862C43.8722 140.979 43.133 141.947 43.255 143.025C43.3769 144.102 44.3138 144.88 45.3475 144.763Z" fill="#E3646A"/>
<path d="M59.3455 142.371H52.7402V153.904H59.3455V142.371Z" fill="#BF8F68"/>
<path d="M59.3419 142.369H52.7393V153.908H59.3419V142.369Z" fill="url(#paint0_radial_576_40195)"/>
<path d="M54.7831 147.247C60.1898 146.553 63.8917 140.684 63.0516 134.138C62.2115 127.592 57.1475 122.848 51.7408 123.541C46.3341 124.235 42.6322 130.104 43.4723 136.65C44.3124 143.196 49.3764 147.94 54.7831 147.247Z" fill="#BF8F68"/>
<path d="M56.5785 136.356C57.083 136.299 57.4141 135.565 57.3181 134.717C57.2221 133.869 56.7353 133.228 56.2308 133.285C55.7263 133.342 55.3952 134.076 55.4912 134.924C55.5872 135.772 56.074 136.413 56.5785 136.356Z" fill="#33312D"/>
<path d="M51.8424 129.067L52.1125 133.024C52.1955 135.056 51.3184 136.566 50.6223 137.434C50.2329 137.92 50.1535 138.989 50.7614 139.547C51.0918 139.851 52.4453 140.441 52.5649 141.372L52.9131 145.02L45.5221 146.024L43.8076 129.851L51.8424 129.067Z" fill="url(#paint1_radial_576_40195)"/>
<path d="M52.202 142.151C52.5709 142.172 52.8489 142.11 53.1592 142.035C53.462 141.941 53.7776 141.857 54.0824 141.736C54.3925 141.632 54.6909 141.498 54.9846 141.384C55.277 141.248 55.5125 141.148 55.7519 140.926L55.8788 140.808C55.9915 140.704 56.1677 140.71 56.2723 140.823C56.3003 140.853 56.3206 140.889 56.3328 140.926C56.5318 141.535 56.184 142.112 55.8553 142.473C55.5113 142.862 55.0755 143.101 54.6217 143.27C54.1612 143.416 53.6705 143.509 53.1588 143.411C52.6642 143.334 52.0979 143.098 51.8294 142.597C51.7494 142.448 51.8056 142.262 51.9545 142.182C52.0056 142.155 52.061 142.144 52.1147 142.146L52.202 142.151Z" fill="#9B643D"/>
<path d="M42.2119 126.948C42.2119 126.948 44.4432 127.731 46.8658 125.906C49.2149 124.137 50.9904 126.169 52.2397 127.578C54.9248 130.608 59.1066 133.056 62.7865 132.085C65.4189 131.39 64.9853 122.556 56.7476 120.733C48.1334 118.826 42.2119 126.948 42.2119 126.948Z" fill="#594539"/>
<path d="M59.7887 138.372L63.6339 137.879C65.1718 137.681 66.2587 136.275 66.0612 134.737L66.0351 134.533C65.8376 132.995 64.431 131.908 62.8931 132.105L59.0479 132.599L59.7887 138.372Z" fill="#BF8F68"/>
<path d="M73.3581 202.477C82.3058 223.832 77.4704 269.598 64.9953 317.122C64.7106 318.207 65.2785 319.332 66.2954 319.773L71.4976 321.731C72.3512 322.248 71.9898 323.579 70.9957 323.579H61.7473C60.7526 323.579 59.9361 322.78 59.8981 321.771L54.9326 212.617C54.9324 212.617 67.6703 204.031 73.3581 202.477Z" fill="#979593"/>
<path d="M37.0162 202.477C37.0162 202.477 26.1664 227.249 33.5463 317.087H55.6569L59.3458 225.439L37.0162 202.477Z" fill="url(#paint2_linear_576_40195)"/>
<path d="M73.3589 202.477C73.3589 202.477 78.7137 213.957 80.5626 235.838C82.4114 257.719 80.5626 317.087 80.5626 317.087H58.0016L53.2178 209.669L73.3589 202.477Z" fill="#BDBDE6"/>
<path d="M64.4774 141.465C65.5111 141.348 66.2502 140.38 66.1283 139.303C66.0063 138.226 65.0695 137.447 64.0358 137.564C63.0021 137.681 62.2629 138.65 62.3849 139.727C62.5068 140.804 63.4437 141.582 64.4774 141.465Z" fill="#E3646A"/>
<path d="M55.2487 183.395C63.5888 183.395 70.3499 176.634 70.3499 168.294C70.3499 159.953 63.5888 153.192 55.2487 153.192C46.9085 153.192 40.1475 159.953 40.1475 168.294C40.1475 176.634 46.9085 183.395 55.2487 183.395Z" fill="#EE8F94"/>
<path d="M37.0156 202.477H73.358L69.0333 191.477C67.5281 184.763 68.1169 179.218 68.8126 175.882C69.8518 173.65 70.3489 171.063 70.3489 168.294C70.3489 159.953 63.5878 153.192 55.2477 153.192C46.9076 153.192 40.1465 159.953 40.1465 168.294C40.1465 170.204 40.5158 172.024 41.1626 173.706C41.8787 178.242 42.5944 185.408 41.3416 191.477L37.0156 202.477Z" fill="url(#paint3_radial_576_40195)"/>
<path d="M45.4434 183.898C45.4434 183.898 70.2865 198.701 78.7362 186.689C83.0552 180.548 80.3069 159.236 64.0659 153.908C54.0624 155.997 58.8865 165.169 58.8865 165.169C58.8865 165.169 68.3031 168.149 70.3497 178.893C71.7448 186.215 45.6244 180.904 45.6244 180.904L45.4434 183.898Z" fill="#EE8F94"/>
<path d="M45.4424 183.898L40.0796 181.978L39.1275 181.704C38.722 181.733 38.3581 181.963 38.1577 182.317L37.4813 183.51L35.9004 182.56L36.4208 180.808C36.5694 180.308 36.9439 179.906 37.4324 179.723L38.9025 178.807L37.2323 179.168L35.8981 180.276L34.6689 180.318L37.1 178.006L39.232 177.669C39.5473 177.619 39.8703 177.677 40.1486 177.833L45.6235 180.903L45.4424 183.898Z" fill="#BF8F68"/>
<path d="M38.9787 183.797H6.60372C6.14799 183.797 5.74741 183.495 5.62168 183.057L0.0402582 163.608C-0.147106 162.955 0.343072 162.304 1.0223 162.304H33.3973C33.853 162.304 34.2536 162.606 34.3793 163.044L39.9607 182.493C40.1482 183.146 39.6579 183.797 38.9787 183.797Z" fill="#C8C6C4"/>
<path d="M45.4537 186.689H7.22223C6.42359 186.689 5.77637 186.041 5.77637 185.243C5.77637 184.444 6.42368 183.797 7.22223 183.797H45.4535C46.2521 183.797 46.8993 184.444 46.8993 185.243C46.8994 186.041 46.2521 186.689 45.4537 186.689Z" fill="#C8C6C4"/>
<path d="M59.3411 149.458C59.3411 149.458 59.3454 152.592 63.4541 153.689L58.8857 154.896L59.3411 149.458Z" fill="#BF8F68"/>
<path d="M52.7382 149.073V151.526C52.7382 152.623 51.9814 153.576 50.9122 153.824L46.3506 154.842L53.4994 154.706L52.7382 149.073Z" fill="#BF8F68"/>
<path d="M46.9873 154.696C47.0145 154.716 47.0419 154.723 47.0692 154.737C47.1374 154.764 47.2056 154.791 47.274 154.819C47.4923 154.907 47.7173 154.989 47.963 155.064C49.2048 155.467 50.7263 155.76 52.4321 155.904H52.4391C53.7013 156.013 55.0455 156.04 56.4579 155.972C57.8636 155.911 59.2007 155.76 60.4357 155.535C61.1727 155.399 61.8753 155.242 62.5303 155.065C63.424 154.826 64.2292 154.546 64.932 154.232C64.4408 154.041 63.9426 153.864 63.4514 153.686C63.0898 153.557 62.7214 153.434 62.3597 153.311C61.0292 152.738 60.2854 151.919 59.8693 151.189C59.6919 151.161 59.5213 151.134 59.344 151.107C59.2961 151.107 59.2553 151.1 59.2076 151.093C58.9688 151.066 58.7368 151.039 58.4981 151.018H58.4912C57.5359 150.937 56.5602 150.916 55.5642 150.964C54.8957 150.991 54.2404 151.053 53.5924 151.148H53.5855C53.4012 151.169 53.217 151.196 53.0328 151.23C52.9303 151.243 52.835 151.264 52.7394 151.278V151.524C52.7394 152.622 51.982 153.577 50.9109 153.823L46.9873 154.696Z" fill="#BF8F68"/>
<path d="M48.3901 137.413C48.8926 137.341 49.2017 136.598 49.0805 135.753C48.9592 134.908 48.4535 134.282 47.951 134.354C47.4484 134.426 47.1393 135.169 47.2606 136.014C47.3819 136.859 47.8876 137.485 48.3901 137.413Z" fill="#33312D"/>
<path d="M709.832 254.15C716.14 266.687 719.733 268.921 728.926 271.37C738.119 273.819 741.714 259.977 741.714 259.977L745.409 263.129C745.409 263.129 742.113 296.93 720.598 293.883C698.792 290.795 683.279 276.068 684.885 259.646C686.257 245.61 703.448 241.463 709.832 254.15Z" fill="#7C7EBB"/>
<path d="M729.794 268.529L681.586 315.393L691.079 327.423C691.079 327.423 707.514 329.294 714.932 321.876L742.193 293.597C742.193 293.597 736.79 261.727 729.794 268.529Z" fill="url(#paint4_linear_576_40195)"/>
<path d="M783.106 325.493L777.308 322.495C776.309 321.978 775.467 321.042 774.825 319.611L752.473 272.624C748.281 263.813 736.672 261.727 729.676 268.529L742.075 293.597L767.893 324.259C767.956 326.003 769.384 327.385 771.129 327.393L782.529 327.439C783.586 327.444 783.994 326.066 783.106 325.493Z" fill="url(#paint5_linear_576_40195)"/>
<path d="M691.271 311.777H659.079L655.429 269.237C653.436 251.586 664.078 234.994 678.372 234.994H684.683C698.977 234.994 711.527 246.202 712.713 260.028L715.005 286.743C716.191 300.569 705.565 311.777 691.271 311.777Z" fill="url(#paint6_radial_576_40195)"/>
<path d="M694.539 236.803C691.441 235.63 688.115 234.969 684.683 234.969H678.372C676.993 234.969 674.578 235.189 672.346 236.016C676.217 237.324 680.194 242.52 685.677 242.52C690.454 242.521 694.021 240.079 694.539 236.803Z" fill="#E0BB95"/>
<path d="M745.4 263.13C745.091 263.04 737.659 260.355 737.818 259.974L742.443 248.864C742.602 248.482 742.982 248.246 743.291 248.335L748.569 248.332C749.986 248.66 750.949 250.542 749.71 253.845L745.4 263.13Z" fill="#E0BB95"/>
<path d="M714.014 248.672L719.145 239.395C719.629 238.522 720.527 237.959 721.523 237.904L725.728 237.676C726.215 237.649 726.699 237.762 727.125 238L730.172 239.708C730.753 240.034 730.793 240.855 730.246 241.236L729.348 241.862C729.159 241.994 728.927 242.048 728.7 242.015L724.799 241.439C724.799 241.439 723.677 245.364 721.866 247.447C720.055 249.53 717.526 251.447 717.526 251.447L714.014 248.672Z" fill="#E0BB95"/>
<path d="M744.023 265.003H721.006C719.917 265.003 719.124 264.226 719.234 263.267L722.428 235.35C722.538 234.391 723.509 233.614 724.597 233.614H747.614C748.703 233.614 749.496 234.392 749.386 235.35L746.192 263.267C746.083 264.226 745.111 265.003 744.023 265.003Z" fill="#605D5A"/>
<path d="M681.802 251.506C685.7 260.867 687.551 265.825 694.642 267.179C703.988 268.963 714.014 248.672 714.014 248.672L717.526 251.446C717.526 251.446 716.009 288.234 690.566 288.233C670.669 287.997 655.603 273.258 656.797 256.801C657.817 242.735 677.147 238.088 681.802 251.506Z" fill="#8B8CC4"/>
<path d="M688.354 240.633L681.32 240.307C678.749 240.188 676.761 238.007 676.88 235.436L677.487 222.33L693.47 223.07L692.846 236.537C692.737 238.909 690.725 240.742 688.354 240.633Z" fill="url(#paint7_radial_576_40195)"/>
<path d="M691.385 219.533L676.875 218.69L677.36 210.335C677.515 207.672 679.8 205.638 682.463 205.793L692.15 206.355C695.789 206.567 698.568 209.688 698.356 213.327C698.144 216.965 695.023 219.744 691.385 219.533Z" fill="#BF8F68"/>
<path d="M677.978 224.142C680.067 224.142 681.761 222.449 681.761 220.359C681.761 218.27 680.067 216.576 677.978 216.576C675.889 216.576 674.195 218.27 674.195 220.359C674.195 222.449 675.889 224.142 677.978 224.142Z" fill="#E0BB95"/>
<path d="M689.742 235.534C682.723 235.107 677.363 228.809 677.771 221.466L678.196 213.806C678.363 210.81 680.82 208.521 683.684 208.695L700.827 209.737L699.921 226.055C699.612 231.613 695.055 235.856 689.742 235.534Z" fill="#E0BB95"/>
<path d="M697.549 212.664C694.654 211.674 692.315 210.04 689.332 209.716C684.673 209.21 680.802 209.768 680.802 209.768L680.937 208.276C681.241 204.896 683.375 201.892 687.188 202.748C693.04 204.06 691.876 202.133 694.425 202.145C696.845 202.155 697.216 204.753 698.223 204.85C700.669 205.085 700.422 201.617 704.031 202.811C707.387 203.791 708.165 216.295 697.549 212.664Z" fill="#BF8F68"/>
<path d="M688.364 219.217C688.415 218.333 688.04 217.592 687.526 217.562C687.012 217.532 686.553 218.224 686.502 219.108C686.45 219.992 686.826 220.733 687.34 220.763C687.854 220.793 688.312 220.101 688.364 219.217Z" fill="#594539"/>
<path d="M698.148 232.129L690.566 234.068L691.066 226.157C691.092 225.741 691.326 225.366 691.688 225.159L693.542 224.1C693.945 223.87 694.088 223.358 693.862 222.952L692.467 220.449C692.134 219.853 691.979 219.174 692.02 218.492L692.068 212.972L700.029 213.81L698.148 232.129Z" fill="url(#paint8_radial_576_40195)"/>
<path d="M696.507 219.508C696.559 218.624 696.183 217.883 695.669 217.853C695.155 217.823 694.696 218.516 694.645 219.4C694.593 220.284 694.969 221.025 695.483 221.055C695.997 221.084 696.456 220.392 696.507 219.508Z" fill="#594539"/>
<path d="M678.245 209.186C678.245 209.186 683.849 207.771 683.796 212.288C683.764 214.97 681.761 216.215 680.043 216.475C678.502 216.709 677.347 216.631 677.347 216.631L678.245 209.186Z" fill="#BF8F68"/>
<path d="M687.091 226.562C687.996 227.24 688.567 227.543 689.223 227.772C689.885 228.001 690.561 228.168 691.669 228.27L691.703 228.273C691.884 228.29 692.04 228.421 692.05 228.566C692.053 228.607 692.044 228.646 692.026 228.678C691.522 229.569 689.973 229.797 688.656 229.304C687.997 229.056 687.384 228.647 687.005 228.151C686.607 227.665 686.462 227.114 686.549 226.64C686.574 226.503 686.738 226.428 686.916 226.472C686.972 226.487 687.024 226.512 687.066 226.543L687.091 226.562Z" fill="#BF8F68"/>
<path d="M695.455 327.633H679.193C668.836 327.633 659.742 319.512 658.883 309.494L657.863 297.605H692.878L695.455 327.633Z" fill="#E1DFDD"/>
<path d="M768.527 325.687L762.729 322.689C761.729 322.172 760.887 321.237 760.245 319.805L737.893 272.818C733.701 264.007 722.092 261.921 715.096 268.723L662.171 310.818L673.371 322.07C680.789 329.488 692.816 329.488 700.234 322.07L727.495 293.791L753.313 324.453C753.376 326.197 754.804 327.58 756.549 327.587L767.949 327.633C769.006 327.638 769.415 326.26 768.527 325.687Z" fill="#E1DFDD"/>
<path d="M748.199 250.479L745.473 250.01C744.88 249.908 744.482 249.344 744.584 248.751C744.686 248.158 745.25 247.76 745.843 247.862L748.568 248.332C749.162 248.434 749.559 248.998 749.457 249.59C749.355 250.184 748.792 250.582 748.199 250.479Z" fill="#E0BB95"/>
<path d="M747.394 253.474L744.669 253.004C744.076 252.902 743.678 252.339 743.78 251.746C743.882 251.153 744.446 250.755 745.039 250.857L747.764 251.326C748.357 251.428 748.755 251.992 748.653 252.585C748.551 253.178 747.987 253.576 747.394 253.474Z" fill="#E0BB95"/>
<path d="M747.413 255.601L744.687 255.131C744.094 255.029 743.697 254.466 743.799 253.873C743.901 253.279 744.464 252.882 745.057 252.984L747.783 253.453C748.376 253.555 748.774 254.119 748.672 254.712C748.57 255.305 748.006 255.703 747.413 255.601Z" fill="#E0BB95"/>
<path d="M746.916 257.61L745.506 257.368C744.913 257.265 744.515 256.702 744.617 256.109C744.719 255.516 745.283 255.118 745.876 255.22L747.285 255.463C747.879 255.565 748.276 256.128 748.174 256.722C748.072 257.315 747.509 257.713 746.916 257.61Z" fill="#E0BB95"/>
<path d="M675.708 233.504C674.572 235.185 672.346 236.016 672.346 236.016L678.245 236.325L677.165 229.279C677.165 229.279 677.376 231.038 675.708 233.504Z" fill="#E0BB95"/>
<path d="M654.059 310.98C649.273 309.993 646.193 305.312 647.18 300.526C651.967 301.513 655.047 306.193 654.059 310.98Z" fill="#E1DFDD"/>
<path d="M654.302 312.329L654.272 312.561L654.242 312.329C649.979 308.995 643.939 312.251 645.16 317.61C646.092 321.7 648.923 326.661 652.453 326.661C653.233 326.661 653.789 326.654 654.272 326.646C654.754 326.654 655.311 326.661 656.091 326.661C659.62 326.661 662.452 321.7 663.383 317.61C664.605 312.251 658.564 308.995 654.302 312.329Z" fill="#E3646A"/>
<path d="M659.174 316.773C660.244 316.773 661.111 315.906 661.111 314.837C661.111 313.767 660.244 312.9 659.174 312.9C658.105 312.9 657.238 313.767 657.238 314.837C657.238 315.906 658.105 316.773 659.174 316.773Z" fill="#EE8F94"/>
<defs>
<filter id="filter0_d_576_40195" x="67" y="0" width="627" height="335" filterUnits="userSpaceOnUse" color-interpolation-filters="sRGB">
<feFlood flood-opacity="0" result="BackgroundImageFix"/>
<feColorMatrix in="SourceAlpha" type="matrix" values="0 0 0 0 0 0 0 0 0 0 0 0 0 0 0 0 0 0 127 0" result="hardAlpha"/>
<feMorphology radius="10" operator="dilate" in="SourceAlpha" result="effect1_dropShadow_576_40195"/>
<feOffset/>
<feGaussianBlur stdDeviation="2"/>
<feComposite in2="hardAlpha" operator="out"/>
<feColorMatrix type="matrix" values="0 0 0 0 0.8375 0 0 0 0 0.8375 0 0 0 0 0.8375 0 0 0 0.1 0"/>
<feBlend mode="normal" in2="BackgroundImageFix" result="effect1_dropShadow_576_40195"/>
<feBlend mode="normal" in="SourceGraphic" in2="effect1_dropShadow_576_40195" result="shape"/>
</filter>
<radialGradient id="paint0_radial_576_40195" cx="0" cy="0" r="1" gradientUnits="userSpaceOnUse" gradientTransform="translate(55.4375 144.945) rotate(180) scale(7.39713 8.34692)">
<stop stop-color="#9B643D"/>
<stop offset="0.8819" stop-color="#BA8A63" stop-opacity="0.1178"/>
<stop offset="0.9997" stop-color="#BF8F68" stop-opacity="0"/>
</radialGradient>
<radialGradient id="paint1_radial_576_40195" cx="0" cy="0" r="1" gradientUnits="userSpaceOnUse" gradientTransform="translate(51.353 138.75) rotate(168.37) scale(4.79077 5.05046)">
<stop offset="0.0003" stop-color="#9B643D"/>
<stop offset="0.8822" stop-color="#BA8A63" stop-opacity="0.1178"/>
<stop offset="1" stop-color="#BF8F68" stop-opacity="0"/>
</radialGradient>
<linearGradient id="paint2_linear_576_40195" x1="80.292" y1="277.172" x2="48.7664" y2="264.992" gradientUnits="userSpaceOnUse">
<stop stop-color="#A6A7DC"/>
<stop offset="1" stop-color="#BDBDE6"/>
</linearGradient>
<radialGradient id="paint3_radial_576_40195" cx="0" cy="0" r="1" gradientUnits="userSpaceOnUse" gradientTransform="translate(71.6144 186.064) scale(18.9545 18.9545)">
<stop stop-color="#E3646A"/>
<stop offset="1" stop-color="#E3646A" stop-opacity="0"/>
</radialGradient>
<linearGradient id="paint4_linear_576_40195" x1="739.863" y1="287.869" x2="690.24" y2="309.791" gradientUnits="userSpaceOnUse">
<stop stop-color="#C8C6C4"/>
<stop offset="1" stop-color="#E1DFDD"/>
</linearGradient>
<linearGradient id="paint5_linear_576_40195" x1="744.497" y1="316.318" x2="767.726" y2="280.517" gradientUnits="userSpaceOnUse">
<stop stop-color="#C8C6C4"/>
<stop offset="1" stop-color="#E1DFDD"/>
</linearGradient>
<radialGradient id="paint6_radial_576_40195" cx="0" cy="0" r="1" gradientUnits="userSpaceOnUse" gradientTransform="translate(706.247 289.672) scale(52.3906 50.6728)">
<stop stop-color="#6264A7"/>
<stop offset="0.7462" stop-color="#8B8CC7"/>
</radialGradient>
<radialGradient id="paint7_radial_576_40195" cx="0" cy="0" r="1" gradientUnits="userSpaceOnUse" gradientTransform="translate(689.718 231.606) rotate(2.65219) scale(9.28353 7.86755)">
<stop stop-color="#9B643D"/>
<stop offset="0.2729" stop-color="#B6865F"/>
<stop offset="0.5661" stop-color="#CDA37C"/>
<stop offset="0.8188" stop-color="#DBB58F"/>
<stop offset="1" stop-color="#E0BB95"/>
</radialGradient>
<radialGradient id="paint8_radial_576_40195" cx="0" cy="0" r="1" gradientUnits="userSpaceOnUse" gradientTransform="translate(689.899 223.37) rotate(-177.082) scale(6.46664 4.78304)">
<stop stop-color="#BF8F68"/>
<stop offset="1" stop-color="#BF8F68" stop-opacity="0"/>
</radialGradient>
</defs>
</svg>
