<svg width="78" height="31" viewBox="0 0 78 31" fill="none" xmlns="http://www.w3.org/2000/svg">
<path d="M43.6475 25.2808C41.3415 25.2808 39.4622 24.5321 38.0098 23.0347C36.5573 21.5298 35.8311 19.5719 35.8311 17.1611C35.8311 14.6156 36.5685 12.5566 38.0435 10.9844C39.5184 9.41211 41.4725 8.62598 43.9058 8.62598C46.2043 8.62598 48.061 9.37842 49.4761 10.8833C50.8986 12.3882 51.6099 14.3722 51.6099 16.8354C51.6099 19.366 50.8724 21.4062 49.3975 22.9561C47.93 24.5059 46.0133 25.2808 43.6475 25.2808ZM43.8047 11.748C42.5319 11.748 41.5212 12.2272 40.7725 13.1855C40.0238 14.1364 39.6494 15.3979 39.6494 16.9702C39.6494 18.5649 40.0238 19.8265 40.7725 20.7549C41.5212 21.6833 42.502 22.1475 43.7148 22.1475C44.9652 22.1475 45.9572 21.6982 46.6909 20.7998C47.4246 19.8939 47.7915 18.6398 47.7915 17.0376C47.7915 15.368 47.4359 14.069 46.7246 13.1406C46.0133 12.2122 45.04 11.748 43.8047 11.748ZM53.5527 24.3823V20.7886C54.2041 21.3351 54.9116 21.7469 55.6753 22.0239C56.439 22.2935 57.2101 22.4282 57.9888 22.4282C58.4455 22.4282 58.8423 22.387 59.1792 22.3047C59.5236 22.2223 59.8081 22.11 60.0327 21.9678C60.2648 21.818 60.437 21.6458 60.5493 21.4512C60.6616 21.249 60.7178 21.0319 60.7178 20.7998C60.7178 20.4854 60.6279 20.2046 60.4482 19.9575C60.2686 19.7104 60.0215 19.4821 59.707 19.2725C59.4001 19.0628 59.0332 18.8607 58.6064 18.666C58.1797 18.4714 57.7192 18.2729 57.2251 18.0708C55.9673 17.5467 55.0277 16.9066 54.4062 16.1504C53.7923 15.3942 53.4854 14.4808 53.4854 13.4102C53.4854 12.5716 53.6538 11.8529 53.9907 11.2539C54.3276 10.6475 54.7843 10.1496 55.3608 9.76025C55.9448 9.37093 56.6187 9.08643 57.3823 8.90674C58.146 8.71956 58.9546 8.62598 59.8081 8.62598C60.6466 8.62598 61.3879 8.67839 62.0317 8.7832C62.6831 8.88053 63.2821 9.03402 63.8286 9.24365V12.6016C63.5591 12.4144 63.2633 12.2497 62.9414 12.1074C62.627 11.9652 62.3013 11.8491 61.9644 11.7593C61.6274 11.6619 61.2905 11.5908 60.9536 11.5459C60.6242 11.501 60.3097 11.4785 60.0103 11.4785C59.5985 11.4785 59.2241 11.5197 58.8872 11.6021C58.5503 11.6769 58.2658 11.7855 58.0337 11.9277C57.8016 12.07 57.6219 12.2422 57.4946 12.4443C57.3674 12.639 57.3037 12.8599 57.3037 13.1069C57.3037 13.3765 57.3748 13.6198 57.5171 13.8369C57.6593 14.0465 57.8615 14.2487 58.1235 14.4434C58.3856 14.6305 58.7038 14.8177 59.0781 15.0049C59.4525 15.1846 59.8755 15.3717 60.3472 15.5664C60.991 15.8359 61.5675 16.1242 62.0767 16.4312C62.5933 16.7306 63.035 17.0713 63.4019 17.4531C63.7687 17.835 64.0495 18.2729 64.2441 18.7671C64.4388 19.2537 64.5361 19.8228 64.5361 20.4741C64.5361 21.3726 64.3639 22.1287 64.0195 22.7427C63.6826 23.3491 63.2222 23.8433 62.6382 24.2251C62.0542 24.5994 61.3729 24.869 60.5942 25.0337C59.8231 25.1984 59.007 25.2808 58.146 25.2808C57.2625 25.2808 56.4202 25.2059 55.6191 25.0562C54.8255 24.9064 54.1367 24.6818 53.5527 24.3823ZM76.8447 25H67.1865V8.89551H76.4741V11.8491H70.814V15.4316H76.0811V18.374H70.814V22.0576H76.8447V25Z" fill="white"/>
<path d="M16.0581 12.4391C15.2519 12.4391 14.5977 13.1127 14.5977 13.9427V18.4536C14.5991 18.8521 14.7525 19.234 15.0256 19.5167L18.1919 22.6021C18.7717 23.1795 19.6962 23.163 20.257 22.5645C20.8032 21.9811 20.8032 21.0579 20.257 20.476L17.5186 17.8311V13.9427C17.5186 13.1127 16.8643 12.4391 16.0581 12.4391Z" fill="white"/>
<path fill-rule="evenodd" clip-rule="evenodd" d="M18.178 26.405C23.5366 26.405 27.8805 22.0611 27.8805 16.7025C27.8805 11.344 23.5366 7 18.178 7C16.2281 7 14.4126 7.57519 12.8918 8.56515L11.3638 5.98051C13.3329 4.72651 15.6706 4 18.178 4C25.1934 4 30.8805 9.68711 30.8805 16.7025C30.8805 23.7179 25.1934 29.405 18.178 29.405C15.3815 29.405 12.796 28.5013 10.6978 26.97L12.3897 24.49C14.0055 25.693 16.0086 26.405 18.178 26.405ZM15.6702 19.6814L18.6675 22.6021C19.2473 23.1795 20.1718 23.163 20.7326 22.5645C21.2788 21.9811 21.2788 21.0579 20.7326 20.476L17.9942 17.8311V13.9427C17.9942 13.1127 17.3399 12.4391 16.5337 12.4391C16.112 12.4391 15.7318 12.6234 15.4652 12.9181L17.521 16.3956L17.5207 16.3958C17.4692 16.4263 17.4262 16.4693 17.3957 16.5209C17.3651 16.5725 17.3481 16.631 17.3461 16.691C17.3442 16.7509 17.3574 16.8104 17.3846 16.8639C17.4117 16.9174 17.452 16.9632 17.5015 16.997L15.6702 19.6814Z" fill="white"/>
<path d="M7.56934 24.9102V27.3472H5.92969V24.9775C4.40983 24.9701 2.99479 24.6257 1.68457 23.9443V20.8335C2.11882 21.1854 2.76644 21.5111 3.62744 21.8105C4.48844 22.11 5.25586 22.2822 5.92969 22.3271V18.2393C4.17773 17.5879 2.97982 16.8841 2.33594 16.1279C1.69954 15.3643 1.38135 14.4359 1.38135 13.3428C1.38135 12.1673 1.79688 11.1678 2.62793 10.3442C3.45898 9.51318 4.55957 9.03027 5.92969 8.89551V6.80664H7.56934V8.85059C9.14909 8.92546 10.3283 9.18001 11.1069 9.61426V12.6465C10.0588 12.0101 8.87956 11.6208 7.56934 11.4785V15.7349C9.20898 16.3263 10.3844 17.0039 11.0957 17.7676C11.807 18.5238 12.1626 19.4409 12.1626 20.519C12.1626 21.7619 11.7658 22.7651 10.9722 23.5288C10.1785 24.285 9.04427 24.7454 7.56934 24.9102ZM5.92969 15.0835V11.5234C4.889 11.7106 4.36865 12.2534 4.36865 13.1519C4.36865 13.923 4.889 14.5669 5.92969 15.0835ZM7.56934 18.8794V22.2822C8.63997 22.1175 9.17529 21.5822 9.17529 20.6763C9.17529 19.9425 8.63997 19.3436 7.56934 18.8794Z" fill="white"/>
</svg>
