<svg width="483" height="252" viewBox="0 0 483 252" fill="none" xmlns="http://www.w3.org/2000/svg">
<g filter="url(#filter0_d_4275_73373)">
<rect x="14" y="14" width="436.724" height="223.83" rx="8" fill="#EAE9E9"/>
</g>
<mask id="path-2-outside-1_4275_73373" maskUnits="userSpaceOnUse" x="147.728" y="36.2649" width="281" height="32" fill="black">
<rect fill="white" x="147.728" y="36.2649" width="281" height="32"/>
<path d="M148.728 66.2649C148.728 66.8172 149.176 67.2649 149.728 67.2649H426.547C427.099 67.2649 427.547 66.8172 427.547 66.2649V39.171C427.547 38.6188 427.099 38.171 426.547 38.171H149.728C149.176 38.171 148.728 38.6188 148.728 39.171V66.2649Z"/>
</mask>
<path d="M148.728 66.2649C148.728 66.8172 149.176 67.2649 149.728 67.2649H426.547C427.099 67.2649 427.547 66.8172 427.547 66.2649V39.171C427.547 38.6188 427.099 38.171 426.547 38.171H149.728C149.176 38.171 148.728 38.6188 148.728 39.171V66.2649Z" fill="white"/>
<path d="M147.728 66.2649C147.728 67.3695 148.623 68.2649 149.728 68.2649H426.547C427.651 68.2649 428.547 67.3695 428.547 66.2649H426.547H149.728H147.728ZM428.547 39.171C428.547 38.0665 427.651 37.171 426.547 37.171H149.728C148.623 37.171 147.728 38.0665 147.728 39.171H149.728H426.547H428.547ZM149.728 37.171C148.623 37.171 147.728 38.0665 147.728 39.171V66.2649C147.728 67.3695 148.623 68.2649 149.728 68.2649V66.2649V39.171V37.171ZM426.547 68.2649C427.651 68.2649 428.547 67.3695 428.547 66.2649V39.171C428.547 38.0665 427.651 37.171 426.547 37.171V39.171V66.2649V68.2649Z" fill="#E1DFDD" mask="url(#path-2-outside-1_4275_73373)"/>
<mask id="path-4-outside-2_4275_73373" maskUnits="userSpaceOnUse" x="147.728" y="66.6238" width="281" height="32" fill="black">
<rect fill="white" x="147.728" y="66.6238" width="281" height="32"/>
<path d="M148.728 96.6238C148.728 97.1761 149.176 97.6238 149.728 97.6238H426.547C427.099 97.6238 427.547 97.1761 427.547 96.6238V69.5299C427.547 68.9776 427.099 68.5299 426.547 68.5299H149.728C149.176 68.5299 148.728 68.9776 148.728 69.5299V96.6238Z"/>
</mask>
<path d="M148.728 96.6238C148.728 97.1761 149.176 97.6238 149.728 97.6238H426.547C427.099 97.6238 427.547 97.1761 427.547 96.6238V69.5299C427.547 68.9776 427.099 68.5299 426.547 68.5299H149.728C149.176 68.5299 148.728 68.9776 148.728 69.5299V96.6238Z" fill="white"/>
<path d="M147.728 96.6238C147.728 97.7283 148.623 98.6238 149.728 98.6238H426.547C427.651 98.6238 428.547 97.7283 428.547 96.6238H426.547H149.728H147.728ZM428.547 69.5299C428.547 68.4254 427.651 67.5299 426.547 67.5299H149.728C148.623 67.5299 147.728 68.4254 147.728 69.5299H149.728H426.547H428.547ZM149.728 67.5299C148.623 67.5299 147.728 68.4254 147.728 69.5299V96.6238C147.728 97.7283 148.623 98.6238 149.728 98.6238V96.6238V69.5299V67.5299ZM426.547 98.6238C427.651 98.6238 428.547 97.7283 428.547 96.6238V69.5299C428.547 68.4254 427.651 67.5299 426.547 67.5299V69.5299V96.6238V98.6238Z" fill="#E1DFDD" mask="url(#path-4-outside-2_4275_73373)"/>
<mask id="path-6-outside-3_4275_73373" maskUnits="userSpaceOnUse" x="147.728" y="96.9822" width="281" height="32" fill="black">
<rect fill="white" x="147.728" y="96.9822" width="281" height="32"/>
<path d="M148.728 126.982C148.728 127.534 149.176 127.982 149.728 127.982H426.547C427.099 127.982 427.547 127.534 427.547 126.982V99.8883C427.547 99.336 427.099 98.8883 426.547 98.8883H149.728C149.176 98.8883 148.728 99.336 148.728 99.8883V126.982Z"/>
</mask>
<path d="M148.728 126.982C148.728 127.534 149.176 127.982 149.728 127.982H426.547C427.099 127.982 427.547 127.534 427.547 126.982V99.8883C427.547 99.336 427.099 98.8883 426.547 98.8883H149.728C149.176 98.8883 148.728 99.336 148.728 99.8883V126.982Z" fill="white"/>
<path d="M147.728 126.982C147.728 128.087 148.623 128.982 149.728 128.982H426.547C427.651 128.982 428.547 128.087 428.547 126.982H426.547H149.728H147.728ZM428.547 99.8883C428.547 98.7838 427.651 97.8883 426.547 97.8883H149.728C148.623 97.8883 147.728 98.7838 147.728 99.8883H149.728H426.547H428.547ZM149.728 97.8883C148.623 97.8883 147.728 98.7838 147.728 99.8883V126.982C147.728 128.087 148.623 128.982 149.728 128.982V126.982V99.8883V97.8883ZM426.547 128.982C427.651 128.982 428.547 128.087 428.547 126.982V99.8883C428.547 98.7838 427.651 97.8883 426.547 97.8883V99.8883V126.982V128.982Z" fill="#E1DFDD" mask="url(#path-6-outside-3_4275_73373)"/>
<mask id="path-8-outside-4_4275_73373" maskUnits="userSpaceOnUse" x="147.728" y="127.341" width="281" height="32" fill="black">
<rect fill="white" x="147.728" y="127.341" width="281" height="32"/>
<path d="M148.728 157.341C148.728 157.893 149.176 158.341 149.728 158.341H426.547C427.099 158.341 427.547 157.893 427.547 157.341V130.247C427.547 129.695 427.099 129.247 426.547 129.247H149.728C149.176 129.247 148.728 129.695 148.728 130.247V157.341Z"/>
</mask>
<path d="M148.728 157.341C148.728 157.893 149.176 158.341 149.728 158.341H426.547C427.099 158.341 427.547 157.893 427.547 157.341V130.247C427.547 129.695 427.099 129.247 426.547 129.247H149.728C149.176 129.247 148.728 129.695 148.728 130.247V157.341Z" fill="white"/>
<path d="M147.728 157.341C147.728 158.446 148.623 159.341 149.728 159.341H426.547C427.651 159.341 428.547 158.446 428.547 157.341H426.547H149.728H147.728ZM428.547 130.247C428.547 129.143 427.651 128.247 426.547 128.247H149.728C148.623 128.247 147.728 129.143 147.728 130.247H149.728H426.547H428.547ZM149.728 128.247C148.623 128.247 147.728 129.143 147.728 130.247V157.341C147.728 158.446 148.623 159.341 149.728 159.341V157.341V130.247V128.247ZM426.547 159.341C427.651 159.341 428.547 158.446 428.547 157.341V130.247C428.547 129.143 427.651 128.247 426.547 128.247V130.247V157.341V159.341Z" fill="#E1DFDD" mask="url(#path-8-outside-4_4275_73373)"/>
<mask id="path-10-outside-5_4275_73373" maskUnits="userSpaceOnUse" x="147.728" y="156.384" width="281" height="32" fill="black">
<rect fill="white" x="147.728" y="156.384" width="281" height="32"/>
<path d="M148.728 186.384C148.728 186.936 149.176 187.384 149.728 187.384H426.547C427.099 187.384 427.547 186.936 427.547 186.384V159.29C427.547 158.738 427.099 158.29 426.547 158.29H149.728C149.176 158.29 148.728 158.738 148.728 159.29V186.384Z"/>
</mask>
<path d="M148.728 186.384C148.728 186.936 149.176 187.384 149.728 187.384H426.547C427.099 187.384 427.547 186.936 427.547 186.384V159.29C427.547 158.738 427.099 158.29 426.547 158.29H149.728C149.176 158.29 148.728 158.738 148.728 159.29V186.384Z" fill="white"/>
<path d="M147.728 186.384C147.728 187.488 148.623 188.384 149.728 188.384H426.547C427.651 188.384 428.547 187.488 428.547 186.384H426.547H149.728H147.728ZM428.547 159.29C428.547 158.185 427.651 157.29 426.547 157.29H149.728C148.623 157.29 147.728 158.185 147.728 159.29H149.728H426.547H428.547ZM149.728 157.29C148.623 157.29 147.728 158.185 147.728 159.29V186.384C147.728 187.488 148.623 188.384 149.728 188.384V186.384V159.29V157.29ZM426.547 188.384C427.651 188.384 428.547 187.488 428.547 186.384V159.29C428.547 158.185 427.651 157.29 426.547 157.29V159.29V186.384V188.384Z" fill="#E1DFDD" mask="url(#path-10-outside-5_4275_73373)"/>
<mask id="path-12-outside-6_4275_73373" maskUnits="userSpaceOnUse" x="147.728" y="186.742" width="281" height="32" fill="black">
<rect fill="white" x="147.728" y="186.742" width="281" height="32"/>
<path d="M148.728 216.742C148.728 217.294 149.176 217.742 149.728 217.742H426.547C427.099 217.742 427.547 217.294 427.547 216.742V189.648C427.547 189.096 427.099 188.648 426.547 188.648H149.728C149.176 188.648 148.728 189.096 148.728 189.648V216.742Z"/>
</mask>
<path d="M148.728 216.742C148.728 217.294 149.176 217.742 149.728 217.742H426.547C427.099 217.742 427.547 217.294 427.547 216.742V189.648C427.547 189.096 427.099 188.648 426.547 188.648H149.728C149.176 188.648 148.728 189.096 148.728 189.648V216.742Z" fill="white"/>
<path d="M147.728 216.742C147.728 217.847 148.623 218.742 149.728 218.742H426.547C427.651 218.742 428.547 217.847 428.547 216.742H426.547H149.728H147.728ZM428.547 189.648C428.547 188.544 427.651 187.648 426.547 187.648H149.728C148.623 187.648 147.728 188.544 147.728 189.648H149.728H426.547H428.547ZM149.728 187.648C148.623 187.648 147.728 188.544 147.728 189.648V216.742C147.728 217.847 148.623 218.742 149.728 218.742V216.742V189.648V187.648ZM426.547 218.742C427.651 218.742 428.547 217.847 428.547 216.742V189.648C428.547 188.544 427.651 187.648 426.547 187.648V189.648V216.742V218.742Z" fill="#E1DFDD" mask="url(#path-12-outside-6_4275_73373)"/>
<rect x="159.496" y="49.5188" width="256.048" height="7.93958" rx="1" fill="#D0E7F8"/>
<rect x="159.776" y="78.7856" width="68.9156" height="8.1127" rx="1" fill="#EDEDED"/>
<rect x="159.776" y="108.803" width="79.9631" height="8.1127" rx="1" fill="#DFF6DD"/>
<rect x="274.359" y="139.5" width="141.185" height="7.93958" rx="1" fill="#D0E7F8"/>
<rect x="159.496" y="139.5" width="50.2524" height="7.93958" rx="1" fill="#D0E7F8"/>
<rect x="159.776" y="168.836" width="68.9156" height="8.1127" rx="1" fill="#EDEDED"/>
<rect x="159.776" y="198.854" width="79.9631" height="8.1127" rx="1" fill="#EDEDED"/>
<mask id="path-21-outside-7_4275_73373" maskUnits="userSpaceOnUse" x="34.1301" y="36.2649" width="105" height="32" fill="black">
<rect fill="white" x="34.1301" y="36.2649" width="105" height="32"/>
<path d="M35.1301 66.2649C35.1301 66.8172 35.5778 67.2649 36.1301 67.2649H136.96C137.512 67.2649 137.96 66.8172 137.96 66.2649V39.171C137.96 38.6188 137.512 38.171 136.96 38.171H36.1301C35.5778 38.171 35.1301 38.6188 35.1301 39.171V66.2649Z"/>
</mask>
<path d="M35.1301 66.2649C35.1301 66.8172 35.5778 67.2649 36.1301 67.2649H136.96C137.512 67.2649 137.96 66.8172 137.96 66.2649V39.171C137.96 38.6188 137.512 38.171 136.96 38.171H36.1301C35.5778 38.171 35.1301 38.6188 35.1301 39.171V66.2649Z" fill="white"/>
<path d="M34.1301 66.2649C34.1301 67.3695 35.0256 68.2649 36.1301 68.2649H136.96C138.065 68.2649 138.96 67.3695 138.96 66.2649H136.96H36.1301H34.1301ZM138.96 39.171C138.96 38.0665 138.065 37.171 136.96 37.171H36.1301C35.0256 37.171 34.1301 38.0665 34.1301 39.171H36.1301H136.96H138.96ZM36.1301 37.171C35.0256 37.171 34.1301 38.0665 34.1301 39.171V66.2649C34.1301 67.3695 35.0256 68.2649 36.1301 68.2649V66.2649V39.171V37.171ZM136.96 68.2649C138.065 68.2649 138.96 67.3695 138.96 66.2649V39.171C138.96 38.0665 138.065 37.171 136.96 37.171V39.171V66.2649V68.2649Z" fill="#E1DFDD" mask="url(#path-21-outside-7_4275_73373)"/>
<mask id="path-23-outside-8_4275_73373" maskUnits="userSpaceOnUse" x="34.1301" y="66.6238" width="105" height="32" fill="black">
<rect fill="white" x="34.1301" y="66.6238" width="105" height="32"/>
<path d="M35.1301 96.6238C35.1301 97.1761 35.5778 97.6238 36.1301 97.6238H136.96C137.512 97.6238 137.96 97.1761 137.96 96.6238V69.5299C137.96 68.9776 137.512 68.5299 136.96 68.5299H36.1301C35.5778 68.5299 35.1301 68.9776 35.1301 69.5299V96.6238Z"/>
</mask>
<path d="M35.1301 96.6238C35.1301 97.1761 35.5778 97.6238 36.1301 97.6238H136.96C137.512 97.6238 137.96 97.1761 137.96 96.6238V69.5299C137.96 68.9776 137.512 68.5299 136.96 68.5299H36.1301C35.5778 68.5299 35.1301 68.9776 35.1301 69.5299V96.6238Z" fill="white"/>
<path d="M34.1301 96.6238C34.1301 97.7283 35.0256 98.6238 36.1301 98.6238H136.96C138.065 98.6238 138.96 97.7283 138.96 96.6238H136.96H36.1301H34.1301ZM138.96 69.5299C138.96 68.4254 138.065 67.5299 136.96 67.5299H36.1301C35.0256 67.5299 34.1301 68.4254 34.1301 69.5299H36.1301H136.96H138.96ZM36.1301 67.5299C35.0256 67.5299 34.1301 68.4254 34.1301 69.5299V96.6238C34.1301 97.7283 35.0256 98.6238 36.1301 98.6238V96.6238V69.5299V67.5299ZM136.96 98.6238C138.065 98.6238 138.96 97.7283 138.96 96.6238V69.5299C138.96 68.4254 138.065 67.5299 136.96 67.5299V69.5299V96.6238V98.6238Z" fill="#E1DFDD" mask="url(#path-23-outside-8_4275_73373)"/>
<mask id="path-25-outside-9_4275_73373" maskUnits="userSpaceOnUse" x="34.1301" y="96.9822" width="105" height="32" fill="black">
<rect fill="white" x="34.1301" y="96.9822" width="105" height="32"/>
<path d="M35.1301 126.982C35.1301 127.534 35.5778 127.982 36.1301 127.982H136.96C137.512 127.982 137.96 127.534 137.96 126.982V99.8883C137.96 99.336 137.512 98.8883 136.96 98.8883H36.1301C35.5778 98.8883 35.1301 99.336 35.1301 99.8883V126.982Z"/>
</mask>
<path d="M35.1301 126.982C35.1301 127.534 35.5778 127.982 36.1301 127.982H136.96C137.512 127.982 137.96 127.534 137.96 126.982V99.8883C137.96 99.336 137.512 98.8883 136.96 98.8883H36.1301C35.5778 98.8883 35.1301 99.336 35.1301 99.8883V126.982Z" fill="white"/>
<path d="M34.1301 126.982C34.1301 128.087 35.0256 128.982 36.1301 128.982H136.96C138.065 128.982 138.96 128.087 138.96 126.982H136.96H36.1301H34.1301ZM138.96 99.8883C138.96 98.7838 138.065 97.8883 136.96 97.8883H36.1301C35.0256 97.8883 34.1301 98.7838 34.1301 99.8883H36.1301H136.96H138.96ZM36.1301 97.8883C35.0256 97.8883 34.1301 98.7838 34.1301 99.8883V126.982C34.1301 128.087 35.0256 128.982 36.1301 128.982V126.982V99.8883V97.8883ZM136.96 128.982C138.065 128.982 138.96 128.087 138.96 126.982V99.8883C138.96 98.7838 138.065 97.8883 136.96 97.8883V99.8883V126.982V128.982Z" fill="#E1DFDD" mask="url(#path-25-outside-9_4275_73373)"/>
<mask id="path-27-outside-10_4275_73373" maskUnits="userSpaceOnUse" x="34.1301" y="127.341" width="105" height="32" fill="black">
<rect fill="white" x="34.1301" y="127.341" width="105" height="32"/>
<path d="M35.1301 157.341C35.1301 157.893 35.5778 158.341 36.1301 158.341H136.96C137.512 158.341 137.96 157.893 137.96 157.341V130.247C137.96 129.695 137.512 129.247 136.96 129.247H36.1301C35.5778 129.247 35.1301 129.695 35.1301 130.247V157.341Z"/>
</mask>
<path d="M35.1301 157.341C35.1301 157.893 35.5778 158.341 36.1301 158.341H136.96C137.512 158.341 137.96 157.893 137.96 157.341V130.247C137.96 129.695 137.512 129.247 136.96 129.247H36.1301C35.5778 129.247 35.1301 129.695 35.1301 130.247V157.341Z" fill="white"/>
<path d="M34.1301 157.341C34.1301 158.446 35.0256 159.341 36.1301 159.341H136.96C138.065 159.341 138.96 158.446 138.96 157.341H136.96H36.1301H34.1301ZM138.96 130.247C138.96 129.143 138.065 128.247 136.96 128.247H36.1301C35.0256 128.247 34.1301 129.143 34.1301 130.247H36.1301H136.96H138.96ZM36.1301 128.247C35.0256 128.247 34.1301 129.143 34.1301 130.247V157.341C34.1301 158.446 35.0256 159.341 36.1301 159.341V157.341V130.247V128.247ZM136.96 159.341C138.065 159.341 138.96 158.446 138.96 157.341V130.247C138.96 129.143 138.065 128.247 136.96 128.247V130.247V157.341V159.341Z" fill="#E1DFDD" mask="url(#path-27-outside-10_4275_73373)"/>
<mask id="path-29-outside-11_4275_73373" maskUnits="userSpaceOnUse" x="34.1301" y="156.384" width="105" height="32" fill="black">
<rect fill="white" x="34.1301" y="156.384" width="105" height="32"/>
<path d="M35.1301 186.384C35.1301 186.936 35.5778 187.384 36.1301 187.384H136.96C137.512 187.384 137.96 186.936 137.96 186.384V159.29C137.96 158.738 137.512 158.29 136.96 158.29H36.1301C35.5778 158.29 35.1301 158.738 35.1301 159.29V186.384Z"/>
</mask>
<path d="M35.1301 186.384C35.1301 186.936 35.5778 187.384 36.1301 187.384H136.96C137.512 187.384 137.96 186.936 137.96 186.384V159.29C137.96 158.738 137.512 158.29 136.96 158.29H36.1301C35.5778 158.29 35.1301 158.738 35.1301 159.29V186.384Z" fill="white"/>
<path d="M34.1301 186.384C34.1301 187.488 35.0256 188.384 36.1301 188.384H136.96C138.065 188.384 138.96 187.488 138.96 186.384H136.96H36.1301H34.1301ZM138.96 159.29C138.96 158.185 138.065 157.29 136.96 157.29H36.1301C35.0256 157.29 34.1301 158.185 34.1301 159.29H36.1301H136.96H138.96ZM36.1301 157.29C35.0256 157.29 34.1301 158.185 34.1301 159.29V186.384C34.1301 187.488 35.0256 188.384 36.1301 188.384V186.384V159.29V157.29ZM136.96 188.384C138.065 188.384 138.96 187.488 138.96 186.384V159.29C138.96 158.185 138.065 157.29 136.96 157.29V159.29V186.384V188.384Z" fill="#E1DFDD" mask="url(#path-29-outside-11_4275_73373)"/>
<mask id="path-31-outside-12_4275_73373" maskUnits="userSpaceOnUse" x="34.1301" y="186.742" width="105" height="32" fill="black">
<rect fill="white" x="34.1301" y="186.742" width="105" height="32"/>
<path d="M35.1301 216.742C35.1301 217.294 35.5778 217.742 36.1301 217.742H136.96C137.512 217.742 137.96 217.294 137.96 216.742V189.648C137.96 189.096 137.512 188.648 136.96 188.648H36.1301C35.5778 188.648 35.1301 189.096 35.1301 189.648V216.742Z"/>
</mask>
<path d="M35.1301 216.742C35.1301 217.294 35.5778 217.742 36.1301 217.742H136.96C137.512 217.742 137.96 217.294 137.96 216.742V189.648C137.96 189.096 137.512 188.648 136.96 188.648H36.1301C35.5778 188.648 35.1301 189.096 35.1301 189.648V216.742Z" fill="white"/>
<path d="M34.1301 216.742C34.1301 217.847 35.0256 218.742 36.1301 218.742H136.96C138.065 218.742 138.96 217.847 138.96 216.742H136.96H36.1301H34.1301ZM138.96 189.648C138.96 188.544 138.065 187.648 136.96 187.648H36.1301C35.0256 187.648 34.1301 188.544 34.1301 189.648H36.1301H136.96H138.96ZM36.1301 187.648C35.0256 187.648 34.1301 188.544 34.1301 189.648V216.742C34.1301 217.847 35.0256 218.742 36.1301 218.742V216.742V189.648V187.648ZM136.96 218.742C138.065 218.742 138.96 217.847 138.96 216.742V189.648C138.96 188.544 138.065 187.648 136.96 187.648V189.648V216.742V218.742Z" fill="#E1DFDD" mask="url(#path-31-outside-12_4275_73373)"/>
<rect x="39.2046" y="49.5796" width="31.8191" height="8.1127" rx="1" fill="#EDEDED"/>
<rect x="39.2046" y="78.7856" width="25.4165" height="8.1127" rx="1" fill="#EDEDED"/>
<rect x="39.2046" y="108.803" width="29.4909" height="8.1127" rx="1" fill="#EDEDED"/>
<rect x="39.2046" y="139.631" width="31.8191" height="8.1127" rx="1" fill="#EDEDED"/>
<rect x="39.2046" y="168.836" width="25.4165" height="8.1127" rx="1" fill="#EDEDED"/>
<rect x="39.2046" y="198.854" width="29.4909" height="8.1127" rx="1" fill="#EDEDED"/>
<rect x="118.679" y="49.5188" width="14.1391" height="7.93958" fill="#EDEDED"/>
<rect x="118.679" y="78.6304" width="11.5684" height="7.93958" fill="#EDEDED"/>
<rect x="118.679" y="109.065" width="12.8537" height="7.93958" fill="#EDEDED"/>
<rect x="118.679" y="139.5" width="14.1391" height="7.93958" fill="#EDEDED"/>
<rect x="118.679" y="168.612" width="11.5684" height="7.93958" fill="#EDEDED"/>
<rect x="118.679" y="199.048" width="12.8537" height="7.93958" fill="#EDEDED"/>
<rect x="148.464" y="38.0115" width="279.494" height="179.606" rx="4" fill="white"/>
<g clip-path="url(#clip0_4275_73373)">
<path d="M363.213 144.233V153.549C363.213 164.002 356.28 174.456 342.528 182.409C314.909 198.429 269.902 198.429 242.056 182.409C228.077 174.342 221.03 163.662 221.03 153.095V143.778C221.03 154.345 227.963 165.025 242.056 173.092C269.902 189.113 314.909 189.113 342.528 173.092C356.394 165.139 363.213 154.686 363.213 144.233Z" fill="#CDCDD0"/>
<path d="M342.3 114.919C370.146 130.939 370.259 157.072 342.641 173.092C315.023 189.113 270.016 189.113 242.17 173.092C214.325 157.072 214.211 130.939 241.829 114.919C269.447 98.8982 314.455 98.8982 342.3 114.919Z" fill="white"/>
<path opacity="0.5" d="M266.606 95.0351L291.496 80.8325L316.387 94.8078L291.61 109.124L266.606 95.0351Z" fill="#50E6FF"/>
<path opacity="0.5" d="M291.61 109.124L291.269 137.415L316.273 123.213L316.501 94.9214L291.61 109.124Z" fill="#0078D4"/>
<path opacity="0.5" d="M266.606 95.0349L266.379 123.326L291.269 137.415L291.496 109.124L266.606 95.0349Z" fill="#1E9FE0"/>
<path opacity="0.75" d="M291.61 80.8323L316.501 94.8076L316.273 123.099L291.269 137.415L266.379 123.326L266.606 95.0349L291.61 80.8323ZM291.61 79.5825C291.383 79.5825 291.269 79.5825 291.042 79.6961L266.038 94.0123C265.697 94.2395 265.469 94.5804 265.469 95.1485C265.469 95.1485 265.469 95.1485 265.469 95.2621L265.128 123.326C265.128 123.781 265.356 124.122 265.697 124.463L290.701 138.324C290.928 138.438 291.042 138.438 291.269 138.438C291.496 138.438 291.61 138.438 291.837 138.324C291.837 138.324 291.837 138.324 291.951 138.324L316.728 124.122C317.069 123.894 317.296 123.554 317.296 122.985L317.523 94.694C317.523 94.2395 317.296 93.8987 316.955 93.5578L292.178 79.6961C291.951 79.5825 291.724 79.5825 291.61 79.5825Z" fill="white"/>
<path opacity="0.15" d="M286.041 146.505L260.469 161.276L234.783 146.619L260.355 131.848L286.041 146.505Z" fill="#1F1D20"/>
<path d="M236.146 115.032L260.469 100.943L284.564 114.805L260.241 128.894L236.146 115.032Z" fill="#50E6FF"/>
<path d="M260.241 128.894L260.014 156.844L284.336 142.756L284.563 114.805L260.241 128.894Z" fill="#0078D4"/>
<path d="M236.146 115.032V142.983L260.014 156.844L260.241 128.894L236.146 115.032Z" fill="#1E9FE0"/>
<path d="M260.469 100.943L284.564 114.805L284.336 142.755L260.014 156.617L236.147 142.869V115.032L260.469 100.943ZM260.469 99.6934C260.241 99.6934 260.128 99.6934 259.9 99.807L235.578 113.896C235.237 114.123 235.01 114.464 235.01 115.032V142.983C235.01 143.437 235.237 143.778 235.578 144.119L259.446 157.981C259.673 158.094 259.787 158.094 260.014 158.094C260.241 158.094 260.355 158.094 260.582 157.981L284.905 143.892C285.246 143.664 285.473 143.324 285.473 142.755L285.7 114.805C285.7 114.35 285.473 114.01 285.132 113.669L261.037 99.807C260.923 99.6934 260.696 99.6934 260.469 99.6934Z" fill="white"/>
<path opacity="0.15" d="M347.983 146.505L322.411 160.367L296.725 145.596L322.297 130.825L347.983 146.505Z" fill="#1F1D20"/>
<g opacity="0.6">
<path opacity="0.6" d="M297.748 113.669L322.979 99.6934L347.869 113.669L322.638 127.985L297.748 113.669Z" fill="#50E6FF"/>
</g>
<path d="M322.752 128.553C322.638 128.553 322.524 128.553 322.524 128.439L297.52 114.123C297.407 114.009 297.293 113.896 297.293 113.669C297.293 113.441 297.407 113.328 297.52 113.214L322.752 99.2388C322.865 99.1252 323.093 99.1252 323.32 99.2388L348.21 113.214C348.324 113.328 348.438 113.441 348.438 113.669C348.438 113.896 348.324 114.009 348.21 114.123L322.979 128.439C322.865 128.553 322.865 128.553 322.752 128.553ZM298.884 113.669L322.752 127.417L346.847 113.669L322.979 100.261L298.884 113.669Z" fill="#50E6FF"/>
<g opacity="0.3">
<path opacity="0.3" d="M322.752 127.985L322.524 156.049L347.756 142.074L347.983 113.782L322.752 127.985Z" fill="#50E6FF"/>
</g>
<path d="M322.524 156.617C322.411 156.617 322.297 156.617 322.297 156.504C322.183 156.39 322.07 156.276 322.07 156.049L322.297 127.985C322.297 127.758 322.411 127.644 322.524 127.53L347.642 113.328C347.756 113.214 347.983 113.214 348.211 113.328C348.324 113.442 348.438 113.555 348.438 113.782L348.211 142.074C348.211 142.301 348.097 142.415 347.983 142.528L322.752 156.504C322.638 156.617 322.524 156.617 322.524 156.617ZM323.206 128.326L322.979 155.14L347.188 141.733L347.415 114.691L323.206 128.326Z" fill="#50E6FF"/>
<g opacity="0.5">
<path opacity="0.5" d="M297.748 113.669V141.96L322.411 155.935L322.638 127.985L297.748 113.669Z" fill="#50E6FF"/>
</g>
<path d="M322.524 156.503C322.411 156.503 322.297 156.503 322.297 156.39L297.52 142.415C297.407 142.301 297.293 142.187 297.293 141.96V113.669C297.293 113.441 297.407 113.328 297.52 113.214C297.634 113.101 297.861 113.101 298.089 113.214L322.979 127.53C323.093 127.644 323.206 127.758 323.206 127.985L322.979 155.935C322.979 156.163 322.865 156.276 322.752 156.39C322.638 156.503 322.638 156.503 322.524 156.503ZM298.316 141.619L321.956 155.026L322.183 128.326L298.316 114.578V141.619Z" fill="#50E6FF"/>
<path d="M340.936 138.665L322.638 149.345L304.226 138.665L322.524 127.985L340.936 138.665Z" fill="#185A97"/>
<path d="M340.936 132.643L322.638 143.323L304.226 132.643L322.524 121.963L340.936 132.643Z" fill="#0078D4"/>
<path d="M340.936 125.713L322.638 136.393L304.226 125.713L322.524 115.032L340.936 125.713Z" fill="#32B0E7"/>
<path d="M340.936 118.1L322.638 128.78L304.226 118.1L322.524 107.42L340.936 118.1Z" fill="#50E6FF"/>
<path opacity="0.15" d="M316.955 164.457L291.383 179.228L265.924 164.457L291.269 149.686L316.955 164.457Z" fill="#1F1D20"/>
<path opacity="0.5" d="M266.606 132.302L291.496 118.1L316.387 132.075L291.61 146.391L266.606 132.302Z" fill="#50E6FF"/>
<path opacity="0.5" d="M291.61 146.391L291.269 174.683L316.273 160.48L316.501 132.189L291.61 146.391Z" fill="#0078D4"/>
<path opacity="0.5" d="M266.606 132.302L266.379 160.594L291.269 174.683L291.496 146.391L266.606 132.302Z" fill="#1E9FE0"/>
<path opacity="0.75" d="M291.61 118.1L316.501 132.075L316.273 160.367L291.269 174.683L266.379 160.594L266.606 132.302L291.61 118.1ZM291.61 116.85C291.383 116.85 291.269 116.85 291.042 116.964L266.038 131.393C265.697 131.621 265.469 131.962 265.469 132.53C265.469 132.53 265.469 132.53 265.469 132.643L265.128 160.594C265.128 161.048 265.356 161.389 265.697 161.73L290.587 175.705C290.814 175.819 290.928 175.819 291.155 175.819C291.383 175.819 291.496 175.819 291.724 175.705C291.724 175.705 291.724 175.705 291.837 175.705L316.614 161.503C316.955 161.276 317.182 160.935 317.182 160.367L317.41 132.075C317.41 131.621 317.182 131.28 316.842 130.939L292.178 116.964C291.951 116.85 291.724 116.85 291.61 116.85Z" fill="white"/>
<path d="M309.909 156.39L291.61 167.07L273.084 156.39L291.383 145.709L309.909 156.39Z" fill="#185A97"/>
<path d="M309.909 150.368L291.497 161.048L273.084 150.368L291.383 139.688L309.909 150.368Z" fill="#0078D4"/>
<path d="M309.909 143.324L291.61 154.004L273.084 143.324L291.383 132.643L309.909 143.324Z" fill="#32B0E7"/>
<path d="M309.909 135.711L291.61 146.391L273.084 135.711L291.383 125.031L309.909 135.711Z" fill="#50E6FF"/>
<path d="M291.61 80.8324L252.967 83.332L236.147 115.032L217.734 70.1521" stroke="#50E6FF" stroke-width="0.5" stroke-miterlimit="10" stroke-linecap="round" stroke-linejoin="round"/>
<path d="M252.967 83.332L217.734 70.1521L189.775 94.9213" stroke="#50E6FF" stroke-width="0.5" stroke-miterlimit="10" stroke-linecap="round" stroke-linejoin="round"/>
<path d="M236.146 116.964C237.214 116.964 238.079 116.099 238.079 115.032C238.079 113.965 237.214 113.101 236.146 113.101C235.079 113.101 234.214 113.965 234.214 115.032C234.214 116.099 235.079 116.964 236.146 116.964Z" fill="#0078D4"/>
<path d="M252.968 85.2637C254.035 85.2637 254.9 84.3989 254.9 83.3322C254.9 82.2654 254.035 81.4006 252.968 81.4006C251.9 81.4006 251.035 82.2654 251.035 83.3322C251.035 84.3989 251.9 85.2637 252.968 85.2637Z" fill="#50E6FF"/>
<path d="M217.734 72.0835C218.801 72.0835 219.667 71.2188 219.667 70.152C219.667 69.0852 218.801 68.2205 217.734 68.2205C216.667 68.2205 215.802 69.0852 215.802 70.152C215.802 71.2188 216.667 72.0835 217.734 72.0835Z" fill="#32B0E7"/>
<path d="M189.775 96.8528C190.842 96.8528 191.707 95.9881 191.707 94.9213C191.707 93.8545 190.842 92.9897 189.775 92.9897C188.708 92.9897 187.843 93.8545 187.843 94.9213C187.843 95.9881 188.708 96.8528 189.775 96.8528Z" fill="#50E6FF"/>
<path d="M291.269 82.764C292.336 82.764 293.201 81.8992 293.201 80.8324C293.201 79.7657 292.336 78.9009 291.269 78.9009C290.202 78.9009 289.337 79.7657 289.337 80.8324C289.337 81.8992 290.202 82.764 291.269 82.764Z" fill="#0078D4"/>
<path d="M347.642 113.328L345.028 91.1719L316.501 94.8077" stroke="#50E6FF" stroke-width="0.5" stroke-miterlimit="10" stroke-linecap="round" stroke-linejoin="round"/>
<path d="M345.028 91.1718L378.556 113.328L391.627 87.1951L345.028 91.1718Z" stroke="#50E6FF" stroke-width="0.5" stroke-miterlimit="10" stroke-linecap="round" stroke-linejoin="round"/>
<path d="M391.627 87.1952L409.698 63.335" stroke="#50E6FF" stroke-width="0.5" stroke-miterlimit="10" stroke-linecap="round" stroke-linejoin="round"/>
<path d="M316.5 96.8528C317.568 96.8528 318.433 95.9881 318.433 94.9213C318.433 93.8545 317.568 92.9897 316.5 92.9897C315.433 92.9897 314.568 93.8545 314.568 94.9213C314.568 95.9881 315.433 96.8528 316.5 96.8528Z" fill="#0078D4"/>
<path d="M347.869 115.146C348.936 115.146 349.802 114.281 349.802 113.214C349.802 112.147 348.936 111.283 347.869 111.283C346.802 111.283 345.937 112.147 345.937 113.214C345.937 114.281 346.802 115.146 347.869 115.146Z" fill="#32B0E7"/>
<path d="M345.028 93.1033C346.095 93.1033 346.96 92.2385 346.96 91.1718C346.96 90.105 346.095 89.2402 345.028 89.2402C343.961 89.2402 343.096 90.105 343.096 91.1718C343.096 92.2385 343.961 93.1033 345.028 93.1033Z" fill="#50E6FF"/>
<path d="M378.329 115.146C379.396 115.146 380.261 114.281 380.261 113.214C380.261 112.147 379.396 111.283 378.329 111.283C377.262 111.283 376.397 112.147 376.397 113.214C376.397 114.281 377.262 115.146 378.329 115.146Z" fill="#0078D4"/>
<path d="M391.627 89.1268C392.694 89.1268 393.559 88.262 393.559 87.1952C393.559 86.1285 392.694 85.2637 391.627 85.2637C390.56 85.2637 389.695 86.1285 389.695 87.1952C389.695 88.262 390.56 89.1268 391.627 89.1268Z" fill="#50E6FF"/>
<path d="M409.698 64.9256C410.765 64.9256 411.63 64.0608 411.63 62.994C411.63 61.9273 410.765 61.0625 409.698 61.0625C408.631 61.0625 407.766 61.9273 407.766 62.994C407.766 64.0608 408.631 64.9256 409.698 64.9256Z" fill="#32B0E7"/>
</g>
<path d="M473.348 151.113C478.366 142.426 475.136 131.169 466.134 125.968C457.131 120.768 445.766 123.594 440.748 132.28C435.73 140.967 438.96 152.224 447.962 157.425C456.965 162.625 468.33 159.799 473.348 151.113Z" fill="#594539"/>
<path d="M464.997 106.549C466.383 112.602 468.283 122.322 474.012 134.556C465.983 137.932 451.352 137.585 440.358 132.996C443.328 127.051 445.697 116.85 444.996 110.132C445.082 108.866 464.649 105.031 464.997 106.549Z" fill="#594539"/>
<path d="M449.04 129.264H444.201V145.651H449.04V129.264Z" fill="#EE8F94"/>
<path d="M427.985 144.841C428.056 144.889 429.107 145.865 429.702 146.42C429.96 146.66 430.307 146.781 430.658 146.752L435.051 146.399L436.204 146.266V144.59L427.985 144.841Z" fill="#BF8F68"/>
<path d="M447.072 148.52L435.051 146.399V144.186H447.072V148.52Z" fill="#EE8F94"/>
<path d="M450.145 135.131C453.429 135.131 456.09 132.469 456.09 129.186C456.09 125.903 453.429 123.241 450.145 123.241C446.862 123.241 444.201 125.903 444.201 129.186C444.201 132.469 446.862 135.131 450.145 135.131Z" fill="#EE8F94"/>
<path d="M455.074 172.436C462.37 172.436 468.285 166.92 468.285 160.115C468.285 153.31 462.37 147.794 455.074 147.794C447.777 147.794 441.862 153.31 441.862 160.115C441.862 166.92 447.777 172.436 455.074 172.436Z" fill="#BDBDE6"/>
<path d="M444.545 160.115C434.789 179.116 450.746 227.681 451.159 234.509C451.201 235.199 450.847 235.831 450.251 236.139L446.6 237.783C446.186 238.078 446.419 238.753 446.935 238.753H452.877C453.526 238.753 454.039 238.235 454.041 237.578L458.392 171.715C458.392 171.715 446.562 162.978 444.545 160.115Z" fill="#979593"/>
<path d="M467.527 155.998H442.618L445.583 148.459C446.96 141.789 444.868 133.182 444.868 133.182L465.061 135.434C465.061 135.434 462.862 140.871 464.563 148.459L467.527 155.998Z" fill="#EE8F94"/>
<path d="M456.607 120.472C462.189 119.756 466.069 114.15 465.274 107.951C464.478 101.753 459.308 97.3084 453.726 98.0248C448.144 98.7412 444.263 104.347 445.059 110.546C445.854 116.744 451.024 121.188 456.607 120.472Z" fill="#594539"/>
<path d="M448.329 116.441C449.037 116.361 449.544 115.698 449.46 114.959C449.377 114.221 448.735 113.688 448.026 113.768C447.318 113.848 446.811 114.512 446.895 115.25C446.978 115.988 447.62 116.521 448.329 116.441Z" fill="#E3646A"/>
<path d="M457.923 114.802H453.396V122.707H457.923V114.802Z" fill="#BF8F68"/>
<path d="M457.92 114.801H453.395V122.71H457.92V114.801Z" fill="url(#paint0_radial_4275_73373)"/>
<path d="M454.796 118.144C458.502 117.668 461.039 113.646 460.463 109.159C459.888 104.672 456.417 101.421 452.711 101.896C449.006 102.372 446.468 106.395 447.044 110.881C447.62 115.368 451.091 118.619 454.796 118.144Z" fill="#BF8F68"/>
<path d="M456.027 110.679C456.373 110.64 456.6 110.137 456.534 109.556C456.468 108.975 456.134 108.535 455.789 108.575C455.443 108.614 455.216 109.117 455.282 109.698C455.348 110.279 455.681 110.719 456.027 110.679Z" fill="#33312D"/>
<path d="M452.78 105.684L452.965 108.396C453.022 109.789 452.421 110.823 451.944 111.418C451.677 111.751 451.623 112.484 452.039 112.867C452.266 113.075 453.193 113.479 453.275 114.117L453.514 116.618L448.448 117.306L447.273 106.221L452.78 105.684Z" fill="url(#paint1_radial_4275_73373)"/>
<path d="M453.027 114.651C453.28 114.665 453.471 114.623 453.683 114.572C453.891 114.507 454.107 114.449 454.316 114.367C454.529 114.295 454.733 114.204 454.934 114.125C455.135 114.032 455.296 113.963 455.46 113.811L455.547 113.731C455.624 113.659 455.745 113.664 455.817 113.741C455.836 113.761 455.85 113.786 455.858 113.811C455.995 114.229 455.756 114.624 455.531 114.872C455.295 115.139 454.997 115.302 454.686 115.418C454.37 115.518 454.034 115.582 453.683 115.515C453.344 115.462 452.956 115.3 452.772 114.957C452.717 114.854 452.755 114.727 452.858 114.672C452.893 114.654 452.931 114.646 452.967 114.648L453.027 114.651Z" fill="#9B643D"/>
<path d="M446.18 104.232C446.18 104.232 447.709 104.768 449.37 103.517C450.98 102.305 452.197 103.697 453.053 104.663C454.893 106.74 457.759 108.418 460.282 107.752C462.086 107.276 461.789 101.221 456.143 99.9714C450.238 98.6646 446.18 104.232 446.18 104.232Z" fill="#594539"/>
<path d="M458.227 112.061L460.862 111.723C461.917 111.588 462.661 110.624 462.526 109.57L462.508 109.43C462.373 108.376 461.409 107.631 460.355 107.766L457.719 108.104L458.227 112.061Z" fill="#BF8F68"/>
<path d="M467.527 155.998C473.66 170.634 470.346 202.002 461.796 234.575C461.6 235.318 461.99 236.089 462.687 236.391L466.252 237.733C466.837 238.088 466.59 239 465.908 239H459.569C458.888 239 458.328 238.453 458.302 237.761L454.899 162.948C454.899 162.948 463.629 157.063 467.527 155.998Z" fill="#979593"/>
<path d="M442.619 155.998C442.619 155.998 435.183 172.976 440.241 234.55H455.395L457.923 171.736L442.619 155.998Z" fill="url(#paint2_linear_4275_73373)"/>
<path d="M467.528 155.998C467.528 155.998 471.198 163.866 472.465 178.863C473.732 193.86 472.465 234.55 472.465 234.55H457.002L453.723 160.927L467.528 155.998Z" fill="#BDBDE6"/>
<path d="M461.44 114.181C462.149 114.101 462.656 113.437 462.572 112.699C462.488 111.961 461.846 111.427 461.138 111.507C460.429 111.588 459.923 112.251 460.006 112.989C460.09 113.728 460.732 114.261 461.44 114.181Z" fill="#E3646A"/>
<path d="M455.115 142.919C460.831 142.919 465.465 138.285 465.465 132.569C465.465 126.853 460.831 122.219 455.115 122.219C449.399 122.219 444.765 126.853 444.765 132.569C444.765 138.285 449.399 142.919 455.115 142.919Z" fill="#EE8F94"/>
<path d="M442.618 155.998H467.527L464.563 148.458C463.531 143.857 463.935 140.056 464.412 137.77C465.124 136.24 465.465 134.467 465.465 132.569C465.465 126.853 460.831 122.219 455.114 122.219C449.398 122.219 444.764 126.853 444.764 132.569C444.764 133.878 445.017 135.125 445.461 136.279C445.951 139.387 446.442 144.299 445.583 148.458L442.618 155.998Z" fill="url(#paint3_radial_4275_73373)"/>
<path d="M448.395 143.264C448.395 143.264 465.422 153.41 471.213 145.177C474.173 140.969 472.29 126.362 461.158 122.71C454.302 124.141 457.608 130.428 457.608 130.428C457.608 130.428 464.062 132.47 465.465 139.834C466.421 144.853 448.519 141.212 448.519 141.212L448.395 143.264Z" fill="#EE8F94"/>
<path d="M448.394 143.264L444.719 141.949L444.066 141.76C443.788 141.781 443.539 141.938 443.401 142.181L442.938 142.998L441.854 142.347L442.211 141.147C442.313 140.804 442.57 140.528 442.904 140.403L443.912 139.775L442.767 140.023L441.853 140.782L441.01 140.81L442.677 139.226L444.138 138.995C444.354 138.961 444.575 139.001 444.766 139.108L448.518 141.212L448.394 143.264Z" fill="#BF8F68"/>
<path d="M443.964 143.195H421.774C421.462 143.195 421.188 142.988 421.101 142.688L417.276 129.357C417.147 128.91 417.483 128.464 417.949 128.464H440.138C440.451 128.464 440.725 128.671 440.812 128.971L444.637 142.301C444.765 142.749 444.429 143.195 443.964 143.195Z" fill="#C8C6C4"/>
<path d="M448.402 145.177H422.198C421.651 145.177 421.207 144.733 421.207 144.186C421.207 143.638 421.651 143.195 422.198 143.195H448.402C448.949 143.195 449.393 143.638 449.393 144.186C449.393 144.733 448.949 145.177 448.402 145.177Z" fill="#C8C6C4"/>
<path d="M457.92 119.659C457.92 119.659 457.923 121.807 460.739 122.559L457.608 123.386L457.92 119.659Z" fill="#BF8F68"/>
<path d="M453.395 119.396V121.077C453.395 121.829 452.876 122.482 452.143 122.652L449.017 123.349L453.917 123.256L453.395 119.396Z" fill="#BF8F68"/>
<path d="M449.453 123.25C449.472 123.264 449.491 123.268 449.509 123.278C449.556 123.296 449.603 123.315 449.65 123.334C449.799 123.395 449.953 123.451 450.122 123.502C450.973 123.778 452.016 123.979 453.185 124.077H453.19C454.055 124.152 454.976 124.171 455.944 124.124C456.908 124.082 457.824 123.979 458.671 123.825C459.176 123.731 459.657 123.624 460.106 123.502C460.719 123.339 461.271 123.147 461.752 122.932C461.416 122.801 461.074 122.679 460.737 122.558C460.49 122.469 460.237 122.384 459.989 122.3C459.077 121.907 458.568 121.346 458.282 120.846C458.161 120.827 458.044 120.809 457.922 120.79C457.889 120.79 457.861 120.785 457.829 120.78C457.665 120.762 457.506 120.743 457.343 120.729H457.338C456.683 120.673 456.014 120.659 455.332 120.692C454.873 120.71 454.424 120.753 453.98 120.818H453.975C453.849 120.832 453.723 120.851 453.597 120.874C453.526 120.883 453.461 120.897 453.396 120.907V121.075C453.396 121.828 452.876 122.483 452.142 122.651L449.453 123.25Z" fill="#BF8F68"/>
<path d="M450.414 111.404C450.759 111.355 450.97 110.845 450.887 110.266C450.804 109.687 450.458 109.258 450.113 109.307C449.769 109.357 449.557 109.866 449.64 110.445C449.723 111.024 450.07 111.453 450.414 111.404Z" fill="#33312D"/>
<defs>
<filter id="filter0_d_4275_73373" x="0" y="0" width="464.724" height="251.83" filterUnits="userSpaceOnUse" color-interpolation-filters="sRGB">
<feFlood flood-opacity="0" result="BackgroundImageFix"/>
<feColorMatrix in="SourceAlpha" type="matrix" values="0 0 0 0 0 0 0 0 0 0 0 0 0 0 0 0 0 0 127 0" result="hardAlpha"/>
<feMorphology radius="10" operator="dilate" in="SourceAlpha" result="effect1_dropShadow_4275_73373"/>
<feOffset/>
<feGaussianBlur stdDeviation="2"/>
<feComposite in2="hardAlpha" operator="out"/>
<feColorMatrix type="matrix" values="0 0 0 0 0.8375 0 0 0 0 0.8375 0 0 0 0 0.8375 0 0 0 0.1 0"/>
<feBlend mode="normal" in2="BackgroundImageFix" result="effect1_dropShadow_4275_73373"/>
<feBlend mode="normal" in="SourceGraphic" in2="effect1_dropShadow_4275_73373" result="shape"/>
</filter>
<radialGradient id="paint0_radial_4275_73373" cx="0" cy="0" r="1" gradientUnits="userSpaceOnUse" gradientTransform="translate(455.244 116.566) rotate(180) scale(5.06992 5.72089)">
<stop stop-color="#9B643D"/>
<stop offset="0.8819" stop-color="#BA8A63" stop-opacity="0.1178"/>
<stop offset="0.9997" stop-color="#BF8F68" stop-opacity="0"/>
</radialGradient>
<radialGradient id="paint1_radial_4275_73373" cx="0" cy="0" r="1" gradientUnits="userSpaceOnUse" gradientTransform="translate(452.445 112.32) rotate(168.37) scale(3.28355 3.46153)">
<stop offset="0.0003" stop-color="#9B643D"/>
<stop offset="0.8822" stop-color="#BA8A63" stop-opacity="0.1178"/>
<stop offset="1" stop-color="#BF8F68" stop-opacity="0"/>
</radialGradient>
<linearGradient id="paint2_linear_4275_73373" x1="472.28" y1="207.193" x2="450.672" y2="198.845" gradientUnits="userSpaceOnUse">
<stop stop-color="#A6A7DC"/>
<stop offset="1" stop-color="#BDBDE6"/>
</linearGradient>
<radialGradient id="paint3_radial_4275_73373" cx="0" cy="0" r="1" gradientUnits="userSpaceOnUse" gradientTransform="translate(466.332 144.749) scale(12.9912)">
<stop stop-color="#E3646A"/>
<stop offset="1" stop-color="#E3646A" stop-opacity="0"/>
</radialGradient>
<clipPath id="clip0_4275_73373">
<rect width="223.787" height="133.504" fill="white" transform="translate(187.843 61.0625)"/>
</clipPath>
</defs>
</svg>
