<svg width="180" height="180" viewBox="0 0 180 180" fill="none" xmlns="http://www.w3.org/2000/svg">
<path d="M62.5804 176.293C45.8687 177.543 25.9236 182.054 11.2726 171.705C-2.46527 161.939 -3.36996 144.746 7.05075 132.065C12.4286 125.475 22.3635 134.236 16.9772 140.741C10.192 149.004 12.8391 158.432 22.1876 162.859C27.5655 165.445 33.8564 165.031 39.6448 164.693C47.008 164.194 54.3712 163.603 61.7343 163.02C70.1111 162.437 71.0242 175.625 62.5804 176.293Z" fill="url(#paint0_linear_3389_72966)"/>
<path d="M132.752 81.6519C128.782 63.7073 128.614 52.606 125.305 35.6667L119.592 9.375L105.855 16.3028C102.713 15.4664 99.2369 15.2974 95.4255 16.0493C93.4402 16.3873 89.1345 18.0516 89.1345 18.0516L75.6479 14.5455C75.6479 14.5455 77.5495 28.815 78.0437 39.9163C78.873 59.1113 74.316 73.4653 69.6837 86.4C62.8147 105.764 46.346 121.706 43.7827 135.393C40.8005 151.335 48.415 173.698 63.8869 177.289C71.9957 179.207 93.2643 177.956 105.595 176.951C119.333 175.785 127.525 174.611 136.539 173.614C144.983 172.608 158.05 154.588 149.196 128.634C145.251 117.203 137.804 104.598 132.752 81.6519Z" fill="url(#paint1_linear_3389_72966)"/>
<path d="M144.698 79.5399L154.951 55.335C155.512 52.868 158.025 51.3473 160.429 51.9894C162.875 52.5554 164.383 55.09 163.747 57.5147L160.304 81.8633C159.34 88.8333 156.182 95.2879 151.165 100.154C144.798 106.364 134.529 111.044 119.45 103.145L132.409 80.7227C132.409 80.7227 133.205 81.669 134.587 82.5814C138.198 84.9892 143.073 83.5107 144.698 79.5399Z" fill="#FFD590"/>
<path d="M104.205 51.7697C103.543 51.7697 102.965 51.2712 102.881 50.6038L102.136 44.8419C102.052 44.09 102.546 43.4225 103.292 43.338C104.037 43.2536 104.699 43.752 104.783 44.5039L105.528 50.2658C105.612 51.0177 105.109 51.6852 104.372 51.7697C104.372 51.7697 104.288 51.7697 104.205 51.7697Z" fill="#33312D"/>
<path d="M98.9938 42.1718C98.8263 40.5835 100.895 40.085 102.805 39.9161C104.707 39.7471 106.692 39.5781 106.86 41.1664C107.027 42.7548 105.285 45.509 103.299 45.6695C101.39 45.7624 99.153 43.7601 98.9938 42.1718Z" fill="#33312D"/>
<path d="M93.5908 179.925C97.6535 179.342 100.033 177.424 99.932 171.417L100.954 121.926C100.376 117.828 88.3469 114.187 84.2758 114.77L84.6695 116.502C80.6068 117.085 72.7661 121.183 73.3441 125.28L85.1554 173.529C85.7334 177.627 89.5281 180.508 93.5908 179.925Z" fill="#FFD590"/>
<path d="M124.443 6.79742C114.424 7.62537 106.567 15.2037 104.883 24.7336C104.757 26.0093 104.741 27.3188 104.85 28.6452C105.83 40.6759 116.301 49.6229 128.229 48.6344C130.499 48.4485 132.66 47.9078 134.663 47.0799C136.329 35.6322 134.621 16.0739 130.801 7.2114C128.774 6.76363 126.629 6.61155 124.443 6.79742Z" fill="#FFD590"/>
<path d="M118.348 33.695C121.158 33.5484 123.3 30.8003 123.133 27.557C122.967 24.3137 120.555 21.8033 117.746 21.95C114.936 22.0967 112.794 24.8448 112.96 28.0881C113.127 31.3314 115.539 33.8417 118.348 33.695Z" fill="#120B09"/>
<path d="M91.7765 38.7248C93.3428 38.643 94.5373 37.111 94.4445 35.3029C94.3517 33.4949 93.0067 32.0955 91.4404 32.1772C89.8741 32.259 88.6796 33.791 88.7724 35.5991C88.8652 37.4071 90.2102 38.8065 91.7765 38.7248Z" fill="#120B09"/>
<path d="M179.596 67.331L177.25 70.3472C176.605 71.1836 175.407 71.3272 174.578 70.6682L145.025 47.2743L149.724 41.2421L179.278 64.636C180.098 65.295 180.241 66.4946 179.596 67.331Z" fill="url(#paint2_linear_3389_72966)"/>
<path d="M105.109 10.8023C95.5599 23.0695 97.6792 40.8198 109.842 50.4427C122.005 60.074 139.605 57.9365 149.146 45.6693C158.696 33.4021 156.576 15.6518 144.413 6.02891C132.25 -3.60238 114.651 -1.46491 105.109 10.8023ZM142.964 40.7691C136.104 49.5894 123.446 51.127 114.701 44.2077C105.955 37.2884 104.431 24.5227 111.292 15.7024C118.152 6.88221 130.809 5.34458 139.555 12.2639C148.3 19.1832 149.825 31.9489 142.964 40.7691Z" fill="#72ACF1"/>
<defs>
<linearGradient id="paint0_linear_3389_72966" x1="6.63535" y1="154.034" x2="75.1152" y2="154.034" gradientUnits="userSpaceOnUse">
<stop stop-color="#FFD590"/>
<stop offset="1" stop-color="#D28D29"/>
</linearGradient>
<linearGradient id="paint1_linear_3389_72966" x1="97.5436" y1="129.646" x2="98.654" y2="254.056" gradientUnits="userSpaceOnUse">
<stop stop-color="#FFD590"/>
<stop offset="1" stop-color="#D28D29"/>
</linearGradient>
<linearGradient id="paint2_linear_3389_72966" x1="152.963" y1="33.4409" x2="168.946" y2="71.4189" gradientUnits="userSpaceOnUse">
<stop offset="0.000351356" stop-color="#2970B8"/>
<stop offset="0.4722" stop-color="#72ACF1"/>
</linearGradient>
</defs>
</svg>
