<svg width="502" height="262" viewBox="0 0 502 262" fill="none" xmlns="http://www.w3.org/2000/svg">
<g filter="url(#filter0_d_3445_69515)">
<rect x="14" y="14" width="454.703" height="233.045" rx="8" fill="#EAE9E9"/>
</g>
<mask id="path-2-outside-1_3445_69515" maskUnits="userSpaceOnUse" x="153.275" y="37.4575" width="293" height="33" fill="black">
<rect fill="white" x="153.275" y="37.4575" width="293" height="33"/>
<path d="M154.275 68.4575C154.275 69.0098 154.722 69.4575 155.275 69.4575H443.572C444.124 69.4575 444.572 69.0098 444.572 68.4575V40.1659C444.572 39.6136 444.124 39.1659 443.572 39.1659H155.275C154.722 39.1659 154.275 39.6136 154.275 40.1659V68.4575Z"/>
</mask>
<path d="M154.275 68.4575C154.275 69.0098 154.722 69.4575 155.275 69.4575H443.572C444.124 69.4575 444.572 69.0098 444.572 68.4575V40.1659C444.572 39.6136 444.124 39.1659 443.572 39.1659H155.275C154.722 39.1659 154.275 39.6136 154.275 40.1659V68.4575Z" fill="white"/>
<path d="M153.275 68.4575C153.275 69.5621 154.17 70.4575 155.275 70.4575H443.572C444.677 70.4575 445.572 69.5621 445.572 68.4575H443.572H155.275H153.275ZM445.572 40.1659C445.572 39.0613 444.677 38.1659 443.572 38.1659H155.275C154.17 38.1659 153.275 39.0613 153.275 40.1659H155.275H443.572H445.572ZM155.275 38.1659C154.17 38.1659 153.275 39.0613 153.275 40.1659V68.4575C153.275 69.5621 154.17 70.4575 155.275 70.4575V68.4575V40.1659V38.1659ZM443.572 70.4575C444.677 70.4575 445.572 69.5621 445.572 68.4575V40.1659C445.572 39.0613 444.677 38.1659 443.572 38.1659V40.1659V68.4575V70.4575Z" fill="#E1DFDD" mask="url(#path-2-outside-1_3445_69515)"/>
<mask id="path-4-outside-2_3445_69515" maskUnits="userSpaceOnUse" x="153.275" y="69.0664" width="293" height="33" fill="black">
<rect fill="white" x="153.275" y="69.0664" width="293" height="33"/>
<path d="M154.275 100.066C154.275 100.619 154.722 101.066 155.275 101.066H443.572C444.124 101.066 444.572 100.619 444.572 100.066V71.7748C444.572 71.2225 444.124 70.7748 443.572 70.7748H155.275C154.722 70.7748 154.275 71.2225 154.275 71.7748V100.066Z"/>
</mask>
<path d="M154.275 100.066C154.275 100.619 154.722 101.066 155.275 101.066H443.572C444.124 101.066 444.572 100.619 444.572 100.066V71.7748C444.572 71.2225 444.124 70.7748 443.572 70.7748H155.275C154.722 70.7748 154.275 71.2225 154.275 71.7748V100.066Z" fill="white"/>
<path d="M153.275 100.066C153.275 101.171 154.17 102.066 155.275 102.066H443.572C444.677 102.066 445.572 101.171 445.572 100.066H443.572H155.275H153.275ZM445.572 71.7748C445.572 70.6702 444.677 69.7748 443.572 69.7748H155.275C154.17 69.7748 153.275 70.6702 153.275 71.7748H155.275H443.572H445.572ZM155.275 69.7748C154.17 69.7748 153.275 70.6702 153.275 71.7748V100.066C153.275 101.171 154.17 102.066 155.275 102.066V100.066V71.7748V69.7748ZM443.572 102.066C444.677 102.066 445.572 101.171 445.572 100.066V71.7748C445.572 70.6702 444.677 69.7748 443.572 69.7748V71.7748V100.066V102.066Z" fill="#E1DFDD" mask="url(#path-4-outside-2_3445_69515)"/>
<mask id="path-6-outside-3_3445_69515" maskUnits="userSpaceOnUse" x="153.275" y="100.675" width="293" height="33" fill="black">
<rect fill="white" x="153.275" y="100.675" width="293" height="33"/>
<path d="M154.275 131.675C154.275 132.227 154.722 132.675 155.275 132.675H443.572C444.124 132.675 444.572 132.227 444.572 131.675V103.383C444.572 102.831 444.124 102.383 443.572 102.383H155.275C154.722 102.383 154.275 102.831 154.275 103.383V131.675Z"/>
</mask>
<path d="M154.275 131.675C154.275 132.227 154.722 132.675 155.275 132.675H443.572C444.124 132.675 444.572 132.227 444.572 131.675V103.383C444.572 102.831 444.124 102.383 443.572 102.383H155.275C154.722 102.383 154.275 102.831 154.275 103.383V131.675Z" fill="white"/>
<path d="M153.275 131.675C153.275 132.779 154.17 133.675 155.275 133.675H443.572C444.677 133.675 445.572 132.779 445.572 131.675H443.572H155.275H153.275ZM445.572 103.383C445.572 102.279 444.677 101.383 443.572 101.383H155.275C154.17 101.383 153.275 102.279 153.275 103.383H155.275H443.572H445.572ZM155.275 101.383C154.17 101.383 153.275 102.279 153.275 103.383V131.675C153.275 132.779 154.17 133.675 155.275 133.675V131.675V103.383V101.383ZM443.572 133.675C444.677 133.675 445.572 132.779 445.572 131.675V103.383C445.572 102.279 444.677 101.383 443.572 101.383V103.383V131.675V133.675Z" fill="#E1DFDD" mask="url(#path-6-outside-3_3445_69515)"/>
<mask id="path-8-outside-4_3445_69515" maskUnits="userSpaceOnUse" x="153.275" y="132.284" width="293" height="33" fill="black">
<rect fill="white" x="153.275" y="132.284" width="293" height="33"/>
<path d="M154.275 163.284C154.275 163.836 154.722 164.284 155.275 164.284H443.572C444.124 164.284 444.572 163.836 444.572 163.284V134.992C444.572 134.44 444.124 133.992 443.572 133.992H155.275C154.722 133.992 154.275 134.44 154.275 134.992V163.284Z"/>
</mask>
<path d="M154.275 163.284C154.275 163.836 154.722 164.284 155.275 164.284H443.572C444.124 164.284 444.572 163.836 444.572 163.284V134.992C444.572 134.44 444.124 133.992 443.572 133.992H155.275C154.722 133.992 154.275 134.44 154.275 134.992V163.284Z" fill="white"/>
<path d="M153.275 163.284C153.275 164.388 154.17 165.284 155.275 165.284H443.572C444.677 165.284 445.572 164.388 445.572 163.284H443.572H155.275H153.275ZM445.572 134.992C445.572 133.888 444.677 132.992 443.572 132.992H155.275C154.17 132.992 153.275 133.888 153.275 134.992H155.275H443.572H445.572ZM155.275 132.992C154.17 132.992 153.275 133.888 153.275 134.992V163.284C153.275 164.388 154.17 165.284 155.275 165.284V163.284V134.992V132.992ZM443.572 165.284C444.677 165.284 445.572 164.388 445.572 163.284V134.992C445.572 133.888 444.677 132.992 443.572 132.992V134.992V163.284V165.284Z" fill="#E1DFDD" mask="url(#path-8-outside-4_3445_69515)"/>
<mask id="path-10-outside-5_3445_69515" maskUnits="userSpaceOnUse" x="153.275" y="162.521" width="293" height="33" fill="black">
<rect fill="white" x="153.275" y="162.521" width="293" height="33"/>
<path d="M154.275 193.521C154.275 194.074 154.722 194.521 155.275 194.521H443.572C444.124 194.521 444.572 194.074 444.572 193.521V165.23C444.572 164.678 444.124 164.23 443.572 164.23H155.275C154.722 164.23 154.275 164.678 154.275 165.23V193.521Z"/>
</mask>
<path d="M154.275 193.521C154.275 194.074 154.722 194.521 155.275 194.521H443.572C444.124 194.521 444.572 194.074 444.572 193.521V165.23C444.572 164.678 444.124 164.23 443.572 164.23H155.275C154.722 164.23 154.275 164.678 154.275 165.23V193.521Z" fill="white"/>
<path d="M153.275 193.521C153.275 194.626 154.17 195.521 155.275 195.521H443.572C444.677 195.521 445.572 194.626 445.572 193.521H443.572H155.275H153.275ZM445.572 165.23C445.572 164.125 444.677 163.23 443.572 163.23H155.275C154.17 163.23 153.275 164.125 153.275 165.23H155.275H443.572H445.572ZM155.275 163.23C154.17 163.23 153.275 164.125 153.275 165.23V193.521C153.275 194.626 154.17 195.521 155.275 195.521V193.521V165.23V163.23ZM443.572 195.521C444.677 195.521 445.572 194.626 445.572 193.521V165.23C445.572 164.125 444.677 163.23 443.572 163.23V165.23V193.521V195.521Z" fill="#E1DFDD" mask="url(#path-10-outside-5_3445_69515)"/>
<mask id="path-12-outside-6_3445_69515" maskUnits="userSpaceOnUse" x="153.275" y="194.13" width="293" height="33" fill="black">
<rect fill="white" x="153.275" y="194.13" width="293" height="33"/>
<path d="M154.275 225.13C154.275 225.682 154.722 226.13 155.275 226.13H443.572C444.124 226.13 444.572 225.682 444.572 225.13V196.838C444.572 196.286 444.124 195.838 443.572 195.838H155.275C154.722 195.838 154.275 196.286 154.275 196.838V225.13Z"/>
</mask>
<path d="M154.275 225.13C154.275 225.682 154.722 226.13 155.275 226.13H443.572C444.124 226.13 444.572 225.682 444.572 225.13V196.838C444.572 196.286 444.124 195.838 443.572 195.838H155.275C154.722 195.838 154.275 196.286 154.275 196.838V225.13Z" fill="white"/>
<path d="M153.275 225.13C153.275 226.234 154.17 227.13 155.275 227.13H443.572C444.677 227.13 445.572 226.234 445.572 225.13H443.572H155.275H153.275ZM445.572 196.838C445.572 195.734 444.677 194.838 443.572 194.838H155.275C154.17 194.838 153.275 195.734 153.275 196.838H155.275H443.572H445.572ZM155.275 194.838C154.17 194.838 153.275 195.734 153.275 196.838V225.13C153.275 226.234 154.17 227.13 155.275 227.13V225.13V196.838V194.838ZM443.572 227.13C444.677 227.13 445.572 226.234 445.572 225.13V196.838C445.572 195.734 444.677 194.838 443.572 194.838V196.838V225.13V227.13Z" fill="#E1DFDD" mask="url(#path-12-outside-6_3445_69515)"/>
<rect x="165.486" y="50.981" width="266.589" height="8.26644" rx="1" fill="#D0E7F8"/>
<rect x="165.777" y="81.4526" width="71.7527" height="8.44669" rx="1" fill="#EDEDED"/>
<rect x="165.777" y="112.706" width="83.2551" height="8.44669" rx="1" fill="#DFF6DD"/>
<rect x="285.078" y="144.667" width="146.998" height="8.26644" rx="1" fill="#D0E7F8"/>
<rect x="165.486" y="144.667" width="52.3213" height="8.26644" rx="1" fill="#D0E7F8"/>
<rect x="165.777" y="175.211" width="71.7527" height="8.44669" rx="1" fill="#EDEDED"/>
<rect x="165.777" y="206.464" width="83.2551" height="8.44669" rx="1" fill="#EDEDED"/>
<mask id="path-21-outside-7_3445_69515" maskUnits="userSpaceOnUse" x="35" y="37.4575" width="110" height="33" fill="black">
<rect fill="white" x="35" y="37.4575" width="110" height="33"/>
<path d="M36 68.4575C36 69.0098 36.4477 69.4575 37 69.4575H142.063C142.616 69.4575 143.063 69.0098 143.063 68.4575V40.1659C143.063 39.6136 142.616 39.1659 142.063 39.1659H37C36.4477 39.1659 36 39.6136 36 40.1659V68.4575Z"/>
</mask>
<path d="M36 68.4575C36 69.0098 36.4477 69.4575 37 69.4575H142.063C142.616 69.4575 143.063 69.0098 143.063 68.4575V40.1659C143.063 39.6136 142.616 39.1659 142.063 39.1659H37C36.4477 39.1659 36 39.6136 36 40.1659V68.4575Z" fill="white"/>
<path d="M35 68.4575C35 69.5621 35.8954 70.4575 37 70.4575H142.063C143.168 70.4575 144.063 69.5621 144.063 68.4575H142.063H37H35ZM144.063 40.1659C144.063 39.0613 143.168 38.1659 142.063 38.1659H37C35.8954 38.1659 35 39.0613 35 40.1659H37H142.063H144.063ZM37 38.1659C35.8954 38.1659 35 39.0613 35 40.1659V68.4575C35 69.5621 35.8954 70.4575 37 70.4575V68.4575V40.1659V38.1659ZM142.063 70.4575C143.168 70.4575 144.063 69.5621 144.063 68.4575V40.1659C144.063 39.0613 143.168 38.1659 142.063 38.1659V40.1659V68.4575V70.4575Z" fill="#E1DFDD" mask="url(#path-21-outside-7_3445_69515)"/>
<mask id="path-23-outside-8_3445_69515" maskUnits="userSpaceOnUse" x="35" y="69.0664" width="110" height="33" fill="black">
<rect fill="white" x="35" y="69.0664" width="110" height="33"/>
<path d="M36 100.066C36 100.619 36.4477 101.066 37 101.066H142.063C142.616 101.066 143.063 100.619 143.063 100.066V71.7748C143.063 71.2225 142.616 70.7748 142.063 70.7748H37C36.4477 70.7748 36 71.2225 36 71.7748V100.066Z"/>
</mask>
<path d="M36 100.066C36 100.619 36.4477 101.066 37 101.066H142.063C142.616 101.066 143.063 100.619 143.063 100.066V71.7748C143.063 71.2225 142.616 70.7748 142.063 70.7748H37C36.4477 70.7748 36 71.2225 36 71.7748V100.066Z" fill="white"/>
<path d="M35 100.066C35 101.171 35.8954 102.066 37 102.066H142.063C143.168 102.066 144.063 101.171 144.063 100.066H142.063H37H35ZM144.063 71.7748C144.063 70.6702 143.168 69.7748 142.063 69.7748H37C35.8954 69.7748 35 70.6702 35 71.7748H37H142.063H144.063ZM37 69.7748C35.8954 69.7748 35 70.6702 35 71.7748V100.066C35 101.171 35.8954 102.066 37 102.066V100.066V71.7748V69.7748ZM142.063 102.066C143.168 102.066 144.063 101.171 144.063 100.066V71.7748C144.063 70.6702 143.168 69.7748 142.063 69.7748V71.7748V100.066V102.066Z" fill="#E1DFDD" mask="url(#path-23-outside-8_3445_69515)"/>
<mask id="path-25-outside-9_3445_69515" maskUnits="userSpaceOnUse" x="35" y="100.675" width="110" height="33" fill="black">
<rect fill="white" x="35" y="100.675" width="110" height="33"/>
<path d="M36 131.675C36 132.227 36.4477 132.675 37 132.675H142.063C142.616 132.675 143.063 132.227 143.063 131.675V103.383C143.063 102.831 142.616 102.383 142.063 102.383H37C36.4477 102.383 36 102.831 36 103.383V131.675Z"/>
</mask>
<path d="M36 131.675C36 132.227 36.4477 132.675 37 132.675H142.063C142.616 132.675 143.063 132.227 143.063 131.675V103.383C143.063 102.831 142.616 102.383 142.063 102.383H37C36.4477 102.383 36 102.831 36 103.383V131.675Z" fill="white"/>
<path d="M35 131.675C35 132.779 35.8954 133.675 37 133.675H142.063C143.168 133.675 144.063 132.779 144.063 131.675H142.063H37H35ZM144.063 103.383C144.063 102.279 143.168 101.383 142.063 101.383H37C35.8954 101.383 35 102.279 35 103.383H37H142.063H144.063ZM37 101.383C35.8954 101.383 35 102.279 35 103.383V131.675C35 132.779 35.8954 133.675 37 133.675V131.675V103.383V101.383ZM142.063 133.675C143.168 133.675 144.063 132.779 144.063 131.675V103.383C144.063 102.279 143.168 101.383 142.063 101.383V103.383V131.675V133.675Z" fill="#E1DFDD" mask="url(#path-25-outside-9_3445_69515)"/>
<mask id="path-27-outside-10_3445_69515" maskUnits="userSpaceOnUse" x="35" y="132.283" width="110" height="33" fill="black">
<rect fill="white" x="35" y="132.283" width="110" height="33"/>
<path d="M36 163.283C36 163.835 36.4477 164.283 37 164.283H142.063C142.616 164.283 143.063 163.835 143.063 163.283V134.992C143.063 134.439 142.616 133.992 142.063 133.992H37C36.4477 133.992 36 134.439 36 134.992V163.283Z"/>
</mask>
<path d="M36 163.283C36 163.835 36.4477 164.283 37 164.283H142.063C142.616 164.283 143.063 163.835 143.063 163.283V134.992C143.063 134.439 142.616 133.992 142.063 133.992H37C36.4477 133.992 36 134.439 36 134.992V163.283Z" fill="white"/>
<path d="M35 163.283C35 164.388 35.8954 165.283 37 165.283H142.063C143.168 165.283 144.063 164.388 144.063 163.283H142.063H37H35ZM144.063 134.992C144.063 133.887 143.168 132.992 142.063 132.992H37C35.8954 132.992 35 133.887 35 134.992H37H142.063H144.063ZM37 132.992C35.8954 132.992 35 133.887 35 134.992V163.283C35 164.388 35.8954 165.283 37 165.283V163.283V134.992V132.992ZM142.063 165.283C143.168 165.283 144.063 164.388 144.063 163.283V134.992C144.063 133.887 143.168 132.992 142.063 132.992V134.992V163.283V165.283Z" fill="#E1DFDD" mask="url(#path-27-outside-10_3445_69515)"/>
<mask id="path-29-outside-11_3445_69515" maskUnits="userSpaceOnUse" x="35" y="162.521" width="110" height="33" fill="black">
<rect fill="white" x="35" y="162.521" width="110" height="33"/>
<path d="M36 193.521C36 194.074 36.4477 194.521 37 194.521H142.063C142.616 194.521 143.063 194.074 143.063 193.521V165.23C143.063 164.678 142.616 164.23 142.063 164.23H37C36.4477 164.23 36 164.678 36 165.23V193.521Z"/>
</mask>
<path d="M36 193.521C36 194.074 36.4477 194.521 37 194.521H142.063C142.616 194.521 143.063 194.074 143.063 193.521V165.23C143.063 164.678 142.616 164.23 142.063 164.23H37C36.4477 164.23 36 164.678 36 165.23V193.521Z" fill="white"/>
<path d="M35 193.521C35 194.626 35.8954 195.521 37 195.521H142.063C143.168 195.521 144.063 194.626 144.063 193.521H142.063H37H35ZM144.063 165.23C144.063 164.125 143.168 163.23 142.063 163.23H37C35.8954 163.23 35 164.125 35 165.23H37H142.063H144.063ZM37 163.23C35.8954 163.23 35 164.125 35 165.23V193.521C35 194.626 35.8954 195.521 37 195.521V193.521V165.23V163.23ZM142.063 195.521C143.168 195.521 144.063 194.626 144.063 193.521V165.23C144.063 164.125 143.168 163.23 142.063 163.23V165.23V193.521V195.521Z" fill="#E1DFDD" mask="url(#path-29-outside-11_3445_69515)"/>
<mask id="path-31-outside-12_3445_69515" maskUnits="userSpaceOnUse" x="35" y="194.13" width="110" height="33" fill="black">
<rect fill="white" x="35" y="194.13" width="110" height="33"/>
<path d="M36 225.13C36 225.682 36.4477 226.13 37 226.13H142.063C142.616 226.13 143.063 225.682 143.063 225.13V196.838C143.063 196.286 142.616 195.838 142.063 195.838H37C36.4477 195.838 36 196.286 36 196.838V225.13Z"/>
</mask>
<path d="M36 225.13C36 225.682 36.4477 226.13 37 226.13H142.063C142.616 226.13 143.063 225.682 143.063 225.13V196.838C143.063 196.286 142.616 195.838 142.063 195.838H37C36.4477 195.838 36 196.286 36 196.838V225.13Z" fill="white"/>
<path d="M35 225.13C35 226.234 35.8954 227.13 37 227.13H142.063C143.168 227.13 144.063 226.234 144.063 225.13H142.063H37H35ZM144.063 196.838C144.063 195.734 143.168 194.838 142.063 194.838H37C35.8954 194.838 35 195.734 35 196.838H37H142.063H144.063ZM37 194.838C35.8954 194.838 35 195.734 35 196.838V225.13C35 226.234 35.8954 227.13 37 227.13V225.13V196.838V194.838ZM142.063 227.13C143.168 227.13 144.063 226.234 144.063 225.13V196.838C144.063 195.734 143.168 194.838 142.063 194.838V196.838V225.13V227.13Z" fill="#E1DFDD" mask="url(#path-31-outside-12_3445_69515)"/>
<rect x="40.2421" y="51.0444" width="33.129" height="8.44669" rx="1" fill="#EDEDED"/>
<rect x="40.2421" y="81.4526" width="26.4628" height="8.44669" rx="1" fill="#EDEDED"/>
<rect x="40.2421" y="112.706" width="30.705" height="8.44669" rx="1" fill="#EDEDED"/>
<rect x="40.2421" y="144.803" width="33.129" height="8.44669" rx="1" fill="#EDEDED"/>
<rect x="40.2421" y="175.21" width="26.4628" height="8.44669" rx="1" fill="#EDEDED"/>
<rect x="40.2421" y="206.463" width="30.705" height="8.44669" rx="1" fill="#EDEDED"/>
<rect x="122.989" y="50.981" width="14.7212" height="8.26644" fill="#EDEDED"/>
<rect x="122.989" y="81.291" width="12.0446" height="8.26644" fill="#EDEDED"/>
<rect x="122.989" y="112.979" width="13.3829" height="8.26644" fill="#EDEDED"/>
<rect x="122.989" y="144.667" width="14.7212" height="8.26644" fill="#EDEDED"/>
<rect x="122.989" y="174.978" width="12.0446" height="8.26644" fill="#EDEDED"/>
<rect x="122.989" y="206.666" width="13.3829" height="8.26644" fill="#EDEDED"/>
<rect x="154" y="39" width="291" height="187" rx="4" fill="white"/>
<g clip-path="url(#clip0_3445_69515)">
<path d="M377.59 149.594V159.295C377.59 170.178 370.371 181.062 356.053 189.342C327.298 206.022 280.437 206.022 251.445 189.342C236.89 180.943 229.554 169.823 229.554 158.822V149.121C229.554 160.123 236.772 171.243 251.445 179.642C280.437 196.322 327.298 196.322 356.053 179.642C370.49 171.361 377.59 160.478 377.59 149.594Z" fill="#CDCDD0"/>
<path d="M355.816 119.073C384.808 135.753 384.926 162.962 356.171 179.642C327.416 196.322 280.555 196.322 251.564 179.642C222.572 162.962 222.453 135.753 251.209 119.073C279.964 102.393 326.824 102.393 355.816 119.073Z" fill="white"/>
<path opacity="0.5" d="M277.006 98.3712L302.921 83.584L328.836 98.1346L303.039 113.04L277.006 98.3712Z" fill="#50E6FF"/>
<path opacity="0.5" d="M303.039 113.04L302.684 142.496L328.718 127.709L328.954 98.2529L303.039 113.04Z" fill="#0078D4"/>
<path opacity="0.5" d="M277.006 98.3711L276.769 127.827L302.684 142.496L302.921 113.04L277.006 98.3711Z" fill="#1E9FE0"/>
<path opacity="0.75" d="M303.039 83.584L328.954 98.1346L328.718 127.591L302.684 142.496L276.769 127.827L277.006 98.3712L303.039 83.584ZM303.039 82.2827C302.802 82.2827 302.684 82.2827 302.447 82.401L276.414 97.3065C276.059 97.5431 275.822 97.898 275.822 98.4895C275.822 98.4895 275.822 98.4895 275.822 98.6078L275.467 127.827C275.467 128.301 275.704 128.655 276.059 129.01L302.092 143.443C302.329 143.561 302.447 143.561 302.684 143.561C302.921 143.561 303.039 143.561 303.276 143.443C303.276 143.443 303.276 143.443 303.394 143.443L329.191 128.655C329.546 128.419 329.783 128.064 329.783 127.473L330.019 98.0163C330.019 97.5431 329.783 97.1883 329.428 96.8334L303.631 82.401C303.394 82.2827 303.157 82.2827 303.039 82.2827Z" fill="white"/>
<path opacity="0.15" d="M297.241 151.96L270.616 167.339L243.872 152.078L270.497 136.7L297.241 151.96Z" fill="#1F1D20"/>
<path d="M245.292 119.191L270.616 104.522L295.702 118.955L270.379 133.624L245.292 119.191Z" fill="#50E6FF"/>
<path d="M270.379 133.624L270.142 162.725L295.466 148.056L295.702 118.955L270.379 133.624Z" fill="#0078D4"/>
<path d="M245.292 119.191V148.293L270.142 162.725L270.379 133.624L245.292 119.191Z" fill="#1E9FE0"/>
<path d="M270.616 104.522L295.702 118.955L295.466 148.056L270.142 162.488L245.292 148.174V119.191L270.616 104.522ZM270.616 103.221C270.379 103.221 270.261 103.221 270.024 103.339L244.7 118.008C244.345 118.245 244.109 118.6 244.109 119.191V148.293C244.109 148.766 244.345 149.121 244.7 149.476L269.551 163.908C269.787 164.026 269.906 164.026 270.142 164.026C270.379 164.026 270.497 164.026 270.734 163.908L296.057 149.239C296.412 149.002 296.649 148.648 296.649 148.056L296.886 118.955C296.886 118.482 296.649 118.127 296.294 117.772L271.207 103.339C271.089 103.221 270.852 103.221 270.616 103.221Z" fill="white"/>
<path opacity="0.15" d="M361.733 151.96L335.108 166.392L308.364 151.013L334.989 135.635L361.733 151.96Z" fill="#1F1D20"/>
<g opacity="0.6">
<path opacity="0.6" d="M309.429 117.772L335.699 103.221L361.615 117.772L335.344 132.677L309.429 117.772Z" fill="#50E6FF"/>
</g>
<path d="M335.463 133.269C335.344 133.269 335.226 133.269 335.226 133.15L309.193 118.245C309.074 118.127 308.956 118.008 308.956 117.772C308.956 117.535 309.074 117.417 309.193 117.299L335.463 102.748C335.581 102.63 335.818 102.63 336.054 102.748L361.97 117.299C362.088 117.417 362.206 117.535 362.206 117.772C362.206 118.008 362.088 118.127 361.97 118.245L335.699 133.15C335.581 133.269 335.581 133.269 335.463 133.269ZM310.613 117.772L335.463 132.086L360.55 117.772L335.699 103.813L310.613 117.772Z" fill="#50E6FF"/>
<g opacity="0.3">
<path opacity="0.3" d="M335.463 132.677L335.226 161.897L361.496 147.346L361.733 117.89L335.463 132.677Z" fill="#50E6FF"/>
</g>
<path d="M335.226 162.488C335.108 162.488 334.989 162.488 334.989 162.37C334.871 162.252 334.753 162.133 334.753 161.897L334.989 132.677C334.989 132.441 335.108 132.322 335.226 132.204L361.378 117.417C361.496 117.299 361.733 117.299 361.97 117.417C362.088 117.535 362.206 117.653 362.206 117.89L361.97 147.346C361.97 147.583 361.851 147.701 361.733 147.819L335.463 162.37C335.344 162.488 335.226 162.488 335.226 162.488ZM335.936 133.032L335.699 160.95L360.905 146.991L361.141 118.836L335.936 133.032Z" fill="#50E6FF"/>
<g opacity="0.5">
<path opacity="0.5" d="M309.429 117.772V147.228L335.108 161.779L335.344 132.678L309.429 117.772Z" fill="#50E6FF"/>
</g>
<path d="M335.226 162.37C335.108 162.37 334.989 162.37 334.989 162.252L309.193 147.701C309.074 147.583 308.956 147.465 308.956 147.228V117.772C308.956 117.535 309.074 117.417 309.193 117.299C309.311 117.18 309.548 117.18 309.784 117.299L335.699 132.204C335.818 132.323 335.936 132.441 335.936 132.677L335.699 161.779C335.699 162.015 335.581 162.134 335.463 162.252C335.344 162.37 335.344 162.37 335.226 162.37ZM310.021 146.873L334.634 160.832L334.871 133.032L310.021 118.718V146.873Z" fill="#50E6FF"/>
<path d="M354.396 143.797L335.344 154.917L316.174 143.797L335.226 132.677L354.396 143.797Z" fill="#185A97"/>
<path d="M354.396 137.528L335.344 148.648L316.174 137.528L335.226 126.408L354.396 137.528Z" fill="#0078D4"/>
<path d="M354.396 130.311L335.344 141.431L316.174 130.311L335.226 119.191L354.396 130.311Z" fill="#32B0E7"/>
<path d="M354.396 122.386L335.344 133.506L316.174 122.386L335.226 111.266L354.396 122.386Z" fill="#50E6FF"/>
<path opacity="0.15" d="M329.428 170.651L302.802 186.03L276.296 170.651L302.684 155.272L329.428 170.651Z" fill="#1F1D20"/>
<path opacity="0.5" d="M277.006 137.173L302.921 122.386L328.836 136.936L303.039 151.842L277.006 137.173Z" fill="#50E6FF"/>
<path opacity="0.5" d="M303.039 151.842L302.684 181.298L328.718 166.511L328.954 137.055L303.039 151.842Z" fill="#0078D4"/>
<path opacity="0.5" d="M277.006 137.173L276.769 166.629L302.684 181.298L302.921 151.842L277.006 137.173Z" fill="#1E9FE0"/>
<path opacity="0.75" d="M303.039 122.386L328.954 136.936L328.718 166.393L302.684 181.298L276.769 166.629L277.006 137.173L303.039 122.386ZM303.039 121.084C302.802 121.084 302.684 121.084 302.447 121.203L276.414 136.227C276.059 136.463 275.822 136.818 275.822 137.41C275.822 137.41 275.822 137.41 275.822 137.528L275.467 166.629C275.467 167.102 275.704 167.457 276.059 167.812L301.974 182.363C302.211 182.481 302.329 182.481 302.566 182.481C302.802 182.481 302.921 182.481 303.157 182.363C303.157 182.363 303.157 182.363 303.276 182.363L329.073 167.576C329.428 167.339 329.664 166.984 329.664 166.393L329.901 136.936C329.901 136.463 329.664 136.108 329.309 135.753L303.631 121.203C303.394 121.084 303.157 121.084 303.039 121.084Z" fill="white"/>
<path d="M322.091 162.252L303.039 173.372L283.751 162.252L302.802 151.132L322.091 162.252Z" fill="#185A97"/>
<path d="M322.091 155.982L302.921 167.102L283.751 155.982L302.802 144.862L322.091 155.982Z" fill="#0078D4"/>
<path d="M322.091 148.648L303.039 159.768L283.751 148.648L302.802 137.528L322.091 148.648Z" fill="#32B0E7"/>
<path d="M322.091 140.722L303.039 151.842L283.751 140.722L302.802 129.602L322.091 140.722Z" fill="#50E6FF"/>
<path d="M303.039 83.5839L262.806 86.1864L245.292 119.192L226.122 72.4639" stroke="#50E6FF" stroke-width="0.5" stroke-miterlimit="10" stroke-linecap="round" stroke-linejoin="round"/>
<path d="M262.805 86.1864L226.122 72.4639L197.012 98.2528" stroke="#50E6FF" stroke-width="0.5" stroke-miterlimit="10" stroke-linecap="round" stroke-linejoin="round"/>
<path d="M245.292 121.203C246.403 121.203 247.304 120.302 247.304 119.192C247.304 118.081 246.403 117.181 245.292 117.181C244.181 117.181 243.28 118.081 243.28 119.192C243.28 120.302 244.181 121.203 245.292 121.203Z" fill="#0078D4"/>
<path d="M262.806 88.1974C263.917 88.1974 264.817 87.297 264.817 86.1864C264.817 85.0757 263.917 84.1753 262.806 84.1753C261.694 84.1753 260.794 85.0757 260.794 86.1864C260.794 87.297 261.694 88.1974 262.806 88.1974Z" fill="#50E6FF"/>
<path d="M226.122 74.4748C227.233 74.4748 228.134 73.5744 228.134 72.4637C228.134 71.353 227.233 70.4526 226.122 70.4526C225.011 70.4526 224.11 71.353 224.11 72.4637C224.11 73.5744 225.011 74.4748 226.122 74.4748Z" fill="#32B0E7"/>
<path d="M197.012 100.264C198.123 100.264 199.023 99.3634 199.023 98.2528C199.023 97.1421 198.123 96.2417 197.012 96.2417C195.901 96.2417 195 97.1421 195 98.2528C195 99.3634 195.901 100.264 197.012 100.264Z" fill="#50E6FF"/>
<path d="M302.684 85.5949C303.795 85.5949 304.696 84.6945 304.696 83.5838C304.696 82.4731 303.795 81.5728 302.684 81.5728C301.573 81.5728 300.672 82.4731 300.672 83.5838C300.672 84.6945 301.573 85.5949 302.684 85.5949Z" fill="#0078D4"/>
<path d="M361.378 117.417L358.656 94.3491L328.954 98.1347" stroke="#50E6FF" stroke-width="0.5" stroke-miterlimit="10" stroke-linecap="round" stroke-linejoin="round"/>
<path d="M358.656 94.3489L393.565 117.417L407.173 90.2085L358.656 94.3489Z" stroke="#50E6FF" stroke-width="0.5" stroke-miterlimit="10" stroke-linecap="round" stroke-linejoin="round"/>
<path d="M407.173 90.2083L425.988 65.3657" stroke="#50E6FF" stroke-width="0.5" stroke-miterlimit="10" stroke-linecap="round" stroke-linejoin="round"/>
<path d="M328.954 100.264C330.065 100.264 330.966 99.3634 330.966 98.2528C330.966 97.1421 330.065 96.2417 328.954 96.2417C327.843 96.2417 326.943 97.1421 326.943 98.2528C326.943 99.3634 327.843 100.264 328.954 100.264Z" fill="#0078D4"/>
<path d="M361.615 119.31C362.726 119.31 363.626 118.409 363.626 117.299C363.626 116.188 362.726 115.288 361.615 115.288C360.504 115.288 359.603 116.188 359.603 117.299C359.603 118.409 360.504 119.31 361.615 119.31Z" fill="#32B0E7"/>
<path d="M358.656 96.36C359.767 96.36 360.668 95.4596 360.668 94.349C360.668 93.2383 359.767 92.3379 358.656 92.3379C357.545 92.3379 356.645 93.2383 356.645 94.349C356.645 95.4596 357.545 96.36 358.656 96.36Z" fill="#50E6FF"/>
<path d="M393.328 119.31C394.439 119.31 395.34 118.409 395.34 117.299C395.34 116.188 394.439 115.288 393.328 115.288C392.217 115.288 391.316 116.188 391.316 117.299C391.316 118.409 392.217 119.31 393.328 119.31Z" fill="#0078D4"/>
<path d="M407.173 92.2194C408.284 92.2194 409.185 91.319 409.185 90.2083C409.185 89.0977 408.284 88.1973 407.173 88.1973C406.062 88.1973 405.162 89.0977 405.162 90.2083C405.162 91.319 406.062 92.2194 407.173 92.2194Z" fill="#50E6FF"/>
<path d="M425.988 67.0221C427.099 67.0221 428 66.1217 428 65.0111C428 63.9004 427.099 63 425.988 63C424.877 63 423.977 63.9004 423.977 65.0111C423.977 66.1217 424.877 67.0221 425.988 67.0221Z" fill="#32B0E7"/>
</g>
<path d="M492.259 156.757C497.483 147.713 494.12 135.992 484.747 130.578C475.374 125.163 463.541 128.106 458.316 137.15C453.092 146.194 456.455 157.915 465.828 163.329C475.201 168.744 487.034 165.801 492.259 156.757Z" fill="#594539"/>
<path d="M483.564 110.358C485.007 116.661 486.986 126.781 492.95 139.519C484.59 143.034 469.357 142.673 457.911 137.894C461.003 131.705 463.469 121.084 462.74 114.089C462.829 112.771 483.202 108.778 483.564 110.358Z" fill="#594539"/>
<path d="M466.951 134.009H461.911V151.071H466.951V134.009Z" fill="#EE8F94"/>
<path d="M445.028 150.228C445.102 150.277 446.197 151.294 446.816 151.871C447.085 152.121 447.446 152.247 447.811 152.217L452.385 151.85L453.586 151.711V149.966L445.028 150.228Z" fill="#BF8F68"/>
<path d="M464.901 154.058L452.385 151.85V149.545H464.901V154.058Z" fill="#EE8F94"/>
<path d="M468.101 140.118C471.519 140.118 474.291 137.347 474.291 133.928C474.291 130.51 471.519 127.739 468.101 127.739C464.683 127.739 461.911 130.51 461.911 133.928C461.911 137.347 464.683 140.118 468.101 140.118Z" fill="#EE8F94"/>
<path d="M473.232 178.959C480.829 178.959 486.988 173.216 486.988 166.131C486.988 159.046 480.829 153.302 473.232 153.302C465.635 153.302 459.477 159.046 459.477 166.131C459.477 173.216 465.635 178.959 473.232 178.959Z" fill="#BDBDE6"/>
<path d="M462.27 166.131C452.112 185.914 468.726 236.478 469.156 243.588C469.2 244.306 468.831 244.964 468.211 245.285L464.409 246.996C463.978 247.303 464.221 248.006 464.758 248.006H470.945C471.621 248.006 472.155 247.467 472.156 246.782L476.687 178.209C476.687 178.209 464.37 169.111 462.27 166.131Z" fill="#979593"/>
<path d="M486.198 161.844H460.264L463.351 153.994C464.785 147.05 462.606 138.089 462.606 138.089L483.631 140.434C483.631 140.434 481.341 146.095 483.112 153.994L486.198 161.844Z" fill="#EE8F94"/>
<path d="M474.828 124.855C480.64 124.109 484.681 118.273 483.852 111.819C483.024 105.365 477.641 100.738 471.829 101.484C466.017 102.23 461.977 108.066 462.805 114.52C463.633 120.974 469.016 125.601 474.828 124.855Z" fill="#594539"/>
<path d="M466.21 120.659C466.948 120.575 467.475 119.884 467.388 119.116C467.301 118.347 466.632 117.792 465.895 117.875C465.157 117.959 464.63 118.649 464.717 119.418C464.804 120.187 465.472 120.742 466.21 120.659Z" fill="#E3646A"/>
<path d="M476.199 118.952H471.486V127.182H476.199V118.952Z" fill="#BF8F68"/>
<path d="M476.196 118.951H471.484V127.185H476.196V118.951Z" fill="url(#paint0_radial_3445_69515)"/>
<path d="M472.943 122.431C476.802 121.936 479.443 117.748 478.844 113.077C478.244 108.405 474.631 105.02 470.772 105.515C466.914 106.01 464.272 110.198 464.872 114.87C465.471 119.541 469.085 122.926 472.943 122.431Z" fill="#BF8F68"/>
<path d="M474.225 114.66C474.585 114.619 474.821 114.095 474.752 113.49C474.684 112.885 474.336 112.427 473.977 112.468C473.617 112.509 473.38 113.033 473.449 113.638C473.517 114.243 473.865 114.7 474.225 114.66Z" fill="#33312D"/>
<path d="M470.844 109.458L471.037 112.282C471.096 113.732 470.47 114.809 469.974 115.429C469.696 115.776 469.639 116.538 470.073 116.937C470.309 117.154 471.275 117.575 471.36 118.239L471.608 120.843L466.334 121.559L465.111 110.018L470.844 109.458Z" fill="url(#paint1_radial_3445_69515)"/>
<path d="M471.101 118.795C471.365 118.81 471.563 118.766 471.784 118.712C472.001 118.645 472.226 118.585 472.443 118.499C472.665 118.425 472.877 118.329 473.087 118.247C473.296 118.151 473.464 118.079 473.635 117.921L473.725 117.837C473.806 117.762 473.931 117.767 474.006 117.847C474.026 117.869 474.04 117.894 474.049 117.921C474.191 118.356 473.943 118.767 473.708 119.025C473.463 119.303 473.152 119.473 472.828 119.593C472.499 119.698 472.149 119.764 471.784 119.694C471.431 119.639 471.027 119.47 470.835 119.113C470.778 119.007 470.818 118.874 470.925 118.817C470.961 118.798 471.001 118.79 471.039 118.792L471.101 118.795Z" fill="#9B643D"/>
<path d="M463.972 107.946C463.972 107.946 465.565 108.504 467.293 107.203C468.97 105.94 470.237 107.39 471.128 108.396C473.044 110.557 476.028 112.304 478.654 111.611C480.533 111.116 480.224 104.812 474.345 103.511C468.198 102.15 463.972 107.946 463.972 107.946Z" fill="#594539"/>
<path d="M476.515 116.098L479.259 115.746C480.357 115.605 481.132 114.602 480.991 113.504L480.973 113.359C480.832 112.261 479.828 111.485 478.73 111.626L475.987 111.978L476.515 116.098Z" fill="#BF8F68"/>
<path d="M486.199 161.844C492.584 177.082 489.133 209.741 480.231 243.655C480.028 244.43 480.433 245.232 481.159 245.547L484.871 246.944C485.48 247.313 485.222 248.263 484.513 248.263H477.913C477.203 248.263 476.621 247.693 476.594 246.973L473.05 169.08C473.05 169.08 482.14 162.952 486.199 161.844Z" fill="#979593"/>
<path d="M460.265 161.844C460.265 161.844 452.522 179.521 457.788 243.63H473.567L476.199 178.23L460.265 161.844Z" fill="url(#paint2_linear_3445_69515)"/>
<path d="M486.199 161.844C486.199 161.844 490.02 170.036 491.339 185.65C492.659 201.265 491.339 243.63 491.339 243.63H475.24L471.826 166.976L486.199 161.844Z" fill="#BDBDE6"/>
<path d="M479.861 118.305C480.599 118.222 481.126 117.531 481.039 116.762C480.952 115.994 480.283 115.438 479.546 115.522C478.808 115.605 478.281 116.296 478.368 117.065C478.455 117.833 479.123 118.389 479.861 118.305Z" fill="#E3646A"/>
<path d="M473.275 148.227C479.227 148.227 484.052 143.402 484.052 137.451C484.052 131.499 479.227 126.674 473.275 126.674C467.324 126.674 462.499 131.499 462.499 137.451C462.499 143.402 467.324 148.227 473.275 148.227Z" fill="#EE8F94"/>
<path d="M460.264 161.844H486.198L483.112 153.994C482.038 149.203 482.458 145.246 482.955 142.865C483.696 141.273 484.051 139.427 484.051 137.451C484.051 131.499 479.226 126.674 473.275 126.674C467.323 126.674 462.498 131.499 462.498 137.451C462.498 138.814 462.762 140.112 463.223 141.313C463.734 144.55 464.245 149.664 463.351 153.994L460.264 161.844Z" fill="url(#paint3_radial_3445_69515)"/>
<path d="M466.278 148.586C466.278 148.586 484.006 159.15 490.036 150.577C493.118 146.196 491.157 130.987 479.567 127.185C472.429 128.675 475.871 135.221 475.871 135.221C475.871 135.221 482.591 137.348 484.051 145.014C485.047 150.24 466.407 146.449 466.407 146.449L466.278 148.586Z" fill="#EE8F94"/>
<path d="M466.278 148.586L462.451 147.216L461.772 147.02C461.482 147.041 461.222 147.206 461.079 147.458L460.597 148.31L459.469 147.631L459.84 146.381C459.946 146.025 460.213 145.738 460.562 145.607L461.611 144.953L460.419 145.211L459.467 146.002L458.59 146.031L460.325 144.382L461.846 144.141C462.071 144.106 462.302 144.147 462.5 144.258L466.407 146.449L466.278 148.586Z" fill="#BF8F68"/>
<path d="M461.665 148.513H438.562C438.237 148.513 437.951 148.298 437.861 147.985L433.878 134.106C433.745 133.64 434.094 133.176 434.579 133.176H457.682C458.007 133.176 458.293 133.392 458.383 133.704L462.366 147.583C462.5 148.049 462.15 148.513 461.665 148.513Z" fill="#C8C6C4"/>
<path d="M466.286 150.577H439.003C438.433 150.577 437.972 150.115 437.972 149.545C437.972 148.976 438.433 148.514 439.003 148.514H466.285C466.855 148.514 467.317 148.976 467.317 149.545C467.317 150.115 466.855 150.577 466.286 150.577Z" fill="#C8C6C4"/>
<path d="M476.196 124.009C476.196 124.009 476.199 126.245 479.131 127.029L475.871 127.889L476.196 124.009Z" fill="#BF8F68"/>
<path d="M471.484 123.735V125.485C471.484 126.269 470.944 126.948 470.181 127.125L466.926 127.852L472.027 127.755L471.484 123.735Z" fill="#BF8F68"/>
<path d="M467.38 127.747C467.4 127.762 467.419 127.767 467.439 127.776C467.487 127.796 467.536 127.815 467.585 127.835C467.74 127.898 467.901 127.957 468.076 128.01C468.962 128.297 470.048 128.507 471.266 128.609H471.27C472.171 128.687 473.13 128.706 474.138 128.658C475.141 128.614 476.096 128.507 476.977 128.346C477.503 128.249 478.004 128.137 478.472 128.01C479.109 127.84 479.684 127.64 480.186 127.416C479.835 127.28 479.48 127.153 479.129 127.027C478.871 126.934 478.608 126.846 478.35 126.759C477.401 126.35 476.87 125.766 476.573 125.244C476.446 125.225 476.324 125.206 476.198 125.186C476.164 125.186 476.135 125.181 476.101 125.176C475.93 125.157 475.765 125.137 475.594 125.123H475.589C474.908 125.065 474.211 125.05 473.501 125.084C473.024 125.103 472.556 125.147 472.094 125.216H472.089C471.957 125.23 471.826 125.25 471.694 125.274C471.621 125.284 471.553 125.298 471.485 125.308V125.483C471.485 126.267 470.944 126.949 470.18 127.124L467.38 127.747Z" fill="#BF8F68"/>
<path d="M468.381 115.414C468.74 115.363 468.96 114.832 468.874 114.229C468.787 113.626 468.426 113.18 468.068 113.231C467.709 113.282 467.488 113.813 467.575 114.416C467.661 115.019 468.022 115.466 468.381 115.414Z" fill="#33312D"/>
<defs>
<filter id="filter0_d_3445_69515" x="0" y="0" width="482.703" height="261.045" filterUnits="userSpaceOnUse" color-interpolation-filters="sRGB">
<feFlood flood-opacity="0" result="BackgroundImageFix"/>
<feColorMatrix in="SourceAlpha" type="matrix" values="0 0 0 0 0 0 0 0 0 0 0 0 0 0 0 0 0 0 127 0" result="hardAlpha"/>
<feMorphology radius="10" operator="dilate" in="SourceAlpha" result="effect1_dropShadow_3445_69515"/>
<feOffset/>
<feGaussianBlur stdDeviation="2"/>
<feComposite in2="hardAlpha" operator="out"/>
<feColorMatrix type="matrix" values="0 0 0 0 0.8375 0 0 0 0 0.8375 0 0 0 0 0.8375 0 0 0 0.1 0"/>
<feBlend mode="normal" in2="BackgroundImageFix" result="effect1_dropShadow_3445_69515"/>
<feBlend mode="normal" in="SourceGraphic" in2="effect1_dropShadow_3445_69515" result="shape"/>
</filter>
<radialGradient id="paint0_radial_3445_69515" cx="0" cy="0" r="1" gradientUnits="userSpaceOnUse" gradientTransform="translate(473.41 120.789) rotate(180) scale(5.27864 5.95642)">
<stop stop-color="#9B643D"/>
<stop offset="0.8819" stop-color="#BA8A63" stop-opacity="0.1178"/>
<stop offset="0.9997" stop-color="#BF8F68" stop-opacity="0"/>
</radialGradient>
<radialGradient id="paint1_radial_3445_69515" cx="0" cy="0" r="1" gradientUnits="userSpaceOnUse" gradientTransform="translate(470.495 116.368) rotate(168.37) scale(3.41873 3.60404)">
<stop offset="0.0003" stop-color="#9B643D"/>
<stop offset="0.8822" stop-color="#BA8A63" stop-opacity="0.1178"/>
<stop offset="1" stop-color="#BF8F68" stop-opacity="0"/>
</radialGradient>
<linearGradient id="paint2_linear_3445_69515" x1="491.147" y1="215.147" x2="468.65" y2="206.455" gradientUnits="userSpaceOnUse">
<stop stop-color="#A6A7DC"/>
<stop offset="1" stop-color="#BDBDE6"/>
</linearGradient>
<radialGradient id="paint3_radial_3445_69515" cx="0" cy="0" r="1" gradientUnits="userSpaceOnUse" gradientTransform="translate(484.954 150.132) scale(13.5261)">
<stop stop-color="#E3646A"/>
<stop offset="1" stop-color="#E3646A" stop-opacity="0"/>
</radialGradient>
<clipPath id="clip0_3445_69515">
<rect width="233" height="139" fill="white" transform="translate(195 63)"/>
</clipPath>
</defs>
</svg>
