<svg width="531" height="249" viewBox="0 0 531 249" fill="none" xmlns="http://www.w3.org/2000/svg">
<g filter="url(#filter0_d_3435_69417)">
<rect x="14" y="14" width="429.721" height="220.241" rx="8" fill="white"/>
</g>
<mask id="path-2-outside-1_3435_69417" maskUnits="userSpaceOnUse" x="145.568" y="36.4106" width="277" height="31" fill="black">
<rect fill="white" x="145.568" y="36.4106" width="277" height="31"/>
<path d="M146.568 65.4106C146.568 65.9629 147.016 66.4106 147.568 66.4106H419.916C420.469 66.4106 420.916 65.9629 420.916 65.4106V38.7833C420.916 38.231 420.469 37.7833 419.916 37.7833H147.568C147.016 37.7833 146.568 38.231 146.568 38.7833V65.4106Z"/>
</mask>
<path d="M146.568 65.4106C146.568 65.9629 147.016 66.4106 147.568 66.4106H419.916C420.469 66.4106 420.916 65.9629 420.916 65.4106V38.7833C420.916 38.231 420.469 37.7833 419.916 37.7833H147.568C147.016 37.7833 146.568 38.231 146.568 38.7833V65.4106Z" fill="white"/>
<path d="M145.568 65.4106C145.568 66.5152 146.464 67.4106 147.568 67.4106H419.916C421.021 67.4106 421.916 66.5152 421.916 65.4106H419.916H147.568H145.568ZM421.916 38.7833C421.916 37.6787 421.021 36.7833 419.916 36.7833H147.568C146.464 36.7833 145.568 37.6787 145.568 38.7833H147.568H419.916H421.916ZM147.568 36.7833C146.464 36.7833 145.568 37.6787 145.568 38.7833V65.4106C145.568 66.5152 146.464 67.4106 147.568 67.4106V65.4106V38.7833V36.7833ZM419.916 67.4106C421.021 67.4106 421.916 66.5152 421.916 65.4106V38.7833C421.916 37.6787 421.021 36.7833 419.916 36.7833V38.7833V65.4106V67.4106Z" fill="#E1DFDD" mask="url(#path-2-outside-1_3435_69417)"/>
<mask id="path-4-outside-2_3435_69417" maskUnits="userSpaceOnUse" x="145.568" y="66.283" width="277" height="31" fill="black">
<rect fill="white" x="145.568" y="66.283" width="277" height="31"/>
<path d="M146.568 95.283C146.568 95.8352 147.016 96.283 147.568 96.283H419.916C420.469 96.283 420.916 95.8352 420.916 95.283V68.6556C420.916 68.1033 420.469 67.6556 419.916 67.6556H147.568C147.016 67.6556 146.568 68.1033 146.568 68.6556V95.283Z"/>
</mask>
<path d="M146.568 95.283C146.568 95.8352 147.016 96.283 147.568 96.283H419.916C420.469 96.283 420.916 95.8352 420.916 95.283V68.6556C420.916 68.1033 420.469 67.6556 419.916 67.6556H147.568C147.016 67.6556 146.568 68.1033 146.568 68.6556V95.283Z" fill="white"/>
<path d="M145.568 95.283C145.568 96.3875 146.464 97.283 147.568 97.283H419.916C421.021 97.283 421.916 96.3875 421.916 95.283H419.916H147.568H145.568ZM421.916 68.6556C421.916 67.551 421.021 66.6556 419.916 66.6556H147.568C146.464 66.6556 145.568 67.551 145.568 68.6556H147.568H419.916H421.916ZM147.568 66.6556C146.464 66.6556 145.568 67.551 145.568 68.6556V95.283C145.568 96.3875 146.464 97.283 147.568 97.283V95.283V68.6556V66.6556ZM419.916 97.283C421.021 97.283 421.916 96.3875 421.916 95.283V68.6556C421.916 67.551 421.021 66.6556 419.916 66.6556V68.6556V95.283V97.283Z" fill="#E1DFDD" mask="url(#path-4-outside-2_3435_69417)"/>
<mask id="path-6-outside-3_3435_69417" maskUnits="userSpaceOnUse" x="145.568" y="96.1548" width="277" height="31" fill="black">
<rect fill="white" x="145.568" y="96.1548" width="277" height="31"/>
<path d="M146.568 125.155C146.568 125.707 147.016 126.155 147.568 126.155H419.916C420.469 126.155 420.916 125.707 420.916 125.155V98.5274C420.916 97.9751 420.469 97.5274 419.916 97.5274H147.568C147.016 97.5274 146.568 97.9751 146.568 98.5274V125.155Z"/>
</mask>
<path d="M146.568 125.155C146.568 125.707 147.016 126.155 147.568 126.155H419.916C420.469 126.155 420.916 125.707 420.916 125.155V98.5274C420.916 97.9751 420.469 97.5274 419.916 97.5274H147.568C147.016 97.5274 146.568 97.9751 146.568 98.5274V125.155Z" fill="white"/>
<path d="M145.568 125.155C145.568 126.259 146.464 127.155 147.568 127.155H419.916C421.021 127.155 421.916 126.259 421.916 125.155H419.916H147.568H145.568ZM421.916 98.5274C421.916 97.4228 421.021 96.5274 419.916 96.5274H147.568C146.464 96.5274 145.568 97.4228 145.568 98.5274H147.568H419.916H421.916ZM147.568 96.5274C146.464 96.5274 145.568 97.4228 145.568 98.5274V125.155C145.568 126.259 146.464 127.155 147.568 127.155V125.155V98.5274V96.5274ZM419.916 127.155C421.021 127.155 421.916 126.259 421.916 125.155V98.5274C421.916 97.4228 421.021 96.5274 419.916 96.5274V98.5274V125.155V127.155Z" fill="#E1DFDD" mask="url(#path-6-outside-3_3435_69417)"/>
<mask id="path-8-outside-4_3435_69417" maskUnits="userSpaceOnUse" x="145.568" y="126.027" width="277" height="31" fill="black">
<rect fill="white" x="145.568" y="126.027" width="277" height="31"/>
<path d="M146.568 155.027C146.568 155.579 147.016 156.027 147.568 156.027H419.916C420.469 156.027 420.916 155.579 420.916 155.027V128.399C420.916 127.847 420.469 127.399 419.916 127.399H147.568C147.016 127.399 146.568 127.847 146.568 128.399V155.027Z"/>
</mask>
<path d="M146.568 155.027C146.568 155.579 147.016 156.027 147.568 156.027H419.916C420.469 156.027 420.916 155.579 420.916 155.027V128.399C420.916 127.847 420.469 127.399 419.916 127.399H147.568C147.016 127.399 146.568 127.847 146.568 128.399V155.027Z" fill="white"/>
<path d="M145.568 155.027C145.568 156.131 146.464 157.027 147.568 157.027H419.916C421.021 157.027 421.916 156.131 421.916 155.027H419.916H147.568H145.568ZM421.916 128.399C421.916 127.295 421.021 126.399 419.916 126.399H147.568C146.464 126.399 145.568 127.295 145.568 128.399H147.568H419.916H421.916ZM147.568 126.399C146.464 126.399 145.568 127.295 145.568 128.399V155.027C145.568 156.131 146.464 157.027 147.568 157.027V155.027V128.399V126.399ZM419.916 157.027C421.021 157.027 421.916 156.131 421.916 155.027V128.399C421.916 127.295 421.021 126.399 419.916 126.399V128.399V155.027V157.027Z" fill="#E1DFDD" mask="url(#path-8-outside-4_3435_69417)"/>
<mask id="path-10-outside-5_3435_69417" maskUnits="userSpaceOnUse" x="145.568" y="154.604" width="277" height="31" fill="black">
<rect fill="white" x="145.568" y="154.604" width="277" height="31"/>
<path d="M146.568 183.604C146.568 184.156 147.016 184.604 147.568 184.604H419.916C420.469 184.604 420.916 184.156 420.916 183.604V156.976C420.916 156.424 420.469 155.976 419.916 155.976H147.568C147.016 155.976 146.568 156.424 146.568 156.976V183.604Z"/>
</mask>
<path d="M146.568 183.604C146.568 184.156 147.016 184.604 147.568 184.604H419.916C420.469 184.604 420.916 184.156 420.916 183.604V156.976C420.916 156.424 420.469 155.976 419.916 155.976H147.568C147.016 155.976 146.568 156.424 146.568 156.976V183.604Z" fill="white"/>
<path d="M145.568 183.604C145.568 184.708 146.464 185.604 147.568 185.604H419.916C421.021 185.604 421.916 184.708 421.916 183.604H419.916H147.568H145.568ZM421.916 156.976C421.916 155.872 421.021 154.976 419.916 154.976H147.568C146.464 154.976 145.568 155.872 145.568 156.976H147.568H419.916H421.916ZM147.568 154.976C146.464 154.976 145.568 155.872 145.568 156.976V183.604C145.568 184.708 146.464 185.604 147.568 185.604V183.604V156.976V154.976ZM419.916 185.604C421.021 185.604 421.916 184.708 421.916 183.604V156.976C421.916 155.872 421.021 154.976 419.916 154.976V156.976V183.604V185.604Z" fill="#E1DFDD" mask="url(#path-10-outside-5_3435_69417)"/>
<mask id="path-12-outside-6_3435_69417" maskUnits="userSpaceOnUse" x="145.568" y="184.475" width="277" height="31" fill="black">
<rect fill="white" x="145.568" y="184.475" width="277" height="31"/>
<path d="M146.568 213.475C146.568 214.028 147.016 214.475 147.568 214.475H419.916C420.469 214.475 420.916 214.028 420.916 213.475V186.848C420.916 186.296 420.469 185.848 419.916 185.848H147.568C147.016 185.848 146.568 186.296 146.568 186.848V213.475Z"/>
</mask>
<path d="M146.568 213.475C146.568 214.028 147.016 214.475 147.568 214.475H419.916C420.469 214.475 420.916 214.028 420.916 213.475V186.848C420.916 186.296 420.469 185.848 419.916 185.848H147.568C147.016 185.848 146.568 186.296 146.568 186.848V213.475Z" fill="white"/>
<path d="M145.568 213.475C145.568 214.58 146.464 215.475 147.568 215.475H419.916C421.021 215.475 421.916 214.58 421.916 213.475H419.916H147.568H145.568ZM421.916 186.848C421.916 185.743 421.021 184.848 419.916 184.848H147.568C146.464 184.848 145.568 185.743 145.568 186.848H147.568H419.916H421.916ZM147.568 184.848C146.464 184.848 145.568 185.743 145.568 186.848V213.475C145.568 214.58 146.464 215.475 147.568 215.475V213.475V186.848V184.848ZM419.916 215.475C421.021 215.475 421.916 214.58 421.916 213.475V186.848C421.916 185.743 421.021 184.848 419.916 184.848V186.848V213.475V215.475Z" fill="#E1DFDD" mask="url(#path-12-outside-6_3435_69417)"/>
<rect x="157.164" y="48.949" width="251.943" height="7.81228" rx="1" fill="#D0E7F8"/>
<rect x="157.439" y="77.7468" width="67.8106" height="7.98263" rx="1" fill="#EDEDED"/>
<rect x="157.439" y="107.283" width="78.681" height="7.98263" rx="1" fill="#DFF6DD"/>
<rect x="270.185" y="137.488" width="138.922" height="7.81228" rx="1" fill="#D0E7F8"/>
<rect x="157.164" y="137.488" width="49.4467" height="7.81228" rx="1" fill="#D0E7F8"/>
<rect x="157.439" y="166.354" width="67.8106" height="7.98263" rx="1" fill="#EDEDED"/>
<rect x="157.439" y="195.89" width="78.681" height="7.98263" rx="1" fill="#EDEDED"/>
<mask id="path-21-outside-7_3435_69417" maskUnits="userSpaceOnUse" x="40.7881" y="36.4106" width="97" height="31" fill="black">
<rect fill="white" x="40.7881" y="36.4106" width="97" height="31"/>
<path d="M41.7881 65.4106C41.7881 65.9629 42.2358 66.4106 42.7881 66.4106H134.972C135.525 66.4106 135.972 65.9629 135.972 65.4106V38.7833C135.972 38.231 135.525 37.7833 134.972 37.7833H42.7881C42.2358 37.7833 41.7881 38.231 41.7881 38.7833V65.4106Z"/>
</mask>
<path d="M41.7881 65.4106C41.7881 65.9629 42.2358 66.4106 42.7881 66.4106H134.972C135.525 66.4106 135.972 65.9629 135.972 65.4106V38.7833C135.972 38.231 135.525 37.7833 134.972 37.7833H42.7881C42.2358 37.7833 41.7881 38.231 41.7881 38.7833V65.4106Z" fill="white"/>
<path d="M40.7881 65.4106C40.7881 66.5152 41.6835 67.4106 42.7881 67.4106H134.972C136.077 67.4106 136.972 66.5152 136.972 65.4106H134.972H42.7881H40.7881ZM136.972 38.7833C136.972 37.6787 136.077 36.7833 134.972 36.7833H42.7881C41.6835 36.7833 40.7881 37.6787 40.7881 38.7833H42.7881H134.972H136.972ZM42.7881 36.7833C41.6835 36.7833 40.7881 37.6787 40.7881 38.7833V65.4106C40.7881 66.5152 41.6835 67.4106 42.7881 67.4106V65.4106V38.7833V36.7833ZM134.972 67.4106C136.077 67.4106 136.972 66.5152 136.972 65.4106V38.7833C136.972 37.6787 136.077 36.7833 134.972 36.7833V38.7833V65.4106V67.4106Z" fill="#E1DFDD" mask="url(#path-21-outside-7_3435_69417)"/>
<mask id="path-23-outside-8_3435_69417" maskUnits="userSpaceOnUse" x="40.7881" y="66.283" width="97" height="31" fill="black">
<rect fill="white" x="40.7881" y="66.283" width="97" height="31"/>
<path d="M41.7881 95.283C41.7881 95.8352 42.2358 96.283 42.7881 96.283H134.972C135.525 96.283 135.972 95.8352 135.972 95.283V68.6556C135.972 68.1033 135.525 67.6556 134.972 67.6556H42.7881C42.2358 67.6556 41.7881 68.1033 41.7881 68.6556V95.283Z"/>
</mask>
<path d="M41.7881 95.283C41.7881 95.8352 42.2358 96.283 42.7881 96.283H134.972C135.525 96.283 135.972 95.8352 135.972 95.283V68.6556C135.972 68.1033 135.525 67.6556 134.972 67.6556H42.7881C42.2358 67.6556 41.7881 68.1033 41.7881 68.6556V95.283Z" fill="white"/>
<path d="M40.7881 95.283C40.7881 96.3875 41.6835 97.283 42.7881 97.283H134.972C136.077 97.283 136.972 96.3875 136.972 95.283H134.972H42.7881H40.7881ZM136.972 68.6556C136.972 67.551 136.077 66.6556 134.972 66.6556H42.7881C41.6835 66.6556 40.7881 67.551 40.7881 68.6556H42.7881H134.972H136.972ZM42.7881 66.6556C41.6835 66.6556 40.7881 67.551 40.7881 68.6556V95.283C40.7881 96.3875 41.6835 97.283 42.7881 97.283V95.283V68.6556V66.6556ZM134.972 97.283C136.077 97.283 136.972 96.3875 136.972 95.283V68.6556C136.972 67.551 136.077 66.6556 134.972 66.6556V68.6556V95.283V97.283Z" fill="#E1DFDD" mask="url(#path-23-outside-8_3435_69417)"/>
<mask id="path-25-outside-9_3435_69417" maskUnits="userSpaceOnUse" x="40.7881" y="96.1548" width="97" height="31" fill="black">
<rect fill="white" x="40.7881" y="96.1548" width="97" height="31"/>
<path d="M41.7881 125.155C41.7881 125.707 42.2358 126.155 42.7881 126.155H134.972C135.525 126.155 135.972 125.707 135.972 125.155V98.5274C135.972 97.9751 135.525 97.5274 134.972 97.5274H42.7881C42.2358 97.5274 41.7881 97.9751 41.7881 98.5274V125.155Z"/>
</mask>
<path d="M41.7881 125.155C41.7881 125.707 42.2358 126.155 42.7881 126.155H134.972C135.525 126.155 135.972 125.707 135.972 125.155V98.5274C135.972 97.9751 135.525 97.5274 134.972 97.5274H42.7881C42.2358 97.5274 41.7881 97.9751 41.7881 98.5274V125.155Z" fill="white"/>
<path d="M40.7881 125.155C40.7881 126.259 41.6835 127.155 42.7881 127.155H134.972C136.077 127.155 136.972 126.259 136.972 125.155H134.972H42.7881H40.7881ZM136.972 98.5274C136.972 97.4228 136.077 96.5274 134.972 96.5274H42.7881C41.6835 96.5274 40.7881 97.4228 40.7881 98.5274H42.7881H134.972H136.972ZM42.7881 96.5274C41.6835 96.5274 40.7881 97.4228 40.7881 98.5274V125.155C40.7881 126.259 41.6835 127.155 42.7881 127.155V125.155V98.5274V96.5274ZM134.972 127.155C136.077 127.155 136.972 126.259 136.972 125.155V98.5274C136.972 97.4228 136.077 96.5274 134.972 96.5274V98.5274V125.155V127.155Z" fill="#E1DFDD" mask="url(#path-25-outside-9_3435_69417)"/>
<mask id="path-27-outside-10_3435_69417" maskUnits="userSpaceOnUse" x="40.7881" y="126.027" width="97" height="31" fill="black">
<rect fill="white" x="40.7881" y="126.027" width="97" height="31"/>
<path d="M41.7881 155.027C41.7881 155.579 42.2358 156.027 42.7881 156.027H134.972C135.525 156.027 135.972 155.579 135.972 155.027V128.399C135.972 127.847 135.525 127.399 134.972 127.399H42.7881C42.2358 127.399 41.7881 127.847 41.7881 128.399V155.027Z"/>
</mask>
<path d="M41.7881 155.027C41.7881 155.579 42.2358 156.027 42.7881 156.027H134.972C135.525 156.027 135.972 155.579 135.972 155.027V128.399C135.972 127.847 135.525 127.399 134.972 127.399H42.7881C42.2358 127.399 41.7881 127.847 41.7881 128.399V155.027Z" fill="white"/>
<path d="M40.7881 155.027C40.7881 156.131 41.6835 157.027 42.7881 157.027H134.972C136.077 157.027 136.972 156.131 136.972 155.027H134.972H42.7881H40.7881ZM136.972 128.399C136.972 127.295 136.077 126.399 134.972 126.399H42.7881C41.6835 126.399 40.7881 127.295 40.7881 128.399H42.7881H134.972H136.972ZM42.7881 126.399C41.6835 126.399 40.7881 127.295 40.7881 128.399V155.027C40.7881 156.131 41.6835 157.027 42.7881 157.027V155.027V128.399V126.399ZM134.972 157.027C136.077 157.027 136.972 156.131 136.972 155.027V128.399C136.972 127.295 136.077 126.399 134.972 126.399V128.399V155.027V157.027Z" fill="#E1DFDD" mask="url(#path-27-outside-10_3435_69417)"/>
<mask id="path-29-outside-11_3435_69417" maskUnits="userSpaceOnUse" x="40.7881" y="154.604" width="97" height="31" fill="black">
<rect fill="white" x="40.7881" y="154.604" width="97" height="31"/>
<path d="M41.7881 183.604C41.7881 184.156 42.2358 184.604 42.7881 184.604H134.972C135.525 184.604 135.972 184.156 135.972 183.604V156.976C135.972 156.424 135.525 155.976 134.972 155.976H42.7881C42.2358 155.976 41.7881 156.424 41.7881 156.976V183.604Z"/>
</mask>
<path d="M41.7881 183.604C41.7881 184.156 42.2358 184.604 42.7881 184.604H134.972C135.525 184.604 135.972 184.156 135.972 183.604V156.976C135.972 156.424 135.525 155.976 134.972 155.976H42.7881C42.2358 155.976 41.7881 156.424 41.7881 156.976V183.604Z" fill="white"/>
<path d="M40.7881 183.604C40.7881 184.708 41.6835 185.604 42.7881 185.604H134.972C136.077 185.604 136.972 184.708 136.972 183.604H134.972H42.7881H40.7881ZM136.972 156.976C136.972 155.872 136.077 154.976 134.972 154.976H42.7881C41.6835 154.976 40.7881 155.872 40.7881 156.976H42.7881H134.972H136.972ZM42.7881 154.976C41.6835 154.976 40.7881 155.872 40.7881 156.976V183.604C40.7881 184.708 41.6835 185.604 42.7881 185.604V183.604V156.976V154.976ZM134.972 185.604C136.077 185.604 136.972 184.708 136.972 183.604V156.976C136.972 155.872 136.077 154.976 134.972 154.976V156.976V183.604V185.604Z" fill="#E1DFDD" mask="url(#path-29-outside-11_3435_69417)"/>
<mask id="path-31-outside-12_3435_69417" maskUnits="userSpaceOnUse" x="40.7881" y="184.476" width="97" height="31" fill="black">
<rect fill="white" x="40.7881" y="184.476" width="97" height="31"/>
<path d="M41.7881 213.476C41.7881 214.028 42.2358 214.476 42.7881 214.476H134.972C135.525 214.476 135.972 214.028 135.972 213.476V186.848C135.972 186.296 135.525 185.848 134.972 185.848H42.7881C42.2358 185.848 41.7881 186.296 41.7881 186.848V213.476Z"/>
</mask>
<path d="M41.7881 213.476C41.7881 214.028 42.2358 214.476 42.7881 214.476H134.972C135.525 214.476 135.972 214.028 135.972 213.476V186.848C135.972 186.296 135.525 185.848 134.972 185.848H42.7881C42.2358 185.848 41.7881 186.296 41.7881 186.848V213.476Z" fill="white"/>
<path d="M40.7881 213.476C40.7881 214.58 41.6835 215.476 42.7881 215.476H134.972C136.077 215.476 136.972 214.58 136.972 213.476H134.972H42.7881H40.7881ZM136.972 186.848C136.972 185.744 136.077 184.848 134.972 184.848H42.7881C41.6835 184.848 40.7881 185.744 40.7881 186.848H42.7881H134.972H136.972ZM42.7881 184.848C41.6835 184.848 40.7881 185.744 40.7881 186.848V213.476C40.7881 214.58 41.6835 215.476 42.7881 215.476V213.476V186.848V184.848ZM134.972 215.476C136.077 215.476 136.972 214.58 136.972 213.476V186.848C136.972 185.744 136.077 184.848 134.972 184.848V186.848V213.476V215.476Z" fill="#E1DFDD" mask="url(#path-31-outside-12_3435_69417)"/>
<rect x="45.52" y="49.0093" width="29.1438" height="7.98263" rx="1" fill="#EDEDED"/>
<rect x="45.52" y="77.7468" width="23.2795" height="7.98263" rx="1" fill="#EDEDED"/>
<rect x="45.52" y="107.283" width="27.0113" height="7.98263" rx="1" fill="#EDEDED"/>
<rect x="45.52" y="137.617" width="29.1438" height="7.98263" rx="1" fill="#EDEDED"/>
<rect x="45.52" y="166.354" width="23.2795" height="7.98263" rx="1" fill="#EDEDED"/>
<rect x="45.52" y="195.89" width="27.0113" height="7.98263" rx="1" fill="#EDEDED"/>
<rect x="118.313" y="48.949" width="12.9503" height="7.81228" fill="#EDEDED"/>
<rect x="118.313" y="77.594" width="10.5957" height="7.81228" fill="#EDEDED"/>
<rect x="118.313" y="107.541" width="11.773" height="7.81228" fill="#EDEDED"/>
<rect x="118.313" y="137.488" width="12.9503" height="7.81228" fill="#EDEDED"/>
<rect x="118.313" y="166.133" width="10.5957" height="7.81228" fill="#EDEDED"/>
<rect x="118.313" y="196.08" width="11.773" height="7.81228" fill="#EDEDED"/>
<path d="M466.492 138.085C466.636 133.309 471.395 132.186 471.518 128.108C471.642 124.031 467.739 123.036 467.999 118.28C468.406 110.84 475.85 111.074 475.85 111.074C475.85 111.074 483.294 111.309 483.25 118.76C483.222 123.524 479.267 124.271 479.144 128.349C479.021 132.426 483.703 133.847 483.559 138.622C483.414 143.397 479.726 145.166 479.597 149.441C479.468 153.717 482.507 155.395 482.325 161.404C482.144 167.414 474.808 175.639 474.808 175.639L472.992 175.582C472.992 175.582 466.166 166.911 466.348 160.901C466.53 154.891 469.664 153.408 469.793 149.132C469.922 144.857 466.348 142.86 466.492 138.085Z" fill="#56A84F"/>
<path d="M484.825 170.089C486.503 164.645 484.507 161.781 484.069 160.279C483.631 158.776 483.297 158.311 483.558 157.118C483.79 156.063 484.078 155.513 485.487 154.704C487.078 153.791 489.059 152.654 489.875 149.935C490.638 147.388 490.189 145.301 489.793 143.46C489.484 142.026 489.218 140.788 489.593 139.536C489.852 138.671 490.31 138.465 491.596 137.994C493.045 137.463 495.029 136.737 496.249 134.17C499.081 128.218 494.881 124.144 492.264 122.821C492.093 122.735 490.531 121.971 488.471 121.85C485.154 121.655 482.411 123.248 480.749 126.336C479.356 128.921 479.564 131.084 479.749 132.993C479.87 134.266 479.976 135.366 479.621 136.552C479.327 137.532 478.519 138.046 477.117 138.872C475.465 139.844 473.408 141.054 472.577 143.824C471.766 146.524 472.179 148.348 472.928 150.415C473.498 151.988 473.991 153.347 473.711 154.622C473.424 155.931 472.504 156.323 471.453 157.277C470.253 158.366 465.254 160.844 464.927 166.176C464.562 172.128 470.09 183.53 470.09 183.53C470.09 183.53 483.147 175.534 484.825 170.089Z" fill="#77D672"/>
<path d="M449.212 144.099C454.464 135.007 451.083 123.224 441.661 117.781C432.238 112.338 420.341 115.296 415.089 124.388C409.837 133.48 413.218 145.263 422.641 150.706C432.064 156.149 443.96 153.191 449.212 144.099Z" fill="#594539"/>
<path d="M440.471 97.4538C441.922 103.79 443.911 113.964 449.907 126.77C441.503 130.303 426.189 129.94 414.682 125.136C417.79 118.914 420.269 108.237 419.537 101.204C419.626 99.8796 440.107 95.8653 440.471 97.4538Z" fill="#594539"/>
<path d="M423.769 121.23H418.703V138.382H423.769V121.23Z" fill="#EE8F94"/>
<path d="M401.731 137.535C401.805 137.584 402.905 138.607 403.528 139.187C403.798 139.438 404.161 139.565 404.528 139.535L409.127 139.165L410.334 139.027V137.272L401.731 137.535Z" fill="#BF8F68"/>
<path d="M421.709 141.385L409.126 139.166V136.849H421.709V141.385Z" fill="#EE8F94"/>
<path d="M424.926 127.371C428.362 127.371 431.148 124.585 431.148 121.149C431.148 117.712 428.362 114.927 424.926 114.927C421.489 114.927 418.703 117.712 418.703 121.149C418.703 124.585 421.489 127.371 424.926 127.371Z" fill="#EE8F94"/>
<path d="M430.084 166.419C437.722 166.419 443.913 160.645 443.913 153.522C443.913 146.399 437.722 140.625 430.084 140.625C422.447 140.625 416.256 146.399 416.256 153.522C416.256 160.645 422.447 166.419 430.084 166.419Z" fill="#BDBDE6"/>
<path d="M419.064 153.522C408.852 173.41 425.554 224.243 425.987 231.391C426.031 232.112 425.66 232.774 425.036 233.097L421.214 234.817C420.781 235.126 421.025 235.833 421.565 235.833H427.785C428.464 235.833 429.001 235.29 429.003 234.602L433.558 165.664C433.558 165.664 421.175 156.518 419.064 153.522Z" fill="#979593"/>
<path d="M443.119 149.213H417.047L420.151 141.321C421.592 134.34 419.402 125.331 419.402 125.331L440.538 127.689C440.538 127.689 438.236 133.38 440.017 141.321L443.119 149.213Z" fill="#EE8F94"/>
<path d="M431.689 112.028C437.532 111.278 441.593 105.41 440.761 98.9221C439.928 92.434 434.516 87.7822 428.673 88.5321C422.83 89.282 418.769 95.1495 419.601 101.638C420.434 108.126 425.846 112.778 431.689 112.028Z" fill="#594539"/>
<path d="M423.025 107.809C423.766 107.725 424.297 107.03 424.209 106.257C424.122 105.485 423.45 104.926 422.708 105.01C421.966 105.094 421.436 105.789 421.524 106.561C421.611 107.334 422.283 107.893 423.025 107.809Z" fill="#E3646A"/>
<path d="M433.067 106.093H428.328V114.367H433.067V106.093Z" fill="#BF8F68"/>
<path d="M433.064 106.092H428.327V114.37H433.064V106.092Z" fill="url(#paint0_radial_3435_69417)"/>
<path d="M429.794 109.591C433.673 109.093 436.328 104.882 435.726 100.186C435.123 95.4901 431.49 92.0867 427.611 92.5845C423.733 93.0823 421.077 97.2928 421.68 101.989C422.282 106.685 425.915 110.088 429.794 109.591Z" fill="#BF8F68"/>
<path d="M431.082 101.778C431.444 101.737 431.681 101.21 431.613 100.602C431.544 99.9937 431.194 99.5338 430.833 99.5747C430.471 99.6157 430.233 100.142 430.302 100.75C430.371 101.359 430.72 101.819 431.082 101.778Z" fill="#33312D"/>
<path d="M427.684 96.5491L427.878 99.3878C427.937 100.845 427.308 101.928 426.809 102.551C426.529 102.9 426.472 103.667 426.908 104.067C427.145 104.285 428.116 104.708 428.202 105.376L428.452 107.994L423.15 108.714L421.92 97.1115L427.684 96.5491Z" fill="url(#paint1_radial_3435_69417)"/>
<path d="M427.942 105.935C428.207 105.95 428.406 105.905 428.629 105.852C428.846 105.784 429.072 105.724 429.291 105.637C429.514 105.563 429.728 105.467 429.938 105.384C430.148 105.287 430.317 105.215 430.489 105.056L430.58 104.972C430.661 104.896 430.787 104.901 430.862 104.982C430.882 105.004 430.897 105.03 430.906 105.056C431.048 105.493 430.799 105.907 430.563 106.166C430.316 106.445 430.004 106.617 429.678 106.737C429.348 106.842 428.996 106.909 428.629 106.839C428.274 106.783 427.867 106.614 427.675 106.255C427.617 106.148 427.658 106.015 427.765 105.957C427.801 105.938 427.841 105.93 427.879 105.932L427.942 105.935Z" fill="#9B643D"/>
<path d="M420.775 95.0286C420.775 95.0286 422.376 95.5899 424.114 94.2811C425.799 93.012 427.073 94.4693 427.969 95.4804C429.895 97.6538 432.895 99.4102 435.535 98.7134C437.424 98.2149 437.113 91.8775 431.203 90.5695C425.023 89.2017 420.775 95.0286 420.775 95.0286Z" fill="#594539"/>
<path d="M433.385 103.224L436.143 102.87C437.247 102.729 438.026 101.72 437.885 100.616L437.866 100.47C437.724 99.3666 436.715 98.5869 435.612 98.7285L432.853 99.0825L433.385 103.224Z" fill="#BF8F68"/>
<path d="M443.12 149.213C449.539 164.532 446.07 197.365 437.12 231.459C436.916 232.237 437.323 233.044 438.053 233.36L441.785 234.765C442.397 235.136 442.138 236.091 441.425 236.091H434.79C434.077 236.091 433.491 235.518 433.464 234.794L429.901 156.487C429.901 156.487 439.039 150.327 443.12 149.213Z" fill="#979593"/>
<path d="M417.048 149.213C417.048 149.213 409.264 166.984 414.559 231.433H430.421L433.067 165.686L417.048 149.213Z" fill="url(#paint2_linear_3435_69417)"/>
<path d="M443.12 149.213C443.12 149.213 446.961 157.448 448.288 173.146C449.614 188.843 448.288 231.433 448.288 231.433H432.103L428.671 154.372L443.12 149.213Z" fill="#BDBDE6"/>
<path d="M436.748 105.443C437.49 105.359 438.02 104.664 437.933 103.891C437.845 103.119 437.173 102.56 436.431 102.644C435.69 102.728 435.16 103.423 435.247 104.196C435.335 104.968 436.007 105.527 436.748 105.443Z" fill="#E3646A"/>
<path d="M430.128 135.523C436.111 135.523 440.961 130.673 440.961 124.69C440.961 118.706 436.111 113.856 430.128 113.856C424.144 113.856 419.294 118.706 419.294 124.69C419.294 130.673 424.144 135.523 430.128 135.523Z" fill="#EE8F94"/>
<path d="M417.047 149.213H443.119L440.017 141.321C438.937 136.505 439.359 132.526 439.858 130.133C440.604 128.532 440.961 126.676 440.961 124.69C440.961 118.706 436.11 113.856 430.127 113.856C424.144 113.856 419.293 118.706 419.293 124.69C419.293 126.06 419.558 127.365 420.022 128.572C420.536 131.826 421.05 136.967 420.151 141.321L417.047 149.213Z" fill="url(#paint3_radial_3435_69417)"/>
<path d="M423.093 135.884C423.093 135.884 440.916 146.504 446.977 137.886C450.076 133.481 448.104 118.192 436.453 114.37C429.277 115.868 432.737 122.448 432.737 122.448C432.737 122.448 439.493 124.586 440.961 132.293C441.962 137.547 423.223 133.736 423.223 133.736L423.093 135.884Z" fill="#EE8F94"/>
<path d="M423.093 135.884L419.246 134.507L418.563 134.31C418.272 134.331 418.011 134.496 417.867 134.75L417.382 135.606L416.248 134.924L416.621 133.668C416.728 133.309 416.996 133.021 417.347 132.889L418.401 132.232L417.203 132.491L416.246 133.286L415.364 133.316L417.108 131.658L418.638 131.416C418.864 131.38 419.096 131.422 419.295 131.534L423.223 133.736L423.093 135.884Z" fill="#BF8F68"/>
<path d="M418.456 135.812H395.23C394.903 135.812 394.616 135.595 394.525 135.281L390.521 121.328C390.387 120.86 390.739 120.393 391.226 120.393H414.452C414.779 120.393 415.066 120.61 415.156 120.924L419.16 134.877C419.295 135.345 418.943 135.812 418.456 135.812Z" fill="#C8C6C4"/>
<path d="M423.101 137.886H395.673C395.101 137.886 394.636 137.422 394.636 136.849C394.636 136.276 395.101 135.812 395.673 135.812H423.101C423.673 135.812 424.138 136.276 424.138 136.849C424.138 137.422 423.673 137.886 423.101 137.886Z" fill="#C8C6C4"/>
<path d="M433.064 111.177C433.064 111.177 433.067 113.425 436.015 114.212L432.737 115.078L433.064 111.177Z" fill="#BF8F68"/>
<path d="M428.327 110.901V112.661C428.327 113.448 427.784 114.131 427.017 114.309L423.745 115.04L428.873 114.942L428.327 110.901Z" fill="#BF8F68"/>
<path d="M424.201 114.935C424.221 114.949 424.24 114.954 424.26 114.964C424.309 114.984 424.358 115.003 424.407 115.023C424.563 115.087 424.725 115.145 424.901 115.199C425.792 115.488 426.884 115.699 428.107 115.801H428.112C429.018 115.88 429.982 115.899 430.995 115.85C432.004 115.806 432.963 115.699 433.849 115.537C434.378 115.439 434.882 115.327 435.352 115.199C435.993 115.028 436.57 114.827 437.075 114.602C436.722 114.465 436.365 114.338 436.012 114.21C435.753 114.117 435.489 114.029 435.229 113.941C434.275 113.53 433.741 112.943 433.443 112.419C433.315 112.399 433.193 112.38 433.066 112.36C433.031 112.36 433.002 112.355 432.968 112.35C432.797 112.331 432.63 112.311 432.459 112.297H432.454C431.769 112.238 431.069 112.223 430.354 112.258C429.875 112.277 429.405 112.321 428.94 112.39H428.935C428.803 112.404 428.67 112.424 428.538 112.448C428.465 112.458 428.396 112.473 428.328 112.483V112.659C428.328 113.447 427.784 114.132 427.016 114.308L424.201 114.935Z" fill="#BF8F68"/>
<path d="M425.207 102.536C425.568 102.485 425.79 101.951 425.703 101.345C425.616 100.739 425.253 100.29 424.892 100.342C424.532 100.393 424.31 100.927 424.397 101.533C424.484 102.139 424.847 102.588 425.207 102.536Z" fill="#33312D"/>
<path d="M477.995 186.284C482.52 195.278 485.098 196.881 491.693 198.637C498.288 200.394 500.867 190.464 500.867 190.464L503.518 192.725C503.518 192.725 501.153 216.974 485.718 214.788C470.075 212.573 458.946 202.008 460.098 190.226C461.082 180.157 473.415 177.182 477.995 186.284Z" fill="#7C7EBB"/>
<path d="M492.315 196.599L457.731 230.219L464.541 238.849C464.541 238.849 476.331 240.191 481.653 234.87L501.211 214.582C501.21 214.582 497.334 191.719 492.315 196.599Z" fill="url(#paint4_linear_3435_69417)"/>
<path d="M530.562 237.464L526.402 235.313C525.685 234.942 525.081 234.271 524.621 233.245L508.585 199.536C505.578 193.215 497.25 191.719 492.231 196.598L501.126 214.582L519.647 236.579C519.693 237.83 520.718 238.822 521.969 238.827L530.147 238.86C530.906 238.864 531.199 237.875 530.562 237.464Z" fill="url(#paint5_linear_3435_69417)"/>
<path d="M464.679 227.625H441.584L438.966 197.106C437.536 184.444 445.171 172.541 455.426 172.541H459.953C470.207 172.541 479.21 180.581 480.061 190.5L481.706 209.666C482.557 219.584 474.934 227.625 464.679 227.625Z" fill="url(#paint6_radial_3435_69417)"/>
<path d="M467.023 173.839C464.801 172.997 462.415 172.523 459.953 172.523H455.426C454.436 172.523 452.704 172.681 451.102 173.274C453.879 174.212 456.732 177.94 460.666 177.94C464.093 177.941 466.652 176.189 467.023 173.839Z" fill="#E0BB95"/>
<path d="M503.511 192.725C503.289 192.661 497.958 190.735 498.072 190.461L501.39 182.491C501.503 182.217 501.776 182.048 501.998 182.112L505.784 182.11C506.801 182.345 507.492 183.695 506.603 186.065L503.511 192.725Z" fill="#E0BB95"/>
<path d="M480.994 182.353L484.676 175.698C485.022 175.071 485.667 174.667 486.382 174.628L489.398 174.464C489.748 174.445 490.095 174.526 490.4 174.697L492.586 175.922C493.003 176.156 493.032 176.745 492.64 177.018L491.995 177.468C491.86 177.562 491.693 177.601 491.53 177.577L488.732 177.164C488.732 177.164 487.927 179.98 486.628 181.475C485.328 182.969 483.514 184.344 483.514 184.344L480.994 182.353Z" fill="#E0BB95"/>
<path d="M502.523 194.069H486.01C485.23 194.069 484.66 193.512 484.739 192.824L487.031 172.796C487.109 172.109 487.806 171.551 488.587 171.551H505.099C505.88 171.551 506.449 172.109 506.37 172.796L504.079 192.824C504 193.512 503.304 194.069 502.523 194.069Z" fill="#605D5A"/>
<path d="M457.886 184.387C460.682 191.102 462.01 194.659 467.098 195.631C473.802 196.91 480.995 182.354 480.995 182.354L483.514 184.344C483.514 184.344 482.426 210.735 464.173 210.735C449.899 210.565 439.091 199.992 439.947 188.185C440.679 178.094 454.547 174.761 457.886 184.387Z" fill="#8B8CC4"/>
<path d="M462.586 176.586L457.54 176.352C455.696 176.267 454.27 174.702 454.355 172.858L454.79 163.455L466.256 163.986L465.809 173.648C465.73 175.349 464.287 176.664 462.586 176.586Z" fill="url(#paint7_radial_3435_69417)"/>
<path d="M464.761 161.449L454.351 160.844L454.699 154.851C454.81 152.94 456.45 151.481 458.36 151.592L465.31 151.996C467.92 152.147 469.914 154.386 469.762 156.997C469.61 159.607 467.371 161.6 464.761 161.449Z" fill="#BF8F68"/>
<path d="M455.143 164.756C456.642 164.756 457.857 163.541 457.857 162.042C457.857 160.543 456.642 159.328 455.143 159.328C453.644 159.328 452.429 160.543 452.429 162.042C452.429 163.541 453.644 164.756 455.143 164.756Z" fill="#E0BB95"/>
<path d="M463.582 172.928C458.546 172.622 454.701 168.104 454.994 162.836L455.299 157.341C455.418 155.191 457.181 153.549 459.236 153.674L471.534 154.421L470.884 166.128C470.663 170.115 467.393 173.159 463.582 172.928Z" fill="#E0BB95"/>
<path d="M469.183 156.521C467.106 155.811 465.428 154.638 463.288 154.406C459.946 154.043 457.169 154.443 457.169 154.443L457.265 153.373C457.484 150.948 459.014 148.794 461.75 149.407C465.948 150.349 465.113 148.966 466.942 148.974C468.678 148.982 468.944 150.846 469.666 150.915C471.421 151.084 471.244 148.596 473.833 149.453C476.241 150.155 476.799 159.126 469.183 156.521Z" fill="#BF8F68"/>
<path d="M462.593 161.222C462.63 160.588 462.361 160.056 461.992 160.035C461.623 160.014 461.294 160.51 461.258 161.144C461.221 161.779 461.49 162.31 461.859 162.332C462.228 162.353 462.557 161.856 462.593 161.222Z" fill="#594539"/>
<path d="M469.612 170.485L464.173 171.876L464.532 166.202C464.551 165.903 464.718 165.634 464.978 165.485L466.308 164.726C466.597 164.56 466.7 164.193 466.537 163.902L465.537 162.107C465.298 161.679 465.187 161.191 465.216 160.702L465.251 156.742L470.962 157.344L469.612 170.485Z" fill="url(#paint8_radial_3435_69417)"/>
<path d="M468.436 161.431C468.472 160.797 468.203 160.265 467.834 160.244C467.465 160.222 467.136 160.719 467.099 161.353C467.063 161.988 467.332 162.519 467.701 162.541C468.07 162.562 468.399 162.065 468.436 161.431Z" fill="#594539"/>
<path d="M455.334 154.026C455.334 154.026 459.355 153.011 459.317 156.251C459.294 158.176 457.857 159.069 456.624 159.256C455.519 159.423 454.69 159.367 454.69 159.367L455.334 154.026Z" fill="#BF8F68"/>
<path d="M461.68 166.491C462.33 166.978 462.74 167.195 463.21 167.36C463.685 167.524 464.17 167.644 464.965 167.717L464.99 167.719C465.119 167.731 465.231 167.825 465.238 167.929C465.241 167.959 465.234 167.986 465.221 168.01C464.859 168.648 463.748 168.812 462.803 168.459C462.33 168.28 461.891 167.988 461.619 167.632C461.333 167.283 461.23 166.887 461.292 166.547C461.31 166.449 461.427 166.395 461.555 166.427C461.595 166.438 461.632 166.455 461.663 166.478L461.68 166.491Z" fill="#BF8F68"/>
<path d="M467.68 239H456.014C448.584 239 442.061 233.174 441.444 225.987L440.712 217.458H465.832L467.68 239Z" fill="#E1DFDD"/>
<path d="M520.102 237.604L515.942 235.453C515.225 235.082 514.621 234.411 514.161 233.384L498.125 199.676C495.118 193.354 486.79 191.858 481.771 196.738L443.802 226.937L451.837 235.008C457.159 240.33 465.787 240.33 471.109 235.008L490.666 214.721L509.188 236.718C509.233 237.969 510.258 238.961 511.509 238.966L519.687 239C520.446 239.003 520.739 238.015 520.102 237.604Z" fill="#E1DFDD"/>
<path d="M505.519 183.65L503.563 183.313C503.138 183.24 502.853 182.835 502.926 182.41C502.999 181.985 503.403 181.699 503.829 181.772L505.784 182.109C506.209 182.183 506.495 182.587 506.422 183.012C506.348 183.438 505.944 183.723 505.519 183.65Z" fill="#E0BB95"/>
<path d="M504.942 185.798L502.987 185.461C502.561 185.388 502.276 184.984 502.349 184.558C502.422 184.133 502.827 183.847 503.252 183.921L505.207 184.257C505.633 184.331 505.918 184.735 505.845 185.161C505.772 185.586 505.367 185.871 504.942 185.798Z" fill="#E0BB95"/>
<path d="M504.955 187.324L503 186.987C502.574 186.914 502.289 186.51 502.362 186.084C502.435 185.659 502.84 185.373 503.265 185.447L505.22 185.783C505.646 185.857 505.931 186.261 505.858 186.686C505.785 187.112 505.38 187.397 504.955 187.324Z" fill="#E0BB95"/>
<path d="M504.598 188.766L503.587 188.592C503.162 188.518 502.876 188.114 502.949 187.689C503.023 187.263 503.427 186.978 503.852 187.051L504.864 187.225C505.289 187.298 505.575 187.703 505.501 188.128C505.428 188.554 505.024 188.839 504.598 188.766Z" fill="#E0BB95"/>
<path d="M453.515 171.472C452.7 172.678 451.102 173.274 451.102 173.274L455.334 173.496L454.56 168.441C454.56 168.441 454.711 169.703 453.515 171.472Z" fill="#E0BB95"/>
<path d="M437.984 227.053C434.55 226.344 432.34 222.987 433.049 219.553C436.483 220.261 438.692 223.619 437.984 227.053Z" fill="#E1DFDD"/>
<path d="M438.157 228.021L438.136 228.187L438.114 228.021C435.057 225.629 430.723 227.964 431.599 231.809C432.268 234.743 434.299 238.302 436.831 238.302C437.39 238.302 437.79 238.297 438.136 238.291C438.482 238.297 438.881 238.302 439.441 238.302C441.973 238.302 444.004 234.743 444.673 231.809C445.549 227.964 441.215 225.629 438.157 228.021Z" fill="#E3646A"/>
<path d="M441.653 231.209C442.42 231.209 443.042 230.587 443.042 229.82C443.042 229.052 442.42 228.43 441.653 228.43C440.885 228.43 440.263 229.052 440.263 229.82C440.263 230.587 440.885 231.209 441.653 231.209Z" fill="#EE8F94"/>
<defs>
<filter id="filter0_d_3435_69417" x="0" y="0" width="457.721" height="248.241" filterUnits="userSpaceOnUse" color-interpolation-filters="sRGB">
<feFlood flood-opacity="0" result="BackgroundImageFix"/>
<feColorMatrix in="SourceAlpha" type="matrix" values="0 0 0 0 0 0 0 0 0 0 0 0 0 0 0 0 0 0 127 0" result="hardAlpha"/>
<feMorphology radius="10" operator="dilate" in="SourceAlpha" result="effect1_dropShadow_3435_69417"/>
<feOffset/>
<feGaussianBlur stdDeviation="2"/>
<feComposite in2="hardAlpha" operator="out"/>
<feColorMatrix type="matrix" values="0 0 0 0 0.8375 0 0 0 0 0.8375 0 0 0 0 0.8375 0 0 0 0.1 0"/>
<feBlend mode="normal" in2="BackgroundImageFix" result="effect1_dropShadow_3435_69417"/>
<feBlend mode="normal" in="SourceGraphic" in2="effect1_dropShadow_3435_69417" result="shape"/>
</filter>
<radialGradient id="paint0_radial_3435_69417" cx="0" cy="0" r="1" gradientUnits="userSpaceOnUse" gradientTransform="translate(430.263 107.94) rotate(180) scale(5.30668 5.98806)">
<stop stop-color="#9B643D"/>
<stop offset="0.8819" stop-color="#BA8A63" stop-opacity="0.1178"/>
<stop offset="0.9997" stop-color="#BF8F68" stop-opacity="0"/>
</radialGradient>
<radialGradient id="paint1_radial_3435_69417" cx="0" cy="0" r="1" gradientUnits="userSpaceOnUse" gradientTransform="translate(427.333 103.495) rotate(168.37) scale(3.43689 3.62319)">
<stop offset="0.0003" stop-color="#9B643D"/>
<stop offset="0.8822" stop-color="#BA8A63" stop-opacity="0.1178"/>
<stop offset="1" stop-color="#BF8F68" stop-opacity="0"/>
</radialGradient>
<linearGradient id="paint2_linear_3435_69417" x1="448.094" y1="202.799" x2="425.477" y2="194.061" gradientUnits="userSpaceOnUse">
<stop stop-color="#A6A7DC"/>
<stop offset="1" stop-color="#BDBDE6"/>
</linearGradient>
<radialGradient id="paint3_radial_3435_69417" cx="0" cy="0" r="1" gradientUnits="userSpaceOnUse" gradientTransform="translate(441.868 137.438) scale(13.5979 13.5979)">
<stop stop-color="#E3646A"/>
<stop offset="1" stop-color="#E3646A" stop-opacity="0"/>
</radialGradient>
<linearGradient id="paint4_linear_3435_69417" x1="499.539" y1="210.473" x2="463.939" y2="226.2" gradientUnits="userSpaceOnUse">
<stop stop-color="#C8C6C4"/>
<stop offset="1" stop-color="#E1DFDD"/>
</linearGradient>
<linearGradient id="paint5_linear_3435_69417" x1="502.863" y1="230.882" x2="519.528" y2="205.199" gradientUnits="userSpaceOnUse">
<stop stop-color="#C8C6C4"/>
<stop offset="1" stop-color="#E1DFDD"/>
</linearGradient>
<radialGradient id="paint6_radial_3435_69417" cx="0" cy="0" r="1" gradientUnits="userSpaceOnUse" gradientTransform="translate(475.423 211.766) scale(37.5849 36.3526)">
<stop stop-color="#6264A7"/>
<stop offset="0.7462" stop-color="#8B8CC7"/>
</radialGradient>
<radialGradient id="paint7_radial_3435_69417" cx="0" cy="0" r="1" gradientUnits="userSpaceOnUse" gradientTransform="translate(463.565 170.11) rotate(2.65218) scale(6.65999 5.64416)">
<stop stop-color="#9B643D"/>
<stop offset="0.2729" stop-color="#B6865F"/>
<stop offset="0.5661" stop-color="#CDA37C"/>
<stop offset="0.8188" stop-color="#DBB58F"/>
<stop offset="1" stop-color="#E0BB95"/>
</radialGradient>
<radialGradient id="paint8_radial_3435_69417" cx="0" cy="0" r="1" gradientUnits="userSpaceOnUse" gradientTransform="translate(463.694 164.202) rotate(-177.082) scale(4.63915 3.43134)">
<stop stop-color="#BF8F68"/>
<stop offset="1" stop-color="#BF8F68" stop-opacity="0"/>
</radialGradient>
</defs>
</svg>
