<svg width="20" height="20" viewBox="0 0 20 20" fill="none" xmlns="http://www.w3.org/2000/svg">
<path d="M19.8145 14.1895L14.375 19.6387L11.748 17.002L12.627 16.123L14.375 17.8613L18.9355 13.3105L19.8145 14.1895ZM7.1875 14.2773C7.61719 14.4922 8.00456 14.7559 8.34961 15.0684C8.69466 15.3809 8.98763 15.7292 9.22852 16.1133C9.47591 16.4974 9.66471 16.9141 9.79492 17.3633C9.93164 17.8125 10 18.2747 10 18.75H8.75C8.75 18.2357 8.65234 17.7507 8.45703 17.2949C8.26172 16.8392 7.99154 16.4421 7.64648 16.1035C7.30794 15.7585 6.91081 15.4883 6.45508 15.293C5.99935 15.0977 5.51432 15 5 15C4.47917 15 3.99089 15.0977 3.53516 15.293C3.08594 15.4883 2.6888 15.7585 2.34375 16.1035C2.00521 16.4421 1.73828 16.8392 1.54297 17.2949C1.34766 17.7507 1.25 18.2357 1.25 18.75H0C0 18.2747 0.0651042 17.8125 0.195312 17.3633C0.332031 16.9141 0.520833 16.4974 0.761719 16.1133C1.00911 15.7292 1.30534 15.3809 1.65039 15.0684C1.99544 14.7559 2.38281 14.4922 2.8125 14.2773C2.32422 13.9258 1.9401 13.4863 1.66016 12.959C1.38672 12.4316 1.25 11.862 1.25 11.25C1.25 10.7357 1.34766 10.2507 1.54297 9.79492C1.73828 9.33919 2.00521 8.94206 2.34375 8.60352C2.6888 8.25846 3.08594 7.98828 3.53516 7.79297C3.99089 7.59766 4.47917 7.5 5 7.5C5.61198 7.5 6.18164 7.63997 6.70898 7.91992C7.23633 8.19336 7.67578 8.57422 8.02734 9.0625C8.27474 8.56771 8.59375 8.125 8.98438 7.73438C9.375 7.34375 9.81771 7.02474 10.3125 6.77734C9.82422 6.42578 9.4401 5.98633 9.16016 5.45898C8.88672 4.93164 8.75 4.36198 8.75 3.75C8.75 3.23568 8.84766 2.75065 9.04297 2.29492C9.23828 1.83919 9.50521 1.44206 9.84375 1.10352C10.1888 0.758464 10.5859 0.488281 11.0352 0.292969C11.4909 0.0976562 11.9792 0 12.5 0C13.0143 0 13.4993 0.0976562 13.9551 0.292969C14.4108 0.488281 14.8079 0.758464 15.1465 1.10352C15.4915 1.44206 15.7617 1.83919 15.957 2.29492C16.1523 2.75065 16.25 3.23568 16.25 3.75C16.25 4.36198 16.11 4.93164 15.8301 5.45898C15.5566 5.98633 15.1758 6.42578 14.6875 6.77734C15.1172 6.99219 15.5046 7.25586 15.8496 7.56836C16.1947 7.88086 16.4876 8.22917 16.7285 8.61328C16.9759 8.9974 17.1647 9.41406 17.2949 9.86328C17.4316 10.3125 17.5 10.7747 17.5 11.25H16.25C16.25 10.7357 16.1523 10.2507 15.957 9.79492C15.7617 9.33919 15.4915 8.94206 15.1465 8.60352C14.8079 8.25846 14.4108 7.98828 13.9551 7.79297C13.4993 7.59766 13.0143 7.5 12.5 7.5C11.9792 7.5 11.4909 7.59766 11.0352 7.79297C10.5859 7.98828 10.1888 8.25846 9.84375 8.60352C9.50521 8.94206 9.23828 9.33919 9.04297 9.79492C8.84766 10.2507 8.75 10.7357 8.75 11.25C8.75 11.862 8.61003 12.4316 8.33008 12.959C8.05664 13.4863 7.67578 13.9258 7.1875 14.2773ZM10 3.75C10 4.09505 10.0651 4.42057 10.1953 4.72656C10.3255 5.02604 10.5046 5.28971 10.7324 5.51758C10.9603 5.74544 11.224 5.92448 11.5234 6.05469C11.8294 6.1849 12.1549 6.25 12.5 6.25C12.8451 6.25 13.1673 6.1849 13.4668 6.05469C13.7728 5.92448 14.0397 5.74544 14.2676 5.51758C14.4954 5.28971 14.6745 5.02604 14.8047 4.72656C14.9349 4.42057 15 4.09505 15 3.75C15 3.40495 14.9349 3.08268 14.8047 2.7832C14.6745 2.47721 14.4954 2.21029 14.2676 1.98242C14.0397 1.75456 13.7728 1.57552 13.4668 1.44531C13.1673 1.3151 12.8451 1.25 12.5 1.25C12.1549 1.25 11.8294 1.3151 11.5234 1.44531C11.224 1.57552 10.9603 1.75456 10.7324 1.98242C10.5046 2.21029 10.3255 2.47721 10.1953 2.7832C10.0651 3.08268 10 3.40495 10 3.75ZM2.5 11.25C2.5 11.5951 2.5651 11.9206 2.69531 12.2266C2.82552 12.526 3.00456 12.7897 3.23242 13.0176C3.46029 13.2454 3.72396 13.4245 4.02344 13.5547C4.32943 13.6849 4.65495 13.75 5 13.75C5.34505 13.75 5.66732 13.6849 5.9668 13.5547C6.27279 13.4245 6.53971 13.2454 6.76758 13.0176C6.99544 12.7897 7.17448 12.526 7.30469 12.2266C7.4349 11.9206 7.5 11.5951 7.5 11.25C7.5 10.9049 7.4349 10.5827 7.30469 10.2832C7.17448 9.97721 6.99544 9.71029 6.76758 9.48242C6.53971 9.25456 6.27279 9.07552 5.9668 8.94531C5.66732 8.8151 5.34505 8.75 5 8.75C4.65495 8.75 4.32943 8.8151 4.02344 8.94531C3.72396 9.07552 3.46029 9.25456 3.23242 9.48242C3.00456 9.71029 2.82552 9.97721 2.69531 10.2832C2.5651 10.5827 2.5 10.9049 2.5 11.25Z" fill="#0078D4"/>
</svg>
