<svg width="14" height="13" viewBox="0 0 14 13" fill="none" xmlns="http://www.w3.org/2000/svg">
<path opacity="0.8" d="M7.90351 1.41192L7.90355 1.41191L7.90203 1.40745C7.83677 1.21571 7.71313 1.04921 7.54844 0.931307C7.38376 0.8134 7.1863 0.75 6.98376 0.75C6.78122 0.75 6.58377 0.8134 6.41908 0.931307C6.2544 1.04921 6.13076 1.21571 6.0655 1.40745L6.06546 1.40744L6.06402 1.41192L5.13199 4.32921H1.5853C1.40938 4.32722 1.2374 4.38147 1.09443 4.48406C0.950965 4.58701 0.844268 4.73322 0.789991 4.90125C0.735713 5.06928 0.736711 5.25029 0.792839 5.41771C0.848828 5.58472 0.956736 5.72944 1.10079 5.83077L3.98823 7.89599L2.873 11.2405L2.87293 11.2407C2.81762 11.4071 2.8167 11.5868 2.87029 11.7538C2.92389 11.9207 3.02922 12.0663 3.17104 12.1694C3.31286 12.2725 3.48381 12.3278 3.65915 12.3273C3.83449 12.3268 4.00512 12.2705 4.14634 12.1666L4.14666 12.1663L6.98372 10.0716L9.82082 12.1675L9.82118 12.1678C9.96241 12.2717 10.133 12.328 10.3084 12.3285C10.4837 12.329 10.6547 12.2737 10.7965 12.1706C10.9383 12.0675 11.0436 11.9219 11.0972 11.755C11.1508 11.588 11.1499 11.4083 11.0946 11.242L11.0945 11.2417L9.9792 7.89575L12.8643 5.82635L12.8643 5.82633C13.0063 5.72447 13.1123 5.58021 13.1671 5.41429C13.2219 5.24838 13.2227 5.06935 13.1693 4.90297C13.116 4.73658 13.0112 4.5914 12.8701 4.4883C12.7291 4.38521 12.5589 4.3295 12.3842 4.32921H12.3838H8.83554L7.90351 1.41192Z" fill="#FFDF00" stroke="black" stroke-width="0.5"/>
</svg>
