<svg width="19" height="20" viewBox="0 0 19 20" fill="none" xmlns="http://www.w3.org/2000/svg">
<path d="M14 15H13.873C13.7233 14.2708 13.4596 13.6003 13.082 12.9883C12.7044 12.3763 12.2422 11.849 11.6953 11.4062C11.1549 10.9635 10.5462 10.6185 9.86914 10.3711C9.19857 10.1237 8.49219 10 7.75 10C7.17708 10 6.6237 10.0749 6.08984 10.2246C5.55599 10.3743 5.05794 10.5859 4.5957 10.8594C4.13346 11.1263 3.71029 11.4518 3.32617 11.8359C2.94857 12.2135 2.62305 12.6335 2.34961 13.0957C2.08268 13.5579 1.87435 14.056 1.72461 14.5898C1.57487 15.1237 1.5 15.6771 1.5 16.25H0.25C0.25 15.4688 0.363932 14.7168 0.591797 13.9941C0.826172 13.2715 1.15495 12.6042 1.57812 11.9922C2.0013 11.3802 2.50911 10.8366 3.10156 10.3613C3.70052 9.88607 4.36458 9.51172 5.09375 9.23828C4.35807 8.75651 3.7819 8.15104 3.36523 7.42188C2.95508 6.69271 2.75 5.88542 2.75 5C2.75 4.3099 2.88021 3.66211 3.14062 3.05664C3.40104 2.44466 3.75586 1.91406 4.20508 1.46484C4.66081 1.00911 5.19141 0.651042 5.79688 0.390625C6.40885 0.130208 7.0599 0 7.75 0C8.4401 0 9.08789 0.130208 9.69336 0.390625C10.3053 0.651042 10.8359 1.00911 11.2852 1.46484C11.7409 1.91406 12.099 2.44466 12.3594 3.05664C12.6198 3.66211 12.75 4.3099 12.75 5C12.75 5.42969 12.6947 5.84961 12.584 6.25977C12.4798 6.66992 12.3268 7.05729 12.125 7.42188C11.9232 7.78646 11.6758 8.125 11.3828 8.4375C11.0964 8.74349 10.7708 9.01042 10.4062 9.23828C11.1354 9.51823 11.806 9.9056 12.418 10.4004C13.0365 10.8887 13.5638 11.4583 14 12.1094V15ZM4 5C4 5.52083 4.09766 6.00911 4.29297 6.46484C4.48828 6.91406 4.75521 7.3112 5.09375 7.65625C5.4388 7.99479 5.83594 8.26172 6.28516 8.45703C6.74089 8.65234 7.22917 8.75 7.75 8.75C8.26432 8.75 8.74935 8.65234 9.20508 8.45703C9.66081 8.26172 10.0579 7.99479 10.3965 7.65625C10.7415 7.3112 11.0117 6.91406 11.207 6.46484C11.4023 6.00911 11.5 5.52083 11.5 5C11.5 4.48568 11.4023 4.00065 11.207 3.54492C11.0117 3.08919 10.7415 2.69206 10.3965 2.35352C10.0579 2.00846 9.66081 1.73828 9.20508 1.54297C8.74935 1.34766 8.26432 1.25 7.75 1.25C7.22917 1.25 6.74089 1.34766 6.28516 1.54297C5.83594 1.73828 5.4388 2.00846 5.09375 2.35352C4.75521 2.69206 4.48828 3.08919 4.29297 3.54492C4.09766 4.00065 4 4.48568 4 5ZM16.5 16.25H19V17.5H16.5V20H15.25V17.5H12.75V16.25H15.25V13.75H16.5V16.25Z" fill="#00612E"/>
</svg>
