<svg width="20" height="20" viewBox="0 0 20 20" fill="none" xmlns="http://www.w3.org/2000/svg">
<path d="M10.1562 9.23828C10.931 9.53776 11.6374 9.95443 12.2754 10.4883C12.9134 11.0221 13.4473 11.6439 13.877 12.3535L12.9688 13.2617C12.6953 12.7604 12.3633 12.3112 11.9727 11.9141C11.582 11.5104 11.1491 11.1686 10.6738 10.8887C10.2051 10.6022 9.70052 10.3841 9.16016 10.2344C8.6263 10.0781 8.07292 10 7.5 10C6.92708 10 6.3737 10.0749 5.83984 10.2246C5.30599 10.3743 4.80794 10.5859 4.3457 10.8594C3.88346 11.1263 3.46029 11.4518 3.07617 11.8359C2.69857 12.2135 2.37305 12.6335 2.09961 13.0957C1.83268 13.5579 1.62435 14.056 1.47461 14.5898C1.32487 15.1237 1.25 15.6771 1.25 16.25H0C0 15.4688 0.113932 14.7168 0.341797 13.9941C0.576172 13.2715 0.904948 12.6042 1.32812 11.9922C1.7513 11.3802 2.25911 10.8366 2.85156 10.3613C3.45052 9.88607 4.11458 9.51172 4.84375 9.23828C4.10807 8.75651 3.5319 8.15104 3.11523 7.42188C2.70508 6.69271 2.5 5.88542 2.5 5C2.5 4.3099 2.63021 3.66211 2.89062 3.05664C3.15104 2.44466 3.50586 1.91406 3.95508 1.46484C4.41081 1.00911 4.94141 0.651042 5.54688 0.390625C6.15885 0.130208 6.8099 0 7.5 0C8.1901 0 8.83789 0.130208 9.44336 0.390625C10.0553 0.651042 10.5859 1.00911 11.0352 1.46484C11.4909 1.91406 11.849 2.44466 12.1094 3.05664C12.3698 3.66211 12.5 4.3099 12.5 5C12.5 5.42969 12.4447 5.84961 12.334 6.25977C12.2298 6.66992 12.0768 7.05729 11.875 7.42188C11.6732 7.78646 11.4258 8.125 11.1328 8.4375C10.8464 8.74349 10.5208 9.01042 10.1562 9.23828ZM3.75 5C3.75 5.52083 3.84766 6.00911 4.04297 6.46484C4.23828 6.91406 4.50521 7.3112 4.84375 7.65625C5.1888 7.99479 5.58594 8.26172 6.03516 8.45703C6.49089 8.65234 6.97917 8.75 7.5 8.75C8.01432 8.75 8.49935 8.65234 8.95508 8.45703C9.41081 8.26172 9.80794 7.99479 10.1465 7.65625C10.4915 7.3112 10.7617 6.91406 10.957 6.46484C11.1523 6.00911 11.25 5.52083 11.25 5C11.25 4.48568 11.1523 4.00065 10.957 3.54492C10.7617 3.08919 10.4915 2.69206 10.1465 2.35352C9.80794 2.00846 9.41081 1.73828 8.95508 1.54297C8.49935 1.34766 8.01432 1.25 7.5 1.25C6.97917 1.25 6.49089 1.34766 6.03516 1.54297C5.58594 1.73828 5.1888 2.00846 4.84375 2.35352C4.50521 2.69206 4.23828 3.08919 4.04297 3.54492C3.84766 4.00065 3.75 4.48568 3.75 5ZM19.9707 14.668L17.7637 16.875L19.9707 19.0918L19.0918 19.9707L16.875 17.7637L14.6582 19.9805L13.7793 19.0918L15.9961 16.875L13.7793 14.6582L14.6582 13.7793L16.875 15.9961L19.0918 13.7793L19.9707 14.668Z" fill="#9C0006"/>
</svg>
