<svg width="115" height="18" viewBox="0 0 115 18" fill="none" xmlns="http://www.w3.org/2000/svg">
<path d="M13.8701 9.93262L10.0625 13.7471L8.22363 11.9014L8.83887 11.2861L10.0625 12.5029L13.2549 9.31738L13.8701 9.93262ZM10.9033 10.4248C10.3975 9.86882 9.80729 9.45182 9.13281 9.17383C8.45833 8.89128 7.7474 8.75 7 8.75C6.50781 8.75 6.03613 8.81152 5.58496 8.93457C5.13835 9.05762 4.71908 9.23307 4.32715 9.46094C3.93978 9.68424 3.58659 9.9554 3.26758 10.2744C2.95312 10.5889 2.68197 10.9421 2.4541 11.334C2.23079 11.7214 2.05762 12.1406 1.93457 12.5918C1.81152 13.0384 1.75 13.5078 1.75 14H0.875C0.875 13.3483 0.968424 12.7217 1.15527 12.1201C1.34668 11.5186 1.61784 10.9648 1.96875 10.459C2.31966 9.95312 2.74349 9.50879 3.24023 9.12598C3.74154 8.74316 4.2998 8.44238 4.91504 8.22363C4.55957 8.03223 4.24056 7.7998 3.95801 7.52637C3.67546 7.25293 3.43392 6.94987 3.2334 6.61719C3.03743 6.28451 2.88704 5.92904 2.78223 5.55078C2.67741 5.17253 2.625 4.7806 2.625 4.375C2.625 3.76888 2.73893 3.2015 2.9668 2.67285C3.19466 2.13965 3.50684 1.6748 3.90332 1.27832C4.2998 0.881836 4.76237 0.569661 5.29102 0.341797C5.82422 0.113932 6.39388 0 7 0C7.60612 0 8.1735 0.113932 8.70215 0.341797C9.23535 0.569661 9.7002 0.881836 10.0967 1.27832C10.4932 1.6748 10.8053 2.13965 11.0332 2.67285C11.2611 3.2015 11.375 3.76888 11.375 4.375C11.375 4.7806 11.3203 5.17253 11.2109 5.55078C11.1061 5.92904 10.9535 6.28451 10.7529 6.61719C10.557 6.94987 10.3177 7.25293 10.0352 7.52637C9.7526 7.7998 9.43359 8.03223 9.07812 8.22363C9.54297 8.3877 9.98047 8.60645 10.3906 8.87988C10.8008 9.14876 11.1722 9.46322 11.5049 9.82324L10.9033 10.4248ZM3.5 4.375C3.5 4.85807 3.59115 5.31152 3.77344 5.73535C3.96029 6.15918 4.21094 6.5306 4.52539 6.84961C4.8444 7.16406 5.21582 7.41471 5.63965 7.60156C6.06348 7.78385 6.51693 7.875 7 7.875C7.48307 7.875 7.93652 7.78385 8.36035 7.60156C8.78418 7.41471 9.15332 7.16406 9.46777 6.84961C9.78678 6.5306 10.0374 6.15918 10.2197 5.73535C10.4066 5.31152 10.5 4.85807 10.5 4.375C10.5 3.89193 10.4066 3.43848 10.2197 3.01465C10.0374 2.59082 9.78678 2.22168 9.46777 1.90723C9.15332 1.58822 8.78418 1.33757 8.36035 1.15527C7.93652 0.968424 7.48307 0.875 7 0.875C6.51693 0.875 6.06348 0.968424 5.63965 1.15527C5.21582 1.33757 4.8444 1.58822 4.52539 1.90723C4.21094 2.22168 3.96029 2.59082 3.77344 3.01465C3.59115 3.43848 3.5 3.89193 3.5 4.375ZM30.4678 14H28.5674L27.002 11.375C26.8607 11.1335 26.7217 10.9284 26.585 10.7598C26.4528 10.5866 26.3161 10.4453 26.1748 10.3359C26.0381 10.2266 25.8877 10.1468 25.7236 10.0967C25.5596 10.0465 25.375 10.0215 25.1699 10.0215H24.5137V14H22.8936V4.19727H26.1201C26.5804 4.19727 27.0042 4.25195 27.3916 4.36133C27.779 4.4707 28.1162 4.63704 28.4033 4.86035C28.6904 5.0791 28.9137 5.35482 29.0732 5.6875C29.2373 6.01562 29.3193 6.40072 29.3193 6.84277C29.3193 7.18913 29.2669 7.50814 29.1621 7.7998C29.0618 8.08691 28.916 8.3444 28.7246 8.57227C28.5378 8.79557 28.3099 8.98698 28.041 9.14648C27.7767 9.30599 27.4782 9.42904 27.1455 9.51562V9.54297C27.3232 9.64323 27.4782 9.75488 27.6104 9.87793C27.7425 9.99642 27.8678 10.1195 27.9863 10.2471C28.1048 10.3747 28.221 10.5205 28.335 10.6846C28.4535 10.8441 28.5833 11.0309 28.7246 11.2451L30.4678 14ZM24.5137 5.5166V8.70215H25.8672C26.1178 8.70215 26.348 8.66341 26.5576 8.58594C26.7718 8.50846 26.9564 8.39681 27.1113 8.25098C27.2663 8.10514 27.387 7.92741 27.4736 7.71777C27.5602 7.50814 27.6035 7.27344 27.6035 7.01367C27.6035 6.54427 27.4554 6.17741 27.1592 5.91309C26.863 5.64876 26.4368 5.5166 25.8809 5.5166H24.5137ZM34.1592 14.1641C33.0791 14.1641 32.2155 13.8382 31.5684 13.1865C30.9258 12.5303 30.6045 11.6621 30.6045 10.582C30.6045 9.40625 30.9395 8.48796 31.6094 7.82715C32.2839 7.16634 33.1908 6.83594 34.3301 6.83594C35.4238 6.83594 36.276 7.15723 36.8867 7.7998C37.4974 8.44238 37.8027 9.33333 37.8027 10.4727C37.8027 11.5892 37.4723 12.4847 36.8115 13.1592C36.1553 13.8291 35.2712 14.1641 34.1592 14.1641ZM34.2344 8.10059C33.6146 8.10059 33.1247 8.31706 32.7646 8.75C32.4046 9.18294 32.2246 9.77995 32.2246 10.541C32.2246 11.2747 32.4069 11.8535 32.7715 12.2773C33.1361 12.6966 33.6237 12.9062 34.2344 12.9062C34.8587 12.9062 35.3372 12.6989 35.6699 12.2842C36.0072 11.8695 36.1758 11.2793 36.1758 10.5137C36.1758 9.74349 36.0072 9.14876 35.6699 8.72949C35.3372 8.31022 34.8587 8.10059 34.2344 8.10059ZM41.0156 14H39.4229V3.63672H41.0156V14ZM49.0137 10.9307H44.2422C44.2604 11.5778 44.4587 12.0768 44.8369 12.4277C45.2197 12.7786 45.7438 12.9541 46.4092 12.9541C47.1566 12.9541 47.8424 12.7308 48.4668 12.2842V13.5625C47.8288 13.9635 46.9857 14.1641 45.9375 14.1641C44.9076 14.1641 44.0986 13.8473 43.5107 13.2139C42.9274 12.5758 42.6357 11.6803 42.6357 10.5273C42.6357 9.43815 42.957 8.55176 43.5996 7.86816C44.2467 7.18001 45.0488 6.83594 46.0059 6.83594C46.9629 6.83594 47.7035 7.14355 48.2275 7.75879C48.7516 8.37402 49.0137 9.22852 49.0137 10.3223V10.9307ZM47.4824 9.80957C47.4779 9.23991 47.3434 8.79785 47.0791 8.4834C46.8148 8.16439 46.4502 8.00488 45.9854 8.00488C45.5296 8.00488 45.1423 8.17122 44.8232 8.50391C44.5088 8.83659 44.3151 9.27181 44.2422 9.80957H47.4824ZM54.1064 13.6104V11.9355C54.2568 12.0723 54.4346 12.1953 54.6396 12.3047C54.8493 12.4141 55.0703 12.5075 55.3027 12.585C55.5352 12.6579 55.7676 12.7148 56 12.7559C56.2324 12.7969 56.4466 12.8174 56.6426 12.8174C57.3262 12.8174 57.8343 12.7035 58.167 12.4756C58.5042 12.2477 58.6729 11.9173 58.6729 11.4844C58.6729 11.252 58.6159 11.0514 58.502 10.8828C58.3926 10.7096 58.2376 10.5524 58.0371 10.4111C57.8366 10.2699 57.5996 10.1354 57.3262 10.0078C57.0573 9.87565 56.7679 9.73893 56.458 9.59766C56.1253 9.41992 55.8154 9.23991 55.5283 9.05762C55.2412 8.87533 54.9906 8.6748 54.7764 8.45605C54.5667 8.23275 54.4004 7.9821 54.2773 7.7041C54.1589 7.42611 54.0996 7.10026 54.0996 6.72656C54.0996 6.26628 54.2021 5.86751 54.4072 5.53027C54.6169 5.18848 54.8903 4.9082 55.2275 4.68945C55.5693 4.46615 55.9567 4.30208 56.3896 4.19727C56.8226 4.08789 57.2646 4.0332 57.7158 4.0332C58.7412 4.0332 59.4886 4.14941 59.958 4.38184V5.98828C59.402 5.58724 58.6865 5.38672 57.8115 5.38672C57.57 5.38672 57.3285 5.40951 57.0869 5.45508C56.8499 5.50065 56.6357 5.57585 56.4443 5.68066C56.2575 5.78548 56.1048 5.91992 55.9863 6.08398C55.8678 6.24805 55.8086 6.44629 55.8086 6.67871C55.8086 6.89746 55.8542 7.08659 55.9453 7.24609C56.0365 7.4056 56.1686 7.55143 56.3418 7.68359C56.5195 7.81576 56.7337 7.94564 56.9844 8.07324C57.2396 8.19629 57.5335 8.33073 57.8662 8.47656C58.208 8.6543 58.5293 8.84115 58.8301 9.03711C59.1354 9.23307 59.402 9.44954 59.6299 9.68652C59.8623 9.9235 60.0446 10.1878 60.1768 10.4795C60.3135 10.7666 60.3818 11.0947 60.3818 11.4639C60.3818 11.9606 60.2816 12.3799 60.0811 12.7217C59.8805 13.0635 59.6094 13.3415 59.2676 13.5557C58.9303 13.7699 58.5407 13.9248 58.0986 14.0205C57.6566 14.1162 57.1895 14.1641 56.6973 14.1641C56.5332 14.1641 56.3304 14.1504 56.0889 14.123C55.8519 14.1003 55.6081 14.0638 55.3574 14.0137C55.1068 13.9681 54.8698 13.9111 54.6465 13.8428C54.4232 13.7744 54.2432 13.6969 54.1064 13.6104ZM68.1133 14H66.5273V12.8926H66.5C66.0397 13.7402 65.3242 14.1641 64.3535 14.1641C62.6992 14.1641 61.8721 13.1706 61.8721 11.1836V7H63.458V11.0195C63.458 12.2773 63.9434 12.9062 64.9141 12.9062C65.3835 12.9062 65.7686 12.7331 66.0693 12.3867C66.3747 12.0404 66.5273 11.5869 66.5273 11.0264V7H68.1133V14ZM80.6504 14H79.0645V10.1855C79.0645 9.45182 78.9596 8.9209 78.75 8.59277C78.5449 8.26465 78.1963 8.10059 77.7041 8.10059C77.2894 8.10059 76.9362 8.30794 76.6445 8.72266C76.3574 9.13737 76.2139 9.63411 76.2139 10.2129V14H74.6211V10.0557C74.6211 8.75228 74.1608 8.10059 73.2402 8.10059C72.8118 8.10059 72.4587 8.29655 72.1807 8.68848C71.9072 9.0804 71.7705 9.58854 71.7705 10.2129V14H70.1846V7H71.7705V8.10742H71.7979C72.3037 7.25977 73.0397 6.83594 74.0059 6.83594C74.4889 6.83594 74.9105 6.97038 75.2705 7.23926C75.6351 7.50358 75.8835 7.85221 76.0156 8.28516C76.5352 7.31901 77.3099 6.83594 78.3398 6.83594C79.8802 6.83594 80.6504 7.78613 80.6504 9.68652V14ZM93.0508 14H91.4648V10.1855C91.4648 9.45182 91.36 8.9209 91.1504 8.59277C90.9453 8.26465 90.5967 8.10059 90.1045 8.10059C89.6898 8.10059 89.3366 8.30794 89.0449 8.72266C88.7578 9.13737 88.6143 9.63411 88.6143 10.2129V14H87.0215V10.0557C87.0215 8.75228 86.5612 8.10059 85.6406 8.10059C85.2122 8.10059 84.859 8.29655 84.5811 8.68848C84.3076 9.0804 84.1709 9.58854 84.1709 10.2129V14H82.585V7H84.1709V8.10742H84.1982C84.7041 7.25977 85.4401 6.83594 86.4062 6.83594C86.8893 6.83594 87.3109 6.97038 87.6709 7.23926C88.0355 7.50358 88.2839 7.85221 88.416 8.28516C88.9355 7.31901 89.7103 6.83594 90.7402 6.83594C92.2806 6.83594 93.0508 7.78613 93.0508 9.68652V14ZM100.358 14H98.8203V12.9062H98.793C98.3099 13.7448 97.6012 14.1641 96.667 14.1641C95.9788 14.1641 95.4388 13.9772 95.0469 13.6035C94.6595 13.2298 94.4658 12.7354 94.4658 12.1201C94.4658 10.7985 95.2269 10.0283 96.749 9.80957L98.8271 9.51562C98.8271 8.51758 98.3532 8.01855 97.4053 8.01855C96.5713 8.01855 95.8193 8.30566 95.1494 8.87988V7.49219C95.8877 7.05469 96.7399 6.83594 97.7061 6.83594C99.4743 6.83594 100.358 7.70638 100.358 9.44727V14ZM98.8271 10.5615L97.3574 10.7666C96.9017 10.8258 96.5576 10.9375 96.3252 11.1016C96.0973 11.2611 95.9834 11.5436 95.9834 11.9492C95.9834 12.2454 96.0882 12.4893 96.2979 12.6807C96.512 12.8675 96.7969 12.9609 97.1523 12.9609C97.6354 12.9609 98.0342 12.7923 98.3486 12.4551C98.6676 12.1133 98.8271 11.6849 98.8271 11.1699V10.5615ZM106.36 8.51074C106.169 8.36035 105.893 8.28516 105.533 8.28516C105.064 8.28516 104.672 8.49707 104.357 8.9209C104.043 9.34473 103.886 9.92122 103.886 10.6504V14H102.3V7H103.886V8.44238H103.913C104.068 7.9502 104.305 7.56738 104.624 7.29395C104.948 7.01595 105.308 6.87695 105.704 6.87695C105.991 6.87695 106.21 6.92025 106.36 7.00684V8.51074ZM114.105 7L110.947 15.1211C110.291 16.5703 109.37 17.2949 108.186 17.2949C107.853 17.2949 107.575 17.2653 107.352 17.2061V15.8867C107.602 15.9688 107.83 16.0098 108.035 16.0098C108.628 16.0098 109.07 15.7181 109.361 15.1348L109.833 13.9863L107.051 7H108.808L110.476 12.0859C110.494 12.1497 110.535 12.3184 110.599 12.5918H110.633C110.656 12.487 110.697 12.3229 110.756 12.0996L112.506 7H114.105Z" fill="#242424"/>
</svg>
