<svg width="15" height="14" viewBox="0 0 15 14" fill="none" xmlns="http://www.w3.org/2000/svg">
<path d="M14.5 7C14.5 7.64258 14.4157 8.26237 14.2471 8.85938C14.083 9.45638 13.8483 10.0146 13.543 10.5342C13.2376 11.0492 12.8708 11.5208 12.4424 11.9492C12.0186 12.373 11.5469 12.7376 11.0273 13.043C10.5124 13.3483 9.95638 13.5853 9.35938 13.7539C8.76237 13.918 8.14258 14 7.5 14C6.85742 14 6.23763 13.918 5.64062 13.7539C5.04362 13.5853 4.48535 13.3483 3.96582 13.043C3.45085 12.7376 2.97917 12.373 2.55078 11.9492C2.12695 11.5208 1.76237 11.0492 1.45703 10.5342C1.15169 10.0146 0.914714 9.45638 0.746094 8.85938C0.582031 8.26237 0.5 7.64258 0.5 7C0.5 6.35742 0.582031 5.73763 0.746094 5.14062C0.914714 4.54362 1.15169 3.98763 1.45703 3.47266C1.76237 2.95312 2.12695 2.48145 2.55078 2.05762C2.97917 1.62923 3.45085 1.26237 3.96582 0.957031C4.48535 0.651693 5.04362 0.416992 5.64062 0.25293C6.23763 0.0843099 6.85742 0 7.5 0C8.14258 0 8.76237 0.0843099 9.35938 0.25293C9.95638 0.416992 10.5124 0.651693 11.0273 0.957031C11.5469 1.26237 12.0186 1.62923 12.4424 2.05762C12.8708 2.48145 13.2376 2.95312 13.543 3.47266C13.8483 3.98763 14.083 4.54362 14.2471 5.14062C14.4157 5.73763 14.5 6.35742 14.5 7Z" fill="#FFB900"/>
</svg>
