<svg width="180" height="180" viewBox="0 0 180 180" fill="none" xmlns="http://www.w3.org/2000/svg">
<mask id="mask0_75_36183" style="mask-type:alpha" maskUnits="userSpaceOnUse" x="0" y="0" width="180" height="180">
<rect width="180" height="180" fill="#C4C4C4"/>
</mask>
<g mask="url(#mask0_75_36183)">
<path d="M30.5464 85.2024C30.5112 85.3825 30.4663 85.5607 30.412 85.7366C30.0994 86.7281 29.3786 87.5629 28.4082 88.0572C27.4377 88.5516 26.2971 88.665 25.2373 88.3725C24.1775 88.08 23.2853 87.4057 22.7569 86.4977C22.2285 85.5897 22.1073 84.5226 22.4199 83.531C22.4783 83.3596 22.5478 83.1917 22.6281 83.0283L30.5464 85.2024Z" fill="#28C2D1"/>
<path d="M32.3463 68.1929C33.7744 68.1929 34.932 67.1098 34.932 65.7737C34.932 64.4376 33.7744 63.3545 32.3463 63.3545C30.9183 63.3545 29.7607 64.4376 29.7607 65.7737C29.7607 67.1098 30.9183 68.1929 32.3463 68.1929Z" fill="#28C2D1"/>
<path d="M38.1491 84.7881C37.9116 84.3307 37.5099 83.9659 37.0141 83.7576C36.7738 83.6342 36.5486 83.4868 36.3424 83.3178C36.1233 83.1546 35.958 82.9367 35.8656 82.6894C35.7798 82.4102 35.7798 82.114 35.8656 81.8348L37.6454 76.1796C37.8481 75.5121 37.9653 74.8245 37.9946 74.1311C38.0076 73.4408 37.9355 72.7513 37.7797 72.0764C37.4514 70.7477 36.7778 69.5153 35.8186 68.4885C34.8367 67.4421 33.5548 66.6811 32.1248 66.2955C30.7298 65.9082 29.2483 65.8843 27.8399 66.2264C26.4302 66.5516 25.1372 67.219 24.0913 68.1611C23.0453 69.1033 22.2835 70.2869 21.8828 71.5926L20.0224 77.518C19.9528 77.815 19.7805 78.0822 19.5321 78.2783C19.0631 78.5439 18.509 78.6462 17.9673 78.5674C17.6953 78.5349 17.4199 78.5349 17.1479 78.5674C16.8702 78.5924 16.6064 78.6929 16.389 78.8564C16.1534 79.049 15.9889 79.3063 15.9189 79.5916C15.8139 79.9853 15.8719 80.4015 16.0811 80.757C16.2904 81.1124 16.6354 81.3807 17.0472 81.5081L22.6014 83.0413C23.0128 82.1823 23.7428 81.4917 24.6563 81.0973C25.5698 80.7028 26.605 80.6312 27.5706 80.8955C28.5362 81.1599 29.3669 81.7424 29.909 82.5354C30.4511 83.3283 30.668 84.2781 30.5196 85.2091L36.0469 86.736C36.2646 86.7967 36.4939 86.8117 36.7185 86.78C36.9352 86.7536 37.1448 86.6897 37.3364 86.5915C37.5282 86.5017 37.6977 86.3754 37.8342 86.2206C37.9707 86.0659 38.0711 85.8861 38.1289 85.693C38.2472 85.4026 38.2543 85.0828 38.1491 84.7881Z" fill="#28C2D1"/>
<path d="M30.5465 85.2028L22.6283 83.035C23.0397 82.176 23.7697 81.4854 24.6832 81.091C25.5967 80.6965 26.6319 80.6249 27.5975 80.8892C28.5631 81.1536 29.3937 81.7361 29.9358 82.5291C30.478 83.322 30.6949 84.2718 30.5465 85.2028V85.2028Z" fill="#009EA6"/>
<path d="M164.312 72.6887L164.903 72.7327C165.008 72.7486 165.109 72.7782 165.205 72.8206C165.65 72.9994 166.028 73.2966 166.293 73.6752C166.555 74.0495 166.699 74.4848 166.71 74.9319C166.71 75.3592 166.71 75.7928 166.71 76.2263C166.541 80.0827 165.005 83.7768 162.344 86.7262C160.866 88.4164 159.098 89.8646 157.112 91.0116C155.083 92.1677 152.864 93.0021 150.544 93.4811C150.28 93.5408 150.009 93.562 149.738 93.5439C149.375 93.53 149.017 93.4533 148.684 93.3177C148.356 93.1885 148.062 92.9932 147.824 92.7459L147.737 92.6391C147.703 92.5993 147.675 92.5548 147.656 92.5071L147.428 92.0296L147.394 91.9479L147.26 91.5018C147.146 91.1436 147.065 90.8734 147.011 90.6158C146.963 90.3902 146.938 90.1609 146.938 89.9309C146.954 89.6415 147.032 89.3582 147.168 89.0979C147.305 88.8377 147.496 88.6059 147.73 88.4165L148.697 87.5934C149.469 86.9197 150.385 86.4058 151.384 86.0853C151.947 85.9055 152.541 85.8204 153.136 85.834C153.661 85.8579 154.175 85.973 154.654 86.1733L156.447 86.9399L161.035 81.6428L159.732 80.3232C159.393 79.9793 159.133 79.5734 158.97 79.131C158.807 78.6887 158.744 78.2196 158.785 77.7532C158.809 77.2623 158.911 76.7774 159.087 76.3143C159.254 75.8253 159.48 75.3554 159.758 74.9131L160.43 73.8763C160.621 73.5769 160.878 73.319 161.184 73.1196C161.489 72.9203 161.837 72.7841 162.203 72.7201C162.677 72.6422 163.16 72.6169 163.64 72.6447L164.312 72.6887Z" fill="#8B8CC4"/>
<path d="M108.233 75.0208H72.3155L69.7164 73.6447L72.3155 72.2686H108.233C108.575 72.3169 108.884 72.487 109.096 72.7434C109.307 72.9998 109.405 73.3227 109.368 73.6447C109.405 73.9667 109.307 74.2895 109.096 74.5459C108.884 74.8023 108.575 74.9724 108.233 75.0208Z" fill="#28C2D1"/>
<path d="M90.6033 81.2799C96.9608 81.2799 102.115 76.458 102.115 70.5098C102.115 64.5617 96.9608 59.7397 90.6033 59.7397C84.2458 59.7397 79.092 64.5617 79.092 70.5098C79.092 76.458 84.2458 81.2799 90.6033 81.2799Z" fill="#594539"/>
<path d="M90.6033 81.2799C96.9608 81.2799 102.115 76.458 102.115 70.5098C102.115 64.5617 96.9608 59.7397 90.6033 59.7397C84.2458 59.7397 79.092 64.5617 79.092 70.5098C79.092 76.458 84.2458 81.2799 90.6033 81.2799Z" fill="url(#paint0_radial_75_36183)"/>
<path d="M90.6033 114.897C103.077 114.897 113.189 105.436 113.189 93.7655C113.189 82.0948 103.077 72.6338 90.6033 72.6338C78.1293 72.6338 68.0171 82.0948 68.0171 93.7655C68.0171 105.436 78.1293 114.897 90.6033 114.897Z" fill="#594539"/>
<path d="M96.5874 103.75H82.8732V135.664H96.5874V103.75Z" fill="#E0BB95"/>
<path d="M96.5874 103.75H82.8732V135.664H96.5874V103.75Z" fill="url(#paint1_radial_75_36183)"/>
<path d="M90.6033 115.155C100.199 115.155 107.978 107.877 107.978 98.8992C107.978 89.9215 100.199 82.6436 90.6033 82.6436C81.0076 82.6436 73.2288 89.9215 73.2288 98.8992C73.2288 107.877 81.0076 115.155 90.6033 115.155Z" fill="#E0BB95"/>
<path d="M90.6033 84.7104V115.148C86.7571 115.152 83.0185 113.961 79.9739 111.762C76.9293 109.563 74.7509 106.481 73.7805 102.999C72.8101 99.5165 73.1026 95.8315 74.6121 92.5217C76.1215 89.2119 78.7626 86.4645 82.1209 84.7104H90.6033Z" fill="url(#paint2_linear_75_36183)" fill-opacity="0.1"/>
<path d="M89.7504 120.653C98.9485 120.653 107.77 124.072 114.274 130.157C120.778 136.242 124.432 144.495 124.432 153.101V176C124.432 178.209 122.641 180 120.432 180H59.0552C56.846 180 55.0552 178.209 55.0552 176V153.095C55.056 148.833 55.9542 144.614 57.6984 140.677C59.4425 136.74 61.9985 133.163 65.2203 130.15C68.4422 127.138 72.2667 124.748 76.4756 123.119C80.6845 121.489 85.1953 120.651 89.7504 120.653Z" fill="#28C2D1"/>
<path d="M83.4507 106.955C86.763 106.955 89.4482 104.443 89.4482 101.344C89.4482 98.2447 86.763 95.7324 83.4507 95.7324C80.1384 95.7324 77.4533 98.2447 77.4533 101.344C77.4533 104.443 80.1384 106.955 83.4507 106.955Z" stroke="#E3646A" stroke-width="1.84818" stroke-miterlimit="10"/>
<path d="M97.6015 106.955C100.914 106.955 103.599 104.443 103.599 101.344C103.599 98.2447 100.914 95.7324 97.6015 95.7324C94.2892 95.7324 91.6041 98.2447 91.6041 101.344C91.6041 104.443 94.2892 106.955 97.6015 106.955Z" stroke="#E3646A" stroke-width="1.84818" stroke-miterlimit="10"/>
<path d="M89.1795 99.6846H91.8659" stroke="#E3646A" stroke-width="1.84818" stroke-miterlimit="10"/>
<path d="M67.1575 106.264C70.7012 106.302 74.2101 105.607 77.4331 104.228C77.9233 103.895 77.5875 103.449 76.9294 103.355L74.1691 102.971L77.3525 98.5225C77.7957 98.202 77.4666 96.7756 76.2376 97.4228C75.0086 98.07 74.1355 98.5539 72.0468 99.4839C69.9581 100.414 66.0023 104.511 66.0023 104.511L67.1575 106.264Z" fill="#E0BB95"/>
<path d="M102.259 148.104L75.6491 150.786C75.1439 150.837 74.7785 151.262 74.8329 151.734L79.0075 187.982C79.0619 188.455 79.5156 188.797 80.0209 188.746L106.63 186.063C107.136 186.012 107.501 185.588 107.447 185.115L103.272 148.867C103.218 148.395 102.764 148.053 102.259 148.104Z" fill="#E1DFDD"/>
<path d="M98.8237 164.249C91.9331 162.106 89.1996 162.992 87.2318 163.551H87.1848C87.0966 163.568 87.0127 163.601 86.938 163.647C86.8633 163.694 86.7991 163.754 86.7492 163.824C86.6994 163.894 86.6647 163.973 86.6472 164.055C86.6298 164.138 86.6299 164.223 86.6475 164.305C86.6652 164.388 86.7 164.466 86.75 164.536C86.8001 164.606 86.8644 164.666 86.9392 164.713C87.014 164.76 87.098 164.792 87.1862 164.808C87.2744 164.825 87.3653 164.825 87.4535 164.808L90.4354 164.72L84.2835 166.888C84.1341 166.942 84.0037 167.034 83.9066 167.153C83.8096 167.272 83.7498 167.414 83.7338 167.563C83.7178 167.712 83.7462 167.862 83.816 167.997C83.8858 168.132 83.9941 168.246 84.129 168.327C86.4711 169.457 89.1244 169.895 91.7383 169.584C94.774 169.163 99.8714 166.486 99.8714 166.486L98.8237 164.249Z" fill="#E0BB95"/>
<path d="M98.2261 163.973V173.492C98.2261 173.492 125.977 179.939 136.145 173.882C154.124 163.2 137.804 143.356 131.591 137.858C114.519 122.74 96.5941 121.288 96.5941 121.288L104.203 147.591C108.394 149.627 116.118 153.397 115.446 159.002C114.848 164.023 98.2261 163.973 98.2261 163.973Z" fill="#28C2D1"/>
<path d="M89.7169 120.653L58.0439 121.734C57.7844 121.735 57.5312 121.659 57.3208 121.517C57.1105 121.375 56.954 121.174 56.8739 120.943C56.7939 120.712 56.7945 120.463 56.8756 120.232C56.9568 120.002 57.1143 119.801 57.3253 119.66L70.5224 110.706L66.4188 103.75L38.5405 111.982C24.3427 116.179 22.704 134.389 35.9884 140.748L68.709 156.457L89.7169 120.653Z" fill="#28C2D1"/>
<path d="M100.825 121.998C100.771 122.092 100.698 122.186 100.63 122.293C100.133 123.034 95.3112 127.408 92.0875 130.305C91.7072 130.653 91.2569 130.927 90.7628 131.111C90.2686 131.296 89.7403 131.387 89.2083 131.379C88.6763 131.371 88.1512 131.265 87.6633 131.067C87.1753 130.868 86.7342 130.582 86.3654 130.223C82.8126 126.836 77.1376 121.426 76.9629 121.093L87.3124 120.741C88.1183 120.684 88.9444 120.659 89.7638 120.659C92.0682 120.657 94.3673 120.867 96.6276 121.288C98.0412 121.442 99.4431 121.68 100.825 121.998Z" fill="#E0BB95"/>
<path opacity="0.5" d="M87.3661 107.482C87.6829 107.813 88.0633 108.086 88.4877 108.286C88.8583 108.458 89.2511 108.585 89.6563 108.663C90.0783 108.746 90.5079 108.79 90.9391 108.795C91.4155 108.81 91.8914 108.755 92.3495 108.632H92.4233C92.4754 108.616 92.5302 108.611 92.5844 108.616C92.6386 108.621 92.6912 108.637 92.7389 108.662C92.7867 108.686 92.8285 108.72 92.862 108.76C92.8955 108.8 92.9199 108.846 92.9338 108.896C92.9573 108.969 92.9573 109.048 92.9338 109.122C92.7945 109.448 92.5812 109.741 92.3087 109.982C92.0362 110.223 91.7109 110.405 91.3555 110.517C90.664 110.759 89.9111 110.803 89.1929 110.643C88.4513 110.493 87.7792 110.128 87.2721 109.599C87.0139 109.344 86.8197 109.037 86.7036 108.702C86.5874 108.368 86.5522 108.013 86.6005 107.664C86.6201 107.562 86.6821 107.472 86.7728 107.413C86.8634 107.354 86.9754 107.332 87.0841 107.35C87.1721 107.365 87.2523 107.407 87.3124 107.469L87.3661 107.482Z" fill="#9B643D"/>
<path d="M83.4507 103.737C84.2222 103.737 84.8476 102.789 84.8476 101.62C84.8476 100.45 84.2222 99.502 83.4507 99.502C82.6792 99.502 82.0537 100.45 82.0537 101.62C82.0537 102.789 82.6792 103.737 83.4507 103.737Z" fill="#33312D"/>
<path d="M97.4469 103.737C98.2184 103.737 98.8439 102.789 98.8439 101.62C98.8439 100.45 98.2184 99.502 97.4469 99.502C96.6754 99.502 96.05 100.45 96.05 101.62C96.05 102.789 96.6754 103.737 97.4469 103.737Z" fill="#33312D"/>
<path d="M111.242 93.7723C111.24 94.9571 111.139 96.14 110.94 97.31C108.045 97.0814 105.252 96.2037 102.797 94.7511C100.342 93.2986 98.2974 91.314 96.8359 88.9654C98.8448 85.8464 99.8974 82.2703 99.8782 78.6288C99.8815 77.3085 99.7465 75.991 99.4753 74.6953C106.426 78.101 111.242 85.3649 111.242 93.7723Z" fill="#594539"/>
<path d="M99.4483 74.6942C99.7196 75.9899 99.8546 77.3073 99.8513 78.6277C99.8704 82.2691 98.8178 85.8453 96.8089 88.9642C94.7932 85.8471 93.7337 82.2709 93.7464 78.6277C93.7473 76.7411 94.0253 74.8636 94.5725 73.0479C96.2699 73.3876 97.9102 73.9414 99.4483 74.6942V74.6942Z" fill="#594539"/>
<path d="M96.8089 88.9649C93.5247 93.9918 87.8832 97.3535 81.4963 97.3535C77.1793 97.3408 73.0234 95.819 69.8439 93.087C70.1931 81.7325 79.3136 72.6401 90.5294 72.6401C91.8844 72.6393 93.2356 72.7763 94.559 73.0486C94.0164 74.8649 93.7429 76.7424 93.7464 78.6284C93.7337 82.2716 94.7932 85.8478 96.8089 88.9649V88.9649Z" fill="#594539"/>
<path d="M146.931 28.9293L119.513 24.8389L115.456 48.6427L142.874 52.7332L146.931 28.9293Z" fill="#E1DFDD"/>
<path d="M146.937 28.9323L119.52 24.8418L118.637 30.023L146.054 34.1135L146.937 28.9323Z" fill="#28C2D1"/>
<path d="M141.199 25.5458L141.194 25.5449C140.673 25.4673 140.184 25.7992 140.101 26.2863L139.549 29.5239C139.466 30.011 139.821 30.4689 140.341 30.5465L140.347 30.5474C140.868 30.6251 141.357 30.2931 141.44 29.806L141.992 26.5684C142.075 26.0813 141.72 25.6235 141.199 25.5458Z" fill="#C8C6C4"/>
<path d="M136.136 24.7933L136.131 24.7925C135.61 24.7148 135.121 25.0467 135.038 25.5339L134.486 28.7714C134.403 29.2586 134.758 29.7164 135.278 29.7941L135.284 29.795C135.804 29.8726 136.294 29.5407 136.377 29.0536L136.929 25.816C137.012 25.3289 136.657 24.871 136.136 24.7933Z" fill="#C8C6C4"/>
<path d="M131.067 24.0399L131.062 24.0391C130.541 23.9614 130.052 24.2933 129.969 24.7805L129.417 28.018C129.334 28.5052 129.689 28.963 130.209 29.0407L130.215 29.0415C130.736 29.1192 131.225 28.7873 131.308 28.3002L131.86 25.0626C131.943 24.5755 131.588 24.1176 131.067 24.0399Z" fill="#C8C6C4"/>
<path d="M125.999 23.2811L125.994 23.2803C125.473 23.2026 124.984 23.5345 124.901 24.0217L124.349 27.2592C124.266 27.7464 124.621 28.2042 125.141 28.2819L125.147 28.2827C125.668 28.3604 126.157 28.0285 126.24 27.5414L126.792 24.3038C126.875 23.8167 126.52 23.3588 125.999 23.2811Z" fill="#C8C6C4"/>
<path d="M146.06 34.107C146.06 34.107 143.716 47.8467 139.098 51.0557C136.338 49.5101 133.167 48.7275 129.951 48.7987C119.216 49.1998 114.357 46.8787 111.242 44.841C111.242 44.841 116.878 40.4394 118.622 30.0156L146.06 34.107Z" fill="#F3F2F1"/>
<path d="M141.727 28.1429L141.424 29.8008C141.369 30.0227 141.226 30.2168 141.024 30.3439C140.822 30.4711 140.576 30.5218 140.336 30.4858C140.096 30.4498 139.879 30.3298 139.73 30.15C139.58 29.9702 139.51 29.7441 139.532 29.5174L139.817 27.8701L141.727 28.1429Z" fill="#009EA6"/>
<path d="M136.662 27.3943L136.382 29.0469C136.327 29.2687 136.185 29.4629 135.983 29.59C135.781 29.7171 135.535 29.7678 135.295 29.7318C135.054 29.6958 134.838 29.5758 134.688 29.3961C134.539 29.2163 134.468 28.9902 134.49 28.7635L134.77 27.1108L136.662 27.3943Z" fill="#009EA6"/>
<path d="M131.592 26.6409L131.312 28.2881C131.272 28.5222 131.135 28.732 130.931 28.8714C130.726 29.0108 130.47 29.0684 130.22 29.0315C129.97 28.9947 129.746 28.8663 129.597 28.6748C129.448 28.4832 129.386 28.2441 129.425 28.01L129.7 26.3574L131.592 26.6409Z" fill="#009EA6"/>
<path d="M126.522 25.8811L126.247 27.5337C126.207 27.7678 126.069 27.9773 125.864 28.1162C125.659 28.2551 125.403 28.312 125.153 28.2745C124.902 28.2369 124.678 28.1078 124.53 27.9158C124.381 27.7237 124.321 27.4843 124.361 27.2503L124.635 25.5977L126.522 25.8811Z" fill="#009EA6"/>
<path d="M72.7289 30.0375L73.0033 32.4442C73.1624 33.8396 72.9524 35.2501 72.3916 36.5517C71.8015 36.384 71.1809 36.3312 70.5681 36.3966C70.2274 36.4281 69.8917 36.4963 69.5677 36.5998C68.6783 36.0576 67.6168 35.8178 66.561 35.9206C65.3278 36.0446 64.1974 36.6208 63.4174 37.523C62.6374 38.4252 62.2713 39.5798 62.3995 40.734C62.4447 41.1594 62.5584 41.5759 62.7367 41.9694L53.8821 42.8733C51.4959 43.1167 49.1039 42.4653 47.2299 41.0619C45.356 39.6585 44.1529 37.6174 43.8842 35.3857L43.6098 32.979C43.4797 31.8698 43.5849 30.7474 43.9192 29.6762C44.2535 28.605 44.8105 27.6061 45.5582 26.7366C46.3059 25.8672 47.2296 25.1443 48.2764 24.6094C49.3232 24.0745 50.4725 23.7382 51.6584 23.6196L62.731 22.4858C63.9178 22.3656 65.1182 22.4658 66.2635 22.7806C67.4088 23.0954 68.4765 23.6185 69.4053 24.3201C70.3341 25.0216 71.1057 25.8878 71.6761 26.8689C72.2464 27.85 72.6042 28.9268 72.7289 30.0375V30.0375ZM64.0572 35.4446L63.8971 34.0754C63.8915 34.0249 63.8751 33.976 63.8489 33.9315C63.8227 33.8871 63.7872 33.848 63.7446 33.8166C63.7019 33.7851 63.653 33.762 63.6007 33.7486C63.5483 33.7352 63.4936 33.7318 63.4398 33.7385L52.2358 34.8509C52.1275 34.8617 52.0281 34.9122 51.9595 34.9914C51.891 35.0706 51.8587 35.172 51.8699 35.2734L52.03 36.6426C52.0415 36.7439 52.0955 36.8369 52.1802 36.9011C52.2648 36.9652 52.3732 36.9954 52.4816 36.9849L63.6856 35.8564C63.7917 35.8443 63.889 35.7952 63.9579 35.7188C64.0268 35.6424 64.0623 35.5444 64.0572 35.4446V35.4446ZM61.542 30.8451L61.3762 29.4171C61.372 29.3709 61.3578 29.3259 61.3347 29.2849C61.3116 29.2438 61.2799 29.2075 61.2415 29.1781C61.2032 29.1487 61.1589 29.1268 61.1114 29.1136C61.0638 29.1005 61.0139 29.0964 60.9647 29.1015L51.647 30.0375C51.5473 30.0483 51.4562 30.0952 51.3931 30.1682C51.33 30.2412 51.3001 30.3345 51.3097 30.4279L51.4755 31.8612C51.487 31.9541 51.5374 32.0389 51.6156 32.0971C51.6938 32.1552 51.7935 32.182 51.8928 32.1714L61.2105 31.2355C61.3097 31.2248 61.4004 31.1776 61.4625 31.1044C61.5247 31.0312 61.5533 30.938 61.542 30.8451V30.8451Z" fill="#C3C3E1"/>
<path d="M72.3913 36.5305C72.1053 37.1836 71.7348 37.8015 71.288 38.3703C70.9028 37.6372 70.3095 37.0174 69.5731 36.5786C69.8971 36.4751 70.2328 36.4069 70.5735 36.3754C71.1844 36.3108 71.8029 36.3635 72.3913 36.5305V36.5305Z" fill="#C3C3E1"/>
<path d="M71.2882 38.3693C70.107 39.8681 68.4318 40.9618 66.5207 41.482C66.5207 41.3697 66.4807 41.252 66.4693 41.1397C66.3566 40.1633 66.6018 39.18 67.1647 38.3511C67.7276 37.5222 68.5749 36.8969 69.5676 36.5776C70.306 37.0157 70.9013 37.6356 71.2882 38.3693V38.3693Z" fill="#C3C3E1"/>
<path d="M69.5675 36.5775C68.5748 36.8968 67.7276 37.5221 67.1646 38.351C66.6017 39.1799 66.3565 40.1632 66.4692 41.1396C66.4692 41.2519 66.4692 41.3696 66.5207 41.4819C66.0091 41.6227 65.4848 41.7193 64.9544 41.7707L62.7364 41.9953C62.5581 41.6017 62.4444 41.1852 62.3992 40.7599C62.2711 39.6057 62.6371 38.451 63.4171 37.5488C64.1971 36.6466 65.3275 36.0704 66.5607 35.9464C67.6106 35.8294 68.6716 36.0521 69.5675 36.5775V36.5775Z" fill="#C3C3E1"/>
<path d="M66.5207 41.4824C66.6451 42.0881 66.9056 42.6621 67.2851 43.1664C67.6645 43.6708 68.1541 44.0939 68.7215 44.4079C68.3531 44.537 67.9691 44.6232 67.5782 44.6646C66.5727 44.7645 65.5596 44.5582 64.6894 44.0764C63.8192 43.5947 63.1383 42.8631 62.7479 41.9905L64.9658 41.7659C65.4922 41.7156 66.0127 41.6208 66.5207 41.4824V41.4824Z" fill="#C3C3E1"/>
</g>
<defs>
<radialGradient id="paint0_radial_75_36183" cx="0" cy="0" r="1" gradientUnits="userSpaceOnUse" gradientTransform="translate(91.1674 80.551) scale(19.1341 17.902)">
<stop offset="0.31" stop-color="#231F20"/>
<stop offset="1" stop-color="#594539" stop-opacity="0"/>
</radialGradient>
<radialGradient id="paint1_radial_75_36183" cx="0" cy="0" r="1" gradientUnits="userSpaceOnUse" gradientTransform="translate(90.0191 109.877) scale(13.0023 12.1651)">
<stop stop-color="#9B643D"/>
<stop offset="0.27" stop-color="#AC7952" stop-opacity="0.76"/>
<stop offset="0.87" stop-color="#D6AF89" stop-opacity="0.14"/>
<stop offset="1" stop-color="#E0BB95" stop-opacity="0"/>
</radialGradient>
<linearGradient id="paint2_linear_75_36183" x1="3115.71" y1="2562.95" x2="3675.64" y2="2957.94" gradientUnits="userSpaceOnUse">
<stop stop-color="#9B643D"/>
<stop offset="0.27" stop-color="#AC7952" stop-opacity="0.76"/>
<stop offset="0.87" stop-color="#D6AF89" stop-opacity="0.14"/>
<stop offset="1" stop-color="#E0BB95" stop-opacity="0"/>
</linearGradient>
</defs>
</svg>
