<svg width="17" height="17" viewBox="0 0 17 17" fill="none" xmlns="http://www.w3.org/2000/svg">
<path d="M12.3617 2.47715C13.0194 1.81943 14.0858 1.81943 14.7435 2.47715C15.4012 3.13487 15.4012 4.20125 14.7435 4.85898L9.64085 9.96166C9.50813 10.0944 9.34232 10.1892 9.16068 10.2363L6.22284 10.9979L6.98435 8.06002C7.03143 7.87838 7.12625 7.71257 7.25896 7.57986L12.3617 2.47715ZM15.6367 1.58397C14.4856 0.432949 12.6195 0.432949 11.4685 1.58397L6.36579 6.68667C6.0738 6.97865 5.8652 7.34339 5.76159 7.74314L4.73071 11.7201C4.67456 11.9368 4.73725 12.167 4.8955 12.3252C5.05375 12.4835 5.28393 12.5462 5.50057 12.49L9.47765 11.459C9.87731 11.3553 10.242 11.1467 10.534 10.8548L15.6367 5.75216C16.7877 4.60114 16.7877 2.73499 15.6367 1.58397ZM8.07892 1.56287C8.75782 1.56287 9.41584 1.65214 10.0419 1.81957L8.97272 2.88879C8.68077 2.84741 8.38233 2.82602 8.07892 2.82602C4.59081 2.82602 1.76315 5.65368 1.76315 9.14179C1.76315 12.6299 4.59081 15.4576 8.07892 15.4576C11.567 15.4576 14.3947 12.6299 14.3947 9.14179C14.3947 8.83829 14.3733 8.53985 14.3319 8.24781L15.4011 7.17863C15.5686 7.80478 15.6578 8.46289 15.6578 9.14179C15.6578 13.3275 12.2647 16.7207 8.07892 16.7207C3.8932 16.7207 0.5 13.3275 0.5 9.14179C0.5 4.95606 3.8932 1.56287 8.07892 1.56287Z" fill="#794900"/>
</svg>
