<svg width="1080" height="458" viewBox="0 0 1080 458" fill="none" xmlns="http://www.w3.org/2000/svg">
<g clip-path="url(#clip0_2741_51100)">
<rect width="1080" height="458" fill="white"/>
<path d="M0 4C0 1.79086 1.79086 0 4 0H1075.94C1078.15 0 1079.94 1.79086 1079.94 4V458H0V4Z" fill="url(#paint0_linear_2741_51100)"/>
<mask id="mask0_2741_51100" style="mask-type:alpha" maskUnits="userSpaceOnUse" x="0" y="-72" width="1080" height="530">
<rect y="-72" width="1080" height="530" fill="#D9D9D9"/>
</mask>
<g mask="url(#mask0_2741_51100)">
<path d="M0 4.00001C0 1.79087 1.79086 0 4 0H1076C1078.21 0 1080 1.79086 1080 4V457.467H0V4.00001Z" fill="url(#paint1_linear_2741_51100)"/>
<path d="M523.849 218.069C552.064 225.87 580.109 233.501 607.983 241.301C623.62 208.234 632.798 171.098 634.668 132.266C608.323 125.314 581.978 118.361 555.463 111.239C551.724 149.562 541.016 186.02 523.849 218.069Z" fill="#ECEFF1"/>
<path d="M689.56 259.152C656.609 269.763 623.871 280.271 591.189 290.622C569.78 254.336 557.485 211.607 555.982 166.219C586.477 156.78 617.08 147.29 647.84 137.856C651.683 182.652 666.22 224.311 689.56 259.152Z" fill="#C7E0F4"/>
<path d="M581.806 198.301C579.731 198.898 577.707 199.602 575.633 200.199C574.514 200.601 573.521 199.896 573.332 198.676C572.948 196.502 572.62 194.17 572.236 191.995C572.046 190.776 572.808 189.626 573.82 189.275C575.895 188.678 577.919 187.975 579.993 187.378C581.005 187.026 582.105 187.68 582.294 188.9C582.571 191.125 583.006 193.407 583.39 195.581C583.58 196.8 582.818 197.95 581.806 198.301Z" fill="white"/>
<path d="M586.763 219.645C584.688 220.242 582.557 220.996 580.482 221.593C579.364 221.996 578.264 221.341 577.968 220.173C577.426 217.943 576.829 215.87 576.287 213.64C575.991 212.471 576.753 211.322 577.765 210.97C579.84 210.373 581.863 209.67 584.045 209.022C585.164 208.619 586.156 209.325 586.453 210.493C586.994 212.724 587.485 214.847 588.133 217.027C588.429 218.195 587.825 219.4 586.763 219.645Z" fill="white"/>
<path d="M593.372 240.33C591.191 240.977 589.167 241.681 586.986 242.329C585.867 242.731 584.661 242.128 584.258 241.01C583.502 238.882 582.798 236.86 582.15 234.681C581.747 233.563 582.402 232.465 583.52 232.062C585.595 231.465 587.726 230.711 589.801 230.114C590.919 229.712 592.019 230.366 592.422 231.483C593.177 233.612 593.881 235.634 594.636 237.762C595.039 238.88 594.542 240.034 593.372 240.33Z" fill="white"/>
<path d="M601.69 260.2C599.508 260.848 597.378 261.602 595.303 262.199C594.184 262.602 592.871 262.049 592.468 260.932C591.5 258.905 590.689 256.934 589.827 254.857C589.424 253.739 589.972 252.692 591.091 252.289C593.272 251.642 595.296 250.938 597.478 250.29C598.596 249.888 599.802 250.491 600.312 251.558C601.174 253.635 602.092 255.555 602.954 257.633C603.199 258.694 602.702 259.849 601.69 260.2Z" fill="white"/>
<path d="M632.537 179.079C619.499 183.072 606.354 187.116 593.366 191.216C592.354 191.568 591.255 190.913 591.066 189.694C590.876 188.474 591.638 187.325 592.65 186.973C605.688 182.98 618.675 178.881 631.714 174.888C632.726 174.536 633.825 175.19 634.121 176.359C634.311 177.578 633.6 178.834 632.537 179.079Z" fill="white"/>
<path d="M637.866 200.376C624.614 204.471 611.362 208.566 598.268 212.716C597.256 213.068 596.05 212.465 595.753 211.296C595.457 210.128 596.112 209.029 597.231 208.627C610.376 204.583 623.628 200.488 636.722 196.337C637.734 195.986 638.94 196.589 639.236 197.757C639.482 198.819 638.878 200.024 637.866 200.376Z" fill="white"/>
<path d="M644.795 220.909C631.436 225.055 618.078 229.201 604.77 233.453C603.651 233.856 602.445 233.252 602.042 232.135C601.639 231.017 602.294 229.919 603.306 229.567C616.665 225.422 629.917 221.327 643.224 217.074C644.343 216.672 645.549 217.275 645.952 218.393C646.411 219.352 645.914 220.507 644.795 220.909Z" fill="white"/>
<path d="M653.382 240.52C639.81 244.767 626.395 249.071 612.823 253.318C611.704 253.721 610.391 253.169 609.988 252.051C609.478 250.984 610.027 249.937 611.145 249.534C624.611 245.338 638.025 241.034 651.597 236.787C652.716 236.384 654.029 236.936 654.539 238.003C654.998 238.963 654.501 240.117 653.382 240.52Z" fill="white"/>
<path d="M743.131 197.489C743.691 196.305 744.344 195.304 745.277 194.394C746.21 193.483 747.236 192.846 748.448 192.3C749.661 191.754 750.967 191.48 752.366 191.48H826.062C827.461 191.48 828.767 191.754 829.98 192.209C831.193 192.664 832.312 193.483 833.245 194.303C834.178 195.213 834.831 196.214 835.39 197.398C835.857 198.672 836.137 199.947 836.137 201.312V253.658C836.137 255.023 835.857 256.298 835.39 257.481C834.924 258.664 834.178 259.757 833.245 260.576C832.312 261.487 831.286 262.124 830.073 262.67C828.86 263.216 827.554 263.398 826.155 263.398H774.568C774.195 263.398 773.915 263.58 773.729 263.762L766.826 271.136L765.333 272.775L756.191 282.516L754.978 283.699L754.605 284.063L754.325 283.972C754.045 284.154 753.766 284.336 753.486 284.427C752.46 284.883 751.34 285.156 750.128 285.156C749.008 285.156 748.075 284.974 747.049 284.519C746.303 284.245 745.65 283.79 745.09 283.335C744.904 283.153 744.717 283.062 744.624 282.88C743.877 282.243 743.318 281.423 742.945 280.422C742.571 279.512 742.385 278.51 742.385 277.418V225.164V201.312C742.292 199.947 742.571 198.672 743.131 197.489Z" fill="#C7E0F4"/>
<path d="M821.179 207.028H758.127C756.035 207.028 754.34 208.723 754.34 210.815C754.34 212.906 756.035 214.602 758.127 214.602H821.179C823.271 214.602 824.966 212.906 824.966 210.815C824.966 208.723 823.271 207.028 821.179 207.028Z" fill="white"/>
<path d="M821.179 223.573H758.127C756.035 223.573 754.34 225.268 754.34 227.36C754.34 229.451 756.035 231.146 758.127 231.146H821.179C823.271 231.146 824.966 229.451 824.966 227.36C824.966 225.268 823.271 223.573 821.179 223.573Z" fill="white"/>
<path d="M821.179 240.11H758.127C756.035 240.11 754.34 241.805 754.34 243.897C754.34 245.988 756.035 247.684 758.127 247.684H821.179C823.271 247.684 824.966 245.988 824.966 243.897C824.966 241.805 823.271 240.11 821.179 240.11Z" fill="white"/>
<mask id="mask1_2741_51100" style="mask-type:alpha" maskUnits="userSpaceOnUse" x="747" y="232" width="188" height="232">
<rect width="186.839" height="231.447" transform="matrix(-1 0 0 1 934.412 232.247)" fill="#D9D9D9"/>
</mask>
<g mask="url(#mask1_2741_51100)">
<path d="M788.678 431.712C790.225 418.174 790.878 405.442 790.965 393.689C790.965 363.35 819.549 338.756 854.821 338.756C874.254 338.756 894.014 346.504 906.65 361.587C919.744 377.236 924.166 405.551 918.24 424.965C909.983 451.974 905.365 477.134 911.443 505.427C889.504 507.277 867.871 504.491 845.692 504.491C820.856 504.208 796.477 504.208 772.578 504.491C779.288 484.359 785.475 459.875 788.678 431.712Z" fill="url(#paint2_radial_2741_51100)"/>
<path d="M822.139 294.923L876.975 295.228L877.084 276.532C877.106 271.2 872.814 266.869 867.476 266.847L831.943 266.651C826.605 266.63 822.27 270.917 822.248 276.228L822.139 294.923Z" fill="#594539"/>
<path d="M839.372 280.19C842.509 279.929 852.661 273.378 858.936 273.138C866.583 272.877 868.652 276.86 868.652 276.86C868.652 276.86 874.317 255.923 855.385 256.989C849.851 257.316 843.664 259.057 839.524 257.969C835.167 256.837 827.52 252.071 821.507 256.489C816.082 260.472 814.862 268.633 819.045 274.183C822.989 279.385 834.775 280.582 839.372 280.19Z" fill="#594539"/>
<path d="M872.423 297.166H834.384L834.493 337.604C834.493 340.238 833.861 343.089 829.787 345.004C837.26 350.271 844.471 353.927 844.471 353.927C844.471 353.927 863.164 347.006 875.669 342.762C874.013 342.653 872.684 339.345 872.662 335.863L872.423 297.166Z" fill="url(#paint3_radial_2741_51100)"/>
<path d="M871.529 307.352C867.005 307.352 863.337 303.688 863.337 299.168C863.337 294.649 867.005 290.985 871.529 290.985C876.053 290.985 879.721 294.649 879.721 299.168C879.721 303.688 876.053 307.352 871.529 307.352Z" fill="#BF8F68"/>
<path d="M844.384 330.314C858.72 330.401 870.397 318.844 870.484 304.523L870.637 275.424L831.901 275.207C826.563 275.185 822.206 279.472 822.184 284.805L822.054 307.744C821.988 320.15 831.988 330.227 844.384 330.314Z" fill="#594539"/>
<path d="M830.287 310.703L856.801 310.855C861.376 310.877 865.102 307.199 865.123 302.628L865.232 284.934C865.254 279.602 860.962 275.249 855.603 275.205L831.878 275.075C826.54 275.053 822.183 279.341 822.161 284.673L822.052 302.389C822.03 306.959 825.712 310.681 830.287 310.703Z" fill="#BF8F68"/>
<path d="M827.675 310.298H841.204V303.335C841.204 302.707 840.747 302.109 840.006 301.756L836.15 299.962C835.3 299.578 835.082 298.781 835.627 298.183L838.982 294.517C839.788 293.643 840.202 292.631 840.224 291.588L840.246 287.739H827.697V310.298H827.675Z" fill="url(#paint4_radial_2741_51100)"/>
<path d="M849.394 313.641C848.457 315.578 846.453 316.732 844.448 317.189C842.466 317.603 840.178 317.472 838.457 315.992C838.218 315.774 838.174 315.404 838.392 315.165C838.479 315.056 838.61 314.991 838.762 314.969L838.871 314.947C840.636 314.708 842.183 314.447 843.773 314.12C845.363 313.794 846.823 313.38 848.61 312.814L848.653 312.793C848.958 312.684 849.307 312.858 849.416 313.184C849.481 313.358 849.459 313.511 849.394 313.641Z" fill="#594539" stroke="#594539" stroke-width="4.3223" stroke-miterlimit="10"/>
<path d="M833.569 316.284C835.441 316.2 836.937 316.172 838.579 316.273C840.2 316.369 841.762 316.517 843.528 316.742L843.618 316.743C843.945 316.786 844.234 316.548 844.277 316.221C844.295 316.069 844.26 315.947 844.199 315.84C843.596 314.89 842.682 314.262 841.733 313.85C840.789 313.417 839.762 313.21 838.716 313.156C836.683 313.084 834.433 313.654 833.02 315.304C832.794 315.558 832.83 315.929 833.085 316.155C833.216 316.257 833.363 316.297 833.5 316.288L833.569 316.284Z" fill="#9B643D"/>
<path d="M850.001 299.237C848.942 299.231 848.092 297.648 848.103 295.7C848.114 293.753 848.981 292.179 850.04 292.185C851.099 292.191 851.948 293.774 851.937 295.722C851.927 297.669 851.059 299.243 850.001 299.237Z" fill="#33312D"/>
<path d="M831.766 299.128C830.707 299.123 829.858 297.539 829.869 295.592C829.879 293.645 830.747 292.071 831.805 292.077C832.864 292.083 833.714 293.666 833.703 295.613C833.692 297.56 832.825 299.134 831.766 299.128Z" fill="#33312D"/>
<path d="M875.581 290.985H869.437C865.145 290.985 861.681 287.525 861.681 283.237V274.162H875.581V290.985V290.985Z" fill="#594539"/>
<path d="M854.014 275.184H854.275C858.371 275.205 861.683 278.535 861.683 282.605V282.627H867.521V266.63H854.014V275.184V275.184Z" fill="#594539"/>
<path d="M869.154 334.102L849.046 337.998L844.492 353.908L869.154 345.028V334.102Z" fill="#C3C3E1"/>
<path d="M852.836 353.821L849.046 337.998L875.472 332.992C875.472 332.992 877.237 341.959 882.204 343.809C882.204 343.831 852.836 353.821 852.836 353.821Z" fill="#EAEAF3"/>
<path d="M830.201 334.1L840.833 337.996L844.493 353.906L827.478 347.79L830.201 334.1Z" fill="#C3C3E1"/>
<path d="M837.02 353.819L840.811 337.996L830.201 334.1C830.201 334.1 828.567 343.72 823.578 345.592C823.599 345.592 837.02 353.819 837.02 353.819Z" fill="#EAEAF3"/>
<path d="M813.752 457.698C837.978 435.499 850.157 414.431 856.802 399.087C864.187 382.067 869.154 362.588 883.773 358.431C891.049 356.364 898.217 358.823 903.184 361.261C906.474 364.634 911.986 371.251 915.014 381.11C918.239 391.666 916.91 400.349 915.951 406.16C915.406 409.49 912.378 426.205 898.435 441.615C891.202 449.602 883.424 454.608 877.433 457.677C856.213 457.698 834.994 457.698 813.752 457.698Z" fill="#F5AE33"/>
<path d="M860.135 457.699L828.414 436.915L812.336 438.808L823.207 457.699H860.135Z" fill="#EAEAF3"/>
<path d="M833.621 435.956C833.621 435.956 792.445 445.881 761.727 451.517L760.768 457.22L860.135 457.699L833.621 435.956Z" fill="#BF8F68"/>
</g>
<path d="M761.842 451.477H669.996L651.949 398.613C651.253 396.571 652.754 394.464 654.884 394.464H739.489C741.207 394.464 742.751 395.562 743.316 397.208L761.842 451.477Z" fill="#B3AFAB"/>
<path d="M2 457.672V458.466H1080V457.467H9.23754C5.24201 457.467 2 457.559 2 457.672Z" fill="#E1DFDD"/>
<path d="M576.348 420.813C575.967 417.472 570.445 402.996 573.952 394.534C577.459 386.073 584.079 377.369 586.785 378.597C589.492 379.825 587.267 389.263 583.503 399.168C579.899 408.651 580.451 416.552 579.71 422.221C578.806 429.13 576.348 420.813 576.348 420.813Z" fill="#BBE5E0"/>
<path d="M577.538 440.148C577.538 430.975 563.333 407.939 553.108 406.514C542.88 405.088 555.602 417.1 561.274 423.611C568.361 431.754 577.538 440.148 577.538 440.148Z" fill="#92D5CD"/>
<path d="M577.536 439.328C577.536 431.872 589.082 413.146 597.395 411.986C605.709 410.826 595.369 420.589 590.757 425.884C584.996 432.504 577.536 439.328 577.536 439.328Z" fill="#BBE5E0"/>
<path d="M577.123 434.154C577.38 430.801 576.771 414.456 581.812 406.806C586.849 399.156 594.3 393.593 596.728 395.305C599.154 397.02 593.452 405 587.889 414.019C582.562 422.655 580.222 428.295 580.074 435.264C579.924 442.238 577.123 434.154 577.123 434.154Z" fill="#92D5CD"/>
<path d="M559.563 387.241C564.148 386.359 573.64 398.129 576.269 408.857C578.899 419.588 578.695 436.207 578.695 436.207L576.382 436.594C576.382 436.594 569.935 418.31 566.42 412.464C561.902 404.955 554.277 388.259 559.563 387.241Z" fill="#92D5CD"/>
<path d="M577.192 431.554H576.911H559.578C558.565 431.554 557.782 432.448 557.918 433.451L559.741 446.892C560.627 453.435 566.219 458.314 572.828 458.314H576.911H577.192H581.275C587.884 458.314 593.476 453.432 594.363 446.892L596.185 433.451C596.321 432.448 595.541 431.554 594.525 431.554H577.192Z" fill="#C8C6C4"/>
<path d="M797.198 457.586H672.812C670.952 457.586 669.442 456.226 669.442 454.552V454.512C669.442 452.837 670.952 451.478 672.812 451.478H797.198C799.058 451.478 800.568 452.837 800.568 454.512V454.552C800.59 456.207 799.08 457.586 797.198 457.586Z" fill="#C8C6C4"/>
<path d="M587.303 354.158C586.951 353.924 586.56 353.807 586.129 353.807C585.19 353.807 584.642 353.142 583.586 351.539C582.333 349.78 580.729 347.396 577.442 347.396C574.155 347.396 572.55 349.78 571.337 351.5C570.242 353.103 569.733 353.768 568.755 353.768C567.816 353.768 567.268 353.103 566.211 351.5C565.037 349.78 563.433 347.396 560.146 347.396C556.859 347.396 555.254 349.78 554.041 351.5C552.945 353.103 552.398 353.768 551.458 353.768C550.519 353.768 549.971 353.103 548.876 351.5C547.741 349.78 546.137 347.396 542.81 347.396C541.636 347.396 540.697 348.334 540.697 349.506C540.697 350.679 541.636 351.617 542.81 351.617C543.75 351.617 544.297 352.282 545.393 353.885C546.567 355.644 548.171 357.99 551.498 357.99C554.785 357.99 556.389 355.605 557.602 353.885C558.698 352.282 559.207 351.617 560.185 351.617C561.124 351.617 561.672 352.282 562.768 353.885C563.941 355.644 565.546 357.99 568.872 357.99C572.159 357.99 573.764 355.605 574.977 353.885C576.072 352.282 576.581 351.617 577.559 351.617C578.498 351.617 579.046 352.282 580.103 353.885C581.277 355.644 582.881 357.99 586.207 357.99C587.381 357.99 588.321 357.051 588.321 355.879C588.203 355.175 587.851 354.51 587.303 354.158Z" fill="#C7E0F4"/>
<path d="M178.976 90.1408C178.574 89.8732 178.128 89.7395 177.637 89.7395C176.566 89.7395 175.941 88.9814 174.736 87.1533C173.308 85.1467 171.478 82.4268 167.728 82.4268C163.979 82.4268 162.149 85.1467 160.765 87.1087C159.516 88.9369 158.935 89.6949 157.819 89.6949C156.748 89.6949 156.123 88.9369 154.918 87.1087C153.579 85.1467 151.749 82.4268 148 82.4268C144.25 82.4268 142.42 85.1467 141.037 87.1087C139.787 88.9369 139.162 89.6949 138.091 89.6949C137.02 89.6949 136.395 88.9369 135.145 87.1087C133.851 85.1467 132.021 82.4268 128.227 82.4268C126.888 82.4268 125.816 83.4969 125.816 84.8346C125.816 86.1723 126.888 87.2424 128.227 87.2424C129.298 87.2424 129.923 88.0005 131.173 89.8286C132.512 91.8352 134.342 94.5106 138.136 94.5106C141.885 94.5106 143.715 91.7906 145.099 89.8286C146.348 88.0005 146.929 87.2424 148.044 87.2424C149.116 87.2424 149.741 88.0005 150.99 89.8286C152.329 91.8352 154.159 94.5106 157.953 94.5106C161.703 94.5106 163.533 91.7906 164.916 89.8286C166.166 88.0005 166.746 87.2424 167.862 87.2424C168.933 87.2424 169.558 88.0005 170.763 89.8286C172.102 91.8352 173.933 94.5106 177.726 94.5106C179.065 94.5106 180.137 93.4404 180.137 92.1027C180.003 91.3001 179.601 90.5421 178.976 90.1408Z" fill="#C7E0F4"/>
<path d="M946.624 166.997C946.222 166.73 945.776 166.596 945.285 166.596C944.213 166.596 943.589 165.838 942.383 164.01C940.955 162.003 939.125 159.283 935.376 159.283C931.626 159.283 929.796 162.003 928.413 163.965C927.163 165.793 926.583 166.551 925.467 166.551C924.396 166.551 923.771 165.793 922.566 163.965C921.227 162.003 919.397 159.283 915.647 159.283C911.898 159.283 910.068 162.003 908.684 163.965C907.434 165.793 906.81 166.551 905.738 166.551C904.667 166.551 904.042 165.793 902.792 163.965C901.498 162.003 899.668 159.283 895.874 159.283C894.535 159.283 893.464 160.353 893.464 161.691C893.464 163.029 894.535 164.099 895.874 164.099C896.945 164.099 897.57 164.857 898.82 166.685C900.159 168.692 901.989 171.367 905.783 171.367C909.532 171.367 911.362 168.647 912.746 166.685C913.996 164.857 914.576 164.099 915.692 164.099C916.763 164.099 917.388 164.857 918.638 166.685C919.977 168.692 921.807 171.367 925.601 171.367C929.35 171.367 931.18 168.647 932.564 166.685C933.814 164.857 934.394 164.099 935.51 164.099C936.581 164.099 937.206 164.857 938.411 166.685C939.75 168.692 941.58 171.367 945.374 171.367C946.713 171.367 947.784 170.297 947.784 168.959C947.65 168.157 947.249 167.399 946.624 166.997Z" fill="#C7E0F4"/>
<path d="M166.855 116.963C166.077 108.715 172.133 101.4 180.381 100.624L509.472 69.6736C517.72 68.8979 525.037 74.9551 525.814 83.2028L559.095 436.36L561.124 457.639L198.959 457.639L166.855 116.963Z" fill="#F4EACA"/>
<g opacity="0.2" filter="url(#filter0_f_2741_51100)">
<path d="M201.551 125.132L494.11 97.6174L526.229 438.446L312.735 455.032L232.74 455.5L201.551 125.132Z" fill="black"/>
</g>
<path d="M201.551 124.131L494.11 96.6157L526.229 437.444L310.485 458.009L232.986 458.009L201.551 124.131Z" fill="white"/>
<path d="M254.578 206.187L246.032 199.915C245.301 199.379 245.144 198.351 245.68 197.621L246.78 196.121C247.316 195.391 248.344 195.233 249.074 195.769L254.799 199.97L265.531 187.1C266.067 186.369 267.095 186.211 267.825 186.747L269.325 187.848C270.055 188.384 270.213 189.412 269.677 190.142L256.875 205.834C256.336 206.565 255.308 206.723 254.578 206.187Z" fill="#0078D4"/>
<path d="M288.048 187.78L285.029 188.064L285.909 197.412L284.684 197.528L283.804 188.179L280.792 188.463L280.688 187.354L287.944 186.671L288.048 187.78ZM294.084 196.643L292.888 196.755L292.778 195.589L292.749 195.591C292.313 196.535 291.589 197.054 290.578 197.149C289.834 197.219 289.232 197.077 288.772 196.723C288.317 196.369 288.059 195.866 287.998 195.215C287.866 193.819 288.611 192.93 290.233 192.547L292.442 192.023C292.323 190.754 291.75 190.168 290.724 190.264C289.825 190.349 289.042 190.732 288.375 191.412L288.26 190.187C288.95 189.652 289.774 189.339 290.732 189.248C292.487 189.083 293.451 189.929 293.626 191.786L294.084 196.643ZM292.532 192.978L290.754 193.395C290.207 193.525 289.802 193.703 289.539 193.929C289.275 194.15 289.167 194.511 289.214 195.012C289.249 195.376 289.406 195.663 289.685 195.872C289.969 196.076 290.328 196.158 290.76 196.117C291.353 196.061 291.823 195.808 292.168 195.359C292.517 194.904 292.662 194.359 292.602 193.722L292.532 192.978ZM301.088 188.45L298.935 192.463L301.747 195.921L300.355 196.052L298.661 193.769C298.554 193.627 298.427 193.448 298.279 193.231L298.25 193.234C298.23 193.28 298.134 193.481 297.961 193.835L296.694 196.397L295.316 196.527L297.516 192.626L294.722 189.049L296.115 188.918L297.799 191.334C297.924 191.514 298.047 191.699 298.168 191.888L298.197 191.886L299.768 188.574L301.088 188.45ZM306.329 195.666C305.225 195.77 304.31 195.506 303.583 194.873C302.861 194.235 302.446 193.339 302.337 192.187C302.219 190.933 302.47 189.921 303.089 189.152C303.708 188.382 304.601 187.943 305.768 187.833C306.881 187.728 307.781 187.989 308.468 188.616C309.159 189.242 309.562 190.163 309.677 191.379C309.789 192.57 309.541 193.557 308.933 194.34C308.329 195.118 307.461 195.56 306.329 195.666ZM305.775 188.847C305.007 188.92 304.424 189.239 304.026 189.807C303.628 190.369 303.472 191.109 303.558 192.028C303.642 192.913 303.933 193.589 304.434 194.057C304.934 194.525 305.563 194.723 306.321 194.652C307.094 194.579 307.664 194.273 308.03 193.733C308.401 193.193 308.543 192.461 308.456 191.538C308.368 190.604 308.091 189.905 307.626 189.438C307.165 188.972 306.548 188.775 305.775 188.847ZM318.14 194.378L316.944 194.49L316.543 190.232C316.394 188.647 315.741 187.909 314.584 188.018C313.986 188.074 313.511 188.347 313.16 188.836C312.813 189.32 312.672 189.905 312.737 190.59L313.137 194.849L311.942 194.961L311.239 187.494L312.434 187.382L312.551 188.621L312.58 188.619C313.055 187.623 313.828 187.074 314.897 186.973C315.714 186.897 316.364 187.103 316.846 187.592C317.328 188.076 317.616 188.817 317.71 189.813L318.14 194.378ZM323.538 194.046C322.434 194.15 321.519 193.886 320.793 193.253C320.07 192.614 319.655 191.719 319.547 190.567C319.428 189.313 319.679 188.301 320.298 187.532C320.917 186.762 321.81 186.323 322.977 186.213C324.09 186.108 324.99 186.369 325.677 186.996C326.368 187.622 326.771 188.543 326.886 189.758C326.998 190.95 326.75 191.937 326.142 192.72C325.539 193.497 324.67 193.94 323.538 194.046ZM322.984 187.227C322.216 187.3 321.633 187.619 321.235 188.186C320.837 188.749 320.681 189.489 320.767 190.408C320.851 191.293 321.143 191.969 321.643 192.437C322.143 192.905 322.772 193.103 323.53 193.032C324.303 192.959 324.873 192.653 325.239 192.113C325.61 191.573 325.752 190.841 325.665 189.918C325.577 188.984 325.3 188.284 324.835 187.818C324.374 187.352 323.757 187.155 322.984 187.227ZM339.753 192.343L338.557 192.456L338.154 188.168C338.076 187.342 337.891 186.756 337.598 186.411C337.311 186.065 336.865 185.92 336.263 185.977C335.752 186.025 335.339 186.3 335.023 186.8C334.712 187.3 334.588 187.876 334.649 188.527L335.05 192.786L333.854 192.898L333.437 188.465C333.298 186.997 332.663 186.316 331.53 186.423C331.005 186.472 330.593 186.734 330.295 187.209C329.996 187.678 329.879 188.265 329.946 188.97L330.346 193.229L329.151 193.341L328.448 185.874L329.644 185.762L329.755 186.943L329.784 186.94C330.229 185.986 330.959 185.461 331.975 185.366C332.486 185.318 332.944 185.419 333.35 185.67C333.756 185.917 334.051 186.264 334.235 186.712C334.692 185.63 335.47 185.037 336.569 184.933C338.212 184.778 339.129 185.715 339.32 187.742L339.753 192.343ZM347.254 184.104L344.635 193.09C344.168 194.694 343.38 195.548 342.272 195.652C341.961 195.681 341.697 195.674 341.482 195.631L341.382 194.559C341.647 194.622 341.887 194.643 342.101 194.623C342.704 194.567 343.122 194.164 343.356 193.416L343.821 191.945L340.202 184.768L341.529 184.643L344.09 190.199C344.121 190.269 344.19 190.454 344.297 190.753L344.341 190.749C344.354 190.63 344.385 190.441 344.434 190.181L346.014 184.221L347.254 184.104ZM360.582 189.941C359.847 190.422 358.904 190.717 357.752 190.825C356.264 190.965 355.028 190.599 354.043 189.725C353.059 188.852 352.493 187.637 352.347 186.081C352.189 184.409 352.565 183.01 353.474 181.885C354.384 180.76 355.611 180.124 357.157 179.979C358.149 179.885 358.984 179.951 359.662 180.177L359.785 181.482C358.997 181.135 358.151 181.003 357.247 181.088C356.046 181.202 355.109 181.694 354.436 182.567C353.768 183.439 353.497 184.546 353.623 185.888C353.743 187.161 354.186 188.145 354.953 188.838C355.724 189.525 356.676 189.816 357.808 189.709C358.858 189.61 359.746 189.291 360.47 188.752L360.582 189.941ZM368.79 189.61L367.594 189.722L367.189 185.42C367.042 183.864 366.391 183.141 365.234 183.25C364.65 183.305 364.181 183.577 363.825 184.067C363.468 184.551 363.323 185.146 363.389 185.851L363.787 190.08L362.592 190.193L361.551 179.138L362.747 179.026L363.201 183.853L363.23 183.85C363.715 182.853 364.488 182.305 365.547 182.205C367.229 182.047 368.166 182.981 368.357 185.008L368.79 189.61ZM376.395 188.893L375.199 189.006L375.09 187.839L375.06 187.842C374.624 188.786 373.901 189.305 372.89 189.4C372.146 189.47 371.544 189.328 371.084 188.974C370.629 188.62 370.371 188.117 370.309 187.465C370.178 186.07 370.923 185.181 372.545 184.798L374.754 184.274C374.634 183.005 374.062 182.419 373.036 182.515C372.137 182.6 371.354 182.983 370.687 183.663L370.572 182.438C371.262 181.902 372.086 181.589 373.043 181.499C374.798 181.334 375.763 182.18 375.938 184.037L376.395 188.893ZM374.844 185.229L373.066 185.646C372.519 185.776 372.114 185.954 371.851 186.18C371.587 186.401 371.479 186.762 371.526 187.263C371.561 187.627 371.717 187.914 371.997 188.123C372.281 188.327 372.639 188.408 373.072 188.368C373.665 188.312 374.134 188.059 374.479 187.61C374.829 187.155 374.974 186.609 374.914 185.973L374.844 185.229ZM384.847 188.098L383.651 188.21L383.25 183.952C383.101 182.367 382.448 181.629 381.291 181.738C380.693 181.794 380.218 182.067 379.867 182.556C379.52 183.04 379.379 183.625 379.444 184.31L379.844 188.569L378.649 188.681L377.946 181.214L379.141 181.102L379.258 182.341L379.287 182.339C379.762 181.343 380.535 180.794 381.604 180.693C382.421 180.616 383.071 180.823 383.553 181.312C384.035 181.796 384.323 182.536 384.417 183.533L384.847 188.098ZM393.424 186.687C393.682 189.429 392.499 190.923 389.874 191.17C388.95 191.257 388.127 191.158 387.403 190.873L387.291 189.677C388.176 190.065 389 190.223 389.763 190.151C391.601 189.978 392.427 188.914 392.243 186.96L392.166 186.143L392.137 186.146C391.658 187.153 390.847 187.709 389.705 187.817C388.777 187.904 387.997 187.644 387.366 187.037C386.739 186.424 386.373 185.558 386.268 184.44C386.149 183.171 386.357 182.134 386.895 181.328C387.437 180.522 388.238 180.069 389.297 179.969C390.304 179.874 391.088 180.208 391.65 180.969L391.679 180.966L391.582 179.931L392.777 179.818L393.424 186.687ZM391.967 184.021L391.863 182.92C391.807 182.327 391.558 181.838 391.114 181.453C390.676 181.068 390.158 180.903 389.56 180.96C388.821 181.029 388.268 181.353 387.9 181.932C387.533 182.507 387.394 183.277 387.485 184.245C387.564 185.076 387.826 185.723 388.272 186.186C388.722 186.644 389.277 186.842 389.938 186.78C390.609 186.717 391.131 186.427 391.505 185.911C391.883 185.395 392.037 184.765 391.967 184.021ZM401.579 183.058L396.307 183.554C396.405 184.383 396.689 185.004 397.159 185.416C397.63 185.828 398.239 185.998 398.988 185.928C399.829 185.849 400.576 185.499 401.228 184.878L401.334 186.001C400.723 186.539 399.877 186.859 398.798 186.961C397.743 187.06 396.883 186.8 396.216 186.181C395.549 185.558 395.158 184.631 395.042 183.401C394.933 182.239 395.172 181.263 395.76 180.472C396.352 179.675 397.136 179.231 398.113 179.139C399.09 179.047 399.876 179.292 400.47 179.874C401.065 180.455 401.415 181.308 401.52 182.431L401.579 183.058ZM400.259 182.159C400.189 181.47 399.971 180.948 399.604 180.595C399.242 180.242 398.77 180.093 398.186 180.148C397.622 180.201 397.162 180.447 396.807 180.888C396.451 181.329 396.257 181.879 396.226 182.539L400.259 182.159ZM403.241 186.094L403.12 184.811C403.817 185.231 404.556 185.404 405.339 185.33C406.389 185.231 406.881 184.832 406.815 184.132C406.797 183.932 406.735 183.769 406.629 183.642C406.529 183.509 406.395 183.396 406.23 183.304C406.069 183.211 405.88 183.133 405.663 183.07C405.451 183.002 405.221 182.933 404.974 182.863C404.632 182.763 404.327 182.659 404.062 182.552C403.802 182.439 403.578 182.308 403.393 182.159C403.211 182.004 403.067 181.824 402.959 181.618C402.856 181.412 402.792 181.166 402.765 180.879C402.732 180.529 402.783 180.213 402.918 179.93C403.053 179.643 403.245 179.397 403.496 179.192C403.746 178.982 404.037 178.814 404.368 178.69C404.705 178.565 405.055 178.486 405.42 178.451C406.066 178.39 406.655 178.448 407.187 178.623L407.301 179.834C406.718 179.526 406.069 179.405 405.354 179.473C405.131 179.494 404.931 179.539 404.756 179.61C404.581 179.675 404.432 179.761 404.31 179.865C404.192 179.97 404.103 180.091 404.042 180.229C403.986 180.362 403.965 180.506 403.98 180.661C403.998 180.856 404.048 181.016 404.128 181.14C404.213 181.265 404.329 181.372 404.475 181.461C404.62 181.55 404.794 181.627 404.997 181.691C405.199 181.756 405.428 181.825 405.686 181.899C406.028 181.994 406.337 182.097 406.612 182.209C406.887 182.315 407.125 182.445 407.326 182.598C407.526 182.745 407.685 182.924 407.803 183.134C407.925 183.343 408.001 183.598 408.029 183.9C408.064 184.269 408.012 184.598 407.872 184.886C407.737 185.173 407.542 185.419 407.287 185.625C407.032 185.83 406.731 185.993 406.384 186.114C406.037 186.235 405.67 186.314 405.281 186.351C404.513 186.423 403.833 186.337 403.241 186.094Z" fill="black"/>
<path d="M292.95 267.692L291.965 257.235L294.853 256.964C298.538 256.617 300.54 258.142 300.86 261.54C301.012 263.154 300.621 264.5 299.688 265.579C298.759 266.652 297.437 267.27 295.721 267.431L292.95 267.692ZM293.295 258.228L294.07 266.468L295.631 266.321C297.002 266.192 298.034 265.725 298.728 264.919C299.422 264.113 299.706 263.037 299.579 261.69C299.327 259.012 297.777 257.806 294.928 258.075L293.295 258.228ZM308.605 266.218L307.41 266.331L307.3 265.164L307.271 265.167C306.835 266.11 306.111 266.63 305.1 266.725C304.356 266.795 303.754 266.653 303.294 266.299C302.839 265.944 302.581 265.442 302.519 264.79C302.388 263.395 303.133 262.506 304.755 262.123L306.964 261.598C306.845 260.329 306.272 259.743 305.246 259.84C304.347 259.925 303.564 260.307 302.897 260.988L302.782 259.763C303.472 259.227 304.296 258.914 305.254 258.824C307.009 258.659 307.973 259.505 308.148 261.362L308.605 266.218ZM307.054 262.554L305.276 262.971C304.729 263.101 304.324 263.279 304.061 263.505C303.797 263.726 303.689 264.087 303.736 264.587C303.771 264.952 303.928 265.239 304.207 265.448C304.491 265.652 304.85 265.733 305.282 265.692C305.875 265.637 306.344 265.384 306.69 264.935C307.039 264.48 307.184 263.934 307.124 263.297L307.054 262.554ZM314.315 265.607C314.048 265.789 313.684 265.902 313.222 265.945C311.914 266.069 311.192 265.401 311.054 263.942L310.638 259.524L309.355 259.644L309.259 258.623L310.542 258.503L310.371 256.68L311.53 256.181L311.738 258.39L313.619 258.213L313.715 259.234L311.834 259.411L312.23 263.618C312.277 264.119 312.396 264.468 312.586 264.666C312.777 264.864 313.069 264.945 313.462 264.908C313.764 264.879 314.016 264.772 314.219 264.586L314.315 265.607ZM321.264 265.026L320.068 265.139L319.959 263.972L319.929 263.975C319.493 264.918 318.77 265.438 317.759 265.533C317.015 265.603 316.413 265.461 315.953 265.107C315.498 264.753 315.24 264.25 315.178 263.598C315.047 262.203 315.792 261.314 317.414 260.931L319.623 260.407C319.503 259.138 318.931 258.552 317.905 258.648C317.006 258.733 316.223 259.116 315.556 259.796L315.441 258.571C316.131 258.035 316.955 257.722 317.912 257.632C319.667 257.467 320.632 258.313 320.807 260.17L321.264 265.026ZM319.713 261.362L317.935 261.779C317.388 261.909 316.983 262.087 316.72 262.313C316.456 262.534 316.348 262.895 316.395 263.396C316.43 263.76 316.586 264.047 316.866 264.256C317.15 264.46 317.508 264.541 317.941 264.501C318.534 264.445 319.003 264.192 319.348 263.743C319.698 263.288 319.843 262.742 319.783 262.106L319.713 261.362ZM334.852 263.306C334.117 263.787 333.174 264.082 332.022 264.19C330.534 264.33 329.298 263.964 328.314 263.09C327.329 262.217 326.763 261.002 326.617 259.446C326.459 257.774 326.835 256.375 327.745 255.25C328.654 254.125 329.882 253.489 331.427 253.344C332.419 253.25 333.254 253.316 333.933 253.542L334.055 254.847C333.267 254.5 332.421 254.368 331.517 254.453C330.316 254.566 329.379 255.059 328.706 255.932C328.038 256.804 327.767 257.911 327.893 259.253C328.013 260.526 328.457 261.51 329.223 262.203C329.994 262.89 330.946 263.181 332.079 263.074C333.129 262.975 334.016 262.656 334.74 262.117L334.852 263.306ZM339.999 263.439C338.896 263.543 337.981 263.279 337.254 262.646C336.532 262.007 336.117 261.112 336.008 259.96C335.89 258.706 336.141 257.694 336.76 256.925C337.379 256.155 338.272 255.716 339.438 255.606C340.552 255.501 341.452 255.762 342.138 256.389C342.83 257.015 343.233 257.936 343.347 259.151C343.46 260.342 343.212 261.329 342.604 262.113C342 262.89 341.132 263.333 339.999 263.439ZM339.446 256.62C338.678 256.693 338.095 257.012 337.697 257.579C337.298 258.142 337.143 258.882 337.229 259.801C337.312 260.686 337.604 261.362 338.104 261.83C338.604 262.298 339.234 262.496 339.992 262.425C340.765 262.352 341.335 262.046 341.701 261.506C342.072 260.966 342.213 260.234 342.127 259.31C342.039 258.377 341.762 257.677 341.296 257.211C340.835 256.744 340.219 256.547 339.446 256.62ZM348.917 256.111C348.693 255.97 348.384 255.919 347.99 255.956C347.48 256.004 347.075 256.285 346.775 256.798C346.48 257.312 346.371 257.984 346.45 258.815L346.808 262.622L345.612 262.734L344.909 255.267L346.105 255.155L346.25 256.693L346.279 256.69C346.4 256.149 346.621 255.717 346.944 255.392C347.266 255.063 347.644 254.877 348.076 254.837C348.387 254.807 348.629 254.819 348.8 254.871L348.917 256.111ZM354.109 255.622C353.885 255.482 353.576 255.43 353.182 255.467C352.672 255.515 352.267 255.796 351.967 256.31C351.672 256.823 351.563 257.495 351.642 258.326L352 262.133L350.804 262.245L350.101 254.778L351.297 254.666L351.442 256.204L351.471 256.202C351.592 255.661 351.813 255.228 352.136 254.903C352.458 254.574 352.835 254.389 353.268 254.348C353.579 254.319 353.821 254.33 353.992 254.383L354.109 255.622ZM361.674 257.757L356.402 258.253C356.5 259.083 356.784 259.704 357.254 260.115C357.724 260.527 358.334 260.698 359.082 260.627C359.923 260.548 360.67 260.198 361.323 259.578L361.429 260.701C360.817 261.239 359.972 261.559 358.893 261.66C357.838 261.76 356.977 261.5 356.311 260.881C355.644 260.257 355.253 259.33 355.137 258.1C355.027 256.939 355.267 255.962 355.854 255.171C356.446 254.375 357.231 253.931 358.208 253.839C359.185 253.747 359.971 253.992 360.565 254.573C361.159 255.155 361.509 256.007 361.615 257.13L361.674 257.757ZM360.353 256.859C360.284 256.169 360.065 255.648 359.699 255.295C359.337 254.941 358.864 254.792 358.281 254.847C357.717 254.9 357.257 255.147 356.901 255.588C356.545 256.028 356.352 256.578 356.321 257.239L360.353 256.859ZM368.871 260.199C368.329 260.598 367.665 260.835 366.877 260.909C365.813 261.009 364.92 260.745 364.199 260.116C363.482 259.482 363.071 258.614 362.968 257.51C362.852 256.28 363.111 255.26 363.746 254.45C364.381 253.635 365.286 253.172 366.462 253.062C367.119 253 367.709 253.067 368.232 253.263L368.348 254.488C367.757 254.151 367.145 254.012 366.513 254.072C365.75 254.144 365.149 254.478 364.71 255.073C364.275 255.663 364.099 256.403 364.183 257.293C364.265 258.168 364.559 258.837 365.063 259.299C365.573 259.761 366.214 259.956 366.987 259.883C367.638 259.822 368.231 259.548 368.763 259.061L368.871 260.199ZM374.168 259.972C373.901 260.154 373.536 260.267 373.074 260.311C371.767 260.434 371.044 259.766 370.907 258.308L370.491 253.889L369.207 254.01L369.111 252.989L370.395 252.868L370.223 251.045L371.383 250.546L371.591 252.755L373.472 252.578L373.568 253.599L371.687 253.776L372.083 257.984C372.13 258.484 372.249 258.834 372.439 259.032C372.629 259.229 372.921 259.31 373.315 259.273C373.616 259.244 373.869 259.137 374.072 258.951L374.168 259.972ZM375.503 250.474C375.289 250.494 375.1 250.439 374.935 250.307C374.771 250.175 374.678 249.998 374.657 249.774C374.636 249.551 374.694 249.359 374.831 249.199C374.968 249.034 375.143 248.941 375.357 248.921C375.575 248.901 375.767 248.958 375.932 249.095C376.101 249.226 376.197 249.404 376.218 249.627C376.238 249.841 376.177 250.031 376.036 250.196C375.899 250.361 375.722 250.454 375.503 250.474ZM376.968 259.782L375.772 259.895L375.069 252.428L376.265 252.315L376.968 259.782ZM382.526 259.436C381.423 259.539 380.508 259.275 379.781 258.642C379.059 258.004 378.643 257.109 378.535 255.956C378.417 254.702 378.667 253.69 379.286 252.921C379.906 252.152 380.798 251.712 381.965 251.602C383.078 251.497 383.978 251.758 384.665 252.385C385.357 253.012 385.76 253.932 385.874 255.148C385.986 256.339 385.738 257.326 385.13 258.109C384.527 258.887 383.659 259.329 382.526 259.436ZM381.972 252.617C381.204 252.689 380.621 253.009 380.224 253.576C379.825 254.138 379.669 254.879 379.756 255.797C379.839 256.682 380.131 257.358 380.631 257.826C381.131 258.294 381.76 258.492 382.519 258.421C383.292 258.348 383.861 258.042 384.227 257.502C384.598 256.962 384.74 256.231 384.653 255.307C384.565 254.373 384.289 253.674 383.823 253.207C383.362 252.741 382.745 252.544 381.972 252.617ZM394.337 258.147L393.141 258.26L392.74 254.001C392.591 252.416 391.938 251.678 390.781 251.787C390.183 251.844 389.709 252.116 389.357 252.606C389.011 253.089 388.869 253.674 388.934 254.359L389.335 258.618L388.139 258.731L387.436 251.264L388.632 251.151L388.749 252.391L388.778 252.388C389.253 251.392 390.025 250.843 391.095 250.743C391.911 250.666 392.561 250.872 393.044 251.361C393.526 251.845 393.814 252.586 393.907 253.582L394.337 258.147ZM396.12 257.707L395.999 256.424C396.696 256.844 397.436 257.017 398.218 256.943C399.269 256.844 399.761 256.445 399.695 255.745C399.676 255.545 399.614 255.382 399.509 255.255C399.408 255.122 399.275 255.009 399.109 254.917C398.948 254.824 398.76 254.746 398.543 254.683C398.33 254.615 398.101 254.546 397.854 254.476C397.511 254.376 397.207 254.272 396.942 254.165C396.681 254.052 396.458 253.921 396.272 253.772C396.091 253.617 395.946 253.437 395.839 253.231C395.736 253.025 395.671 252.779 395.644 252.492C395.611 252.142 395.662 251.826 395.797 251.543C395.932 251.256 396.125 251.01 396.375 250.805C396.625 250.595 396.916 250.428 397.248 250.303C397.584 250.178 397.935 250.099 398.299 250.064C398.946 250.003 399.535 250.061 400.066 250.236L400.18 251.447C399.597 251.139 398.948 251.018 398.234 251.086C398.01 251.107 397.811 251.153 397.636 251.223C397.461 251.288 397.312 251.374 397.189 251.478C397.071 251.583 396.982 251.704 396.922 251.842C396.865 251.975 396.845 252.119 396.859 252.274C396.878 252.469 396.927 252.629 397.007 252.753C397.093 252.878 397.208 252.985 397.354 253.074C397.5 253.163 397.674 253.24 397.876 253.304C398.078 253.369 398.308 253.438 398.565 253.512C398.907 253.607 399.216 253.71 399.492 253.822C399.766 253.928 400.004 254.058 400.205 254.211C400.405 254.358 400.564 254.537 400.682 254.747C400.805 254.956 400.88 255.211 400.909 255.513C400.944 255.882 400.891 256.211 400.751 256.499C400.617 256.786 400.422 257.032 400.166 257.238C399.911 257.443 399.61 257.607 399.263 257.727C398.917 257.848 398.549 257.927 398.16 257.964C397.392 258.036 396.712 257.95 396.12 257.707Z" fill="black"/>
<path d="M263.427 274.471L254.881 268.2C254.151 267.663 253.993 266.636 254.529 265.905L255.629 264.406C256.166 263.675 257.193 263.517 257.924 264.053L263.649 268.254L274.38 255.384C274.916 254.653 275.944 254.496 276.675 255.032L278.174 256.132C278.905 256.668 279.063 257.696 278.526 258.427L265.724 274.118C265.186 274.849 264.158 275.007 263.427 274.471Z" fill="#0078D4"/>
<path d="M299.007 337.666L298.871 336.222C299.05 336.353 299.259 336.465 299.499 336.561C299.743 336.655 299.996 336.732 300.256 336.791C300.521 336.844 300.785 336.881 301.046 336.9C301.308 336.92 301.548 336.919 301.767 336.899C302.521 336.828 303.069 336.636 303.412 336.325C303.76 336.007 303.909 335.586 303.86 335.061C303.833 334.779 303.747 334.54 303.601 334.343C303.46 334.145 303.272 333.971 303.037 333.822C302.802 333.667 302.526 333.527 302.21 333.399C301.899 333.267 301.562 333.129 301.2 332.987C300.818 332.837 300.46 332.681 300.127 332.522C299.793 332.362 299.498 332.179 299.243 331.972C298.989 331.765 298.78 331.525 298.617 331.251C298.458 330.972 298.36 330.638 298.324 330.249C298.279 329.772 298.344 329.349 298.52 328.98C298.696 328.605 298.943 328.288 299.262 328.027C299.581 327.767 299.951 327.56 300.373 327.408C300.8 327.255 301.24 327.157 301.692 327.114C302.723 327.017 303.485 327.07 303.98 327.274L304.11 328.652C303.452 328.282 302.64 328.143 301.672 328.234C301.405 328.259 301.14 328.314 300.879 328.397C300.616 328.476 300.386 328.588 300.189 328.734C299.992 328.88 299.837 329.059 299.725 329.271C299.612 329.483 299.57 329.732 299.597 330.019C299.622 330.286 299.692 330.512 299.808 330.698C299.928 330.883 300.093 331.046 300.303 331.188C300.512 331.33 300.763 331.464 301.054 331.588C301.35 331.712 301.689 331.847 302.07 331.993C302.462 332.142 302.835 332.303 303.19 332.476C303.545 332.649 303.86 332.847 304.136 333.071C304.412 333.295 304.637 333.551 304.812 333.839C304.991 334.126 305.099 334.464 305.135 334.853C305.184 335.368 305.123 335.815 304.952 336.194C304.787 336.568 304.542 336.883 304.217 337.139C303.898 337.395 303.52 337.592 303.081 337.731C302.644 337.876 302.177 337.971 301.681 338.018C301.516 338.033 301.31 338.038 301.065 338.032C300.819 338.03 300.568 338.015 300.31 337.985C300.052 337.96 299.806 337.922 299.571 337.871C299.34 337.814 299.152 337.746 299.007 337.666ZM312.987 333.312L307.715 333.808C307.812 334.638 308.096 335.258 308.567 335.67C309.037 336.082 309.647 336.253 310.395 336.182C311.236 336.103 311.983 335.753 312.636 335.133L312.742 336.255C312.13 336.794 311.285 337.114 310.206 337.215C309.151 337.314 308.29 337.055 307.624 336.436C306.957 335.812 306.565 334.885 306.45 333.655C306.34 332.493 306.579 331.517 307.167 330.726C307.759 329.93 308.544 329.485 309.521 329.393C310.498 329.301 311.283 329.546 311.878 330.128C312.472 330.709 312.822 331.562 312.928 332.685L312.987 333.312ZM311.666 332.414C311.596 331.724 311.378 331.202 311.011 330.849C310.649 330.496 310.177 330.347 309.594 330.402C309.03 330.455 308.57 330.702 308.214 331.142C307.858 331.583 307.665 332.133 307.634 332.793L311.666 332.414ZM318.583 336.176C318.315 336.359 317.951 336.471 317.489 336.515C316.181 336.638 315.459 335.97 315.321 334.512L314.905 330.093L313.622 330.214L313.526 329.193L314.809 329.072L314.638 327.249L315.797 326.75L316.005 328.959L317.886 328.782L317.983 329.803L316.101 329.98L316.497 334.188C316.544 334.689 316.663 335.038 316.853 335.236C317.044 335.434 317.336 335.514 317.73 335.477C318.031 335.449 318.283 335.341 318.486 335.156L318.583 336.176ZM328.873 325.85L324.79 326.234L325.13 329.851L328.908 329.496L329.011 330.597L325.234 330.952L325.67 335.583L324.445 335.698L323.46 325.241L328.769 324.742L328.873 325.85ZM337.549 323.915L334.72 330.832L335.084 334.696L333.859 334.812L333.498 330.976L329.513 324.672L330.906 324.54L333.691 329.045C333.726 329.101 333.831 329.307 334.007 329.663L334.029 329.661C334.062 329.491 334.134 329.268 334.245 328.993L336.251 324.037L337.549 323.915ZM351.165 332.741C350.431 333.222 349.487 333.517 348.335 333.626C346.848 333.766 345.612 333.399 344.627 332.525C343.642 331.652 343.077 330.437 342.93 328.882C342.773 327.209 343.149 325.811 344.058 324.685C344.967 323.56 346.195 322.925 347.741 322.779C348.733 322.686 349.568 322.752 350.246 322.977L350.369 324.282C349.581 323.935 348.735 323.804 347.831 323.889C346.63 324.002 345.693 324.495 345.02 325.367C344.352 326.239 344.081 327.346 344.207 328.688C344.327 329.962 344.77 330.945 345.537 331.638C346.308 332.325 347.259 332.616 348.392 332.509C349.442 332.41 350.329 332.092 351.053 331.553L351.165 332.741ZM356.313 332.874C355.209 332.978 354.294 332.714 353.568 332.081C352.845 331.443 352.43 330.547 352.322 329.395C352.204 328.141 352.454 327.129 353.073 326.36C353.692 325.59 354.585 325.151 355.752 325.041C356.865 324.936 357.765 325.197 358.452 325.824C359.143 326.451 359.546 327.371 359.661 328.587C359.773 329.778 359.525 330.765 358.917 331.548C358.314 332.326 357.445 332.768 356.313 332.874ZM355.759 326.056C354.991 326.128 354.408 326.448 354.01 327.015C353.612 327.577 353.456 328.317 353.543 329.236C353.626 330.121 353.918 330.797 354.418 331.265C354.918 331.733 355.547 331.931 356.305 331.86C357.078 331.787 357.648 331.481 358.014 330.941C358.385 330.401 358.527 329.669 358.44 328.746C358.352 327.812 358.075 327.113 357.61 326.646C357.149 326.18 356.532 325.983 355.759 326.056ZM368.124 331.586L366.928 331.699L366.527 327.44C366.378 325.855 365.725 325.117 364.568 325.226C363.97 325.283 363.495 325.555 363.144 326.044C362.797 326.528 362.656 327.113 362.721 327.798L363.122 332.057L361.926 332.169L361.223 324.703L362.419 324.59L362.535 325.83L362.564 325.827C363.04 324.831 363.812 324.282 364.881 324.182C365.698 324.105 366.348 324.311 366.83 324.8C367.312 325.284 367.6 326.025 367.694 327.021L368.124 331.586ZM373.841 330.974C373.574 331.156 373.209 331.269 372.747 331.313C371.44 331.436 370.717 330.768 370.58 329.31L370.164 324.891L368.881 325.011L368.784 323.991L370.068 323.87L369.896 322.047L371.056 321.548L371.264 323.757L373.145 323.58L373.241 324.601L371.36 324.778L371.756 328.986C371.803 329.486 371.922 329.836 372.112 330.033C372.302 330.231 372.594 330.312 372.988 330.275C373.29 330.246 373.542 330.139 373.745 329.953L373.841 330.974ZM381.123 326.897L375.851 327.394C375.949 328.223 376.233 328.844 376.703 329.255C377.173 329.667 377.783 329.838 378.531 329.768C379.372 329.688 380.119 329.338 380.772 328.718L380.878 329.841C380.266 330.379 379.421 330.699 378.342 330.801C377.287 330.9 376.426 330.64 375.76 330.021C375.093 329.397 374.702 328.47 374.586 327.24C374.476 326.079 374.716 325.102 375.303 324.311C375.895 323.515 376.68 323.071 377.657 322.979C378.634 322.887 379.42 323.132 380.014 323.713C380.608 324.295 380.958 325.147 381.064 326.27L381.123 326.897ZM379.802 325.999C379.733 325.309 379.514 324.788 379.148 324.435C378.786 324.081 378.313 323.932 377.73 323.987C377.166 324.04 376.706 324.287 376.35 324.728C375.994 325.168 375.801 325.718 375.77 326.379L379.802 325.999ZM388.013 322.18L385.861 326.194L388.673 329.651L387.28 329.783L385.586 327.5C385.48 327.358 385.352 327.178 385.205 326.962L385.175 326.964C385.155 327.011 385.059 327.211 384.886 327.566L383.619 330.127L382.241 330.257L384.441 326.357L381.647 322.78L383.04 322.649L384.724 325.065C384.849 325.244 384.972 325.429 385.093 325.619L385.122 325.616L386.694 322.305L388.013 322.18ZM393.573 329.117C393.306 329.299 392.941 329.411 392.48 329.455C391.172 329.578 390.449 328.91 390.312 327.452L389.896 323.033L388.613 323.154L388.517 322.133L389.8 322.012L389.628 320.189L390.788 319.69L390.996 321.9L392.877 321.722L392.973 322.743L391.092 322.92L391.488 327.128C391.535 327.629 391.654 327.978 391.844 328.176C392.034 328.374 392.326 328.454 392.72 328.417C393.022 328.389 393.274 328.282 393.477 328.096L393.573 329.117Z" fill="black"/>
<path d="M271.355 345.476L262.809 339.204C262.079 338.668 261.921 337.64 262.457 336.91L263.557 335.411C264.093 334.68 265.121 334.522 265.852 335.058L271.576 339.259L282.308 326.389C282.844 325.658 283.872 325.5 284.603 326.037L286.102 327.137C286.832 327.673 286.99 328.701 286.454 329.431L273.652 345.123C273.114 345.854 272.086 346.012 271.355 345.476Z" fill="#0078D4"/>
<path d="M318.46 403.736L317.242 403.851L316.582 396.836C316.53 396.282 316.5 395.6 316.492 394.792L316.463 394.795C316.391 395.277 316.318 395.625 316.245 395.838L313.429 404.21L312.831 404.266L308.514 396.625C308.39 396.401 308.252 396.053 308.099 395.582L308.07 395.585C308.148 395.999 308.232 396.68 308.321 397.628L308.98 404.629L307.799 404.74L306.815 394.283L308.434 394.131L312.329 401.121C312.629 401.656 312.829 402.059 312.928 402.33L312.972 402.326C313.127 401.732 313.254 401.289 313.354 400.995L315.944 393.424L317.476 393.28L318.46 403.736ZM326.401 402.989L325.205 403.101L325.095 401.935L325.066 401.937C324.63 402.881 323.907 403.4 322.895 403.495C322.152 403.565 321.55 403.423 321.09 403.069C320.635 402.715 320.376 402.212 320.315 401.561C320.184 400.165 320.929 399.276 322.55 398.893L324.76 398.369C324.64 397.1 324.068 396.514 323.042 396.61C322.142 396.695 321.359 397.078 320.693 397.758L320.577 396.533C321.268 395.998 322.091 395.685 323.049 395.595C324.804 395.429 325.769 396.275 325.944 398.132L326.401 402.989ZM324.85 399.324L323.072 399.742C322.525 399.871 322.12 400.049 321.857 400.275C321.593 400.496 321.485 400.857 321.532 401.358C321.566 401.722 321.723 402.009 322.003 402.218C322.287 402.422 322.645 402.504 323.078 402.463C323.671 402.407 324.14 402.154 324.485 401.705C324.835 401.25 324.979 400.705 324.92 400.068L324.85 399.324ZM334.852 402.193L333.175 402.351L329.542 399.074L329.512 399.076L329.85 402.664L328.654 402.777L327.613 391.722L328.809 391.609L329.469 398.617L329.498 398.614L332.312 394.899L333.88 394.751L330.755 398.68L334.852 402.193ZM341.755 398.078L336.483 398.575C336.581 399.404 336.865 400.025 337.335 400.436C337.806 400.848 338.415 401.019 339.164 400.948C340.005 400.869 340.752 400.519 341.404 399.899L341.51 401.022C340.899 401.56 340.053 401.88 338.974 401.982C337.919 402.081 337.059 401.821 336.392 401.202C335.725 400.578 335.334 399.651 335.218 398.421C335.109 397.26 335.348 396.283 335.936 395.492C336.528 394.696 337.312 394.252 338.289 394.16C339.267 394.068 340.052 394.313 340.646 394.894C341.241 395.476 341.591 396.328 341.696 397.451L341.755 398.078ZM340.435 397.18C340.365 396.49 340.147 395.969 339.78 395.616C339.418 395.262 338.946 395.113 338.362 395.168C337.798 395.221 337.338 395.468 336.983 395.909C336.627 396.349 336.434 396.899 336.402 397.56L340.435 397.18ZM355.229 399.833C354.494 400.314 353.551 400.609 352.399 400.718C350.911 400.858 349.675 400.491 348.69 399.618C347.706 398.744 347.14 397.53 346.994 395.974C346.836 394.302 347.212 392.903 348.122 391.777C349.031 390.652 350.258 390.017 351.804 389.871C352.796 389.778 353.631 389.844 354.31 390.069L354.432 391.375C353.644 391.027 352.798 390.896 351.894 390.981C350.693 391.094 349.756 391.587 349.083 392.459C348.415 393.332 348.144 394.438 348.27 395.78C348.39 397.054 348.833 398.037 349.6 398.73C350.371 399.418 351.323 399.708 352.456 399.602C353.506 399.503 354.393 399.184 355.117 398.645L355.229 399.833ZM360.376 399.967C359.273 400.071 358.358 399.806 357.631 399.173C356.909 398.535 356.494 397.64 356.385 396.488C356.267 395.233 356.518 394.222 357.137 393.452C357.756 392.683 358.649 392.243 359.815 392.133C360.929 392.028 361.829 392.289 362.515 392.916C363.207 393.543 363.61 394.464 363.724 395.679C363.837 396.87 363.589 397.857 362.981 398.64C362.377 399.418 361.509 399.86 360.376 399.967ZM359.823 393.148C359.054 393.22 358.471 393.54 358.074 394.107C357.675 394.669 357.52 395.41 357.606 396.328C357.689 397.213 357.981 397.89 358.481 398.357C358.981 398.825 359.611 399.024 360.369 398.952C361.142 398.879 361.711 398.573 362.078 398.034C362.448 397.493 362.59 396.762 362.503 395.838C362.416 394.905 362.139 394.205 361.673 393.739C361.212 393.272 360.595 393.075 359.823 393.148ZM372.187 398.678L370.991 398.791L370.591 394.532C370.441 392.947 369.788 392.21 368.631 392.318C368.033 392.375 367.559 392.647 367.208 393.137C366.861 393.621 366.72 394.205 366.784 394.891L367.185 399.149L365.989 399.262L365.286 391.795L366.482 391.682L366.599 392.922L366.628 392.919C367.103 391.923 367.875 391.374 368.945 391.274C369.762 391.197 370.411 391.403 370.894 391.892C371.376 392.376 371.664 393.117 371.758 394.113L372.187 398.678ZM379.615 390.446L377.343 398.193L376.169 398.303L372.636 391.103L373.949 390.979L376.356 396.226C376.534 396.611 376.654 396.951 376.716 397.244L376.746 397.241C376.759 396.862 376.805 396.517 376.883 396.206L378.353 390.565L379.615 390.446ZM387.287 393.792L382.014 394.288C382.112 395.118 382.396 395.738 382.866 396.15C383.337 396.562 383.946 396.732 384.695 396.662C385.536 396.583 386.283 396.233 386.936 395.612L387.041 396.735C386.43 397.274 385.585 397.593 384.505 397.695C383.45 397.794 382.59 397.535 381.923 396.916C381.256 396.292 380.865 395.365 380.749 394.135C380.64 392.973 380.879 391.997 381.467 391.206C382.059 390.409 382.843 389.965 383.82 389.873C384.798 389.781 385.583 390.026 386.178 390.608C386.772 391.189 387.122 392.042 387.227 393.165L387.287 393.792ZM385.966 392.893C385.896 392.204 385.678 391.682 385.311 391.329C384.949 390.976 384.477 390.827 383.893 390.882C383.329 390.935 382.87 391.182 382.514 391.622C382.158 392.063 381.965 392.613 381.934 393.273L385.966 392.893ZM392.73 390.432C392.506 390.291 392.197 390.24 391.804 390.277C391.293 390.325 390.888 390.606 390.588 391.119C390.293 391.633 390.185 392.305 390.263 393.136L390.621 396.943L389.426 397.055L388.723 389.588L389.918 389.476L390.063 391.014L390.092 391.012C390.213 390.471 390.435 390.038 390.757 389.713C391.079 389.384 391.457 389.198 391.89 389.158C392.201 389.128 392.442 389.14 392.614 389.193L392.73 390.432ZM394.14 396.339L394.019 395.056C394.716 395.476 395.456 395.649 396.238 395.575C397.288 395.476 397.78 395.077 397.714 394.377C397.696 394.178 397.634 394.014 397.528 393.887C397.428 393.754 397.295 393.642 397.129 393.549C396.968 393.457 396.779 393.379 396.563 393.316C396.35 393.247 396.12 393.178 395.874 393.108C395.531 393.008 395.227 392.904 394.961 392.797C394.701 392.684 394.477 392.553 394.292 392.404C394.11 392.249 393.966 392.069 393.858 391.864C393.756 391.657 393.691 391.411 393.664 391.124C393.631 390.774 393.682 390.458 393.817 390.175C393.952 389.888 394.145 389.642 394.395 389.437C394.645 389.227 394.936 389.06 395.267 388.935C395.604 388.811 395.954 388.731 396.319 388.697C396.965 388.636 397.554 388.693 398.086 388.869L398.2 390.079C397.617 389.771 396.968 389.651 396.253 389.718C396.03 389.739 395.83 389.785 395.656 389.855C395.48 389.921 395.331 390.006 395.209 390.111C395.091 390.215 395.002 390.336 394.941 390.474C394.885 390.607 394.864 390.751 394.879 390.907C394.897 391.101 394.947 391.261 395.027 391.386C395.112 391.51 395.228 391.617 395.374 391.706C395.519 391.795 395.693 391.872 395.896 391.937C396.098 392.001 396.328 392.07 396.585 392.144C396.927 392.239 397.236 392.343 397.511 392.454C397.786 392.56 398.024 392.69 398.225 392.843C398.425 392.991 398.584 393.17 398.702 393.379C398.825 393.588 398.9 393.844 398.928 394.145C398.963 394.514 398.911 394.843 398.771 395.131C398.636 395.418 398.441 395.665 398.186 395.87C397.931 396.076 397.63 396.239 397.283 396.36C396.936 396.481 396.569 396.559 396.18 396.596C395.412 396.668 394.732 396.583 394.14 396.339ZM406.306 395.466L405.111 395.579L405.001 394.412L404.972 394.415C404.536 395.358 403.812 395.877 402.801 395.973C402.057 396.043 401.455 395.901 400.995 395.547C400.54 395.192 400.282 394.689 400.221 394.038C400.089 392.643 400.834 391.754 402.456 391.37L404.665 390.846C404.546 389.577 403.973 388.991 402.947 389.088C402.048 389.172 401.265 389.555 400.598 390.236L400.483 389.011C401.173 388.475 401.997 388.162 402.955 388.072C404.71 387.907 405.674 388.753 405.849 390.61L406.306 395.466ZM404.755 391.801L402.977 392.219C402.43 392.349 402.025 392.527 401.762 392.753C401.498 392.974 401.39 393.334 401.437 393.835C401.472 394.2 401.629 394.487 401.908 394.696C402.192 394.899 402.551 394.981 402.983 394.94C403.576 394.884 404.045 394.632 404.391 394.182C404.74 393.728 404.885 393.182 404.825 392.545L404.755 391.801ZM412.017 394.855C411.749 395.037 411.385 395.15 410.923 395.193C409.615 395.316 408.893 394.649 408.755 393.19L408.339 388.771L407.056 388.892L406.96 387.871L408.243 387.751L408.072 385.928L409.231 385.429L409.439 387.638L411.32 387.461L411.417 388.482L409.535 388.659L409.931 392.866C409.978 393.367 410.097 393.716 410.287 393.914C410.478 394.112 410.77 394.193 411.163 394.155C411.465 394.127 411.717 394.02 411.92 393.834L412.017 394.855ZM413.351 385.357C413.137 385.377 412.948 385.321 412.784 385.19C412.619 385.058 412.527 384.88 412.506 384.657C412.485 384.433 412.543 384.241 412.68 384.081C412.816 383.916 412.991 383.824 413.205 383.804C413.424 383.783 413.616 383.841 413.781 383.978C413.95 384.109 414.045 384.286 414.066 384.51C414.086 384.724 414.026 384.913 413.884 385.079C413.748 385.244 413.57 385.336 413.351 385.357ZM414.816 394.665L413.62 394.778L412.917 387.311L414.113 387.198L414.816 394.665ZM420.375 394.318C419.271 394.422 418.356 394.158 417.629 393.525C416.907 392.886 416.492 391.991 416.383 390.839C416.265 389.585 416.516 388.573 417.135 387.804C417.754 387.034 418.647 386.595 419.814 386.485C420.927 386.38 421.827 386.641 422.514 387.268C423.205 387.894 423.608 388.815 423.723 390.03C423.835 391.221 423.587 392.209 422.979 392.992C422.375 393.769 421.507 394.212 420.375 394.318ZM419.821 387.499C419.053 387.572 418.47 387.891 418.072 388.458C417.674 389.021 417.518 389.761 417.604 390.68C417.688 391.565 417.979 392.241 418.48 392.709C418.98 393.177 419.609 393.375 420.367 393.304C421.14 393.231 421.71 392.925 422.076 392.385C422.447 391.845 422.589 391.113 422.502 390.19C422.414 389.256 422.137 388.556 421.672 388.09C421.211 387.623 420.594 387.426 419.821 387.499ZM432.186 393.03L430.99 393.142L430.589 388.884C430.44 387.299 429.787 386.561 428.63 386.67C428.032 386.726 427.557 386.999 427.206 387.488C426.859 387.972 426.718 388.557 426.782 389.242L427.183 393.501L425.988 393.613L425.285 386.146L426.48 386.034L426.597 387.273L426.626 387.271C427.101 386.274 427.874 385.726 428.943 385.625C429.76 385.548 430.41 385.754 430.892 386.244C431.374 386.728 431.662 387.468 431.756 388.465L432.186 393.03ZM433.969 392.59L433.848 391.306C434.545 391.726 435.284 391.899 436.067 391.826C437.117 391.727 437.609 391.327 437.543 390.627C437.524 390.428 437.462 390.265 437.357 390.137C437.256 390.004 437.123 389.892 436.958 389.8C436.797 389.707 436.608 389.629 436.391 389.566C436.179 389.498 435.949 389.429 435.702 389.359C435.359 389.259 435.055 389.155 434.79 389.047C434.529 388.935 434.306 388.804 434.121 388.654C433.939 388.5 433.795 388.32 433.687 388.114C433.584 387.908 433.519 387.661 433.492 387.375C433.459 387.024 433.511 386.708 433.646 386.426C433.781 386.138 433.973 385.892 434.224 385.687C434.474 385.477 434.765 385.31 435.096 385.186C435.433 385.061 435.783 384.981 436.148 384.947C436.794 384.886 437.383 384.943 437.915 385.119L438.029 386.329C437.446 386.021 436.797 385.901 436.082 385.968C435.858 385.989 435.659 386.035 435.484 386.106C435.309 386.171 435.16 386.256 435.038 386.361C434.92 386.465 434.831 386.586 434.77 386.725C434.714 386.857 434.693 387.002 434.708 387.157C434.726 387.352 434.776 387.511 434.856 387.636C434.941 387.76 435.057 387.867 435.202 387.957C435.348 388.046 435.522 388.123 435.724 388.187C435.927 388.251 436.156 388.32 436.413 388.394C436.756 388.49 437.065 388.593 437.34 388.704C437.615 388.811 437.853 388.94 438.053 389.093C438.254 389.241 438.413 389.42 438.531 389.629C438.653 389.839 438.729 390.094 438.757 390.395C438.792 390.765 438.74 391.093 438.6 391.381C438.465 391.669 438.27 391.915 438.015 392.12C437.759 392.326 437.459 392.489 437.112 392.61C436.765 392.731 436.397 392.81 436.009 392.846C435.24 392.919 434.561 392.833 433.969 392.59Z" fill="black"/>
<path d="M278.715 411.519L270.169 405.247C269.438 404.711 269.28 403.683 269.816 402.953L270.917 401.453C271.453 400.723 272.481 400.565 273.211 401.101L278.936 405.302L289.667 392.432C290.203 391.701 291.231 391.543 291.962 392.08L293.461 393.18C294.192 393.716 294.35 394.744 293.814 395.474L281.012 411.166C280.473 411.897 279.445 412.055 278.715 411.519Z" fill="#0078D4"/>
<path d="M275.804 87.7239L412.366 74.8804L436.472 116.892L259.97 133.492L275.804 87.7239Z" fill="#D6D6D6"/>
<path d="M263.14 124.376L431.654 108.528L436.472 116.892L259.97 133.492L263.14 124.376Z" fill="#C8C6C4"/>
<ellipse cx="26.0373" cy="26.0115" rx="26.0373" ry="26.0115" transform="matrix(0.995607 -0.0936359 0.0938228 0.995589 315.483 55.3389)" fill="#E1DFDD"/>
</g>
</g>
<defs>
<filter id="filter0_f_2741_51100" x="197.551" y="93.6172" width="332.679" height="365.883" filterUnits="userSpaceOnUse" color-interpolation-filters="sRGB">
<feFlood flood-opacity="0" result="BackgroundImageFix"/>
<feBlend mode="normal" in="SourceGraphic" in2="BackgroundImageFix" result="shape"/>
<feGaussianBlur stdDeviation="2" result="effect1_foregroundBlur_2741_51100"/>
</filter>
<linearGradient id="paint0_linear_2741_51100" x1="539.972" y1="0" x2="539.972" y2="458" gradientUnits="userSpaceOnUse">
<stop stop-color="white"/>
<stop offset="1" stop-color="#E7E7E7"/>
</linearGradient>
<linearGradient id="paint1_linear_2741_51100" x1="540" y1="0" x2="540" y2="457.467" gradientUnits="userSpaceOnUse">
<stop stop-color="white"/>
<stop offset="1" stop-color="#EFF9F9"/>
</linearGradient>
<radialGradient id="paint2_radial_2741_51100" cx="0" cy="0" r="1" gradientUnits="userSpaceOnUse" gradientTransform="translate(867.113 446.23) rotate(-150.507) scale(62.2245 103.503)">
<stop stop-color="#E3646A"/>
<stop offset="0.1311" stop-color="#E97C58"/>
<stop offset="0.292" stop-color="#EE9248"/>
<stop offset="0.4682" stop-color="#F2A23C"/>
<stop offset="0.6694" stop-color="#F4AB35"/>
<stop offset="0.9509" stop-color="#F5AE33"/>
</radialGradient>
<radialGradient id="paint3_radial_2741_51100" cx="0" cy="0" r="1" gradientUnits="userSpaceOnUse" gradientTransform="translate(840.218 303.189) scale(37.6877 42.0849)">
<stop stop-color="#9B643D"/>
<stop offset="1" stop-color="#BF8F68"/>
</radialGradient>
<radialGradient id="paint4_radial_2741_51100" cx="0" cy="0" r="1" gradientUnits="userSpaceOnUse" gradientTransform="translate(840.523 298.728) rotate(0.510311) scale(11.4939 7.29333)">
<stop stop-color="#9B643D"/>
<stop offset="1" stop-color="#BF8F68"/>
</radialGradient>
<clipPath id="clip0_2741_51100">
<rect width="1080" height="458" fill="white"/>
</clipPath>
</defs>
</svg>
