<svg width="16" height="16" viewBox="0 0 16 16" fill="none" xmlns="http://www.w3.org/2000/svg">
<path fill-rule="evenodd" clip-rule="evenodd" d="M5.48629 1.00117H5.49656L5.50682 1.00096C7.13837 0.967458 8.54436 1.8198 9.31411 3.109C6.85126 3.61395 5.05896 5.80751 5.05896 8.40252C5.05896 8.89746 5.12541 9.37696 5.24991 9.83262C4.96506 9.82412 4.73642 9.79747 4.49188 9.73828L4.15015 9.65556L2.34524 10.5024L2.9216 9.10226L2.41809 8.63025C1.55275 7.81903 1 6.64137 1 5.37139C1 2.94935 2.99937 1.00117 5.48629 1.00117ZM5.63432 10.8339C5.58514 10.8352 5.53579 10.8358 5.48629 10.8358C5.04089 10.8358 4.67102 10.8105 4.25661 10.7102L0.441426 12.5003L1.73417 9.3598C0.677186 8.36893 0 6.93123 0 5.37139C0 2.37082 2.47371 0.00117487 5.48629 0.00117487C7.66727 -0.0436145 9.51155 1.19643 10.3903 2.99973C10.4313 2.99966 10.4725 3.00005 10.5137 3.00089C13.5263 3.00089 16 5.37053 16 8.37111C16 9.93094 15.3228 11.3687 14.2658 12.3595L15.5586 15.5L11.7434 13.7099C11.329 13.8102 10.9591 13.8355 10.5137 13.8355C8.37865 13.8355 6.53008 12.6138 5.63432 10.8339ZM6.29315 9.76335C6.39889 10.0929 6.54218 10.4057 6.718 10.6967L6.70336 10.7001C7.08278 11.322 7.61165 11.8439 8.24073 12.216C8.91315 12.6205 9.70142 12.8533 10.5443 12.8533C11.0007 12.8533 11.4412 12.785 11.8559 12.6581L13.6548 13.5021L13.0784 12.102L13.2383 11.9521C14.3125 11.1405 15.0064 9.85543 15.0064 8.40893C15.0064 5.9544 13.0086 3.96461 10.5443 3.96461C10.1169 3.96461 9.70362 4.02444 9.31233 4.13615C7.4218 4.62188 6.05896 6.34833 6.05896 8.40252C6.05896 8.87832 6.13438 9.33684 6.27402 9.76679L6.29315 9.76335ZM11.0843 11.0401V12.0592H10.0611V11.0401H11.0843ZM9.62947 6.56569C9.57615 6.68776 9.54952 6.82048 9.54952 6.96375H8.52637C8.53171 6.67716 8.58497 6.41176 8.68625 6.16762C8.78748 5.92347 8.93405 5.70851 9.12586 5.52274C9.31772 5.33697 9.53621 5.19099 9.78133 5.08484C10.0265 4.97869 10.2902 4.92561 10.5727 4.92561C10.8604 4.93092 11.1269 4.98399 11.372 5.08484C11.6172 5.18569 11.833 5.33164 12.0195 5.52274C12.206 5.71379 12.3525 5.93141 12.4591 6.17555C12.5657 6.41975 12.619 6.68249 12.619 6.96375C12.6136 7.21323 12.5764 7.42818 12.5071 7.60868C12.4378 7.78913 12.3392 7.96164 12.2113 8.12616C12.0835 8.29068 11.9422 8.44466 11.7877 8.58793C11.6332 8.73125 11.476 8.88251 11.3161 9.04176C11.2041 9.15323 11.1376 9.26998 11.1162 9.39205C11.0949 9.51412 11.0843 9.64419 11.0843 9.78218V10.021H10.0611V9.63886C10.0505 9.38939 10.0877 9.17177 10.173 8.986C10.2583 8.80022 10.3542 8.63304 10.4608 8.48444C10.5673 8.33585 10.6899 8.20312 10.8284 8.08638C10.967 7.96957 11.0922 7.85283 11.2041 7.73603C11.3161 7.61928 11.4093 7.49987 11.4839 7.3778C11.5585 7.25573 11.5958 7.11768 11.5958 6.96375C11.6012 6.82576 11.5745 6.69309 11.5159 6.56569C11.4573 6.43829 11.3827 6.32953 11.2921 6.23925C11.2015 6.14903 11.0949 6.0774 10.9723 6.0243C10.8498 5.97125 10.7166 5.94467 10.5727 5.94467C10.4341 5.9394 10.3009 5.96592 10.173 6.0243C10.0451 6.08267 9.93587 6.15702 9.84528 6.24724C9.7547 6.33747 9.68272 6.44361 9.62947 6.56569Z" fill="#323130"/>
</svg>
