<svg xmlns="http://www.w3.org/2000/svg" width="24" height="24" viewBox="0 0 24 24" fill="none">
<path d="M4.00031 4.13188C4.78888 2.96535 5.88549 2.00079 7.37517 2.00079H14.6039C15.6741 2.00079 16.424 2.38592 16.931 3.03032C17.3775 3.59779 17.5904 4.32174 17.7551 4.88133L17.7657 4.91746C17.952 5.55028 18.0902 5.99786 18.3278 6.31296C18.5002 6.54162 18.7496 6.73208 19.2872 6.75537H19.5468C20.6973 6.75537 21.6043 7.08575 22.209 7.77929C22.7948 8.45116 22.9827 9.33617 22.9951 10.2045C23.0196 11.9161 22.3586 14.0347 21.8378 15.7039L21.8362 15.709C21.3807 17.1692 20.7928 18.6948 19.9996 19.8681C19.211 21.0347 18.1144 21.9992 16.6248 21.9992H9.39598L9.39019 21.9992C8.32311 21.9978 7.57504 21.6129 7.06897 20.9697C6.6225 20.4022 6.40954 19.6783 6.24492 19.1187L6.23429 19.0825C6.04799 18.4497 5.90977 18.0021 5.67219 17.687C5.49983 17.4584 5.25052 17.268 4.7132 17.2446H4.45308C3.30262 17.2446 2.39564 16.9143 1.79094 16.2207C1.20514 15.5489 1.01724 14.6638 1.00481 13.7955C0.980312 12.0839 1.6413 9.96532 2.16208 8.29611L2.16369 8.29097C2.61926 6.83079 3.20712 5.30525 4.00031 4.13188ZM9.47727 15.7422H10.4569C11.4135 15.7422 12.257 15.1148 12.532 14.1985L13.0163 12.5854C13.3669 11.408 13.6976 10.2903 13.9638 9.38812C14.0863 8.97313 14.2774 8.59269 14.5227 8.25776H13.5431C12.5864 8.25776 11.743 8.8852 11.4679 9.80149L10.9835 11.4154L10.9813 11.4224C10.6315 12.597 10.3017 13.7117 10.0361 14.6119C9.91367 15.0269 9.72252 15.4073 9.47727 15.7422ZM14.4286 3.51135C14.2512 3.53219 14.0699 3.58301 13.9061 3.65616C13.6784 3.75782 13.5472 3.87383 13.5002 3.93828L13.4959 3.94403C13.2941 4.22226 13.1058 4.61576 12.9118 5.13951C12.7294 5.63197 12.5577 6.19445 12.3643 6.8281L12.322 6.96681C12.7065 6.8309 13.1182 6.75776 13.5431 6.75776H16.844C16.6108 6.30933 16.468 5.82265 16.3498 5.41962L16.3268 5.34109C16.1428 4.71614 15.9977 4.26999 15.7521 3.95782C15.5574 3.71029 15.2611 3.50079 14.6039 3.50079C14.5465 3.50079 14.4878 3.50441 14.4286 3.51135ZM11.0881 18.8605C11.2705 18.368 11.4422 17.8056 11.6356 17.1719L11.678 17.0332C11.2934 17.1691 10.8817 17.2422 10.4569 17.2422H7.15596C7.38923 17.6907 7.53197 18.1773 7.65017 18.5804L7.67323 18.6589C7.85722 19.2839 8.00224 19.73 8.24784 20.0422C8.4426 20.2897 8.73879 20.4992 9.39598 20.4992C9.62584 20.4992 9.87544 20.4414 10.0939 20.3438C10.3216 20.2422 10.4528 20.1262 10.4998 20.0617L10.5015 20.0594C10.7042 19.781 10.8933 19.3864 11.0881 18.8605Z" fill="#ffffff"/>
</svg>