<svg width="180" height="180" viewBox="0 0 180 180" fill="none" xmlns="http://www.w3.org/2000/svg">
<path d="M62.5804 176.294C45.8687 177.544 25.9236 182.056 11.2726 171.706C-2.46527 161.94 -3.36996 144.747 7.05075 132.066C12.4286 125.476 22.3635 134.237 16.9772 140.742C10.192 149.005 12.8391 158.434 22.1876 162.861C27.5655 165.446 33.8564 165.032 39.6448 164.694C47.008 164.195 54.3712 163.604 61.7343 163.021C70.1111 162.438 71.0242 175.626 62.5804 176.294Z" fill="url(#paint0_linear_4909_160471)"/>
<path d="M132.752 81.6519C128.782 63.7073 128.614 52.606 125.305 35.6667L119.593 9.375L105.855 16.3028C102.713 15.4664 99.237 15.2974 95.4255 16.0493C93.4402 16.3873 89.1346 18.0516 89.1346 18.0516L75.648 14.5455C75.648 14.5455 77.5495 28.815 78.0437 39.9163C78.873 59.1113 74.316 73.4653 69.6837 86.4C62.8147 105.764 46.346 121.706 43.7827 135.393C40.8006 151.335 48.415 173.698 63.887 177.289C71.9957 179.207 93.2643 177.956 105.595 176.951C119.333 175.785 127.525 174.611 136.539 173.614C144.983 172.608 158.05 154.588 149.196 128.634C145.251 117.203 137.804 104.598 132.752 81.6519Z" fill="url(#paint1_linear_4909_160471)"/>
<path d="M144.698 79.5415L154.951 55.3366C155.512 52.8696 158.025 51.3489 160.429 51.991C162.875 52.557 164.383 55.0916 163.747 57.5163L160.304 81.8649C159.34 88.8349 156.182 95.2895 151.165 100.156C144.798 106.366 134.528 111.046 119.45 103.147L132.409 80.7243C132.409 80.7243 133.205 81.6706 134.587 82.583C138.198 84.9908 143.073 83.5123 144.698 79.5415Z" fill="#FFD590"/>
<path d="M104.205 51.769C103.543 51.769 102.965 51.2706 102.881 50.6032L102.136 44.8413C102.052 44.0894 102.546 43.4219 103.292 43.3374C104.037 43.253 104.699 43.7514 104.783 44.5033L105.528 50.2652C105.612 51.0171 105.109 51.6846 104.372 51.769C104.372 51.769 104.288 51.769 104.205 51.769Z" fill="#33312D"/>
<path d="M98.9938 42.173C98.8262 40.5847 100.895 40.0863 102.805 39.9173C104.707 39.7483 106.692 39.5794 106.86 41.1677C107.027 42.756 105.285 45.5102 103.299 45.6707C101.39 45.7637 99.1529 43.7614 98.9938 42.173Z" fill="#33312D"/>
<path d="M93.5908 179.924C97.6535 179.341 100.033 177.423 99.932 171.416L100.954 121.925C100.376 117.827 88.3469 114.186 84.2758 114.769L84.6695 116.501C80.6068 117.084 72.7661 121.181 73.3441 125.279L85.1554 173.528C85.7334 177.626 89.5281 180.506 93.5908 179.924Z" fill="#FFD590"/>
<path d="M124.443 6.79632C114.424 7.62428 106.567 15.2026 104.883 24.7325C104.757 26.0082 104.741 27.3177 104.85 28.6441C105.83 40.6748 116.301 49.6218 128.229 48.6333C130.499 48.4474 132.66 47.9067 134.662 47.0788C136.329 35.6311 134.621 16.0728 130.801 7.2103C128.774 6.76253 126.629 6.61046 124.443 6.79632Z" fill="#FFD590"/>
<path d="M118.348 33.6943C121.158 33.5476 123.3 30.7995 123.133 27.5562C122.967 24.3129 120.555 21.8026 117.746 21.9493C114.936 22.0959 112.794 24.8441 112.96 28.0874C113.127 31.3307 115.539 33.841 118.348 33.6943Z" fill="#120B09"/>
<path d="M91.7764 38.7237C93.3427 38.6419 94.5373 37.1099 94.4445 35.3018C94.3516 33.4938 93.0067 32.0944 91.4404 32.1761C89.8741 32.2579 88.6796 33.7899 88.7724 35.598C88.8652 37.406 90.2101 38.8054 91.7764 38.7237Z" fill="#120B09"/>
<path d="M179.596 67.3312L177.25 70.3473C176.605 71.1837 175.407 71.3273 174.578 70.6683L145.025 47.2744L149.724 41.2422L179.278 64.6361C180.098 65.2951 180.241 66.4948 179.596 67.3312Z" fill="url(#paint2_linear_4909_160471)"/>
<path d="M105.109 10.8023C95.56 23.0695 97.6793 40.8198 109.842 50.4427C122.005 60.074 139.605 57.9365 149.146 45.6693C158.696 33.4021 156.576 15.6518 144.413 6.02891C132.25 -3.60238 114.651 -1.46491 105.109 10.8023ZM142.964 40.7691C136.104 49.5894 123.446 51.127 114.701 44.2077C105.956 37.2884 104.431 24.5227 111.292 15.7024C118.152 6.88221 130.809 5.34458 139.555 12.2639C148.3 19.1832 149.825 31.9489 142.964 40.7691Z" fill="#72ACF1"/>
<defs>
<linearGradient id="paint0_linear_4909_160471" x1="6.63535" y1="154.035" x2="75.1152" y2="154.035" gradientUnits="userSpaceOnUse">
<stop stop-color="#FFD590"/>
<stop offset="1" stop-color="#D28D29"/>
</linearGradient>
<linearGradient id="paint1_linear_4909_160471" x1="97.5436" y1="129.646" x2="98.654" y2="254.056" gradientUnits="userSpaceOnUse">
<stop stop-color="#FFD590"/>
<stop offset="1" stop-color="#D28D29"/>
</linearGradient>
<linearGradient id="paint2_linear_4909_160471" x1="152.963" y1="33.441" x2="168.946" y2="71.419" gradientUnits="userSpaceOnUse">
<stop offset="0.000351356" stop-color="#2970B8"/>
<stop offset="0.4722" stop-color="#72ACF1"/>
</linearGradient>
</defs>
</svg>
