<svg width="37" height="37" viewBox="0 0 37 37" fill="none" xmlns="http://www.w3.org/2000/svg">
  <g clip-path="url(#clip0_1356_175058)">
    <path d="M36.4714 36.4721L26.7303 31.5926C25.8161 31.8063 24.8842 31.9132 23.9344 31.9132C22.759 31.9132 21.6193 31.7529 20.5152 31.4323C19.4111 31.1118 18.3723 30.6607 17.3987 30.0789C16.4252 29.4972 15.5467 28.7789 14.7631 27.9241C13.9795 27.0693 13.3147 26.1195 12.7686 25.0748C12.2581 25.0748 11.7535 25.051 11.2549 25.0035C10.7562 24.9561 10.2576 24.873 9.75896 24.7542L0 29.6337L3.97126 21.6734C2.70093 20.4862 1.72147 19.1031 1.03288 17.524C0.344294 15.945 0 14.2829 0 12.5377C0 11.3861 0.148403 10.2761 0.445208 9.20756C0.742013 8.13906 1.16348 7.1418 1.7096 6.21576C2.25572 5.28973 2.90869 4.44087 3.66851 3.66917C4.42834 2.89748 5.27126 2.24451 6.1973 1.71026C7.12333 1.17601 8.12653 0.754545 9.2069 0.445868C10.2873 0.13719 11.3973 -0.0112126 12.5371 0.000659568C13.7124 0.000659568 14.8521 0.160934 15.9563 0.481484C17.0604 0.802034 18.0992 1.25318 19.0727 1.83492C20.0462 2.41666 20.9248 3.13492 21.7083 3.98972C22.4919 4.84452 23.1568 5.7943 23.7029 6.83906C24.8782 6.83906 26.0061 6.98152 27.0865 7.26646C28.1668 7.55139 29.1819 7.96692 30.1317 8.51304C31.0815 9.05916 31.9422 9.70026 32.7139 10.4363C33.4856 11.1724 34.1564 12.0094 34.7262 12.9473C35.2961 13.8852 35.7235 14.8944 36.0084 15.9747C36.2934 17.0551 36.4477 18.1889 36.4714 19.3761C36.4714 21.1213 36.1272 22.7834 35.4386 24.3624C34.75 25.9414 33.7705 27.3305 32.5002 28.5296L36.4714 36.4721ZM25.0741 27.3542V25.0748H22.7947V27.3542H25.0741ZM9.68773 22.4035C10.0439 22.4866 10.4001 22.5638 10.7562 22.635C11.1124 22.7063 11.4804 22.7538 11.8603 22.7775C11.5517 21.6496 11.3973 20.5158 11.3973 19.3761C11.3973 17.904 11.6407 16.4971 12.1275 15.1555C12.6142 13.814 13.2909 12.603 14.1576 11.5226C15.0243 10.4423 16.0631 9.51624 17.2741 8.74455C18.485 7.97285 19.8088 7.43267 21.2453 7.12399C20.7704 6.37604 20.2184 5.70526 19.5892 5.11165C18.9599 4.51804 18.2654 4.00753 17.5056 3.58013C16.7458 3.15273 15.9563 2.83218 15.1371 2.61848C14.3179 2.40478 13.4512 2.292 12.5371 2.28012C11.1243 2.28012 9.79458 2.54725 8.548 3.0815C7.30141 3.61575 6.21511 4.35183 5.28907 5.28973C4.36304 6.22764 3.6329 7.31394 3.09865 8.54866C2.5644 9.78337 2.29134 11.1131 2.27947 12.5377C2.27947 13.9861 2.55846 15.3455 3.11646 16.6158C3.67445 17.8862 4.48176 19.0199 5.53839 20.0172L6.78497 21.1748C6.51191 21.7446 6.23291 22.3026 5.94798 22.8487C5.66305 23.3949 5.37811 23.9588 5.09318 24.5405L9.47403 22.3501L9.68773 22.4035ZM21.6549 15.9569C21.6549 15.6364 21.7143 15.3396 21.833 15.0665C21.9517 14.7934 22.112 14.556 22.3138 14.3542C22.5157 14.1523 22.759 13.9861 23.044 13.8555C23.3289 13.7249 23.6257 13.6656 23.9344 13.6775C24.2549 13.6775 24.5517 13.7368 24.8248 13.8555C25.0979 13.9743 25.3353 14.1345 25.5371 14.3364C25.739 14.5382 25.9052 14.7816 26.0358 15.0665C26.1664 15.3514 26.2257 15.6482 26.2139 15.9569C26.2139 16.3012 26.1307 16.6099 25.9645 16.8829C25.7983 17.156 25.5906 17.4231 25.3412 17.6843C25.0919 17.9455 24.8129 18.2067 24.5043 18.4679C24.1956 18.7291 23.9225 19.0259 23.6851 19.3583C23.4476 19.6907 23.2339 20.0647 23.044 20.4802C22.854 20.8958 22.7709 21.3825 22.7947 21.9405V22.7953H25.0741V22.2611C25.0741 21.9524 25.0979 21.6615 25.1454 21.3885C25.1928 21.1154 25.3412 20.8542 25.5906 20.6049C25.9467 20.2487 26.297 19.9104 26.6413 19.5898C26.9855 19.2693 27.3002 18.925 27.5851 18.5569C27.87 18.1889 28.0897 17.803 28.244 17.3994C28.3983 16.9957 28.4814 16.5149 28.4933 15.9569C28.4933 15.3277 28.3746 14.74 28.1372 14.1939C27.8997 13.6478 27.5732 13.161 27.1577 12.7336C26.7422 12.3062 26.2613 11.9797 25.7152 11.7542C25.1691 11.5286 24.5755 11.4099 23.9344 11.398C23.3052 11.398 22.7175 11.5167 22.1714 11.7542C21.6252 11.9916 21.1385 12.3181 20.7111 12.7336C20.2837 13.1491 19.9572 13.63 19.7316 14.1761C19.5061 14.7222 19.3873 15.3158 19.3755 15.9569H21.6549Z" fill="white" />
  </g>
  <defs>
    <clipPath id="clip0_1356_175058">
      <rect width="36.4714" height="36.4714" fill="white" />
    </clipPath>
  </defs>
</svg>